<svg width="76" height="65" viewBox="0 0 76 65" fill="none" xmlns="http://www.w3.org/2000/svg">
<path d="M0 7.99512C0 12.4134 3.58172 15.9951 8 15.9951C12.4183 15.9951 16 12.4134 16 7.99512C16 3.57684 12.4183 -0.00488281 8 -0.00488281C3.58172 -0.00488281 0 3.57684 0 7.99512ZM60 56.9951C60 61.4134 63.5817 64.9951 68 64.9951C72.4183 64.9951 76 61.4134 76 56.9951C76 52.5768 72.4183 48.9951 68 48.9951C63.5817 48.9951 60 52.5768 60 56.9951ZM8 9.49512C17.1248 9.49512 23.1218 12.416 27.5822 16.7296C32.1162 21.1145 35.1398 27.0032 38.1529 33.1549C41.1183 39.2093 44.0916 45.5667 48.5239 50.3575C53.046 55.2454 59.0648 58.4951 68 58.4951V55.4951C59.9352 55.4951 54.704 52.6199 50.7261 48.3202C46.6584 43.9235 43.8817 38.031 40.8471 31.8353C37.8602 25.737 34.6338 19.3757 29.6678 14.5731C24.6282 9.69928 17.8752 6.49512 8 6.49512V9.49512Z" fill="#F41E1E"/>
</svg>
