<svg width="50" height="50" viewBox="0 0 50 50" fill="none" xmlns="http://www.w3.org/2000/svg">
<g clip-path="url(#clip0_217_18)">
<path d="M31.7761 27.6625L27.0698 25.4895C24.2094 24.1677 20.5927 25.5666 17.9802 28.6677L13.8729 26.4229C12.9615 25.9989 11.6781 26.775 11.0688 28.0895C10.773 28.6985 10.666 29.3819 10.7615 30.052C10.7867 30.3073 10.8731 30.5528 11.0135 30.7675C11.1539 30.9822 11.344 31.1599 11.5677 31.2854L15.3709 33.3687C13.7969 38.1166 14.9781 42.8656 18.3313 44.4104L23.0365 46.5823C23.7741 46.9213 24.5768 47.0952 25.3886 47.0916C26.7417 47.0603 28.0614 46.6644 29.2084 45.9458C31.3873 44.5754 33.1057 42.5835 34.1417 40.227C36.5511 35.0177 35.4896 29.375 31.7761 27.6625ZM12.3427 29.9343C12.3232 29.8887 12.3095 29.8407 12.3021 29.7916C12.2628 29.4339 12.3268 29.0724 12.4865 28.75C12.6328 28.3713 12.9135 28.0598 13.275 27.875L17.0313 29.9302C16.6283 30.5393 16.2717 31.1779 15.9646 31.8406C15.9563 31.8604 15.949 31.8802 15.9396 31.9L12.3427 29.9343ZM17.3834 32.5C19.4313 28.0656 23.4813 25.5593 26.4156 26.9114L27.5688 27.4448C26.8805 27.6459 26.2204 27.9332 25.6042 28.3C23.4252 29.67 21.7069 31.6615 20.6709 34.0177C19.5496 36.3349 19.1476 38.9346 19.5167 41.4823C19.6382 42.1888 19.8482 42.8772 20.1417 43.5312L18.9959 43C16.0552 41.6416 15.3354 36.9312 17.3834 32.5ZM32.724 39.5833C31.8199 41.6521 30.3181 43.4034 28.4115 44.6125C27.7315 45.0869 26.945 45.3861 26.1216 45.4835C25.2982 45.5809 24.4636 45.4735 23.6917 45.1708C22.9607 44.7788 22.3379 44.2124 21.8783 43.5219C21.4188 42.8314 21.1368 42.0381 21.0573 41.2125C20.7406 38.9768 21.0998 36.6976 22.0886 34.6677C22.9921 32.5986 24.494 30.8471 26.4011 29.6385C27.3074 29.0666 28.3506 28.7482 29.4219 28.7166C30.0064 28.7131 30.5847 28.8368 31.1167 29.0791C34.0521 30.4343 34.7719 35.1448 32.724 39.5833Z" fill="white"/>
<path d="M12.9792 36.9843C12.3723 37.2968 11.7044 37.4729 11.0223 37.5005C10.3402 37.528 9.66036 37.4062 9.03024 37.1436C7.3344 36.3603 6.30211 34.3572 6.26982 31.7843C6.26708 31.5789 6.18356 31.3828 6.03735 31.2385C5.89113 31.0943 5.69398 31.0134 5.48857 31.0134H5.47815C5.37556 31.0148 5.27423 31.0363 5.17996 31.0769C5.0857 31.1174 5.00034 31.1761 4.92876 31.2496C4.85718 31.3231 4.80078 31.41 4.76278 31.5053C4.72479 31.6006 4.70594 31.7025 4.70732 31.8051C4.71006 33.0803 4.97677 34.3411 5.49065 35.5082L4.32399 34.9707C3.59303 34.5786 2.97009 34.0122 2.51039 33.3217C2.05068 32.6312 1.7684 31.838 1.68857 31.0124C1.37272 28.7767 1.7322 26.4976 2.72086 24.4676C3.62472 22.3987 5.12654 20.6473 7.03336 19.4384C7.71348 18.9648 8.49977 18.6661 9.32277 18.5685C10.1458 18.4709 10.9801 18.5776 11.7521 18.879C11.7677 18.8869 11.7837 18.8938 11.8 18.8999L12.9323 19.4207C11.3848 19.972 9.96953 20.8405 8.77719 21.9706C7.58486 23.1007 6.64177 24.4674 6.00836 25.9832C5.55318 26.963 5.21004 27.991 4.98545 29.0478C4.94254 29.2504 4.98187 29.4618 5.09477 29.6355C5.20767 29.8091 5.38491 29.9308 5.58753 29.9738C5.64133 29.985 5.69613 29.9906 5.75107 29.9905C5.92996 29.9903 6.10333 29.9286 6.24215 29.8157C6.38097 29.7029 6.47679 29.5458 6.51357 29.3707C6.71445 28.4286 7.02054 27.5121 7.42607 26.6384C9.47399 22.2051 13.525 19.6926 16.4584 21.0509C17.2213 21.4643 17.8667 22.0647 18.3339 22.796C18.8011 23.5272 19.0747 24.3651 19.1292 25.2311C19.1438 25.3327 19.1783 25.4304 19.2307 25.5186C19.2831 25.6069 19.3524 25.6839 19.4345 25.7454C19.5167 25.8069 19.6102 25.8515 19.7096 25.8769C19.8091 25.9022 19.9125 25.9077 20.0141 25.8931C20.1157 25.8785 20.2134 25.844 20.3016 25.7916C20.3898 25.7392 20.4669 25.6699 20.5284 25.5878C20.5898 25.5056 20.6345 25.4121 20.6598 25.3127C20.6852 25.2132 20.6907 25.1098 20.6761 25.0082C20.5823 23.8848 20.2067 22.8032 19.584 21.8635C18.9613 20.9238 18.1116 20.1563 17.1136 19.6322L12.4094 17.4582C12.3924 17.45 12.375 17.4427 12.3573 17.4363C11.3612 17.0369 10.2823 16.8878 9.21518 17.0022C8.14806 17.1167 7.12529 17.491 6.23649 18.0926C4.05779 19.4629 2.33949 21.4544 1.30315 23.8103C-1.10622 29.0343 -0.0458047 34.6749 3.66878 36.3905L8.37503 38.5624C9.11013 38.8981 9.90961 39.0695 10.7177 39.0645C11.7195 39.0528 12.7077 38.8303 13.6177 38.4113C13.807 38.3267 13.9548 38.1703 14.0288 37.9766C14.1027 37.7829 14.0967 37.5678 14.012 37.3785C13.9273 37.1893 13.7709 37.0414 13.5773 36.9675C13.3836 36.8935 13.1684 36.8996 12.9792 36.9843Z" fill="white"/>
<path d="M36.7281 31.8353C36.5209 31.8378 36.3232 31.9225 36.1784 32.0708C36.0337 32.2191 35.9537 32.4188 35.9562 32.626C35.9587 32.8332 36.0434 33.0309 36.1917 33.1756C36.34 33.3204 36.5397 33.4003 36.7469 33.3978H36.7708C37.7891 33.3724 38.7818 33.0736 39.6449 32.5329C40.5081 31.9921 41.2101 31.2292 41.6772 30.3241C42.1444 29.419 42.3597 28.4049 42.3004 27.3881C42.2412 26.3712 41.9097 25.389 41.3406 24.5442C40.7715 23.6994 39.9858 23.0232 39.0657 22.5863C38.1456 22.1494 37.1249 21.9679 36.1106 22.0608C35.0962 22.1537 34.1255 22.5176 33.3001 23.1144C32.4747 23.7112 31.8249 24.5189 31.4187 25.453C31.3358 25.643 31.3318 25.8581 31.4075 26.051C31.4832 26.2439 31.6324 26.3988 31.8224 26.4817C32.0123 26.5646 32.2274 26.5686 32.4203 26.4929C32.6132 26.4172 32.7681 26.268 32.851 26.078C33.1454 25.4008 33.6164 24.8152 34.2147 24.3825C34.8131 23.9498 35.5168 23.6859 36.2521 23.6185C36.9874 23.551 37.7274 23.6825 38.3945 23.9991C39.0615 24.3157 39.6312 24.8059 40.0439 25.4182C40.4566 26.0306 40.697 26.7426 40.7401 27.4798C40.7831 28.2169 40.6272 28.9521 40.2887 29.6083C39.9501 30.2646 39.4414 30.8177 38.8157 31.2099C38.1901 31.602 37.4705 31.8188 36.7323 31.8374L36.7281 31.8353Z" fill="white"/>
<path d="M48.6761 6.78017C47.9197 5.59048 46.8746 4.6115 45.6381 3.93434C44.4017 3.25718 43.014 2.90385 41.6042 2.90725H31.7344C30.3254 2.90748 28.9392 3.26248 27.7035 3.93951C26.4679 4.61654 25.4226 5.5938 24.664 6.78117C23.9055 7.96853 23.4581 9.32778 23.3632 10.7336C23.2683 12.1393 23.5288 13.5464 24.1209 14.825L26.7552 20.5114C26.1563 21.3323 25.6612 22.2242 25.2813 23.1666C25.2092 23.3579 25.2149 23.5698 25.2972 23.7568C25.3796 23.9439 25.5319 24.0913 25.7216 24.1673C25.9113 24.2434 26.1233 24.2421 26.3121 24.1636C26.5008 24.0852 26.6513 23.936 26.7313 23.7479C27.1065 22.8148 27.6107 21.9389 28.2292 21.1458C28.2378 21.1358 28.2457 21.1254 28.2531 21.1145C28.9445 20.233 29.7715 19.4669 30.7032 18.8448C30.7094 18.8448 30.7125 18.8364 30.7188 18.8343C31.9062 18.0514 33.2382 17.514 34.6365 17.2536C36.0348 16.9933 37.471 17.0153 38.8606 17.3185C40.2502 17.6216 41.5652 18.1997 42.728 19.0187C43.8908 19.8377 44.878 20.8811 45.6315 22.0874C46.385 23.2937 46.8895 24.6386 47.1153 26.0429C47.3412 27.4471 47.2838 28.8823 46.9466 30.2641C46.6094 31.6458 45.9991 32.9461 45.1517 34.0884C44.3044 35.2308 43.237 36.192 42.0125 36.9156H36.6667C36.4595 36.9156 36.2608 36.9979 36.1143 37.1444C35.9678 37.2909 35.8854 37.4896 35.8854 37.6968C35.8854 37.904 35.9678 38.1027 36.1143 38.2493C36.2608 38.3958 36.4595 38.4781 36.6667 38.4781H42.2177C42.352 38.4769 42.4837 38.441 42.6 38.3739C44.101 37.5357 45.4076 36.3894 46.4341 35.0104C47.4605 33.6314 48.1837 32.0508 48.5559 30.3724C48.9282 28.6941 48.9412 26.956 48.594 25.2722C48.2469 23.5885 47.5475 21.9973 46.5417 20.6031L49.2188 14.8239C49.814 13.5462 50.0764 12.1387 49.9815 10.7323C49.8866 9.3259 49.4375 7.96637 48.6761 6.78017ZM47.8011 14.1677L45.4365 19.2718C44.966 18.7837 44.4559 18.3353 43.9115 17.9312L46.0334 13.3479C46.3779 12.6043 46.5295 11.7858 46.4743 10.9682C46.4191 10.1505 46.1588 9.35986 45.7175 8.6693C45.2761 7.97874 44.6679 7.41047 43.9491 7.01695C43.2302 6.62343 42.4237 6.41733 41.6042 6.41767H40.625C40.4178 6.41767 40.2191 6.49998 40.0726 6.64649C39.9261 6.793 39.8438 6.99172 39.8438 7.19892C39.8438 7.40612 39.9261 7.60483 40.0726 7.75135C40.2191 7.89786 40.4178 7.98017 40.625 7.98017H41.6011C42.1584 7.97969 42.7069 8.11969 43.1959 8.38723C43.6849 8.65477 44.0985 9.04122 44.3986 9.51088C44.6988 9.98054 44.8757 10.5183 44.9131 11.0744C44.9505 11.6305 44.8471 12.1871 44.6125 12.6927L42.5917 17.0625C40.782 16.046 38.743 15.5077 36.6673 15.4984C34.5917 15.4891 32.548 16.0091 30.7292 17.0093L28.7292 12.6927C28.4947 12.1871 28.3913 11.6307 28.4286 11.0746C28.466 10.5186 28.6428 9.98096 28.9428 9.51132C29.2428 9.04169 29.6563 8.65522 30.1451 8.38761C30.634 8.12 31.1823 7.97987 31.7396 7.98017H38.2927C38.4999 7.98017 38.6986 7.89786 38.8452 7.75135C38.9917 7.60483 39.074 7.40612 39.074 7.19892C39.074 6.99172 38.9917 6.793 38.8452 6.64649C38.6986 6.49998 38.4999 6.41767 38.2927 6.41767H31.7344C30.9149 6.41789 30.1086 6.62444 29.3899 7.01829C28.6712 7.41214 28.0632 7.9806 27.6221 8.67126C27.1809 9.36191 26.9207 10.1525 26.8655 10.9702C26.8103 11.7879 26.9619 12.6063 27.3063 13.35L29.3959 17.8593C28.8496 18.2592 28.3377 18.7042 27.8656 19.1895L25.5396 14.1666C25.0572 13.1262 24.8446 11.9811 24.9216 10.8369C24.9985 9.69272 25.3623 8.58633 25.9796 7.61987C26.5969 6.6534 27.4477 5.858 28.4535 5.30708C29.4593 4.75616 30.5876 4.46748 31.7344 4.46767H41.6042C42.7509 4.46748 43.8792 4.7561 44.885 5.30689C45.8908 5.85768 46.7416 6.6529 47.3591 7.61919C47.9765 8.58548 48.3407 9.69171 48.4179 10.8358C48.4952 11.9799 48.283 13.1251 47.8011 14.1656V14.1677Z" fill="white"/>
</g>
<defs>
<clipPath id="clip0_217_18">
<rect width="50" height="50" fill="white"/>
</clipPath>
</defs>
</svg>
