<svg width="200" height="200" viewBox="0 0 200 200" fill="none" xmlns="http://www.w3.org/2000/svg">
<g clip-path="url(#clip0_217_23)">
<path d="M127.104 110.65L108.279 101.958C96.8375 96.6707 82.3709 102.267 71.9209 114.671L55.4917 105.692C51.8459 103.996 46.7125 107.1 44.275 112.358C43.092 114.794 42.664 117.528 43.0459 120.208C43.1467 121.229 43.4925 122.211 44.054 123.07C44.6155 123.929 45.3759 124.639 46.2709 125.142L61.4834 133.475C55.1875 152.467 59.9125 171.462 73.325 177.642L92.1459 186.329C95.0961 187.685 98.3071 188.381 101.554 188.367C106.967 188.241 112.245 186.658 116.833 183.783C125.549 178.302 132.423 170.334 136.567 160.908C146.204 140.071 141.958 117.5 127.104 110.65ZM49.3709 119.737C49.2927 119.555 49.238 119.363 49.2084 119.167C49.0511 117.736 49.307 116.29 49.9459 115C50.5312 113.485 51.6541 112.239 53.1 111.5L68.125 119.721C66.513 122.157 65.0867 124.712 63.8584 127.362C63.825 127.442 63.7959 127.521 63.7584 127.6L49.3709 119.737ZM69.5334 130C77.725 112.262 93.925 102.237 105.663 107.646L110.275 109.779C107.522 110.583 104.881 111.733 102.417 113.2C93.7009 118.68 86.8274 126.646 82.6834 136.071C78.1981 145.339 76.5902 155.739 78.0667 165.929C78.5528 168.755 79.3927 171.509 80.5667 174.125L75.9834 172C64.2209 166.567 61.3417 147.725 69.5334 130ZM130.896 158.333C127.28 166.608 121.272 173.614 113.646 178.45C110.926 180.348 107.78 181.544 104.486 181.934C101.193 182.324 97.8542 181.894 94.7667 180.683C91.8429 179.115 89.3514 176.849 87.5132 174.087C85.6751 171.325 84.547 168.152 84.2292 164.85C82.9625 155.907 84.399 146.79 88.3542 138.671C91.9683 130.394 97.9759 123.388 105.604 118.554C109.23 116.266 113.402 114.993 117.688 114.867C120.026 114.853 122.339 115.347 124.467 116.317C136.208 121.737 139.088 140.579 130.896 158.333Z" fill="#252A31"/>
<path d="M51.9167 147.937C49.489 149.187 46.8176 149.892 44.0892 150.002C41.3608 150.112 38.6413 149.625 36.1208 148.575C29.3375 145.441 25.2083 137.429 25.0792 127.137C25.0682 126.315 24.7341 125.531 24.1493 124.954C23.5644 124.377 22.7758 124.054 21.9542 124.054H21.9125C21.5021 124.059 21.0968 124.145 20.7197 124.307C20.3427 124.47 20.0012 124.704 19.7149 124.998C19.4286 125.292 19.203 125.64 19.051 126.021C18.899 126.402 18.8237 126.81 18.8292 127.22C18.8401 132.321 19.9069 137.365 21.9625 142.033L17.2958 139.883C14.372 138.314 11.8802 136.049 10.0414 133.287C8.2026 130.525 7.07349 127.352 6.75416 124.05C5.49077 115.107 6.92868 105.99 10.8833 97.8703C14.4987 89.5947 20.506 82.5891 28.1333 77.7537C30.8538 75.8593 33.999 74.6642 37.291 74.274C40.5829 73.8838 43.9204 74.3104 47.0083 75.5162C47.0706 75.5474 47.1346 75.5753 47.2 75.5995L51.7292 77.6828C45.5391 79.8881 39.878 83.3622 35.1086 87.8825C30.3393 92.4029 26.567 97.8698 24.0333 103.933C22.2126 107.852 20.84 111.964 19.9417 116.191C19.7701 117.002 19.9273 117.847 20.379 118.542C20.8306 119.236 21.5395 119.723 22.35 119.895C22.5652 119.94 22.7844 119.962 23.0042 119.962C23.7197 119.961 24.4132 119.714 24.9685 119.263C25.5237 118.812 25.907 118.183 26.0542 117.483C26.8577 113.715 28.082 110.049 29.7042 106.554C37.8958 88.8203 54.1 78.7703 65.8333 84.2037C68.8851 85.8571 71.4666 88.259 73.3353 91.1838C75.2041 94.1087 76.2988 97.4605 76.5167 100.925C76.5752 101.331 76.7132 101.722 76.9228 102.074C77.1323 102.427 77.4094 102.736 77.7381 102.982C78.0667 103.227 78.4406 103.406 78.8384 103.508C79.2361 103.609 79.65 103.631 80.0562 103.572C80.4625 103.514 80.8533 103.376 81.2062 103.166C81.5592 102.957 81.8674 102.68 82.1133 102.351C82.3592 102.022 82.5379 101.648 82.6393 101.251C82.7407 100.853 82.7627 100.439 82.7042 100.033C82.3291 95.5392 80.8266 91.2129 78.3358 87.454C75.845 83.6952 72.4463 80.6254 68.4542 78.5287L49.6375 69.8328C49.5696 69.8002 49.5 69.771 49.4292 69.7453C45.4447 68.1475 41.1291 67.5513 36.8606 68.009C32.5921 68.4666 28.501 69.9641 24.9458 72.3703C16.231 77.8515 9.35786 85.8174 5.21249 95.2412C-4.42501 116.137 -0.183341 138.7 14.675 145.562L33.5 154.25C36.4404 155.592 39.6383 156.278 42.8708 156.258C46.8781 156.211 50.8305 155.321 54.4708 153.645C55.2278 153.307 55.8192 152.681 56.115 151.906C56.4107 151.132 56.3866 150.271 56.0479 149.514C55.7092 148.757 55.0837 148.166 54.3089 147.87C53.5341 147.574 52.6736 147.598 51.9167 147.937Z" fill="#252A31"/>
<path d="M146.912 127.341C146.084 127.351 145.293 127.69 144.714 128.283C144.135 128.876 143.815 129.675 143.825 130.504C143.835 131.333 144.174 132.124 144.767 132.703C145.36 133.282 146.159 133.601 146.987 133.591H147.083C151.156 133.49 155.127 132.295 158.58 130.131C162.033 127.968 164.84 124.917 166.709 121.296C168.578 117.676 169.439 113.62 169.202 109.552C168.965 105.485 167.639 101.556 165.363 98.1768C163.086 94.7977 159.943 92.0927 156.263 90.3451C152.582 88.5975 148.5 87.8715 144.442 88.2432C140.385 88.6148 136.502 90.0705 133.2 92.4576C129.899 94.8448 127.3 98.0758 125.675 101.812C125.343 102.572 125.327 103.432 125.63 104.204C125.933 104.975 126.53 105.595 127.29 105.927C128.049 106.258 128.91 106.274 129.681 105.972C130.453 105.669 131.073 105.072 131.404 104.312C132.582 101.603 134.466 99.2609 136.859 97.5301C139.252 95.7992 142.067 94.7436 145.008 94.4738C147.95 94.204 150.91 94.7299 153.578 95.9964C156.246 97.2629 158.525 99.2235 160.176 101.673C161.826 104.122 162.788 106.97 162.96 109.919C163.133 112.868 162.509 115.808 161.155 118.433C159.801 121.058 157.766 123.271 155.263 124.84C152.76 126.408 149.882 127.275 146.929 127.35L146.912 127.341Z" fill="#252A31"/>
<path d="M194.704 27.1207C191.679 22.3619 187.498 18.446 182.552 15.7374C177.607 13.0287 172.056 11.6154 166.417 11.629H126.937C121.302 11.6299 115.757 13.0499 110.814 15.758C105.871 18.4662 101.69 22.3752 98.6559 27.1247C95.6218 31.8741 93.8323 37.3111 93.4526 42.9343C93.0729 48.5574 94.1152 54.1856 96.4833 59.2998L107.021 82.0457C104.625 85.3292 102.645 88.8966 101.125 92.6665C100.837 93.4315 100.86 94.2791 101.189 95.0274C101.518 95.7757 102.128 96.3652 102.886 96.6693C103.645 96.9735 104.493 96.9682 105.248 96.6546C106.003 96.3409 106.605 95.7439 106.925 94.9915C108.426 91.2591 110.443 87.7556 112.917 84.5832C112.951 84.5433 112.983 84.5016 113.012 84.4582C115.778 80.932 119.086 77.8674 122.812 75.379C122.837 75.379 122.85 75.3457 122.875 75.3373C127.625 72.2056 132.953 70.0558 138.546 69.0145C144.139 67.9732 149.884 68.0614 155.442 69.2739C161.001 70.4864 166.261 72.7988 170.912 76.0748C175.563 79.3509 179.512 83.5244 182.526 88.3496C185.54 93.1749 187.558 98.5544 188.461 104.171C189.365 109.788 189.135 115.529 187.786 121.056C186.437 126.583 183.996 131.785 180.607 136.354C177.217 140.923 172.948 144.768 168.05 147.662H146.667C145.838 147.662 145.043 147.992 144.457 148.578C143.871 149.164 143.542 149.959 143.542 150.787C143.542 151.616 143.871 152.411 144.457 152.997C145.043 153.583 145.838 153.912 146.667 153.912H168.871C169.408 153.908 169.935 153.764 170.4 153.496C176.404 150.143 181.63 145.558 185.736 140.042C189.842 134.525 192.735 128.203 194.224 121.49C195.713 114.776 195.765 107.824 194.376 101.089C192.987 94.3541 190.19 87.9892 186.167 82.4123L196.875 59.2957C199.256 54.1847 200.305 48.5546 199.926 42.9291C199.546 37.3036 197.75 31.8655 194.704 27.1207ZM191.204 56.6707L181.746 77.0873C179.864 75.1347 177.824 73.3411 175.646 71.7248L184.133 53.3915C185.511 50.417 186.118 47.1433 185.897 43.8726C185.676 40.6019 184.635 37.4394 182.87 34.6772C181.104 31.9149 178.672 29.6419 175.796 28.0678C172.921 26.4937 169.695 25.6693 166.417 25.6707H162.5C161.671 25.6707 160.876 25.9999 160.29 26.586C159.704 27.172 159.375 27.9669 159.375 28.7957C159.375 29.6245 159.704 30.4193 160.29 31.0054C160.876 31.5914 161.671 31.9207 162.5 31.9207H166.404C168.634 31.9188 170.828 32.4788 172.783 33.5489C174.739 34.6191 176.394 36.1649 177.594 38.0435C178.795 39.9222 179.503 42.0731 179.652 44.2975C179.802 46.522 179.388 48.7483 178.45 50.7707L170.367 68.2498C163.128 64.184 154.972 62.0307 146.669 61.9936C138.367 61.9564 130.192 64.0365 122.917 68.0373L114.917 50.7707C113.979 48.7486 113.565 46.5227 113.714 44.2986C113.864 42.0745 114.571 39.9238 115.771 38.0453C116.971 36.1668 118.625 34.6209 120.58 33.5504C122.536 32.48 124.729 31.9195 126.958 31.9207H153.171C154 31.9207 154.794 31.5914 155.381 31.0054C155.967 30.4193 156.296 29.6245 156.296 28.7957C156.296 27.9669 155.967 27.172 155.381 26.586C154.794 25.9999 154 25.6707 153.171 25.6707H126.937C123.659 25.6715 120.434 26.4978 117.559 28.0732C114.685 29.6486 112.253 31.9224 110.488 34.685C108.723 37.4477 107.683 40.6101 107.462 43.8808C107.241 47.1515 107.848 50.4251 109.225 53.3998L117.583 71.4373C115.398 73.037 113.351 74.8168 111.462 76.7582L102.158 56.6665C100.229 52.505 99.3785 47.9245 99.6861 43.3477C99.9937 38.7709 101.449 34.3453 103.918 30.4795C106.388 26.6136 109.791 23.432 113.814 21.2283C117.837 19.0247 122.35 17.8699 126.937 17.8707H166.417C171.003 17.8699 175.517 19.0244 179.54 21.2276C183.563 23.4307 186.966 26.6116 189.436 30.4768C191.906 34.3419 193.363 38.7668 193.672 43.3433C193.981 47.9197 193.132 52.5003 191.204 56.6623V56.6707Z" fill="#252A31"/>
</g>
<defs>
<clipPath id="clip0_217_23">
<rect width="200" height="200" fill="white"/>
</clipPath>
</defs>
</svg>
