<svg width="40" height="40" viewBox="0 0 40 40" fill="none" xmlns="http://www.w3.org/2000/svg">
<g clip-path="url(#clip0_147_8)">
<path d="M39.2188 38.3978H38.2975L36.4898 32.9702C38.6265 31.2792 40 28.6629 40 25.7313C40 21.5966 37.268 18.0885 33.5156 16.9198V13.6902H34.0625C35.3548 13.6902 36.4062 12.6381 36.4062 11.3449C36.4062 10.0518 35.3548 8.99967 34.0625 8.99967H28.2812C26.9889 8.99967 25.9375 10.0518 25.9375 11.3449C25.9375 12.6381 26.9889 13.6902 28.2812 13.6902H28.8281V16.7249C24.7953 17.4523 17.6243 19.8547 12.1222 21.805L7.54133 16.9469C7.54133 16.9469 9.5982 11.0982 9.6007 11.0912C9.56273 11.1991 10.4284 11.8365 10.5496 11.924C11.6624 12.7273 13.2844 12.9945 14.3416 11.9365C15.2492 11.0283 15.27 9.51889 14.4821 8.29975C14.4821 8.29975 16.7379 6.04225 16.7411 6.03912C18.351 4.42795 18.5564 1.98818 16.9107 0.341388C16.6056 0.0359974 16.111 0.0358411 15.8059 0.341154C15.5007 0.646232 15.5006 1.14108 15.8055 1.44631C16.835 2.4767 16.6602 3.9342 15.6529 4.9174C15.6485 4.92162 15.6442 4.92584 15.6399 4.93014L13.438 7.13373C13.438 7.13373 7.42367 1.11475 7.4207 1.11178C6.34422 0.0344349 4.35273 -0.465565 3.15062 0.73756C2.07664 1.81233 2.2443 3.72904 3.52445 5.01022L6.0643 7.55201L1.99773 19.0595C1.90422 19.3247 1.96414 19.6255 2.14789 19.8364L5.87242 24.0696C5.50094 24.206 5.22266 24.308 5.04961 24.3697C2.69859 25.2101 0 26.5687 0 29.6406C0 31.7516 1.23602 33.579 3.0218 34.4366L1.70242 38.3978H0.78125C0.349844 38.3978 0 38.7477 0 39.1794C0 39.611 0.349844 39.9609 0.78125 39.9609H9.375C9.80641 39.9609 10.1562 39.611 10.1562 39.1794C10.1562 38.7477 9.80641 38.3978 9.375 38.3978H6.47445L7.62047 34.9569H30.7812C31.3109 34.9569 31.8302 34.9114 32.3356 34.8251L33.5255 38.3978H30.625C30.1936 38.3978 29.8438 38.7477 29.8438 39.1794C29.8438 39.611 30.1936 39.9609 30.625 39.9609H39.2188C39.6502 39.9609 40 39.611 40 39.1794C40 38.7478 39.6502 38.3978 39.2188 38.3978ZM28.2812 12.1272C27.8505 12.1272 27.5 11.7762 27.5 11.3449C27.5 10.9136 27.8505 10.5627 28.2812 10.5627H34.0625C34.4933 10.5627 34.8438 10.9136 34.8438 11.3449C34.8438 11.7762 34.4933 12.1272 34.0625 12.1272H28.2812ZM31.9531 13.6903V16.5798C31.5693 16.5309 31.1782 16.5056 30.7812 16.5056C30.6599 16.5056 30.5287 16.5107 30.3906 16.5193V13.6903H31.9531ZM4.62945 3.90522C3.96961 3.24483 3.79836 2.30022 4.25578 1.84256C4.8357 1.26217 5.84547 1.74639 6.31562 2.21686L12.8627 8.76904C13.5226 9.42944 13.6938 10.374 13.2365 10.8318C12.6553 11.4133 11.6493 10.9305 11.1766 10.4575L4.62945 3.90522ZM7.28852 8.77733L8.37547 9.86514L6.01125 16.5878L4.16234 17.624L7.28852 8.77733ZM3.95937 19.5294L6.49063 18.1108L10.5149 22.3786C9.36453 22.7916 8.32352 23.1708 7.44586 23.4922L3.95937 19.5294ZM4.82742 38.3978H3.34938L4.51547 34.8969C4.77555 34.9363 5.04164 34.9569 5.3125 34.9569H5.97352L4.82742 38.3978ZM30.7812 33.3939H5.3125C3.24477 33.3939 1.5625 31.7102 1.5625 29.6406C1.5625 27.9612 2.72516 26.8604 5.57531 25.8417C5.80125 25.7609 28.0961 18.0687 30.7812 18.0687C35.0029 18.0687 38.4375 21.5061 38.4375 25.7313C38.4375 29.9565 35.0029 33.3939 30.7812 33.3939ZM35.1726 38.3979L33.8511 34.4304C34.297 34.2723 34.7273 34.0812 35.1389 33.8593L36.6506 38.3979H35.1726Z" fill="white"/>
<path d="M30.0781 20.7277C27.3211 20.7277 25.0781 22.9723 25.0781 25.7313C25.0781 26.0361 25.107 26.3341 25.1594 26.6239L22.5791 27.5265C22.1994 26.7426 21.3962 26.2007 20.4688 26.2007H18.5938C17.3014 26.2007 16.25 27.2528 16.25 28.546C16.25 29.8391 17.3014 30.8913 18.5938 30.8913H20.4688C21.561 30.8913 22.4811 30.1396 22.7398 29.1261L25.6749 28.0995C26.5202 29.6671 28.1768 30.7348 30.0782 30.7348C32.8352 30.7348 35.0782 28.4902 35.0782 25.7313C35.0782 22.9723 32.8352 20.7277 30.0781 20.7277ZM20.4688 29.3282H18.5938C18.163 29.3282 17.8125 28.9773 17.8125 28.546C17.8125 28.1147 18.163 27.7638 18.5938 27.7638H20.4688C20.8995 27.7638 21.25 28.1147 21.25 28.546C21.25 28.9773 20.8995 29.3282 20.4688 29.3282ZM30.0781 29.1718C28.8597 29.1718 27.788 28.5334 27.1774 27.5739L30.336 26.4691C30.7433 26.3266 30.958 25.8809 30.8156 25.4734C30.6733 25.0659 30.2274 24.8511 29.8203 24.9936L26.6605 26.0988C26.6477 25.9781 26.6407 25.8555 26.6407 25.7313C26.6407 23.8341 28.1827 22.2908 30.0782 22.2908C31.9737 22.2908 33.5157 23.8341 33.5157 25.7313C33.5156 27.6284 31.9736 29.1718 30.0781 29.1718Z" fill="white"/>
<path d="M9.1407 27.2977C9.04008 26.9747 8.72391 26.7575 8.39523 26.7514C8.31781 26.75 6.99305 27.1481 6.40781 27.3303L6.39375 27.3351C5.0725 27.7805 4.0625 28.9831 4.0625 30.4222C4.0625 30.8536 4.41328 31.2038 4.84375 31.2038C5.27422 31.2038 5.625 30.8536 5.625 30.4223C5.62508 29.6677 6.19937 29.0514 6.88281 28.8201L8.62734 28.2761C9.0382 28.1479 9.26867 27.7087 9.1407 27.2977Z" fill="white"/>
<path d="M11.4062 27.4172C11.8377 27.4172 12.1875 27.0674 12.1875 26.6359C12.1875 26.2045 11.8377 25.8547 11.4062 25.8547C10.9748 25.8547 10.625 26.2045 10.625 26.6359C10.625 27.0674 10.9748 27.4172 11.4062 27.4172Z" fill="white"/>
</g>
<defs>
<clipPath id="clip0_147_8">
<rect width="40" height="40" fill="white"/>
</clipPath>
</defs>
</svg>
