<svg width="40" height="40" viewBox="0 0 40 40" fill="none" xmlns="http://www.w3.org/2000/svg">
<g clip-path="url(#clip0_147_2)">
<path d="M25.4208 22.13L21.6558 20.3917C19.3675 19.3342 16.4742 20.4533 14.3842 22.9342L11.0984 21.1383C10.3692 20.7992 9.34252 21.42 8.85502 22.4717C8.61842 22.9588 8.53281 23.5055 8.60918 24.0417C8.62935 24.2459 8.69852 24.4422 8.81081 24.614C8.9231 24.7858 9.0752 24.9279 9.25418 25.0283L12.2967 26.695C11.0375 30.4933 11.9825 34.2925 14.665 35.5283L18.4292 37.2658C19.0192 37.5371 19.6614 37.6762 20.3108 37.6733C21.3934 37.6482 22.4491 37.3316 23.3667 36.7567C25.1099 35.6603 26.4845 34.0668 27.3134 32.1817C29.2409 28.0142 28.3917 23.5 25.4208 22.13ZM9.87418 23.9475C9.85854 23.911 9.84762 23.8726 9.84168 23.8333C9.81023 23.5472 9.86141 23.258 9.98918 23C10.1062 22.697 10.3308 22.4478 10.62 22.3L13.625 23.9442C13.3026 24.4315 13.0174 24.9423 12.7717 25.4725C12.765 25.4883 12.7592 25.5042 12.7517 25.52L9.87418 23.9475ZM13.9067 26C15.545 22.4525 18.785 20.4475 21.1325 21.5292L22.055 21.9558C21.5044 22.1167 20.9763 22.3466 20.4833 22.64C18.7402 23.736 17.3655 25.3293 16.5367 27.2142C15.6396 29.0679 15.3181 31.1477 15.6133 33.1858C15.7106 33.751 15.8786 34.3018 16.1134 34.825L15.1967 34.4C12.8442 33.3133 12.2683 29.545 13.9067 26ZM26.1792 31.6667C25.4559 33.3217 24.2545 34.7228 22.7292 35.69C22.1852 36.0695 21.556 36.3089 20.8973 36.3868C20.2386 36.4648 19.5708 36.3788 18.9534 36.1367C18.3686 35.823 17.8703 35.3699 17.5027 34.8175C17.135 34.2651 16.9094 33.6305 16.8458 32.97C16.5925 31.1815 16.8798 29.3581 17.6708 27.7342C18.3937 26.0789 19.5952 24.6777 21.1208 23.7108C21.8459 23.2533 22.6805 22.9986 23.5375 22.9733C24.0051 22.9705 24.4678 23.0695 24.8934 23.2633C27.2417 24.3475 27.8175 28.1158 26.1792 31.6667Z" fill="white"/>
<path d="M10.3833 29.5875C9.89777 29.8375 9.36349 29.9784 8.81782 30.0005C8.27214 30.0225 7.72824 29.9251 7.22414 29.715C5.86747 29.0883 5.04164 27.4858 5.01581 25.4275C5.01362 25.2632 4.9468 25.1063 4.82983 24.9909C4.71286 24.8755 4.55513 24.8108 4.39081 24.8108H4.38247C4.3004 24.8119 4.21934 24.8292 4.14392 24.8616C4.06851 24.894 4.00022 24.9409 3.94296 24.9998C3.88569 25.0586 3.84057 25.1281 3.81018 25.2043C3.77978 25.2806 3.76471 25.3621 3.76581 25.4442C3.768 26.4643 3.98136 27.473 4.39247 28.4067L3.45914 27.9767C2.87437 27.6629 2.37602 27.2098 2.00826 26.6575C1.64049 26.1051 1.41467 25.4705 1.35081 24.81C1.09813 23.0214 1.38571 21.1981 2.17664 19.5742C2.89972 17.919 4.10118 16.5179 5.62664 15.5508C6.17073 15.172 6.79977 14.9329 7.45817 14.8549C8.11656 14.7768 8.78405 14.8622 9.40164 15.1033C9.4141 15.1096 9.4269 15.1151 9.43997 15.12L10.3458 15.5367C9.10779 15.9777 7.97557 16.6725 7.0217 17.5766C6.06784 18.4807 5.31337 19.574 4.80664 20.7867C4.4425 21.5705 4.16798 22.3929 3.98831 23.2383C3.95399 23.4004 3.98544 23.5695 4.07577 23.7085C4.16609 23.8474 4.30788 23.9447 4.46997 23.9792C4.51301 23.9881 4.55685 23.9925 4.60081 23.9925C4.74392 23.9923 4.88262 23.9429 4.99367 23.8527C5.10472 23.7624 5.18138 23.6367 5.21081 23.4967C5.37151 22.743 5.61638 22.0098 5.94081 21.3108C7.57914 17.7642 10.82 15.7542 13.1666 16.8408C13.777 17.1715 14.2933 17.6519 14.667 18.2368C15.0408 18.8218 15.2597 19.4922 15.3033 20.185C15.315 20.2662 15.3426 20.3444 15.3845 20.415C15.4264 20.4856 15.4818 20.5472 15.5476 20.5964C15.6133 20.6456 15.6881 20.6813 15.7677 20.7016C15.8472 20.7219 15.93 20.7263 16.0112 20.7146C16.0925 20.7029 16.1706 20.6753 16.2412 20.6333C16.3118 20.5914 16.3735 20.536 16.4226 20.4703C16.4718 20.4046 16.5076 20.3298 16.5278 20.2502C16.5481 20.1707 16.5525 20.0879 16.5408 20.0067C16.4658 19.1079 16.1653 18.2427 15.6671 17.4909C15.169 16.7391 14.4892 16.1252 13.6908 15.7058L9.92747 13.9667C9.91389 13.9601 9.89998 13.9543 9.88581 13.9492C9.08891 13.6296 8.22579 13.5103 7.3721 13.6019C6.5184 13.6934 5.70018 13.9929 4.98914 14.4742C3.24618 15.5704 1.87155 17.1636 1.04247 19.0483C-0.885026 23.2275 -0.0366926 27.74 2.93497 29.1125L6.69997 30.85C7.28805 31.1186 7.92764 31.2557 8.57414 31.2517C9.37559 31.2423 10.1661 31.0643 10.8941 30.7292C11.0455 30.6614 11.1638 30.5363 11.223 30.3814C11.2821 30.2264 11.2773 30.0543 11.2096 29.9029C11.1418 29.7515 11.0167 29.6332 10.8618 29.5741C10.7068 29.5149 10.5347 29.5197 10.3833 29.5875Z" fill="white"/>
<path d="M29.3824 25.4683C29.2167 25.4703 29.0585 25.5381 28.9427 25.6567C28.8269 25.7753 28.7629 25.9351 28.7649 26.1008C28.7669 26.2666 28.8347 26.4248 28.9533 26.5406C29.0719 26.6564 29.2317 26.7203 29.3974 26.7183H29.4166C30.2312 26.698 31.0254 26.459 31.7159 26.0264C32.4065 25.5938 32.968 24.9835 33.3417 24.2594C33.7155 23.5353 33.8877 22.724 33.8403 21.9105C33.7929 21.097 33.5277 20.3112 33.0725 19.6354C32.6172 18.9596 31.9886 18.4186 31.2525 18.0691C30.5164 17.7196 29.6999 17.5744 28.8884 17.6487C28.0769 17.723 27.3004 18.0142 26.64 18.4916C25.9797 18.969 25.4598 19.6152 25.1349 20.3625C25.0686 20.5145 25.0654 20.6865 25.126 20.8408C25.1865 20.9952 25.3059 21.1191 25.4579 21.1854C25.6098 21.2517 25.7819 21.255 25.9362 21.1944C26.0905 21.1338 26.2145 21.0145 26.2808 20.8625C26.5163 20.3207 26.8931 19.8523 27.3718 19.5061C27.8504 19.1599 28.4134 18.9488 29.0016 18.8948C29.5899 18.8409 30.1818 18.9461 30.7155 19.1994C31.2492 19.4527 31.7049 19.8448 32.0351 20.3347C32.3652 20.8245 32.5576 21.3942 32.592 21.9839C32.6265 22.5736 32.5017 23.1618 32.2309 23.6867C31.9601 24.2117 31.5531 24.6543 31.0525 24.968C30.552 25.2817 29.9763 25.4551 29.3858 25.47L29.3824 25.4683Z" fill="white"/>
<path d="M38.9409 5.42416C38.3358 4.47241 37.4997 3.68922 36.5105 3.1475C35.5213 2.60577 34.4112 2.32311 33.2834 2.32583H25.3875C24.2603 2.32601 23.1513 2.61001 22.1628 3.15163C21.1743 3.69326 20.338 4.47506 19.7312 5.42496C19.1244 6.37485 18.7665 7.46225 18.6905 8.58687C18.6146 9.7115 18.8231 10.8371 19.2967 11.86L21.4042 16.4092C20.925 17.0659 20.529 17.7793 20.225 18.5333C20.1673 18.6863 20.1719 18.8558 20.2378 19.0055C20.3036 19.1552 20.4255 19.2731 20.5773 19.3339C20.7291 19.3947 20.8986 19.3937 21.0496 19.3309C21.2006 19.2682 21.321 19.1488 21.385 18.9983C21.6852 18.2519 22.0886 17.5511 22.5834 16.9167C22.5902 16.9087 22.5966 16.9003 22.6025 16.8917C23.1556 16.1864 23.8172 15.5735 24.5625 15.0758C24.5675 15.0758 24.57 15.0692 24.575 15.0675C25.525 14.4411 26.5906 14.0112 27.7092 13.8029C28.8278 13.5947 29.9768 13.6123 31.0885 13.8548C32.2002 14.0973 33.2521 14.5598 34.1824 15.215C35.1126 15.8702 35.9024 16.7049 36.5052 17.67C37.108 18.635 37.5116 19.7109 37.6923 20.8343C37.873 21.9577 37.8271 23.1059 37.5573 24.2113C37.2875 25.3167 36.7993 26.3569 36.1214 27.2708C35.4435 28.1846 34.5896 28.9536 33.61 29.5325H29.3334C29.1676 29.5325 29.0086 29.5983 28.8914 29.7155C28.7742 29.8328 28.7084 29.9917 28.7084 30.1575C28.7084 30.3233 28.7742 30.4822 28.8914 30.5994C29.0086 30.7166 29.1676 30.7825 29.3334 30.7825H33.7742C33.8816 30.7816 33.987 30.7529 34.08 30.6992C35.2808 30.0286 36.3261 29.1116 37.1472 28.0083C37.9684 26.9051 38.5469 25.6406 38.8447 24.298C39.1426 22.9553 39.1529 21.5648 38.8752 20.2178C38.5975 18.8708 38.038 17.5979 37.2334 16.4825L39.375 11.8592C39.8512 10.837 40.0611 9.71095 39.9852 8.58584C39.9093 7.46074 39.55 6.37312 38.9409 5.42416ZM38.2409 11.3342L36.3492 15.4175C35.9728 15.027 35.5647 14.6682 35.1292 14.345L36.8267 10.6783C37.1023 10.0834 37.2236 9.42869 37.1794 8.77454C37.1353 8.1204 36.9271 7.48791 36.574 6.93546C36.2209 6.38301 35.7344 5.9284 35.1592 5.61358C34.5841 5.29877 33.939 5.13389 33.2834 5.13416H32.5C32.3343 5.13416 32.1753 5.20001 32.0581 5.31722C31.9409 5.43443 31.875 5.5934 31.875 5.75916C31.875 5.92492 31.9409 6.08389 32.0581 6.2011C32.1753 6.31831 32.3343 6.38416 32.5 6.38416H33.2809C33.7267 6.38378 34.1655 6.49578 34.5567 6.70981C34.9479 6.92384 35.2788 7.233 35.5189 7.60873C35.759 7.98446 35.9006 8.41464 35.9305 8.85953C35.9604 9.30442 35.8777 9.74968 35.69 10.1542L34.0734 13.65C32.6256 12.8368 30.9944 12.4062 29.3339 12.3987C27.6734 12.3913 26.0384 12.8073 24.5834 13.6075L22.9834 10.1542C22.7957 9.74974 22.713 9.30456 22.7429 8.85974C22.7728 8.41492 22.9142 7.98479 23.1542 7.60908C23.3942 7.23338 23.7251 6.9242 24.1161 6.71011C24.5072 6.49602 24.9459 6.38392 25.3917 6.38416H30.6342C30.7999 6.38416 30.9589 6.31831 31.0761 6.2011C31.1933 6.08389 31.2592 5.92492 31.2592 5.75916C31.2592 5.5934 31.1933 5.43443 31.0761 5.31722C30.9589 5.20001 30.7999 5.13416 30.6342 5.13416H25.3875C24.7319 5.13433 24.0869 5.29958 23.5119 5.61466C22.937 5.92974 22.4506 6.38451 22.0977 6.93703C21.7447 7.48956 21.5366 8.12205 21.4924 8.77619C21.4483 9.43033 21.5695 10.0851 21.845 10.68L23.5167 14.2875C23.0796 14.6074 22.6702 14.9634 22.2925 15.3517L20.4317 11.3333C20.0458 10.501 19.8757 9.58492 19.9372 8.66956C19.9988 7.7542 20.2899 6.86909 20.7837 6.09592C21.2775 5.32275 21.9582 4.68643 22.7628 4.24569C23.5674 3.80496 24.4701 3.57401 25.3875 3.57416H33.2834C34.2007 3.57401 35.1034 3.8049 35.908 4.24554C36.7126 4.68617 37.3933 5.32235 37.8873 6.09538C38.3812 6.86841 38.6725 7.75339 38.7343 8.66868C38.7961 9.58397 38.6264 10.5001 38.2409 11.3325V11.3342Z" fill="white"/>
</g>
<defs>
<clipPath id="clip0_147_2">
<rect width="40" height="40" fill="white"/>
</clipPath>
</defs>
</svg>
