<svg width="40" height="40" viewBox="0 0 40 40" fill="none" xmlns="http://www.w3.org/2000/svg">
<g clip-path="url(#clip0_139_20)">
<path d="M37.5 6.875H33.125V2.5C33.125 2.00272 32.9275 1.52581 32.5758 1.17417C32.2242 0.822544 31.7473 0.625 31.25 0.625H8.75C8.25272 0.625 7.77581 0.822544 7.42417 1.17417C7.07254 1.52581 6.875 2.00272 6.875 2.5V6.875H2.5C2.00272 6.875 1.52581 7.07254 1.17417 7.42417C0.822544 7.77581 0.625 8.25272 0.625 8.75V30C0.625 30.4973 0.822544 30.9742 1.17417 31.3258C1.52581 31.6775 2.00272 31.875 2.5 31.875H14.7725C13.8502 32.9223 13.284 34.2354 13.1556 35.625H12.5C12.0027 35.625 11.5258 35.8225 11.1742 36.1742C10.8225 36.5258 10.625 37.0027 10.625 37.5C10.625 37.9973 10.8225 38.4742 11.1742 38.8258C11.5258 39.1775 12.0027 39.375 12.5 39.375H27.5C27.9973 39.375 28.4742 39.1775 28.8258 38.8258C29.1775 38.4742 29.375 37.9973 29.375 37.5C29.375 37.0027 29.1775 36.5258 28.8258 36.1742C28.4742 35.8225 27.9973 35.625 27.5 35.625H26.8444C26.716 34.2354 26.1498 32.9223 25.2275 31.875H37.5C37.9973 31.875 38.4742 31.6775 38.8258 31.3258C39.1775 30.9742 39.375 30.4973 39.375 30V8.75C39.375 8.25272 39.1775 7.77581 38.8258 7.42417C38.4742 7.07254 37.9973 6.875 37.5 6.875ZM37.5 8.125C37.6658 8.125 37.8247 8.19085 37.9419 8.30806C38.0592 8.42527 38.125 8.58424 38.125 8.75V25.625H36.875V10C36.875 9.83424 36.8092 9.67527 36.6919 9.55806C36.5747 9.44085 36.4158 9.375 36.25 9.375H33.125V8.125H37.5ZM8.75 24.375H31.25C31.7473 24.375 32.2242 24.1775 32.5758 23.8258C32.9275 23.4742 33.125 22.9973 33.125 22.5V10.625H35.625V25.625H4.375V10.625H6.875V22.5C6.875 22.9973 7.07254 23.4742 7.42417 23.8258C7.77581 24.1775 8.25272 24.375 8.75 24.375ZM8.125 5.625H14.9688C14.5789 6.40074 14.3756 7.2568 14.375 8.125C14.375 9.61684 14.9676 11.0476 16.0225 12.1025C17.0774 13.1574 18.5082 13.75 20 13.75C21.4918 13.75 22.9226 13.1574 23.9775 12.1025C25.0324 11.0476 25.625 9.61684 25.625 8.125C25.6244 7.2568 25.4211 6.40074 25.0312 5.625H31.875V22.5C31.875 22.6658 31.8092 22.8247 31.6919 22.9419C31.5747 23.0592 31.4158 23.125 31.25 23.125H8.75C8.58424 23.125 8.42527 23.0592 8.30806 22.9419C8.19085 22.8247 8.125 22.6658 8.125 22.5V5.625ZM24.375 8.125C24.375 8.99029 24.1184 9.83615 23.6377 10.5556C23.1569 11.2751 22.4737 11.8358 21.6742 12.167C20.8748 12.4981 19.9951 12.5847 19.1465 12.4159C18.2978 12.2471 17.5183 11.8304 16.9064 11.2186C16.2946 10.6067 15.8779 9.82719 15.7091 8.97852C15.5403 8.12985 15.6269 7.25019 15.958 6.45076C16.2892 5.65133 16.8499 4.96805 17.5694 4.48732C18.2888 4.00659 19.1347 3.75 20 3.75C21.1599 3.75132 22.2719 4.21268 23.0921 5.03287C23.9123 5.85305 24.3737 6.96508 24.375 8.125ZM8.75 1.875H31.25C31.4158 1.875 31.5747 1.94085 31.6919 2.05806C31.8092 2.17527 31.875 2.33424 31.875 2.5V4.375H24.1806C23.6554 3.78528 23.0114 3.31334 22.2909 2.99019C21.5704 2.66703 20.7897 2.49996 20 2.49996C19.2103 2.49996 18.4296 2.66703 17.7091 2.99019C16.9886 3.31334 16.3446 3.78528 15.8194 4.375H8.125V2.5C8.125 2.33424 8.19085 2.17527 8.30806 2.05806C8.42527 1.94085 8.58424 1.875 8.75 1.875ZM2.5 8.125H6.875V9.375H3.75C3.58424 9.375 3.42527 9.44085 3.30806 9.55806C3.19085 9.67527 3.125 9.83424 3.125 10V25.625H1.875V8.75C1.875 8.58424 1.94085 8.42527 2.05806 8.30806C2.17527 8.19085 2.33424 8.125 2.5 8.125ZM28.125 37.5C28.125 37.6658 28.0592 37.8247 27.9419 37.9419C27.8247 38.0592 27.6658 38.125 27.5 38.125H12.5C12.3342 38.125 12.1753 38.0592 12.0581 37.9419C11.9408 37.8247 11.875 37.6658 11.875 37.5C11.875 37.3342 11.9408 37.1753 12.0581 37.0581C12.1753 36.9408 12.3342 36.875 12.5 36.875H27.5C27.6658 36.875 27.8247 36.9408 27.9419 37.0581C28.0592 37.1753 28.125 37.3342 28.125 37.5ZM24.04 32.4244C24.9041 33.2845 25.4492 34.4134 25.5856 35.625H14.4144C14.5508 34.4134 15.0959 33.2845 15.96 32.4244L16.5087 31.875H23.4912L24.04 32.4244ZM37.5 30.625H2.5C2.33424 30.625 2.17527 30.5592 2.05806 30.4419C1.94085 30.3247 1.875 30.1658 1.875 30V26.875H38.125V30C38.125 30.1658 38.0592 30.3247 37.9419 30.4419C37.8247 30.5592 37.6658 30.625 37.5 30.625Z" fill="white"/>
<path d="M11.25 19.375H11.875V20C11.8734 20.3627 11.9774 20.7179 12.1744 21.0224C12.3714 21.3269 12.6528 21.5674 12.9843 21.7145C13.3157 21.8617 13.6829 21.9091 14.0408 21.8511C14.3988 21.793 14.7321 21.6319 15 21.3875C15.2679 21.6319 15.6012 21.793 15.9592 21.8511C16.3171 21.9091 16.6843 21.8617 17.0157 21.7145C17.3472 21.5674 17.6286 21.3269 17.8256 21.0224C18.0226 20.7179 18.1266 20.3627 18.125 20V19.375H21.875V20C21.8734 20.3627 21.9774 20.7179 22.1744 21.0224C22.3714 21.3269 22.6528 21.5674 22.9843 21.7145C23.3157 21.8617 23.6829 21.9091 24.0408 21.8511C24.3988 21.793 24.7321 21.6319 25 21.3875C25.2679 21.6319 25.6012 21.793 25.9592 21.8511C26.3171 21.9091 26.6843 21.8617 27.0157 21.7145C27.3472 21.5674 27.6286 21.3269 27.8256 21.0224C28.0226 20.7179 28.1266 20.3627 28.125 20V19.375H28.75C29.2473 19.375 29.7242 19.1775 30.0758 18.8258C30.4275 18.4742 30.625 17.9973 30.625 17.5C30.625 17.0027 30.4275 16.5258 30.0758 16.1742C29.7242 15.8226 29.2473 15.625 28.75 15.625H28.125V15C28.1266 14.6374 28.0226 14.2821 27.8256 13.9776C27.6286 13.6732 27.3472 13.4327 27.0157 13.2855C26.6843 13.1383 26.3171 13.0909 25.9592 13.149C25.6012 13.207 25.2679 13.3681 25 13.6125C24.7321 13.3681 24.3988 13.207 24.0408 13.149C23.6829 13.0909 23.3157 13.1383 22.9843 13.2855C22.6528 13.4327 22.3714 13.6732 22.1744 13.9776C21.9774 14.2821 21.8734 14.6374 21.875 15V15.625H18.125V15C18.1266 14.6374 18.0226 14.2821 17.8256 13.9776C17.6286 13.6732 17.3472 13.4327 17.0157 13.2855C16.6843 13.1383 16.3171 13.0909 15.9592 13.149C15.6012 13.207 15.2679 13.3681 15 13.6125C14.7321 13.3681 14.3988 13.207 14.0408 13.149C13.6829 13.0909 13.3157 13.1383 12.9843 13.2855C12.6528 13.4327 12.3714 13.6732 12.1744 13.9776C11.9774 14.2821 11.8734 14.6374 11.875 15V15.625H11.25C10.7527 15.625 10.2758 15.8226 9.92417 16.1742C9.57254 16.5258 9.375 17.0027 9.375 17.5C9.375 17.9973 9.57254 18.4742 9.92417 18.8258C10.2758 19.1775 10.7527 19.375 11.25 19.375ZM28.75 16.875C28.9158 16.875 29.0747 16.9409 29.1919 17.0581C29.3092 17.1753 29.375 17.3343 29.375 17.5C29.375 17.6658 29.3092 17.8247 29.1919 17.942C29.0747 18.0592 28.9158 18.125 28.75 18.125H28.125V16.875H28.75ZM26.25 14.375C26.4158 14.375 26.5747 14.4409 26.6919 14.5581C26.8092 14.6753 26.875 14.8343 26.875 15V20C26.875 20.1658 26.8092 20.3247 26.6919 20.442C26.5747 20.5592 26.4158 20.625 26.25 20.625C26.0842 20.625 25.9253 20.5592 25.8081 20.442C25.6908 20.3247 25.625 20.1658 25.625 20V15C25.625 14.8343 25.6908 14.6753 25.8081 14.5581C25.9253 14.4409 26.0842 14.375 26.25 14.375ZM23.125 15C23.125 14.8343 23.1908 14.6753 23.3081 14.5581C23.4253 14.4409 23.5842 14.375 23.75 14.375C23.9158 14.375 24.0747 14.4409 24.1919 14.5581C24.3092 14.6753 24.375 14.8343 24.375 15V20C24.375 20.1658 24.3092 20.3247 24.1919 20.442C24.0747 20.5592 23.9158 20.625 23.75 20.625C23.5842 20.625 23.4253 20.5592 23.3081 20.442C23.1908 20.3247 23.125 20.1658 23.125 20V15ZM21.875 16.875V18.125H18.125V16.875H21.875ZM16.25 14.375C16.4158 14.375 16.5747 14.4409 16.6919 14.5581C16.8092 14.6753 16.875 14.8343 16.875 15V20C16.875 20.1658 16.8092 20.3247 16.6919 20.442C16.5747 20.5592 16.4158 20.625 16.25 20.625C16.0842 20.625 15.9253 20.5592 15.8081 20.442C15.6908 20.3247 15.625 20.1658 15.625 20V15C15.625 14.8343 15.6908 14.6753 15.8081 14.5581C15.9253 14.4409 16.0842 14.375 16.25 14.375ZM13.125 15C13.125 14.8343 13.1908 14.6753 13.3081 14.5581C13.4253 14.4409 13.5842 14.375 13.75 14.375C13.9158 14.375 14.0747 14.4409 14.1919 14.5581C14.3092 14.6753 14.375 14.8343 14.375 15V20C14.375 20.1658 14.3092 20.3247 14.1919 20.442C14.0747 20.5592 13.9158 20.625 13.75 20.625C13.5842 20.625 13.4253 20.5592 13.3081 20.442C13.1908 20.3247 13.125 20.1658 13.125 20V15ZM11.25 16.875H11.875V18.125H11.25C11.0842 18.125 10.9253 18.0592 10.8081 17.942C10.6908 17.8247 10.625 17.6658 10.625 17.5C10.625 17.3343 10.6908 17.1753 10.8081 17.0581C10.9253 16.9409 11.0842 16.875 11.25 16.875Z" fill="white"/>
<path d="M17.7963 5.09312C17.7056 5.14917 17.6308 5.22746 17.579 5.32055C17.5271 5.41364 17.4999 5.51844 17.5 5.625V10.625C17.5 10.7315 17.5271 10.8363 17.579 10.9294C17.6308 11.0225 17.7056 11.1008 17.7962 11.1568C17.8868 11.2129 17.9903 11.2448 18.0967 11.2497C18.2032 11.2545 18.3091 11.232 18.4044 11.1844L23.4044 8.68438C23.5084 8.63254 23.5959 8.55273 23.657 8.45392C23.7182 8.35511 23.7506 8.24121 23.7506 8.125C23.7506 8.00879 23.7182 7.89489 23.657 7.79608C23.5959 7.69727 23.5084 7.61746 23.4044 7.56562L18.4044 5.06562C18.3091 5.01799 18.2032 4.99552 18.0967 5.00033C17.9903 5.00515 17.8869 5.03709 17.7963 5.09312ZM18.75 6.63625L21.7275 8.125L18.75 9.61375V6.63625Z" fill="white"/>
<path d="M20 30C20.6904 30 21.25 29.4404 21.25 28.75C21.25 28.0596 20.6904 27.5 20 27.5C19.3096 27.5 18.75 28.0596 18.75 28.75C18.75 29.4404 19.3096 30 20 30Z" fill="white"/>
</g>
<defs>
<clipPath id="clip0_139_20">
<rect width="40" height="40" fill="white"/>
</clipPath>
</defs>
</svg>
