<svg width="40" height="40" viewBox="0 0 40 40" fill="none" xmlns="http://www.w3.org/2000/svg">
<path d="M37.8516 9.64844H36.875V7.89062C36.8742 7.32108 36.6476 6.77509 36.2448 6.37236C35.8421 5.96963 35.2961 5.74301 34.7266 5.74219H33.1641C32.5945 5.74301 32.0485 5.96963 31.6458 6.37236C31.2431 6.77509 31.0165 7.32108 31.0156 7.89062V11.2109H25.1914C25.0882 10.8454 24.8897 10.5137 24.6164 10.2499C24.343 9.98614 24.0045 9.79963 23.6355 9.70945C23.2665 9.61928 22.8801 9.62868 22.5159 9.73669C22.1517 9.8447 21.8227 10.0474 21.5625 10.3242C21.362 10.1109 21.1199 9.94092 20.8512 9.82471C20.5824 9.70851 20.2928 9.64857 20 9.64857C19.7072 9.64857 19.4176 9.70851 19.1488 9.82471C18.8801 9.94092 18.638 10.1109 18.4375 10.3242C18.237 10.1109 17.9949 9.94092 17.7262 9.82471C17.4574 9.70851 17.1678 9.64857 16.875 9.64857C16.5822 9.64857 16.2926 9.70851 16.0238 9.82471C15.7551 9.94092 15.513 10.1109 15.3125 10.3242C15.0523 10.0474 14.7233 9.8447 14.3591 9.73669C13.9949 9.62868 13.6085 9.61928 13.2395 9.70945C12.8705 9.79963 12.532 9.98614 12.2586 10.2499C11.9853 10.5137 11.7868 10.8454 11.6836 11.2109H8.98438V7.89062C8.98355 7.32108 8.75693 6.77509 8.3542 6.37236C7.95147 5.96963 7.40548 5.74301 6.83594 5.74219H5.27344C4.70389 5.74301 4.15791 5.96963 3.75518 6.37236C3.35244 6.77509 3.12583 7.32108 3.125 7.89062V9.64844H2.14844C1.57889 9.64926 1.03291 9.87588 0.630176 10.2786C0.227445 10.6813 0.00082663 11.2273 0 11.7969L0 14.9219C0.00082663 15.4914 0.227445 16.0374 0.630176 16.4401C1.03291 16.8429 1.57889 17.0695 2.14844 17.0703H3.125V18.8281C3.12583 19.3977 3.35244 19.9437 3.75518 20.3464C4.15791 20.7491 4.70389 20.9757 5.27344 20.9766H6.83594C7.40548 20.9757 7.95147 20.7491 8.3542 20.3464C8.75693 19.9437 8.98355 19.3977 8.98438 18.8281V15.5078H11.9141V22.2727C11.9151 22.9665 12.149 23.6399 12.5781 24.1852L14.4141 26.5109V28.4695C13.9554 28.5908 13.5498 28.8602 13.2601 29.2359C12.9705 29.6116 12.8131 30.0725 12.8125 30.5469V33.6719C12.8125 33.8273 12.8742 33.9763 12.9841 34.0862C13.094 34.1961 13.243 34.2578 13.3984 34.2578H25.8984C26.0538 34.2578 26.2029 34.1961 26.3128 34.0862C26.4226 33.9763 26.4844 33.8273 26.4844 33.6719V30.5469C26.4839 30.0793 26.3311 29.6247 26.0492 29.2517C25.7673 28.8787 25.3716 28.6077 24.9219 28.4797V26.6406L26.9 25.4562C27.3566 25.1811 27.7346 24.7929 27.9975 24.3292C28.2603 23.8654 28.3993 23.3417 28.4008 22.8086V15.7031C28.4008 15.6375 28.4008 15.5719 28.3914 15.5078H31.0156V18.8281C31.0165 19.3977 31.2431 19.9437 31.6458 20.3464C32.0485 20.7491 32.5945 20.9757 33.1641 20.9766H34.7266C35.2961 20.9757 35.8421 20.7491 36.2448 20.3464C36.6476 19.9437 36.8742 19.3977 36.875 18.8281V17.0703H37.8516C38.4211 17.0695 38.9671 16.8429 39.3698 16.4401C39.7726 16.0374 39.9992 15.4914 40 14.9219V11.7969C39.9992 11.2273 39.7726 10.6813 39.3698 10.2786C38.9671 9.87588 38.4211 9.64926 37.8516 9.64844ZM3.125 15.8984H2.14844C1.88956 15.898 1.64141 15.795 1.45836 15.612C1.27531 15.4289 1.17229 15.1807 1.17188 14.9219V11.7969C1.17229 11.538 1.27531 11.2898 1.45836 11.1068C1.64141 10.9237 1.88956 10.8207 2.14844 10.8203H3.125V15.8984ZM7.8125 18.8281C7.81209 19.087 7.70907 19.3352 7.52602 19.5182C7.34296 19.7013 7.09481 19.8043 6.83594 19.8047H5.27344C5.01456 19.8043 4.76641 19.7013 4.58336 19.5182C4.40031 19.3352 4.29729 19.087 4.29688 18.8281V7.89062C4.29729 7.63175 4.40031 7.3836 4.58336 7.20055C4.76641 7.0175 5.01456 6.91448 5.27344 6.91406H6.83594C7.09481 6.91448 7.34296 7.0175 7.52602 7.20055C7.70907 7.3836 7.81209 7.63175 7.8125 7.89062V18.8281ZM8.98438 14.3359V12.3828H11.6016C11.6016 12.3828 11.6016 14.2719 11.6109 14.3359H8.98438ZM22.1484 11.7969C22.1484 11.5379 22.2513 11.2895 22.4345 11.1063C22.6176 10.9232 22.866 10.8203 23.125 10.8203C23.384 10.8203 23.6324 10.9232 23.8155 11.1063C23.9987 11.2895 24.1016 11.5379 24.1016 11.7969V13.5547C24.1016 13.5547 22.2125 13.5547 22.1484 13.5641V11.7969ZM19.0234 11.7969C19.0234 11.5379 19.1263 11.2895 19.3095 11.1063C19.4926 10.9232 19.741 10.8203 20 10.8203C20.259 10.8203 20.5074 10.9232 20.6905 11.1063C20.8737 11.2895 20.9766 11.5379 20.9766 11.7969V14.0469C20.6113 14.3478 20.3558 14.761 20.2499 15.2222C20.1439 15.6834 20.1934 16.1667 20.3906 16.5969C20.2676 16.6514 20.1346 16.6796 20 16.6797C19.7411 16.6793 19.493 16.5763 19.3099 16.3932C19.1269 16.2102 19.0239 15.962 19.0234 15.7031V11.7969ZM15.8984 11.7969C15.8984 11.5379 16.0013 11.2895 16.1845 11.1063C16.3676 10.9232 16.616 10.8203 16.875 10.8203C17.134 10.8203 17.3824 10.9232 17.5655 11.1063C17.7487 11.2895 17.8516 11.5379 17.8516 11.7969V14.9219C17.8516 15.1809 17.7487 15.4293 17.5655 15.6124C17.3824 15.7956 17.134 15.8984 16.875 15.8984C16.616 15.8984 16.3676 15.7956 16.1845 15.6124C16.0013 15.4293 15.8984 15.1809 15.8984 14.9219V11.7969ZM12.7734 14.1406V11.7969C12.7734 11.5379 12.8763 11.2895 13.0595 11.1063C13.2426 10.9232 13.491 10.8203 13.75 10.8203C14.009 10.8203 14.2574 10.9232 14.4405 11.1063C14.6237 11.2895 14.7266 11.5379 14.7266 11.7969V14.1406C14.7266 14.3996 14.6237 14.648 14.4405 14.8312C14.2574 15.0143 14.009 15.1172 13.75 15.1172C13.491 15.1172 13.2426 15.0143 13.0595 14.8312C12.8763 14.648 12.7734 14.3996 12.7734 14.1406ZM25.3125 30.5469V33.0859H13.9844V30.5469C13.9848 30.288 14.0878 30.0398 14.2709 29.8568C14.4539 29.6737 14.7021 29.5707 14.9609 29.5703H24.3359C24.5948 29.5707 24.843 29.6737 25.026 29.8568C25.2091 30.0398 25.3121 30.288 25.3125 30.5469ZM27.2266 22.807C27.2255 23.1374 27.1393 23.4619 26.9763 23.7493C26.8133 24.0366 26.5791 24.2772 26.2961 24.4477L24.0305 25.8031C23.9437 25.8551 23.8719 25.9287 23.822 26.0168C23.7722 26.1048 23.746 26.2043 23.7461 26.3055V28.3984H15.5859V26.307C15.5858 26.1755 15.5415 26.0479 15.4602 25.9445L13.4977 23.4586C13.2314 23.1206 13.0864 22.7029 13.0859 22.2727V16.1836C13.3996 16.2858 13.7326 16.3143 14.059 16.2667C14.3855 16.2191 14.6965 16.0969 14.968 15.9094C15.1078 16.1802 15.3037 16.4181 15.5427 16.6073C15.7817 16.7964 16.0582 16.9325 16.3539 17.0064C16.6495 17.0803 16.9576 17.0904 17.2575 17.0359C17.5573 16.9815 17.8422 16.8638 18.093 16.6906C18.2308 16.9571 18.423 17.1917 18.6572 17.3793C18.8914 17.5669 19.1624 17.7032 19.4526 17.7795C19.7428 17.8558 20.0457 17.8703 20.3419 17.8222C20.638 17.774 20.9208 17.6643 21.1719 17.5C21.5201 17.7282 21.9274 17.8495 22.3438 17.8492H23.9648V18.5078C23.2467 18.7707 22.627 19.2485 22.1902 19.8762C21.7533 20.5038 21.5205 21.2509 21.5234 22.0156V22.2656C21.5234 22.421 21.5852 22.5701 21.6951 22.6799C21.8049 22.7898 21.954 22.8516 22.1094 22.8516C22.2648 22.8516 22.4138 22.7898 22.5237 22.6799C22.6336 22.5701 22.6953 22.421 22.6953 22.2656V22.018C22.6935 21.4375 22.8894 20.8737 23.2506 20.4194C23.6118 19.965 24.1169 19.6471 24.6828 19.518C24.8118 19.488 24.9269 19.4152 25.0093 19.3115C25.0917 19.2079 25.1366 19.0793 25.1367 18.9469V17.2656C25.1367 17.1102 25.075 16.9612 24.9651 16.8513C24.8552 16.7414 24.7062 16.6797 24.5508 16.6797H22.3438C22.0847 16.6797 21.8364 16.5768 21.6532 16.3937C21.4701 16.2105 21.3672 15.9621 21.3672 15.7031C21.3672 15.4441 21.4701 15.1957 21.6532 15.0126C21.8364 14.8294 22.0847 14.7266 22.3438 14.7266H26.25C26.5089 14.727 26.757 14.83 26.9401 15.013C27.1231 15.1961 27.2261 15.4443 27.2266 15.7031V22.807ZM31.0156 14.3359H27.9062C27.7049 14.0917 27.4519 13.8949 27.1656 13.7599C26.8793 13.6248 26.5666 13.5547 26.25 13.5547H25.2734V12.3828H31.0156V14.3359ZM35.7031 18.8281C35.7027 19.087 35.5997 19.3352 35.4166 19.5182C35.2336 19.7013 34.9854 19.8043 34.7266 19.8047H33.1641C32.9052 19.8043 32.657 19.7013 32.474 19.5182C32.2909 19.3352 32.1879 19.087 32.1875 18.8281V7.89062C32.1879 7.63175 32.2909 7.3836 32.474 7.20055C32.657 7.0175 32.9052 6.91448 33.1641 6.91406H34.7266C34.9854 6.91448 35.2336 7.0175 35.4166 7.20055C35.5997 7.3836 35.7027 7.63175 35.7031 7.89062V18.8281ZM38.8281 14.9219C38.8277 15.1807 38.7247 15.4289 38.5416 15.612C38.3586 15.795 38.1104 15.898 37.8516 15.8984H36.875V10.8203H37.8516C38.1104 10.8207 38.3586 10.9237 38.5416 11.1068C38.7247 11.2898 38.8277 11.538 38.8281 11.7969V14.9219Z" fill="white"/>
</svg>
