<svg width="287" height="206" viewBox="0 0 287 206" fill="none" xmlns="http://www.w3.org/2000/svg">
<g clip-path="url(#clip0_1432_18)">
<g clip-path="url(#clip1_1432_18)">
<mask id="mask0_1432_18" style="mask-type:alpha" maskUnits="userSpaceOnUse" x="0" y="-144" width="287" height="350">
<path d="M287 -144H0V206H287V-144Z" fill="#C4C4C4"/>
</mask>
<g mask="url(#mask0_1432_18)">
<path d="M383.869 35.417C386.186 33.65 388.503 31.884 390.635 29.795C393.517 27.274 396.214 24.431 398.846 22.054C400.727 20.11 402.544 18.632 404.425 16.689C408.559 13.445 412.693 10.2 416.641 6.63499C419.524 4.11299 422.406 1.59201 425.289 -0.929993C426.039 -1.36399 426.79 -1.797 427.727 -1.909C428.413 -1.876 429.164 -2.31001 429.479 -2.92101C430.23 -3.35401 431.045 -4.254 431.61 -5.009C431.861 -5.153 432.547 -5.121 432.983 -4.944C432.918 -4.478 432.853 -4.011 432.539 -3.401C432.474 -2.935 432.224 -2.79 431.973 -2.646C430.908 -1.602 429.777 -0.0920033 428.526 0.630997C425.643 3.152 422.761 5.674 419.878 8.196C417.812 9.818 415.745 11.44 413.242 12.885C411.239 14.041 410.416 16.66 409.035 18.315C409.035 18.315 408.97 18.781 409.156 19.102L409.592 19.279C411.344 18.268 413.346 17.112 414.913 15.779C419.547 12.246 424.246 8.246 428.88 4.713C432.263 1.903 435.646 -0.907993 438.844 -4.03999C441.976 -6.70599 444.488 -9.87099 447.435 -12.859C448.25 -13.758 449.001 -14.192 450.002 -14.77C452.949 -17.757 455.896 -20.745 458.843 -23.733C459.408 -24.488 460.41 -25.066 460.975 -25.821C461.225 -25.965 461.225 -25.965 461.475 -26.11C461.661 -25.788 461.596 -25.322 461.596 -25.322C460.466 -23.812 459.15 -22.624 457.584 -21.291C455.702 -19.347 453.886 -17.869 452.004 -15.926C451.504 -15.637 451.189 -15.026 451.245 -13.773C451.366 -12.985 450.551 -12.085 449.986 -11.33C449.42 -10.575 448.669 -10.142 448.169 -9.853C445.787 -7.62 443.341 -4.921 440.959 -2.689C440.143 -1.789 439.077 -0.745007 438.076 -0.167007C435.759 1.59899 433.377 3.83199 431.803 6.88499C430.923 8.24999 429.857 9.294 429.041 10.194C426.474 12.105 424.713 14.836 423.76 18.388C423.381 19.464 422.63 19.898 422.25 20.974C422 21.119 422.121 21.906 422.057 22.372C422.492 22.549 422.928 22.726 423.179 22.582L423.429 22.437C425.496 20.815 427.748 19.515 429.565 18.037C431.632 16.415 433.699 14.793 435.395 12.528C437.155 9.797 439.722 7.886 441.854 5.798C442.354 5.509 442.484 4.57699 442.984 4.28799C442.298 4.25499 441.612 4.222 441.362 4.367C440.11 5.089 439.295 5.989 438.229 7.033C437.728 7.322 437.228 7.611 436.977 7.756C436.727 7.9 436.542 7.57901 436.291 7.72301C436.356 7.25701 436.17 6.935 436.42 6.791C436.485 6.325 436.735 6.18 436.986 6.036C439.053 4.414 440.869 2.936 442.936 1.314C444.002 0.269995 445.003 -0.308005 446.561 0.0789948C446.997 0.255995 447.247 0.110995 447.498 -0.0330048C450.065 -1.944 452.197 -4.03199 454.764 -5.94299C456.331 -7.27699 457.897 -8.61001 459.899 -9.76601C462.838 -11.034 465.155 -12.8 467.351 -15.354C468.546 -17.33 470.177 -19.13 471.808 -20.929C472.624 -21.828 473.56 -21.94 474.618 -21.265C475.675 -20.589 476.176 -20.878 476.741 -21.633C478.187 -23.754 480.003 -25.231 482.377 -25.744C483.313 -25.856 483.943 -27.077 484.759 -27.977C485.324 -28.732 486.075 -29.165 486.64 -29.92C486.89 -30.065 487.326 -29.888 487.326 -29.888C487.512 -29.566 487.447 -29.1 487.447 -29.1C487.132 -28.49 486.817 -27.879 486.567 -27.735C482.998 -25.246 480.423 -21.615 477.04 -18.804L476.789 -18.66C476.66 -17.728 476.345 -17.117 476.216 -16.185C476.716 -16.474 477.217 -16.763 477.968 -17.196C478.969 -17.774 479.784 -18.674 481.036 -19.397C482.352 -20.585 483.854 -21.452 485.42 -22.785C485.67 -22.93 485.921 -23.074 486.171 -23.219C485.921 -23.074 485.856 -22.608 485.606 -22.464C483.595 -19.588 481.399 -17.034 479.388 -14.158C479.073 -13.547 479.009 -13.081 479.881 -12.727L480.187 -11.618C479.622 -10.863 478.871 -10.43 478.306 -9.675C476.74 -8.341 475.173 -7.00801 474.785 -4.21201C474.656 -3.28001 474.156 -2.991 473.655 -2.702C471.023 -0.324996 467.955 1.875 465.323 4.252C464.822 4.541 464.071 4.975 465.314 5.972L465.436 6.75999C465.185 6.90399 465.121 7.37 464.62 7.659C462.367 8.96 460.3 10.582 457.798 12.027C457.547 12.171 457.297 12.316 457.047 12.46C454.915 14.548 452.533 16.781 450.031 18.226C449.53 18.515 449.15 19.592 449.271 20.379C449.328 21.633 448.763 22.388 448.012 22.821C447.761 22.966 447.325 22.789 447.204 22.001C447.148 20.748 446.712 20.571 446.212 20.86C445.961 21.004 445.711 21.149 445.461 21.293C441.577 24.393 437.944 27.348 434.06 30.447C433.56 30.736 432.623 30.848 433.116 32.279C433.858 33.565 434.423 32.81 435.11 32.843C435.36 32.698 435.61 32.554 436.111 32.265C438.743 29.888 441.625 27.366 444.257 24.989C444.508 24.844 444.823 24.234 445.259 24.411C445.759 24.122 446.26 23.833 446.76 23.544C446.445 24.154 446.13 24.765 445.88 24.91C445.63 25.054 445.815 25.376 445.751 25.842C446.001 25.697 446.187 26.019 446.437 25.874C448.254 24.397 450.07 22.919 452.137 21.297C452.953 20.397 454.204 19.675 455.205 19.097C455.456 18.952 455.892 19.129 455.892 19.129C455.827 19.595 456.013 19.917 455.762 20.062C454.947 20.961 454.317 22.182 453.065 22.905C448.116 27.048 443.909 32.478 438.589 35.979C436.272 37.745 434.14 39.834 432.008 41.922C428.811 45.054 425.614 48.186 422.416 51.318C420.785 53.117 419.219 54.45 417.402 55.928C414.205 59.06 411.008 62.192 407.625 65.003C404.928 67.846 401.795 70.512 399.099 73.355C396.652 76.054 394.206 78.753 391.323 81.274C391.008 81.885 390.508 82.174 389.757 82.607C389.192 83.362 388.626 84.117 388.061 84.873C387.496 85.628 386.866 86.849 386.486 87.925C386.172 88.536 385.921 88.68 385.606 89.291C385.356 89.435 385.542 89.757 385.477 90.223C385.727 90.078 385.913 90.4 386.163 90.256C386.664 89.967 386.914 89.822 387.415 89.533C390.232 87.477 393.115 84.956 395.747 82.579C396.498 82.145 397.128 80.924 397.693 80.169C397.943 80.025 398.008 79.559 398.258 79.414C401.011 77.824 403.579 75.913 406.025 73.215C406.59 72.46 407.341 72.026 408.092 71.593C408.593 71.304 408.972 70.227 409.901 71.835C410.902 71.257 411.838 71.145 412.839 70.567C414.091 69.844 415.407 68.656 416.473 67.612C416.723 67.467 417.159 67.644 417.159 67.644C417.094 68.11 416.844 68.255 417.03 68.576C415.148 70.52 413.081 72.142 411.45 73.941C410.95 74.23 410.385 74.985 410.07 75.596C409.125 77.427 407.559 78.76 406.242 79.949C405.427 80.849 404.361 81.893 403.546 82.792C400.478 84.992 397.224 86.871 394.156 89.071C393.906 89.215 393.655 89.36 393.655 89.36C388.771 93.038 383.886 96.715 379.001 100.393C376.434 102.304 374.238 104.858 371.791 107.557C371.541 107.701 371.476 108.167 371.411 108.633C371.662 108.489 372.098 108.666 372.348 108.521C373.664 107.333 374.98 106.144 376.546 104.811L376.797 104.667C379.736 103.399 381.56 100.201 384.564 98.467C393.388 92.944 401.285 85.812 409.367 79.003C413.25 75.903 416.827 71.694 420.525 68.273C421.026 67.984 421.276 67.839 421.777 67.55C422.277 67.261 422.778 66.972 423.529 66.539C427.097 64.05 430.666 61.561 434.049 58.75C437.618 56.261 441.001 53.45 444.569 50.961C446.071 50.094 447.758 49.549 449.26 48.682L449.696 48.859L449.631 49.325C446.935 52.168 444.238 55.011 441.355 57.533C440.29 58.577 439.038 59.3 438.223 60.199C436.091 62.287 434.024 63.909 431.893 65.997C429.01 68.519 425.877 71.185 422.995 73.707C419.297 77.128 415.664 80.083 411.78 83.183C409.964 84.66 407.525 85.639 405.709 87.117C404.207 87.984 402.891 89.172 401.575 90.361C400.759 91.26 399.694 92.305 398.878 93.204C391.361 99.259 383.845 105.314 376.578 111.224C375.577 111.802 374.576 112.38 373.324 113.102C372.008 114.291 370.692 115.48 369.311 117.134C367.43 119.078 365.735 121.343 363.853 123.287C362.787 124.331 361.972 125.23 360.906 126.274C359.84 127.318 358.524 128.507 357.459 129.551C355.828 131.35 353.946 133.294 352.315 135.093C352.065 135.237 352 135.703 351.75 135.848C348.367 138.658 344.734 141.614 341.536 144.746C340.721 145.645 339.655 146.689 339.025 147.91C338.775 148.055 339.146 148.698 338.896 148.842C339.146 148.698 339.332 149.02 339.582 148.875C341.399 147.397 343.28 145.454 345.097 143.976C346.098 143.398 347.099 142.82 347.85 142.387C348.1 142.242 348.286 142.564 348.472 142.885C348.472 142.885 348.407 143.351 348.593 143.673C348.278 144.284 347.963 144.894 347.648 145.505C347.333 146.115 346.582 146.549 346.081 146.838C342.949 149.504 341.43 153.81 339.04 157.763C337.845 159.739 336.465 161.393 335.084 163.048C331.757 167.112 327.623 170.356 323.74 173.456C320.857 175.978 317.975 178.499 315.093 181.021C313.526 182.354 312.331 184.33 311.015 185.519C309.069 187.928 306.687 190.161 304.556 192.249C303.74 193.149 302.925 194.048 302.295 195.269C302.045 195.414 301.98 195.88 302.166 196.201C302.036 197.133 302.844 197.953 303.159 197.343C303.909 196.909 304.475 196.154 304.975 195.865C306.041 194.821 307.292 194.099 308.608 192.91C310.675 191.288 312.742 189.666 314.809 188.044C315.31 187.755 315.625 187.145 315.875 187C319.508 184.045 323.142 181.09 326.775 178.135C328.091 176.946 329.157 175.902 330.473 174.713C330.723 174.569 331.038 173.958 331.474 174.135C332.911 173.734 333.977 172.69 335.107 171.18C335.357 171.036 335.793 171.213 335.793 171.213C335.729 171.679 335.729 171.679 335.664 172.145C335.349 172.755 335.284 173.222 334.784 173.511C332.216 175.422 330.271 177.831 327.703 179.742C323.634 182.52 320.493 186.906 316.424 189.684C313.105 192.029 310.158 195.017 306.775 197.827C304.458 199.594 302.326 201.682 300.195 203.77C299.63 204.525 299.064 205.28 298.499 206.035C297.369 207.545 295.988 209.2 294.672 210.388C287.341 216.765 279.824 222.82 272.307 228.874C267.923 232.263 263.289 235.796 258.905 239.185C257.589 240.373 256.022 241.706 254.52 242.573C250.387 245.817 245.817 248.885 241.683 252.129C239.115 254.04 236.483 256.417 234.658 259.614C232.268 263.566 228.829 265.123 225.882 268.111C224.816 269.155 223.565 269.878 223.492 272.063C223.427 272.529 223.112 273.14 222.612 273.429C221.296 274.618 219.98 275.806 219.035 277.638C218.405 278.859 217.404 279.437 216.588 280.336C216.338 280.481 216.524 280.802 216.459 281.269C218.138 282.443 216.951 282.699 216.451 282.988C215.385 284.032 214.755 285.253 212.826 284.224C212.39 284.047 212.075 284.657 211.825 284.802C209.007 286.857 206.625 289.09 203.807 291.145C203.557 291.29 203.557 291.29 203.307 291.434C200.602 295.997 196.411 297.988 193.028 300.798C188.079 304.942 183.13 309.086 178.18 313.23C175.548 315.607 173.166 317.839 170.534 320.216C168.152 322.449 165.585 324.36 163.138 327.059C155.928 334.223 148.411 340.277 140.644 346.477C134.129 351.953 127.363 357.575 120.847 363.051C112.264 370.15 103.682 377.249 95.0991 384.348C93.5327 385.681 92.152 387.336 90.521 389.135C90.2061 389.745 89.7055 390.034 88.9547 390.468C86.8878 392.09 84.8208 393.712 82.7539 395.334C81.7528 395.912 81.1229 397.133 81.1146 398.853C81.1063 400.572 80.5411 401.327 79.54 401.905C76.157 404.716 72.5237 407.671 69.3264 410.803C68.8258 411.092 68.5109 411.703 68.3816 412.635C68.1877 414.033 67.6225 414.788 66.6214 415.366C64.0539 417.277 61.4864 419.188 59.1045 421.421C58.604 421.71 58.289 422.321 58.41 423.108C58.4664 424.362 57.9012 425.117 57.336 425.872C56.0199 427.061 55.1398 428.426 54.8166 430.756C54.558 432.621 53.7425 433.52 52.7414 434.098C50.5534 434.933 49.544 437.23 47.9777 438.563C47.4771 438.852 47.4125 439.318 46.9119 439.607C44.6593 440.908 43.3996 443.35 42.1399 445.792C41.4454 447.479 40.315 448.99 39.0636 449.712C35.9955 451.912 32.9275 454.112 29.8594 456.312C27.2919 458.223 25.7173 461.276 22.5929 462.223C22.3426 462.367 22.0923 462.512 22.0276 462.978C19.6375 466.93 16.6905 469.918 13.6788 473.371C12.0478 475.17 10.4168 476.97 9.03607 478.624C8.22057 479.524 7.77637 481.066 6.96088 481.966C6.14538 482.865 5.32989 483.765 4.32875 484.343C3.01268 485.532 1.94691 486.576 0.44519 487.443C-1.87201 489.209 -4.37488 490.654 -7.12802 492.244C-8.12916 492.822 -8.69437 493.577 -9.69551 494.155C-11.7624 495.777 -14.2006 496.756 -17.2521 495.517C-18.5599 494.985 -19.997 495.386 -21.1838 495.643C-22.3706 495.899 -22.8065 495.722 -23.7347 494.115C-25.0342 491.864 -26.7133 490.69 -28.0294 491.878C-28.2797 492.023 -28.53 492.167 -29.0305 492.456C-29.7814 492.89 -30.2173 492.713 -30.7096 491.282C-31.2019 489.851 -31.8235 489.353 -32.881 488.677C-37.5469 485.797 -42.2129 482.918 -46.4993 478.962C-47.3065 478.141 -48.2994 477 -49.2922 475.858C-50.6564 474.073 -51.3426 474.041 -52.2227 475.406C-52.788 476.161 -53.1675 477.238 -53.9184 477.672C-54.1687 477.816 -54.6692 478.105 -55.1052 477.928C-55.4764 477.285 -55.5975 476.497 -55.5328 476.031C-55.4682 475.565 -55.4035 475.099 -55.0886 474.489C-54.7737 473.878 -54.2731 473.589 -53.7079 472.834C-52.6421 471.79 -53.1908 469.106 -54.8699 467.931C-55.3058 467.754 -55.7417 467.577 -56.2423 467.866C-56.9931 468.3 -57.5584 469.055 -58.3739 469.954C-60.0695 472.22 -62.6851 471.157 -64.7272 467.62C-65.6554 466.013 -66.398 464.726 -66.8903 463.296C-67.1969 462.187 -68.0041 461.366 -68.5611 460.402C-69.3036 459.116 -70.2965 457.974 -71.475 456.511C-72.6535 455.047 -73.5818 453.44 -74.51 451.832C-74.8813 451.189 -75.6885 450.369 -75.8095 449.581C-77.2864 445.289 -79.8291 442.041 -82.1214 438.649C-83.0497 437.041 -83.7359 437.008 -84.3657 438.229C-84.6807 438.84 -85.2459 439.595 -85.5608 440.206C-86.3763 441.105 -87.0625 441.073 -87.8697 440.252C-88.6769 439.432 -88.9189 437.857 -88.3537 437.102C-87.7239 435.881 -87.53 434.483 -86.7145 433.583C-85.899 432.684 -86.2056 431.575 -86.6979 430.144C-87.2549 429.179 -87.5615 428.07 -88.1184 427.105C-88.6107 425.675 -89.1113 425.964 -89.6119 426.253C-90.613 426.831 -91.4285 427.73 -92.1794 428.164C-92.6799 428.453 -92.7446 428.919 -93.4308 428.886C-93.6811 429.031 -94.5529 428.677 -94.7386 428.355C-94.9242 428.034 -95.0452 427.246 -94.9806 426.78L-94.916 426.314C-93.5999 425.125 -94.2778 423.373 -95.1414 421.299C-96.3763 418.582 -95.6172 416.429 -95.3586 414.565C-95.1647 413.167 -95.2857 412.379 -96.2786 411.238C-97.2714 410.096 -97.772 410.385 -98.5228 410.818C-98.7731 410.963 -99.0234 411.107 -99.2737 411.252C-101.462 412.086 -102.083 411.588 -103.754 408.694C-105.054 406.443 -105.481 404.546 -104.787 402.859C-104.407 401.783 -104.278 400.851 -104.77 399.42C-104.891 398.632 -105.262 397.989 -105.198 397.523C-105.254 396.269 -105.561 395.16 -106.303 393.874C-106.86 392.91 -107.102 391.334 -107.91 390.514C-108.531 390.016 -109.718 390.272 -110.404 390.24C-111.962 389.853 -112.899 389.965 -113.964 391.009C-114.53 391.764 -115.837 391.233 -116.96 391.023C-117.089 391.955 -117.646 390.991 -117.831 390.669C-118.203 390.026 -118.324 389.238 -118.445 388.451C-119.123 386.699 -120.431 386.167 -121.06 387.389C-121.375 387.999 -121.505 388.931 -122.748 387.934C-123.555 387.114 -123.983 385.217 -123.668 384.607C-122.723 382.775 -121.964 380.622 -120.462 379.755C-119.961 379.466 -119.647 378.855 -119.332 378.245C-119.081 378.1 -119.453 377.457 -119.388 376.991C-119.824 376.814 -120.26 376.637 -120.51 376.781C-122.077 378.114 -123.643 379.448 -124.959 380.636C-125.524 381.391 -126.025 381.68 -127.082 381.005C-127.889 380.184 -128.632 378.898 -128.688 377.645C-128.874 377.323 -128.624 377.179 -128.809 376.857C-128.995 376.535 -128.93 376.069 -129.116 375.748C-129.366 375.892 -129.617 376.037 -129.867 376.181C-130.182 376.792 -130.747 377.547 -131.062 378.157C-131.377 378.768 -131.571 380.166 -133 378.847C-133.992 377.706 -134.485 376.275 -133.855 375.054C-133.29 374.299 -132.724 373.544 -132.224 373.255C-129.907 371.488 -127.589 369.722 -125.829 366.991C-125.199 365.769 -125.385 365.448 -126.063 363.696C-128.476 359.516 -131.019 356.268 -133.747 352.698C-135.297 350.592 -135.725 348.695 -135.902 346.654C-135.773 345.722 -135.894 344.934 -136.636 343.648C-137.379 342.362 -137.25 341.429 -136.499 340.996C-135.998 340.707 -135.619 339.63 -135.118 339.341C-134.803 338.731 -134.488 338.12 -135.045 337.156C-135.723 335.403 -135.158 334.648 -134.593 333.893C-134.028 333.138 -133.212 332.239 -132.833 331.162C-132.203 329.941 -132.574 329.298 -133.696 329.088C-135.254 328.702 -135.997 327.415 -136.36 325.053C-136.481 324.265 -136.973 322.834 -137.344 322.191C-138.458 320.262 -139.007 317.578 -137.941 316.534C-136.375 315.201 -136.487 312.693 -135.543 310.862C-134.218 307.953 -134.137 304.048 -132.191 301.638C-131.941 301.494 -132.062 300.706 -131.933 299.774C-132.619 299.742 -133.362 298.455 -133.927 299.21C-135.808 301.154 -137.875 302.776 -140.006 304.864C-141.323 306.053 -142.453 307.563 -143.519 308.607C-144.084 309.362 -144.649 310.117 -145.214 310.872C-145.465 311.017 -145.715 311.161 -145.965 311.306C-146.151 310.984 -146.522 310.341 -146.458 309.875C-146.328 308.943 -146.134 307.545 -146.005 306.613C-144.931 303.849 -143.671 301.407 -142.597 298.643C-142.282 298.032 -141.782 297.743 -141.281 297.454C-139.715 296.121 -137.963 295.11 -136.953 292.812C-136.638 292.201 -135.888 291.768 -135.387 291.479C-134.822 290.724 -134.257 289.969 -133.691 289.214C-132.876 288.314 -132.06 287.415 -131.31 286.981C-129.493 285.504 -128.048 283.383 -127.224 280.764C-126.214 278.466 -126.077 275.814 -125.503 273.339C-125.503 273.339 -125.439 272.873 -125.188 272.729C-124.058 271.219 -122.677 269.564 -121.361 268.376C-119.545 266.898 -117.542 265.742 -115.726 264.265C-113.659 262.642 -111.777 260.699 -109.961 259.221C-108.395 257.888 -107.078 256.7 -105.326 255.688C-104.576 255.255 -103.639 255.143 -102.888 254.709C-100.951 254.019 -99.3842 252.686 -98.1892 250.71C-97.8096 249.633 -97.2444 248.878 -96.2433 248.3C-94.4913 247.289 -92.9249 245.956 -91.7945 244.446C-90.7287 243.402 -89.7839 241.57 -88.9038 240.204C-88.6535 240.06 -88.5889 239.594 -88.3386 239.449C-85.844 239.724 -84.5843 237.282 -82.8323 236.27C-80.83 235.114 -79.078 234.103 -77.2614 232.625C-75.1945 231.003 -73.3132 229.059 -71.1816 226.971C-70.6811 226.682 -70.6164 226.216 -69.9302 226.249C-69.6799 226.104 -69.0583 226.603 -68.8727 226.924C-67.8235 229.32 -67.8235 229.32 -66.2008 229.24C-65.9505 229.096 -65.9505 229.096 -65.5145 229.273C-65.2643 229.128 -65.0786 229.45 -64.893 229.771C-64.7073 230.093 -64.772 230.559 -65.0222 230.704C-65.3372 231.314 -66.088 231.748 -65.3454 233.034C-64.3526 234.175 -64.1587 232.777 -63.6581 232.488C-62.4067 231.766 -61.3409 230.722 -60.2751 229.678C-59.5242 229.244 -58.7734 228.811 -57.4656 229.342C-57.0297 229.519 -56.6584 230.162 -56.2871 230.805C-56.1014 231.127 -56.4164 231.737 -56.6667 231.882C-56.9816 232.492 -57.7324 232.926 -57.8617 233.858C-57.9264 234.324 -57.5551 234.967 -57.6197 235.433C-57.3694 235.289 -56.9335 235.466 -56.6832 235.321C-54.366 233.554 -52.2991 231.932 -49.9819 230.166C-47.915 228.544 -46.2193 226.279 -44.0877 224.191C-43.8375 224.046 -43.7728 223.58 -43.0866 223.612C-42.8363 223.468 -42.4004 223.645 -41.9645 223.822C-42.0291 224.288 -42.0937 224.754 -42.344 224.899C-43.854 227.485 -45.1137 229.928 -47.4309 231.694C-49.7481 233.461 -51.8797 235.549 -54.0113 237.637C-54.2615 237.781 -54.3262 238.248 -54.8268 238.537C-54.8914 239.003 -54.956 239.469 -55.2063 239.613C-54.956 239.469 -54.5201 239.646 -54.0195 239.357C-53.7693 239.212 -53.519 239.068 -53.519 239.068C-52.8327 239.1 -52.6471 239.422 -52.5261 240.209C-52.5907 240.675 -52.72 241.607 -52.7847 242.074C-52.6637 242.861 -52.1714 244.292 -51.5498 244.79C-50.9282 245.289 -49.9917 245.177 -49.9271 244.711C-46.1645 240.824 -42.402 236.937 -38.3891 232.905C-37.0084 231.25 -35.1918 229.773 -33.6254 228.44C-30.9933 226.062 -28.5468 223.364 -26.165 221.131C-24.5986 219.798 -23.2825 218.61 -21.7162 217.276C-20.1498 215.943 -18.5835 214.61 -16.9525 212.811C-15.8867 211.767 -14.8856 211.189 -13.8198 210.145C-13.3192 209.856 -12.633 209.889 -12.0761 210.853C-10.3406 213.281 -9.77541 212.526 -8.45934 211.338C-6.89299 210.004 -5.51229 208.35 -4.01057 207.483C-1.69337 205.716 0.623842 203.95 3.12669 202.505C4.6284 201.638 6.1301 200.771 7.44617 199.582C11.0794 196.627 14.4624 193.816 18.2814 191.183C18.5317 191.038 18.5316 191.038 18.7819 190.894C19.0322 190.749 19.4682 190.926 20.1544 190.959C20.0897 191.425 20.2107 192.212 19.8958 192.823C19.5809 193.434 19.0803 193.723 18.83 193.867C17.0134 195.345 14.9465 196.967 13.1298 198.444C12.5646 199.199 11.9348 200.42 11.5552 201.497C11.4906 201.963 11.7972 203.072 12.1685 203.715C12.3542 204.037 13.0404 204.069 13.4763 204.246C13.9122 204.424 13.9769 203.957 14.4774 203.668C18.6113 200.424 22.6805 197.646 26.8143 194.402C32.014 190.114 37.2136 185.826 42.2275 181.216C44.0442 179.738 46.2321 178.904 48.541 178.857C49.2273 178.89 49.9781 178.456 50.4787 178.167C52.6102 176.079 54.7418 173.991 56.1308 170.617C56.8253 168.929 58.3916 167.596 59.5221 166.086C61.9685 163.388 64.6007 161.01 67.2328 158.633C69.6146 156.401 72.4324 154.345 74.9999 152.434C78.4476 149.157 81.8952 145.881 85.2782 143.07C86.8445 141.737 88.4109 140.404 90.2275 138.926C96.6786 133.916 102.944 128.583 109.395 123.573C110.461 122.529 111.648 122.272 112.713 121.228C112.964 121.084 112.964 121.084 113.214 120.939C114.659 118.819 117.033 118.306 118.664 116.506C119.479 115.607 120.545 114.563 121.361 113.663C122.677 112.475 124.614 111.785 125.93 110.596C127.997 108.974 129.628 107.175 131.51 105.231C131.76 105.087 132.01 104.942 132.075 104.476C133.149 101.713 134.965 100.235 136.782 98.758C143.483 93.602 149.749 88.27 156.45 83.115C160.083 80.16 164.153 77.382 167.972 74.748C170.289 72.981 172.856 71.07 175.359 69.625C176.11 69.192 176.425 68.581 177.668 69.578C177.854 69.9 178.104 69.756 178.354 69.611C179.105 69.178 180.042 69.066 180.357 68.455C184.49 65.211 188.81 62.288 192.944 59.044C194.445 58.177 195.697 57.455 197.32 57.375C199.443 57.007 201.566 56.638 203.383 55.161C207.767 51.772 212.401 48.239 216.785 44.85C219.353 42.939 221.735 40.707 224.674 39.439C226.926 38.138 229.179 36.838 231.682 35.393C232.432 34.959 233.183 34.526 233.684 34.237C236.502 32.181 239.57 29.981 242.387 27.925C245.956 25.436 249.525 22.947 253.093 20.458C256.662 17.969 260.045 15.158 263.363 12.814C265.681 11.047 267.933 9.747 270.557 9.089C271.058 8.8 271.558 8.511 272.309 8.078C275.127 6.022 277.945 3.967 281.013 1.767C282.264 1.044 283.33 -2.92063e-06 284.331 -0.578003C284.581 -0.722003 285.203 -0.223997 285.639 -0.0469971C285.574 0.419003 285.509 0.884998 285.445 1.351C280.81 4.885 275.926 8.562 271.291 12.095C268.974 13.862 266.221 15.451 263.904 17.218C255.886 23.562 247.683 29.584 239.416 36.072C235.847 38.561 232.714 41.227 229.146 43.716C228.395 44.15 227.394 44.728 227.821 46.625C228.007 46.946 227.692 47.557 227.442 47.701C226.626 48.601 225.811 49.5 225.246 50.255C221.548 53.677 217.414 56.921 213.716 60.342C212.9 61.242 212.085 62.141 211.269 63.041C209.138 65.129 207.006 67.217 205.06 69.627L204.81 69.771C204.745 70.237 204.681 70.703 204.866 71.025C205.302 71.202 205.738 71.379 205.989 71.234C207.24 70.512 208.742 69.645 209.993 68.922C210.243 68.778 210.494 68.633 210.744 68.489C211.18 68.666 211.866 68.698 211.801 69.164C211.987 69.486 212.108 70.274 211.793 70.884C211.729 71.35 211.228 71.639 210.727 71.928C206.844 75.028 202.71 78.272 198.826 81.372C194.693 84.616 190.373 87.538 186.239 90.782C183.422 92.838 180.854 94.749 178.036 96.805C177.285 97.238 176.284 97.816 177.212 99.424C177.955 100.71 178.956 100.132 179.521 99.377C183.09 96.888 186.473 94.077 189.856 91.267C192.424 89.356 195.241 87.3 198.366 86.354C199.803 85.953 200.869 84.909 202.37 84.042C203.121 83.608 203.501 82.531 203.194 81.422C203.138 80.169 203.453 79.558 204.139 79.591C204.389 79.446 204.389 79.446 204.639 79.302C207.069 80.042 208.45 78.388 210.016 77.055C213.335 74.71 216.532 71.578 220.222 69.876C225.914 67.019 230.677 62.554 235.812 58.732C240.947 54.909 245.897 50.766 250.846 46.622C252.663 45.144 254.665 43.988 256.417 42.977C256.667 42.832 257.353 42.865 257.789 43.042C257.725 43.508 257.846 44.296 257.781 44.762C257.466 45.372 257.151 45.983 256.651 46.272C253.268 49.082 249.634 52.038 246.437 55.17C243.24 58.302 239.792 61.579 236.595 64.711C234.463 66.799 232.267 69.353 229.764 70.798C220.939 76.322 213.479 83.63 205.026 89.797C203.774 90.519 203.144 91.74 202.079 92.785C201.828 92.929 202.014 93.251 201.764 93.395C202.014 93.251 202.014 93.251 202.264 93.106C202.515 92.962 202.7 93.283 202.95 93.139C202.886 93.605 203.071 93.926 202.821 94.071C202.506 94.681 201.941 95.436 201.44 95.725C200.124 96.914 198.558 98.247 197.428 99.757C196.927 100.046 196.426 100.335 195.926 100.624C194.109 102.102 192.293 103.579 190.662 105.378C190.411 105.523 190.532 106.31 190.718 106.632C191.154 106.809 191.34 107.131 191.59 106.986C192.526 106.874 193.277 106.441 194.028 106.007C195.53 105.14 197.032 104.273 198.784 103.261C204.169 99.295 209.554 95.328 214.754 91.04C222.206 85.451 229.472 79.541 236.925 73.952C238.176 73.23 239.177 72.652 240.243 71.608C240.994 71.174 241.624 69.953 242.375 69.52C243.941 68.187 245.693 67.175 247.259 65.842C248.761 64.975 250.077 63.786 251.143 62.742C252.394 62.02 253.646 61.297 254.711 60.253C255.713 59.675 256.092 58.599 257.093 58.021C261.728 54.488 265.926 50.777 270.561 47.244C272.127 45.911 273.443 44.723 275.195 43.711C276.261 42.667 277.577 41.478 279.2 41.399C279.635 41.576 279.95 40.966 280.451 40.677C281.767 39.488 283.269 38.621 284.585 37.432C285.085 37.143 285.4 36.533 286.458 37.208C287.079 37.707 287.645 36.952 288.395 36.518C293.595 32.23 298.73 28.408 303.93 24.12C306.812 21.598 309.88 19.398 312.763 16.877C315.395 14.5 318.463 12.299 320.909 9.601C326.367 3.448 333.19 -0.919001 339.019 -6.429C341.651 -8.806 343.848 -11.36 346.48 -13.737C348.547 -15.359 350.799 -16.66 352.616 -18.137C354.683 -19.759 357.307 -20.417 358.752 -22.537C359.002 -22.682 359.253 -22.826 359.317 -23.292C363.701 -26.681 368.15 -30.536 372.534 -33.924C372.785 -34.069 373.035 -34.213 373.285 -34.358C378.412 -36.46 382.425 -40.492 386.873 -44.3466C387.124 -44.4911 387.124 -44.4911 387.374 -44.6356C390.313 -45.9036 392.138 -49.1008 394.891 -50.6904C395.391 -50.9794 395.706 -51.5899 396.272 -52.345L396.707 -52.1679C396.764 -50.9143 397.45 -50.8817 397.765 -51.4923C400.397 -53.8694 403.029 -56.2465 406.097 -58.4466C407.413 -59.6352 408.915 -60.5022 410.417 -61.3692C410.917 -61.6582 411.668 -62.0917 412.169 -62.3807C415.051 -64.9023 417.934 -67.424 420.816 -69.9456C425.765 -74.0893 430.9 -77.9114 435.85 -82.0551C438.167 -83.8217 440.363 -86.3758 442.495 -88.4639C444.941 -91.1626 447.824 -93.6842 450.27 -96.3829C451.086 -97.2825 451.901 -98.182 452.717 -99.0816C454.033 -100.27 455.098 -101.314 456.414 -102.503C458.861 -105.201 461.493 -107.579 463.94 -110.277C466.636 -113.12 469.454 -115.176 472.893 -116.733C473.144 -116.877 473.144 -116.877 473.58 -116.7L473.515 -116.234C473.006 -114.226 471.319 -113.68 470.253 -112.636C467.556 -109.793 464.859 -106.95 461.912 -103.962C459.531 -101.73 457.585 -99.3198 455.388 -96.7657C453.257 -94.6776 451.561 -92.4124 449.43 -90.3243C447.799 -88.5252 446.353 -86.4045 444.351 -85.2485C442.849 -84.3815 441.654 -82.4053 440.088 -81.0722C438.522 -79.7392 436.955 -78.4061 435.139 -76.9286C434.573 -76.1735 433.572 -75.5955 433.443 -74.6634C432.749 -72.9763 431.432 -71.7877 430.181 -71.0652C424.731 -66.6325 419.346 -62.6658 414.082 -57.9116C412.766 -56.723 411.885 -55.3574 410.755 -53.8473C409.939 -52.9478 409.124 -52.0482 408.559 -51.2932C406.363 -48.739 404.166 -46.1848 401.97 -43.631C401.72 -43.486 401.72 -43.486 401.655 -43.02C401.905 -43.165 402.091 -42.843 402.341 -42.988L402.592 -43.132C405.66 -45.3322 408.728 -47.5322 412.046 -49.8768C413.047 -50.4548 413.798 -50.8883 414.799 -51.4663C418.118 -53.8109 421.436 -56.1555 424.569 -58.8216C425.885 -60.0102 426.951 -61.0542 428.267 -62.2428C429.898 -64.0419 431.529 -65.841 433.345 -67.3186C433.596 -67.4631 433.91 -68.0736 434.346 -67.8966C436.47 -68.265 437.6 -69.7751 438.981 -71.4297C439.296 -72.0403 439.796 -72.3293 440.047 -72.4738C445.496 -76.9065 450.696 -81.1947 456.146 -85.6274C459.028 -88.149 461.725 -90.9922 464.357 -93.3693C465.924 -94.7024 467.054 -96.2125 468.621 -97.5455C468.871 -97.69 469.121 -97.8345 469.371 -97.979L469.807 -97.802C469.993 -97.4804 469.743 -97.3359 469.928 -97.0144C469.928 -97.0144 469.928 -97.0144 469.678 -96.8699C468.233 -94.7492 467.038 -92.7731 465.592 -90.6524C465.342 -90.5079 465.342 -90.5079 465.092 -90.3634C463.283 -90.6055 462.339 -88.7739 461.273 -87.7298C460.021 -87.0073 458.891 -85.4972 457.825 -84.4532C457.26 -83.6981 456.509 -83.2646 455.508 -82.6866C450.058 -78.2539 444.358 -73.6767 438.908 -69.244C438.407 -68.955 438.092 -68.3444 437.777 -67.7339C438.278 -68.0229 438.964 -67.9903 439.215 -68.1348C441.217 -69.2908 443.098 -71.2345 445.657 -71.4258C446.594 -71.5378 447.595 -72.1158 448.346 -72.5493C448.596 -72.6938 448.782 -72.3723 449.218 -72.1952C449.153 -71.7292 449.339 -71.4076 449.088 -71.2631C447.272 -69.7856 445.641 -67.9865 444.074 -66.6534C442.758 -65.4648 441.442 -64.2763 439.69 -63.2648C437.623 -61.6427 435.556 -60.0206 433.49 -58.3986C432.739 -57.9651 432.424 -57.3545 432.044 -56.2779C431.915 -55.3458 432.472 -54.3812 433.158 -54.3486C433.844 -54.3161 434.095 -54.4606 434.595 -54.7496C436.412 -56.2272 438.293 -58.1708 440.11 -59.6483C442.427 -61.4149 444.679 -62.7154 447.182 -64.1605C447.433 -64.305 447.868 -64.1279 448.119 -64.2724C448.054 -63.8063 448.24 -63.4848 447.99 -63.3403C447.675 -62.7298 447.109 -61.9747 446.609 -61.6857C445.042 -60.3526 443.226 -58.8751 441.66 -57.542C441.094 -56.787 440.279 -55.8874 439.714 -55.1324C439.463 -54.9879 439.649 -54.6663 439.584 -54.2003C439.835 -54.3448 440.02 -54.0232 440.271 -54.1677C441.207 -54.2797 441.893 -54.2471 442.709 -55.1467C444.089 -56.8013 445.656 -58.1343 447.287 -59.9335C449.418 -62.0216 451.364 -64.4312 453.496 -66.5193C455.692 -69.0735 457.888 -71.6277 461.013 -72.5741C461.949 -72.6861 462.765 -73.5856 464.193 -72.2669C463.628 -71.5119 463.063 -70.7568 462.498 -70.0018C459.93 -68.0907 457.113 -66.0351 455.288 -62.8379C454.973 -62.2273 454.722 -62.0828 454.843 -61.2952C454.835 -59.5755 454.27 -58.8204 453.519 -58.3869C450.136 -55.5763 446.818 -53.2317 443.435 -50.4211C443.184 -50.2766 443.12 -49.8105 443.12 -49.8105C443.37 -49.955 443.62 -50.0996 443.62 -50.0996C444.121 -50.3886 444.371 -50.5331 444.872 -50.8221C445.122 -50.9666 445.308 -50.6451 445.744 -50.468C445.679 -50.002 445.865 -49.6804 445.614 -49.5359C445.049 -48.7808 444.549 -48.4919 443.798 -48.0583C441.796 -46.9023 439.979 -45.4247 438.348 -43.626C436.967 -41.971 434.779 -41.137 433.213 -39.804C429.895 -37.459 426.391 -35.436 424.436 -31.307C424.121 -30.696 423.621 -30.407 423.12 -30.118C419.737 -27.307 416.354 -24.497 412.971 -21.686C411.905 -20.642 411.025 -19.276 409.774 -18.554C407.521 -17.253 405.826 -14.988 404.13 -12.723C403.815 -12.113 403.315 -11.824 402.814 -11.535C399.996 -9.479 397.243 -7.88899 394.611 -5.51199C386.594 0.831007 378.762 7.49701 370.68 14.307C369.113 15.64 367.983 17.15 366.602 18.804C366.102 19.093 365.787 19.704 365.286 19.993C362.654 22.37 359.586 24.57 356.768 26.626C355.202 27.959 353.7 28.826 352.134 30.159C350.317 31.636 348.686 33.436 347.12 34.769C346.304 35.668 345.554 36.102 344.552 36.68C343.236 37.868 341.735 38.735 340.168 40.068C339.918 40.213 339.668 40.357 339.853 40.679C337.471 42.911 335.154 44.678 332.772 46.911C331.957 47.81 331.141 48.71 330.326 49.609C330.076 49.754 330.011 50.22 329.946 50.686C329.882 51.152 330.067 51.474 330.003 51.94C330.253 51.795 330.689 51.972 330.939 51.828C332.756 50.35 334.573 48.872 336.389 47.395C337.705 46.206 338.957 45.484 340.273 44.295C340.773 44.006 340.838 43.54 341.524 43.573C341.774 43.428 342.461 43.461 342.897 43.638C342.832 44.104 342.582 44.248 342.267 44.859C341.952 45.47 341.637 46.08 341.322 46.691C341.823 46.402 342.137 45.791 342.888 45.358C343.389 45.069 343.954 44.313 344.269 43.703C346.336 42.081 348.653 40.314 350.72 38.692C357.486 33.071 364.002 27.594 370.768 21.973C373.085 20.206 375.031 17.797 376.912 15.853C377.663 15.42 378.164 15.131 378.914 14.697C381.232 12.931 383.613 10.698 385.745 8.61C386.811 7.566 388.062 6.843 389.128 5.799C392.01 3.278 394.893 0.755994 397.775 -1.76601C398.841 -2.81001 399.842 -3.38801 401.4 -3.00101C402.086 -2.96901 403.088 -3.547 403.838 -3.98C404.089 -4.125 404.525 -3.948 404.525 -3.948C404.46 -3.482 404.646 -3.16 404.581 -2.694C404.516 -2.228 404.016 -1.93901 403.951 -1.47301C402.885 -0.429007 402.441 1.11401 403.741 3.36501C403.926 3.68601 404.112 4.00799 403.862 4.15199C403.853 5.87199 404.225 6.515 405.476 5.793L405.912 5.97C406.098 6.291 405.847 6.436 405.847 6.436C405.597 6.58 405.533 7.046 405.097 6.869C401.407 8.571 398.71 11.414 395.763 14.402C395.263 14.691 394.948 15.301 394.697 15.446C392.065 17.823 389.433 20.2 386.551 22.721C384.984 24.054 383.668 25.243 382.288 26.898C380.277 29.773 377.895 32.006 377.063 36.345C376.805 38.209 375.488 39.398 374.794 41.085C374.729 41.551 374.414 42.161 374.164 42.306C374.665 42.017 375.101 42.194 375.601 41.905C378.169 39.994 380.801 37.617 383.869 35.417ZM428.579 28.467C432.963 25.079 436.911 21.513 441.11 17.803C444.242 15.137 447.125 12.615 450.072 9.62801C450.823 9.19401 451.202 8.117 451.768 7.362C452.018 7.218 451.832 6.89599 451.897 6.42999C451.647 6.57499 451.461 6.25299 451.211 6.39799C449.959 7.11999 448.708 7.84301 447.206 8.71001C445.955 9.43201 444.639 10.621 443.573 11.665C440.505 13.865 436.815 15.566 433.933 18.088C428.483 22.521 422.662 26.31 417.769 31.708C415.887 33.651 413.941 36.061 412.246 38.326C411.931 38.937 411.866 39.403 411.551 40.013C411.487 40.479 411.672 40.801 411.858 41.122C412.108 40.978 412.294 41.299 412.544 41.155C413.045 40.866 413.295 40.721 413.796 40.432C415.927 38.344 418.244 36.578 420.626 34.345C423.129 32.9 425.761 30.523 428.579 28.467ZM393.258 -35.6C395.575 -37.366 397.893 -39.133 400.024 -41.221C400.274 -41.366 400.589 -41.976 400.654 -42.442C399.847 -43.262 400.347 -43.551 400.598 -43.696C400.913 -44.3063 401.042 -45.2384 401.357 -45.849C400.856 -45.56 400.17 -45.5925 399.669 -45.3035C399.419 -45.159 398.919 -44.87 398.668 -44.7255C395.285 -41.915 391.902 -39.104 388.705 -35.972C387.954 -35.539 387.324 -34.317 386.146 -35.781C385.96 -36.102 385.71 -35.958 385.46 -35.813C384.644 -34.914 383.021 -34.834 382.02 -34.256C379.768 -32.956 377.701 -31.334 375.698 -30.178C374.697 -29.6 374.503 -28.201 374.745 -26.626C375.173 -24.73 376.166 -23.588 377.417 -24.31C377.668 -24.455 378.168 -24.744 378.419 -24.888C379.169 -25.322 380.171 -25.9 380.921 -26.333C383.424 -27.778 385.491 -29.4 387.994 -30.846C389.375 -32.5 391.191 -33.978 393.258 -35.6ZM460.35 0.264008C459.85 0.553008 459.349 0.842 458.784 1.597C457.968 2.496 457.088 3.862 456.273 4.761C456.208 5.227 456.143 5.693 455.828 6.304C456.079 6.159 456.765 6.192 457.015 6.048C457.266 5.903 457.516 5.759 457.516 5.759C462.15 2.225 465.977 -2.12799 469.433 -7.12399C469.684 -7.26899 469.748 -7.735 469.999 -7.879C469.748 -7.735 469.498 -7.59 469.248 -7.446C468.747 -7.157 468.247 -6.868 467.932 -6.257C465.364 -4.346 462.982 -2.11399 460.35 0.264008ZM-105.739 263.643C-104.173 262.31 -102.792 260.656 -101.411 259.001C-101.161 258.857 -101.096 258.391 -101.032 257.925C-101.282 258.069 -101.718 257.892 -101.968 258.037C-102.219 258.181 -102.469 258.326 -102.469 258.326C-104.536 259.948 -106.231 262.213 -108.67 263.192L-108.92 263.336C-108.985 263.802 -109.049 264.268 -109.55 264.557C-109.114 264.734 -108.492 265.233 -108.242 265.089C-107.055 264.832 -106.49 264.077 -105.739 263.643ZM169.043 98.567C168.542 98.856 167.977 99.611 167.412 100.366L167.347 100.832C167.533 101.154 167.783 101.01 167.968 101.331L168.219 101.187C169.535 99.998 170.851 98.809 171.917 97.765C172.167 97.621 172.167 97.621 172.232 97.155L171.796 96.978C170.795 97.556 170.044 97.989 169.043 98.567Z" fill="#E30D16"/>
<path d="M-0.166813 199.69C-2.98459 201.745 -5.80238 203.801 -8.62016 205.857C-11.1877 207.768 -13.3839 210.322 -16.2016 212.377C-17.2674 213.422 -18.5189 214.144 -20.0206 215.011C-21.272 215.734 -22.3378 216.778 -23.6538 217.966C-27.5374 221.066 -31.4856 224.631 -35.3691 227.731L-35.6194 227.876C-36.12 228.165 -36.6852 228.92 -37.2421 227.955C-37.9847 226.669 -37.0482 226.557 -36.5477 226.268C-34.3515 223.714 -31.9696 221.481 -29.0308 220.213C-28.28 219.78 -27.7148 219.025 -26.7136 218.447C-25.2119 217.58 -23.4599 216.568 -22.1438 215.379C-20.8924 214.657 -19.8266 213.613 -19.1322 211.926C-18.8172 211.315 -18.3167 211.026 -18.0664 210.882C-16.2497 209.404 -14.4977 208.393 -12.6811 206.915C-11.9302 206.482 -11.3004 205.26 -10.5495 204.827C-9.79865 204.393 -8.79751 203.815 -8.04666 203.382C-7.54609 203.093 -7.2958 202.948 -6.79523 202.659C-4.21946 199.029 -0.715477 197.006 2.90952 195.77C3.15981 195.626 3.59573 195.803 4.03166 195.98C3.96702 196.446 3.90239 196.912 3.6521 197.056C2.40068 197.779 0.898968 198.646 -0.166813 199.69Z" fill="#E30D16"/>
<path d="M174.53 47.382C173.965 48.137 172.407 47.75 171.6 46.93C170.793 46.11 170.486 45.001 171.051 44.246C171.616 43.49 173.174 43.877 174.167 45.019C175.225 45.694 175.531 46.804 174.53 47.382Z" fill="#E30D16"/>
<path d="M8.6013 192.913C7.85044 193.346 7.09958 193.78 6.16308 193.891C5.9128 194.036 5.47688 193.859 5.29123 193.537C5.35587 193.071 5.23486 192.284 5.23486 192.284C6.236 191.706 7.23715 191.128 8.23829 190.55C8.48858 190.405 8.67422 190.727 8.85986 191.048C9.04551 191.37 8.98088 191.836 8.98088 191.836C8.91623 192.302 8.85159 192.768 8.6013 192.913Z" fill="#E30D16"/>
<path d="M15.6174 187.146C15.1168 187.435 14.366 187.869 13.8654 188.158C13.6151 188.302 13.2438 187.659 13.0582 187.338C12.8726 187.016 12.9372 186.55 12.9372 186.55C13.0018 186.084 13.5024 185.795 13.7527 185.651C14.5035 185.217 15.0041 184.928 15.755 184.495C16.0052 184.35 16.4412 184.527 16.8771 184.704C16.8125 185.17 16.7478 185.636 16.4975 185.781C16.6185 186.568 16.118 186.857 15.6174 187.146Z" fill="#E30D16"/>
<path d="M49.6894 160.616C49.4392 160.76 49.4392 160.76 49.1889 160.905L48.7529 160.728L48.8176 160.262C49.3828 159.507 50.0126 158.286 50.5779 157.531C50.8281 157.386 51.2641 157.563 51.4497 157.885C51.3851 158.351 51.5707 158.672 51.3204 158.817C51.0055 159.427 50.2547 159.861 49.6894 160.616C49.5038 160.294 49.5038 160.294 49.6894 160.616Z" fill="#E30D16"/>
<path d="M34.4055 172.87C34.1552 173.015 33.7192 172.837 33.4689 172.982L33.0977 172.339C33.4126 171.728 33.6629 171.584 33.9778 170.973C34.2281 170.829 34.2281 170.829 34.4784 170.684C34.7286 170.54 34.9143 170.861 35.3502 171.038C35.2856 171.504 35.4712 171.826 35.2209 171.97C35.1563 172.437 34.906 172.581 34.4055 172.87Z" fill="#E30D16"/>
</g>
</g>
</g>
<defs>
<clipPath id="clip0_1432_18">
<rect width="287" height="206" fill="white"/>
</clipPath>
<clipPath id="clip1_1432_18">
<rect width="287" height="350" fill="white" transform="translate(0 -144)"/>
</clipPath>
</defs>
</svg>
