<svg width="18" height="137" viewBox="0 0 18 137" fill="none" xmlns="http://www.w3.org/2000/svg">
<path d="M15.9258 16.1016L1.93359 1.92188V16.1016H0.46875V0H2.08594L16.0781 14.2266V0H17.5195V16.1016H15.9258Z" fill="white"/>
<path d="M2.64844 56.1016V40H16.0664V41.3711H4.24219V46.9141H15.4688V48.2734H4.24219V54.7305H16.2422V56.1016H2.64844Z" fill="white"/>
<path d="M9 88.8242L2.0625 96.1016H0.210938L8.08594 87.8398L0.597656 80H2.44922L9 86.8906L15.5742 80H17.4258L9.9375 87.8398L17.8008 96.1016H15.9609L9 88.8242Z" fill="white"/>
<path d="M9.72656 121.336V136.102H8.27344V121.336H0.949219V120H17.0508V121.336H9.72656Z" fill="white"/>
</svg>
