<svg width="20" height="137" viewBox="0 0 20 137" fill="none" xmlns="http://www.w3.org/2000/svg">
<path d="M18.5781 4.94531C18.5781 5.75 18.4453 6.46094 18.1797 7.07812C17.9219 7.69531 17.5117 8.21484 16.9492 8.63672C16.3867 9.05859 15.6602 9.37891 14.7695 9.59766C13.8867 9.80859 12.8203 9.91406 11.5703 9.91406H4.33984V16.1016H2.875V0H11.5703C12.8203 0 13.8867 0.109375 14.7695 0.328125C15.6602 0.539062 16.3867 0.851562 16.9492 1.26562C17.5117 1.67969 17.9219 2.19531 18.1797 2.8125C18.4453 3.42969 18.5781 4.14062 18.5781 4.94531ZM17.0664 4.94531C17.0664 4.17969 16.9375 3.5625 16.6797 3.09375C16.4297 2.625 16.0391 2.26562 15.5078 2.01562C14.9844 1.75781 14.3164 1.58594 13.5039 1.5C12.6992 1.41406 11.7422 1.37109 10.6328 1.37109H4.33984V8.54297H10.6328C11.0625 8.54297 11.5195 8.54688 12.0039 8.55469C12.4961 8.55469 12.9805 8.53125 13.457 8.48438C13.9336 8.42969 14.3867 8.33984 14.8164 8.21484C15.2539 8.08203 15.6367 7.88281 15.9648 7.61719C16.3008 7.35156 16.5664 7.00391 16.7617 6.57422C16.9648 6.14453 17.0664 5.60156 17.0664 4.94531Z" fill="white"/>
<path d="M4.17578 49.2109V56.1016H2.71094V40H10.7266C11.9531 40 13.0039 40.0977 13.8789 40.293C14.7539 40.4805 15.4688 40.7695 16.0234 41.1602C16.5859 41.543 16.9961 42.0234 17.2539 42.6016C17.5117 43.1797 17.6406 43.8555 17.6406 44.6289C17.6406 45.832 17.3242 46.7969 16.6914 47.5234C16.0586 48.2422 15.0391 48.7344 13.6328 49L19.1289 56.1016H17.2891L12.0977 49.1641C11.8789 49.1797 11.6562 49.1914 11.4297 49.1992C11.2031 49.207 10.9688 49.2109 10.7266 49.2109H4.17578ZM16.1289 44.6289C16.1289 43.9414 16.0078 43.3867 15.7656 42.9648C15.5234 42.5352 15.1289 42.2031 14.582 41.9688C14.0352 41.7344 13.3164 41.5781 12.4258 41.5C11.543 41.4141 10.457 41.3711 9.16797 41.3711H4.17578V47.8398H9.12109C10.4102 47.8398 11.5 47.8047 12.3906 47.7344C13.2812 47.6562 14.0039 47.5039 14.5586 47.2773C15.1133 47.043 15.5117 46.7188 15.7539 46.3047C16.0039 45.8828 16.1289 45.3242 16.1289 44.6289Z" fill="white"/>
<path d="M3.64844 96.1016V80H17.0664V81.3711H5.24219V86.9141H16.4688V88.2734H5.24219V94.7305H17.2422V96.1016H3.64844Z" fill="white"/>
<path d="M11.0547 136.102H8.86328L0.824219 120H2.46484L10 135.094L17.5352 120H19.1641L11.0547 136.102Z" fill="white"/>
</svg>
