<svg width="18" height="17" viewBox="0 0 18 17" fill="none" xmlns="http://www.w3.org/2000/svg">
<path d="M7.39844 1.27344L0.523438 7.83594C0.341146 8.01823 0.25 8.23958 0.25 8.5C0.25 8.76042 0.341146 8.98177 0.523438 9.16406L7.39844 15.7266C7.86719 16.0911 8.3099 16.0911 8.72656 15.7266C9.09115 15.2578 9.09115 14.8151 8.72656 14.3984L3.53125 9.4375H16.8125C17.3854 9.38542 17.6979 9.07292 17.75 8.5C17.6979 7.92708 17.3854 7.61458 16.8125 7.5625H3.53125L8.72656 2.60156C9.09115 2.1849 9.09115 1.74219 8.72656 1.27344C8.3099 0.908854 7.86719 0.908854 7.39844 1.27344Z" fill="white"/>
</svg>
