<svg width="18" height="17" viewBox="0 0 18 17" fill="none" xmlns="http://www.w3.org/2000/svg">
<path d="M10.6016 1.27344L17.4766 7.83594C17.6589 8.01823 17.75 8.23958 17.75 8.5C17.75 8.76042 17.6589 8.98177 17.4766 9.16406L10.6016 15.7266C10.1328 16.0911 9.6901 16.0911 9.27344 15.7266C8.90885 15.2578 8.90885 14.8151 9.27344 14.3984L14.4688 9.4375H1.1875C0.614583 9.38542 0.302083 9.07292 0.25 8.5C0.302083 7.92708 0.614583 7.61458 1.1875 7.5625H14.4688L9.27344 2.60156C8.90885 2.1849 8.90885 1.74219 9.27344 1.27344C9.6901 0.908854 10.1328 0.908854 10.6016 1.27344Z" fill="white"/>
</svg>
