<svg width="80" height="70" viewBox="0 0 80 70" fill="none" xmlns="http://www.w3.org/2000/svg">
<path d="M64 7.77403C66.1217 7.77403 68.1566 8.59346 69.6569 10.0521C71.1571 11.5106 72 13.4889 72 15.5517C72 17.6144 71.1571 19.5927 69.6569 21.0513C68.1566 22.5099 66.1217 23.3293 64 23.3293C61.8783 23.3293 59.8434 22.5099 58.3432 21.0513C56.8429 19.5927 56 17.6144 56 15.5517C56 13.4889 56.8429 11.5106 58.3432 10.0521C59.8434 8.59346 61.8783 7.77403 64 7.77403ZM71.08 29.5047C69.24 41.8867 64.264 52.5732 53.168 63.353C52.7961 63.7146 52.5011 64.1438 52.2998 64.6162C52.0985 65.0886 51.995 65.5949 51.995 66.1063C51.995 66.6176 52.0985 67.1239 52.2998 67.5963C52.5011 68.0687 52.7961 68.498 53.168 68.8596C53.5399 69.2211 53.9814 69.5079 54.4673 69.7036C54.9533 69.8993 55.4741 70 56 70C56.526 70 57.0468 69.8993 57.5327 69.7036C58.0186 69.5079 58.4601 69.2211 58.832 68.8596C75.784 52.371 80 35.7113 80 15.5517C79.9992 12.171 78.8656 8.88257 76.7707 6.18422C74.6758 3.48587 71.7337 1.52447 68.3898 0.596926C65.0459 -0.330616 61.4823 -0.173804 58.2382 1.04362C54.9942 2.26105 52.2464 4.47281 50.4108 7.34412C48.5752 10.2154 47.7518 13.5899 48.0651 16.9569C48.3784 20.3238 49.8115 23.4999 52.1473 26.0042C54.4832 28.5086 57.5946 30.205 61.0107 30.8366C64.4269 31.4683 67.9616 31.0007 71.08 29.5047ZM16 7.77403C18.1217 7.77403 20.1566 8.59346 21.6569 10.0521C23.1572 11.5106 24 13.4889 24 15.5517C24 17.6144 23.1572 19.5927 21.6569 21.0513C20.1566 22.5099 18.1217 23.3293 16 23.3293C13.8783 23.3293 11.8435 22.5099 10.3432 21.0513C8.84287 19.5927 8.00001 17.6144 8.00001 15.5517C8.00001 13.4889 8.84287 11.5106 10.3432 10.0521C11.8435 8.59346 13.8783 7.77403 16 7.77403ZM23.08 29.5047C21.24 41.8867 16.264 52.5732 5.16802 63.353C4.79611 63.7146 4.5011 64.1438 4.29983 64.6162C4.09856 65.0886 3.99496 65.5949 3.99496 66.1063C3.99496 66.6176 4.09856 67.1239 4.29983 67.5963C4.5011 68.0687 4.79611 68.498 5.16802 68.8596C5.53992 69.2211 5.98143 69.5079 6.46735 69.7036C6.95326 69.8993 7.47406 70 8.00001 70C8.52597 70 9.04677 69.8993 9.53268 69.7036C10.0186 69.5079 10.4601 69.2211 10.832 68.8596C27.784 52.371 32 35.7113 32 15.5517C31.9992 12.171 30.8656 8.88257 28.7707 6.18422C26.6758 3.48587 23.7338 1.52447 20.3899 0.596926C17.046 -0.330616 13.4823 -0.173804 10.2382 1.04362C6.99417 2.26105 4.24639 4.47281 2.41081 7.34412C0.575226 10.2154 -0.248226 13.5899 0.0651009 16.9569C0.378428 20.3238 1.81147 23.4999 4.14732 26.0042C6.48316 28.5086 9.59464 30.205 13.0108 30.8366C16.4269 31.4683 19.9616 31.0007 23.08 29.5047Z" fill="#F41E1E"/>
</svg>
