<svg width="175" height="50" viewBox="0 0 175 50" fill="none" xmlns="http://www.w3.org/2000/svg">
<path d="M158.717 50.0002V23.4474H149.006V18.3335H175V23.4474H165.338V50.0002H158.717Z" fill="white"/>
<path d="M136.302 50.0002V18.3335H142.923V50.0002H136.302Z" fill="white"/>
<path d="M102.286 50.0002V18.3335H108.907V31.7574L121.07 18.3335H128.672L117.245 31.1673L129.261 50.0002H122.198L113.125 35.3961L108.907 39.9691V50.0002H102.286Z" fill="white"/>
<path d="M65.707 25.3277C59.2331 21.0603 52.0938 17.6588 46.5007 12.1773L46.0707 12.1636C45.6648 13.9184 45.4657 15.8531 46.2444 17.5389C46.8988 19.0768 48.1588 20.2552 49.5054 21.1965C53.1255 23.6744 56.9446 25.8462 60.5602 28.3247C61.3759 28.8621 61.9171 29.7858 61.9933 30.7616C62.1936 34.9924 62.057 39.2337 62.1234 43.4677C62.1195 44.3367 62.4681 45.1809 63.105 45.7737C64.5999 47.2563 66.219 48.604 67.7893 50C67.829 43.0183 67.7034 36.0327 67.8771 29.0504C68.0352 27.4681 67.0048 26.0956 65.707 25.3277Z" fill="white"/>
<path d="M73.6675 19.605C73.6682 19.5685 73.6701 19.5327 73.6701 19.4955C73.6701 19.3653 73.6636 19.2363 73.6538 19.1086C73.6194 18.2305 73.3143 17.4156 72.8277 16.7239C71.9586 15.4295 70.4976 14.5684 68.8329 14.5254C68.7991 14.5241 68.7646 14.5234 68.7308 14.5228C68.721 14.5228 68.7112 14.5221 68.7015 14.5221C68.6989 14.5221 68.6969 14.5221 68.6943 14.5221C68.3867 14.5195 68.0777 14.5482 67.7719 14.6107C65.7644 14.9918 64.185 16.5818 63.8175 18.5966C63.8129 18.6194 63.8097 18.6429 63.8051 18.6657C63.8006 18.693 63.7947 18.7204 63.7908 18.7477C63.7166 19.1972 63.7043 19.6571 63.7641 20.1137C63.995 22.5825 66.3304 24.6299 68.8127 24.4813C71.4141 24.5445 73.7267 22.1975 73.6675 19.605Z" fill="#F41E1E"/>
<path d="M91.291 12.161C85.225 16.6647 78.8519 20.7386 72.4106 24.6808C71.4947 25.2567 70.5 25.7472 69.7454 26.5399C69.0435 27.2988 68.985 28.3983 68.9922 29.378C69.0006 29.5924 69.0084 29.8067 69.0156 30.021C69.2224 36.2425 68.9362 42.4724 69.1502 48.692C69.1652 49.1251 69.1821 49.5583 69.2016 49.9909C70.2685 49.0489 71.2377 47.9618 72.3631 47.0895C73.1177 46.4688 73.9777 45.8512 74.3224 44.8963C74.6737 44.0241 74.5833 43.0691 74.6002 42.1552C74.5651 38.5829 74.6438 35.0113 74.526 31.4423C74.5156 30.0562 75.3483 28.7768 76.5225 28.0837C79.8687 26.0768 83.2214 24.0692 86.4207 21.831C88.5992 20.379 90.8136 18.6235 91.7529 16.0883C92.2714 14.8278 92.1621 13.454 91.8902 12.1519L91.291 12.161Z" fill="white"/>
<path d="M94.9437 0C94.2086 0 93.6128 0.597336 93.6134 1.33276L93.6154 9.23485L44.2142 9.24593L44.2123 1.34383C44.2123 0.607754 43.6157 0.0110772 42.8813 0.0117286C42.1462 0.0117286 41.5504 0.609057 41.551 1.34448L41.553 9.24658L41.5536 11.9114L41.5556 19.8135C41.5556 20.5496 42.1521 21.1463 42.8865 21.1456C43.6216 21.1456 44.2175 20.5483 44.2168 19.8129L44.2149 11.9108L93.616 11.8997L93.618 19.8018C93.618 20.5379 94.2145 21.1346 94.9489 21.1339C95.684 21.1339 96.2799 20.5366 96.2792 19.8012L96.2773 11.8991L96.2766 9.2342L96.2747 1.33211C96.2747 0.596033 95.6781 0 94.9437 0Z" fill="#F41E1E"/>
<path d="M98.7259 1.79053C97.9908 1.79053 97.3949 2.38786 97.3956 3.12329L97.3969 9.23339L97.3975 11.8983L97.3988 18.0084C97.3988 18.7444 97.9953 19.3411 98.7298 19.3405C99.4648 19.3405 100.061 18.7431 100.06 18.0077L100.059 11.8976L100.058 9.23274L100.057 3.12264C100.057 2.38656 99.4609 1.79053 98.7259 1.79053Z" fill="#F41E1E"/>
<path d="M102.508 4.94238C101.773 4.94238 101.177 5.53972 101.177 6.27515L101.178 9.23313L101.179 11.898L101.179 14.856C101.179 15.5921 101.776 16.1888 102.51 16.1881C103.246 16.1881 103.841 15.5908 103.841 14.8553L103.839 6.27449C103.839 5.53907 103.244 4.94238 102.508 4.94238Z" fill="#F41E1E"/>
<path d="M39.0998 1.80371C38.3641 1.80371 37.7689 2.40104 37.7695 3.13647L37.7708 9.24657L37.7715 11.9114L37.7728 18.0215C37.7728 18.7576 38.3687 19.3543 39.1037 19.3536C39.8388 19.3536 40.4347 18.7563 40.434 18.0209L40.4327 11.9108L40.4321 9.24592L40.4308 3.13581C40.4308 2.40039 39.8349 1.80371 39.0998 1.80371Z" fill="#F41E1E"/>
<path d="M35.3185 4.95703C34.5834 4.95703 33.9875 5.55436 33.9882 6.28979L33.9901 14.8706C33.9901 15.6067 34.5866 16.2034 35.3211 16.2027C36.0561 16.2027 36.652 15.6054 36.6514 14.87L36.6507 11.9087L36.65 9.24973L36.6494 6.28848C36.6494 5.55371 36.0535 4.95703 35.3185 4.95703Z" fill="#F41E1E"/>
<path d="M28.3165 50.0002V18.3335H34.9377V50.0002H28.3165Z" fill="white"/>
<path d="M0 50.0002V18.3335H22.2178V23.4965H6.62121V31.6099H20.4031V36.7238H6.62121V50.0002H0Z" fill="white"/>
</svg>
