<svg width="29" height="35" viewBox="0 0 29 35" fill="none" xmlns="http://www.w3.org/2000/svg">
<path fill-rule="evenodd" clip-rule="evenodd" d="M20.4466 0.0879341C19.447 0.287407 18.3018 0.770708 17.4131 1.36824C16.8035 1.77805 15.8113 2.80365 15.3771 3.47275C14.912 4.18943 14.487 5.10873 14.2871 5.83115C14.1722 6.24582 14.1342 6.57633 14.1295 7.19833L14.1234 8.01865L14.7728 8.01407C15.243 8.01079 15.5629 7.96663 15.9319 7.85404C18.8992 6.94875 21.1302 3.83225 21.1302 0.5927C21.1302 -0.0977299 21.1827 -0.0589702 20.4466 0.0879341ZM19.2386 8.56429C18.6793 8.66574 17.8006 8.94772 16.5159 9.43799C15.2093 9.93661 14.8564 10.0342 14.3568 10.0347C13.8528 10.0353 13.5829 9.95691 12.0017 9.3507C9.7539 8.48889 8.63205 8.36154 6.93606 8.77573C4.17024 9.45112 2.09731 11.2648 0.889739 14.0658C-0.304089 16.8348 -0.296091 20.8435 0.911068 24.7667C1.88081 27.9182 3.66732 31.0454 5.74544 33.2292C6.69256 34.2245 7.57276 34.7644 8.50429 34.9215C9.42092 35.0761 10.0178 34.9432 12.1632 34.1066C13.2499 33.6829 13.7652 33.5844 14.8753 33.5887C16.0195 33.5932 16.4392 33.6901 17.9196 34.2916C19.0763 34.7616 19.6957 34.9181 20.3995 34.9181C22.0564 34.9181 23.2415 34.1935 24.7369 32.2661C26.2598 30.3033 27.1617 28.7661 27.9259 26.8306C28.4004 25.6289 28.4062 25.7047 27.8153 25.3887C26.767 24.8281 25.5503 23.7693 24.9796 22.921C24.1944 21.7541 23.7969 20.531 23.6899 18.9531C23.5756 17.2663 24.1109 15.4384 25.1106 14.1026C25.5402 13.5286 26.4052 12.671 26.9887 12.2406C27.3181 11.9975 27.3995 11.9036 27.354 11.8189C27.3218 11.7591 27.0777 11.4587 26.8115 11.1514C25.6643 9.82709 23.9433 8.90438 21.9928 8.56778C21.2653 8.4422 19.9208 8.44049 19.2386 8.56429Z" fill="white"/>
</svg>
