<svg width="206" height="54" viewBox="0 0 206 54" fill="none" xmlns="http://www.w3.org/2000/svg">
<path d="M204.007 53.5C204.835 53.4963 205.504 52.8218 205.5 51.9934L205.441 38.4935C205.437 37.6651 204.762 36.9965 203.934 37.0001C203.105 37.0038 202.437 37.6783 202.441 38.5067L202.493 50.5066L190.494 50.5595C189.665 50.5631 188.996 51.2376 189 52.066C189.004 52.8945 189.678 53.5631 190.507 53.5594L204.007 53.5ZM3.18346 52.9216C17.6851 34.3002 45.0874 11.9583 80.0743 5.44966C114.955 -1.03917 157.64 8.15914 202.944 53.0653L205.056 50.9346C159.16 5.44079 115.512 -4.19423 79.5257 2.50027C43.6459 9.17498 15.6482 32.0331 0.816536 51.0783L3.18346 52.9216Z" fill="#FFC000"/>
</svg>
