<svg width="206" height="54" viewBox="0 0 206 54" fill="none" xmlns="http://www.w3.org/2000/svg">
<path d="M204.007 0.585499C204.835 0.589146 205.504 1.26367 205.5 2.09209L205.441 15.592C205.437 16.4204 204.762 17.089 203.934 17.0853C203.105 17.0817 202.437 16.4072 202.441 15.5787L202.493 3.57886L190.494 3.526C189.665 3.52235 188.996 2.84782 189 2.01941C189.004 1.19099 189.678 0.522377 190.507 0.526028L204.007 0.585499ZM3.18346 1.16385C17.6851 19.7853 45.0874 42.1272 80.0743 48.6358C114.955 55.1246 157.64 45.9263 202.944 1.02016L205.056 3.15081C159.16 48.6447 115.512 58.2797 79.5257 51.5852C43.6459 44.9105 15.6482 22.0523 0.816536 3.00712L3.18346 1.16385Z" fill="#FFC000"/>
</svg>
