<svg width="26" height="26" viewBox="0 0 26 26" fill="none" xmlns="http://www.w3.org/2000/svg">
<path fill-rule="evenodd" clip-rule="evenodd" d="M5.66463 0.0726318C5.41851 0.162755 5.15837 0.404522 5.01411 0.677279C4.73341 1.20781 4.99365 1.97121 5.55409 2.26114C5.76375 2.3696 6.19826 2.40333 6.42432 2.32871L6.61565 2.26551L7.90933 3.55426C8.62083 4.2631 9.23494 4.91662 9.27403 5.00654C9.32293 5.11901 9.34507 5.37648 9.34507 5.83207V6.49413L8.87538 6.49636C8.23258 6.49936 7.97833 6.55514 7.83219 6.72512C7.74419 6.82744 7.72129 6.89897 7.74521 6.99661C7.81412 7.27831 7.5228 7.26256 12.8541 7.27242L17.7996 7.28156L18.0034 7.39073C18.2624 7.52953 18.4658 7.73299 18.6045 7.99213L18.7136 8.196L18.7228 13.1438C18.7328 18.5934 18.711 18.2463 19.0441 18.2463C19.3772 18.2463 19.4945 17.9566 19.4984 17.1245L19.5007 16.6546H21.1705H22.8403L22.9289 16.7943C23.1976 17.218 23.5367 17.426 23.965 17.4301C24.492 17.4349 24.9201 17.1379 25.1125 16.6341C25.3252 16.0767 25.0141 15.3887 24.4405 15.1482C24.2292 15.0596 23.7583 15.0603 23.5449 15.1495C23.3107 15.2475 23.0309 15.5053 22.9314 15.715L22.8473 15.8925H21.174H19.5007V15.464V15.0354L20.3938 15.0194L21.2869 15.0035L21.4131 14.8566C21.5505 14.6966 21.5436 14.5229 21.393 14.3558C21.3224 14.2774 21.2054 14.2669 20.4068 14.2669H19.5007V13.835V13.4032L22.5093 13.4029C24.3776 13.4028 25.5878 13.3832 25.7025 13.3514C26.0834 13.2455 26.0834 12.7481 25.7025 12.6423C25.5878 12.6104 24.3776 12.5908 22.5093 12.5907L19.5007 12.5904V12.1586V11.7268H20.4068C21.2054 11.7268 21.3224 11.7162 21.393 11.6378C21.5436 11.4707 21.5505 11.297 21.4131 11.137L21.2869 10.9901L20.3938 10.9742L19.5007 10.9582V10.5341V10.11L20.3004 10.0921C21.0185 10.0761 21.1235 10.0622 21.3287 9.95594C21.474 9.88065 22.0495 9.34692 22.91 8.48918L24.2629 7.14079L24.4282 7.1985C25.0135 7.40262 25.6689 7.0876 25.9225 6.48031C26.1949 5.82806 25.7184 5.03296 24.971 4.89269C24.634 4.82944 24.2889 4.95309 23.991 5.24383C23.6357 5.59066 23.5226 6.0143 23.6713 6.44119L23.729 6.60665L22.44 7.90175C21.731 8.61405 21.0774 9.22886 20.9876 9.26798C20.8751 9.3169 20.6178 9.33905 20.1624 9.33905H19.5007L19.5004 8.91993C19.4998 8.05533 19.3301 7.55721 18.8841 7.11102C18.4381 6.66482 17.9402 6.49504 17.076 6.49443L16.6571 6.49413V4.8235V3.15287L16.7967 3.06427C17.2202 2.79548 17.4282 2.45622 17.4322 2.02765C17.4371 1.50048 17.1403 1.07211 16.6367 0.879675C16.0796 0.666814 15.3918 0.978079 15.1514 1.55199C15.0629 1.76333 15.0636 2.23447 15.1528 2.44799C15.2507 2.68234 15.5084 2.96221 15.718 3.06173L15.8954 3.14596V4.82004V6.49413H15.4671H15.0388L15.0228 5.60057L15.0068 4.70701L14.86 4.58082C14.7001 4.44329 14.5265 4.45025 14.3594 4.60088C14.2811 4.6715 14.2705 4.78855 14.2705 5.58756V6.49413H13.8389H13.4073L13.407 3.4841C13.4069 1.61488 13.3873 0.404065 13.3555 0.289405C13.2497 -0.0917132 12.7525 -0.0917132 12.6467 0.289405C12.6149 0.404065 12.5953 1.61488 12.5952 3.4841L12.5949 6.49413H12.1633H11.7316V5.58756C11.7316 4.78855 11.7211 4.6715 11.6428 4.60088C11.4757 4.45025 11.3021 4.44329 11.1422 4.58082L10.9954 4.70701L10.9794 5.60057L10.9634 6.49413H10.5395H10.1157L10.0978 5.69399C10.0818 4.9756 10.0678 4.87049 9.96167 4.66525C9.88642 4.51985 9.35294 3.94411 8.49561 3.08317L7.14786 1.72965L7.20554 1.56423C7.29836 1.29778 7.27374 0.956132 7.14121 0.671335C6.8865 0.124094 6.24 -0.138045 5.66463 0.0726318ZM6.26366 0.812565C6.53634 0.95786 6.58417 1.26653 6.36765 1.4832C6.19953 1.65136 5.99418 1.65634 5.80869 1.49672C5.43994 1.17941 5.8356 0.584464 6.26366 0.812565ZM16.4276 1.61671C16.5801 1.67473 16.7031 1.92417 16.6685 2.10518C16.6372 2.26906 16.4258 2.42995 16.2417 2.42995C16.0357 2.42995 15.8447 2.22791 15.8447 2.01018C15.8447 1.82673 15.912 1.71314 16.0732 1.62499C16.2009 1.55509 16.2618 1.55367 16.4276 1.61671ZM25.1243 5.81302C25.4815 6.21299 24.889 6.74011 24.5092 6.36021C24.3561 6.20699 24.3366 6.01328 24.457 5.84137C24.6251 5.60113 24.9238 5.58848 25.1243 5.81302ZM6.73239 7.82545C6.56249 7.97166 6.50673 8.22602 6.50374 8.86913L6.5015 9.33905H4.83167H3.16183L3.07328 9.19934C2.80461 8.77565 2.46551 8.56757 2.03715 8.56355C1.51023 8.55868 1.08207 8.85567 0.88972 9.35947C0.67696 9.91687 0.988077 10.6049 1.56172 10.8454C1.77295 10.934 2.24387 10.9333 2.45729 10.8441C2.69153 10.7461 2.97126 10.4883 3.07074 10.2786L3.15493 10.1011H4.82822H6.5015V10.5296V10.9582L5.60837 10.9742L4.71523 10.9901L4.5891 11.137C4.45165 11.297 4.4586 11.4707 4.60916 11.6378C4.67974 11.7162 4.79673 11.7268 5.59537 11.7268H6.5015V12.1586V12.5904L3.49291 12.5907C1.62458 12.5908 0.414336 12.6104 0.29973 12.6423C-0.0812065 12.7481 -0.0812065 13.2455 0.29973 13.3514C0.414336 13.3832 1.62458 13.4028 3.49291 13.4029L6.5015 13.4032V13.835V14.2669H5.59537C4.79673 14.2669 4.67974 14.2774 4.60916 14.3558C4.4586 14.5229 4.45165 14.6966 4.5891 14.8566L4.71523 15.0035L5.60837 15.0194L6.5015 15.0354V15.4595V15.8836L5.70175 15.9015C4.9837 15.9175 4.87864 15.9314 4.6735 16.0377C4.52817 16.113 3.9527 16.6467 3.09217 17.5044L1.73929 18.8528L1.57395 18.7951C0.988687 18.591 0.333295 18.906 0.0796583 19.5133C-0.223486 20.2392 0.379604 21.0945 1.1952 21.0955C1.64977 21.0961 2.06396 20.847 2.26946 20.4494C2.37884 20.2378 2.41296 19.8037 2.33806 19.5767L2.27489 19.3853L3.56303 18.091C4.27154 17.3792 4.92475 16.7647 5.01462 16.7256C5.12704 16.6767 5.38439 16.6546 5.83977 16.6546H6.5015L6.50181 17.0737C6.50242 17.9383 6.67212 18.4364 7.1181 18.8826C7.56409 19.3288 8.06196 19.4986 8.92615 19.4992L9.34507 19.4995V21.1701V22.8407L9.20543 22.9293C8.78195 23.1981 8.57396 23.5374 8.56995 23.966C8.56507 24.4931 8.86192 24.9215 9.36549 25.1139C9.92262 25.3268 10.6104 25.0155 10.8507 24.4416C10.9392 24.2303 10.9385 23.7591 10.8494 23.5456C10.7515 23.3113 10.4938 23.0314 10.2842 22.9319L10.1067 22.8477V21.1736V19.4995H10.5351H10.9634L10.9794 20.393L10.9954 21.2866L11.1422 21.4128C11.3021 21.5503 11.4757 21.5434 11.6428 21.3927C11.7211 21.3221 11.7316 21.2051 11.7316 20.406V19.4995H12.1633H12.5949L12.5952 22.5095C12.5953 24.3787 12.6149 25.5895 12.6467 25.7042C12.7525 26.0853 13.2497 26.0853 13.3555 25.7042C13.3873 25.5895 13.4069 24.3787 13.407 22.5095L13.4073 19.4995H13.8389H14.2705V20.4102V21.321L14.4043 21.4263C14.5785 21.5633 14.6898 21.5592 14.8643 21.4091L15.0068 21.2866L15.0228 20.393L15.0388 19.4995H15.4627H15.8865L15.9044 20.2996C15.9204 21.018 15.9343 21.1231 16.0405 21.3284C16.1158 21.4738 16.6492 22.0495 17.5066 22.9104L18.8543 24.264L18.7966 24.4294C18.54 25.1661 19.126 25.9904 19.9132 25.9999C20.6429 26.0088 21.2653 25.2368 21.0809 24.5517C20.9004 23.8809 20.2947 23.5075 19.6345 23.6599L19.3776 23.7192L18.0884 22.4349C17.3794 21.7285 16.7672 21.077 16.7281 20.9871C16.6792 20.8746 16.6571 20.6171 16.6571 20.1615V19.4995L17.1268 19.4972C17.7696 19.4942 18.0238 19.4385 18.17 19.2685C18.258 19.1662 18.2809 19.0946 18.257 18.997C18.1881 18.7153 18.4794 18.731 13.148 18.7212L8.20257 18.712L7.9988 18.6029C7.73978 18.4641 7.53641 18.2606 7.39769 18.0015L7.28856 17.7976L7.27942 12.8498C7.26957 7.51591 7.28531 7.80736 7.00375 7.73842C6.90615 7.7145 6.83466 7.73741 6.73239 7.82545ZM11.5752 8.57895C10.8593 8.69584 10.3505 9.26544 10.3505 9.95005C10.3505 10.239 10.3414 10.2631 10.2159 10.3088C9.78247 10.4666 9.33431 10.8415 9.15197 11.1991C8.89833 11.6965 8.91554 12.3508 9.19431 12.8075L9.34233 13.0499L9.19553 13.3409C8.78809 14.1482 8.93392 14.9699 9.59795 15.608C9.84732 15.8476 9.90363 15.9318 9.90363 16.065C9.90363 16.4596 10.3761 17.0628 10.8492 17.2722C11.5041 17.562 12.3158 17.4492 12.8309 16.9967L13.0011 16.8473L13.1712 16.9967C13.6863 17.4492 14.4981 17.562 15.153 17.2722C15.6118 17.0691 16.0986 16.4605 16.0986 16.0899C16.0986 15.9867 16.1436 15.9238 16.2763 15.8417C16.79 15.5241 17.111 14.796 17.0103 14.1768C16.9618 13.8788 16.7916 13.4996 16.6479 13.3694C16.5303 13.263 16.5303 13.137 16.6479 13.0306C17.0243 12.6898 17.141 11.7679 16.8739 11.2451C16.6689 10.844 16.2224 10.4525 15.8193 10.3204C15.673 10.2726 15.6665 10.2578 15.6571 9.95081C15.6201 8.75482 14.2346 8.14499 13.1915 8.86567L13.0011 8.99725L12.8107 8.86567C12.4294 8.60227 12.0177 8.50671 11.5752 8.57895ZM2.33887 9.47906C2.56143 9.76213 2.37091 10.1519 2.00993 10.1519C1.56456 10.1519 1.427 9.54119 1.83384 9.37004C2.03964 9.28342 2.21477 9.32127 2.33887 9.47906ZM12.32 9.44995C12.4094 9.50273 12.5053 9.60794 12.5332 9.68379C12.5611 9.75964 12.6158 9.91286 12.6547 10.0243C12.7042 10.1657 12.7673 10.2417 12.8633 10.2754C13.0854 10.3536 13.2648 10.2605 13.3474 10.0243C13.3864 9.91286 13.4411 9.75964 13.469 9.68379C13.6354 9.23135 14.6028 9.21174 14.8159 9.65651C14.9892 10.0182 14.9356 10.1453 14.5711 10.2372C14.2032 10.3299 14.0461 10.4511 14.0257 10.6578C14.014 10.7764 14.0428 10.8592 14.1272 10.9496C14.2523 11.0834 14.2819 11.0843 14.8291 10.9699C15.5396 10.8214 16.2626 11.3283 16.2626 11.9749C16.2626 12.2971 16.2023 12.4043 15.8146 12.7719C15.594 12.981 15.4892 13.1189 15.4892 13.2C15.4892 13.2811 15.594 13.419 15.8146 13.6282C15.9935 13.7978 16.1676 13.9915 16.2013 14.0586C16.3092 14.2732 16.2767 14.6456 16.128 14.8995L15.9934 15.1294L15.7032 14.8352C15.4224 14.5505 15.0325 14.3177 14.8365 14.3177C14.6609 14.3177 14.4737 14.5129 14.4737 14.6961C14.4737 14.8814 14.5291 14.9422 14.8701 15.1305C15.4282 15.4388 15.5126 16.0356 15.0546 16.4362C14.6269 16.8103 13.8765 16.7343 13.5396 16.2827C13.4408 16.1503 13.4308 16.0565 13.4073 15.0381C13.3737 13.5805 13.4013 13.1473 13.5396 12.9621C13.6888 12.7622 13.9014 12.6496 14.2504 12.5856C14.4151 12.5554 14.5898 12.4948 14.6387 12.451C14.7522 12.3493 14.755 12.0445 14.6435 11.9213C14.5046 11.7677 13.9746 11.8066 13.4962 12.0055C13.4218 12.0364 13.4073 12.0145 13.4073 11.8715C13.4073 11.6269 13.3242 11.3708 13.2188 11.2909C13.1025 11.2026 12.8996 11.2026 12.7834 11.2909C12.6292 11.4078 12.5949 11.6645 12.5949 12.6998V13.6988L12.3942 13.6018C12.2839 13.5485 12.1396 13.5048 12.0737 13.5048C11.8939 13.5048 11.7316 13.6828 11.7316 13.8799C11.7316 14.0661 11.7914 14.1315 12.1461 14.334C12.5362 14.5567 12.5949 14.7021 12.5949 15.4465C12.5949 16.0203 12.584 16.0969 12.4805 16.2506C12.1473 16.7452 11.3589 16.8255 10.9227 16.4092C10.5887 16.0904 10.5608 15.7165 10.8425 15.3344C11.0792 15.0133 10.9508 14.6733 10.5928 14.6733C10.4542 14.6733 10.3876 14.7112 10.2654 14.8595C10.1319 15.0216 10.1013 15.0368 10.0295 14.9772C9.86829 14.8434 9.74058 14.5115 9.7381 14.2202C9.73363 13.6983 10.0769 13.2664 10.667 13.0511C10.8332 12.9905 10.9922 12.8978 11.0203 12.8452C11.1031 12.6905 11.0794 12.4967 10.9636 12.3808C10.8732 12.2904 10.8162 12.2776 10.6117 12.3018C10.4774 12.3177 10.2705 12.3803 10.1518 12.4409C9.94385 12.5471 9.93354 12.5477 9.86804 12.458C9.66929 12.1861 9.69077 11.773 9.92181 11.4237C10.0761 11.1905 10.4663 10.9877 10.8558 10.9383C11.0565 10.9127 11.1475 10.8725 11.2239 10.7753C11.3533 10.6107 11.3517 10.5742 11.1993 10.2458C11.0747 9.97738 11.0728 9.88416 11.1871 9.65224C11.2486 9.52763 11.4665 9.38645 11.6809 9.3325C11.8592 9.28764 12.1289 9.33717 12.32 9.44995ZM24.1954 15.8733C24.3262 15.9235 24.437 16.1848 24.3996 16.3552C24.3306 16.6691 23.8893 16.7745 23.6772 16.5278C23.3745 16.1758 23.7495 15.7021 24.1954 15.8733ZM1.49296 19.6334C1.66104 19.8016 1.66601 20.007 1.50647 20.1926C1.18931 20.5616 0.594649 20.1657 0.822642 19.7374C0.967867 19.4646 1.27639 19.4168 1.49296 19.6334ZM10.0329 23.6884C10.2408 23.8964 10.1973 24.2255 9.94456 24.3562C9.75099 24.4564 9.51965 24.4069 9.41185 24.2423C9.13181 23.8146 9.67488 23.3302 10.0329 23.6884ZM20.1935 24.4969C20.5622 24.8142 20.1666 25.4091 19.7385 25.181C19.4658 25.0357 19.418 24.7271 19.6345 24.5104C19.8027 24.3422 20.008 24.3373 20.1935 24.4969Z" fill="#161921"/>
</svg>
