<svg width="26" height="20" viewBox="0 0 26 20" fill="none" xmlns="http://www.w3.org/2000/svg">
<path fill-rule="evenodd" clip-rule="evenodd" d="M7.70008 0.130238C7.22677 0.372835 6.96402 0.832551 6.96488 1.41647C6.96579 2.04626 7.29642 2.56632 7.82085 2.76299C7.99949 2.82998 8.30376 2.84836 9.2339 2.84836H10.4193L10.4051 3.56073L10.3909 4.2731L9.09643 4.30104C7.85867 4.32775 7.79379 4.33456 7.61516 4.45681C7.24829 4.7079 6.96437 5.17181 6.96437 5.52011C6.96437 5.78925 6.86036 6.03162 6.70756 6.11856C6.59827 6.1808 6.36273 6.20097 5.7359 6.20192C5.04486 6.20293 4.87501 6.21997 4.70541 6.30501C4.39997 6.45826 4.19478 6.67415 4.04945 6.99519C3.92203 7.27657 3.91858 7.31355 3.91858 8.39066V9.49715H3.25866H2.59873V8.39066C2.59873 7.31355 2.59528 7.27657 2.46787 6.99519C1.95683 5.86647 0.453684 5.96005 0.0873762 7.14337C-0.0291254 7.51978 -0.0291254 15.3297 0.0873762 15.7061C0.31312 16.4354 1.03416 16.8177 1.74297 16.5839C2.02146 16.4921 2.33847 16.1721 2.47822 15.8418C2.59097 15.5753 2.59777 15.4968 2.59823 14.4558L2.59873 13.3523H3.25551H3.91223L3.92812 14.7631C3.94559 16.3201 3.95015 16.3446 4.2924 16.7213C4.63368 17.0969 4.73013 17.1207 6.03667 17.1516L7.2156 17.1796L8.39717 18.4754C9.23989 19.3996 9.64416 19.8038 9.80711 19.8849C10.0317 19.9968 10.1164 19.9987 14.9088 19.9993L19.7821 20L20.0363 19.8698C20.1761 19.7981 20.3674 19.643 20.4614 19.5251C20.7696 19.1388 20.7922 19.0265 20.813 17.778L20.8318 16.6444L21.246 16.6606L21.6603 16.6767L21.6906 17.1237C21.7269 17.6606 21.7745 17.8 22.0261 18.1075C22.3062 18.4497 22.5753 18.5623 23.1832 18.5915C24.4427 18.652 25.2323 18.2709 25.711 17.3716C25.9875 16.8522 26.0006 16.6906 26 13.8015C25.9995 11.762 25.9836 11.0805 25.9315 10.866C25.7568 10.1473 25.3487 9.60817 24.7315 9.28076C24.3536 9.08029 24.3451 9.07867 23.5804 9.05861C22.97 9.04263 22.7589 9.05716 22.5636 9.12856C22.0041 9.33305 21.6857 9.84574 21.6857 10.5417V10.9498H21.2582H20.8307L20.8131 9.59493C20.7938 8.10253 20.7801 8.02604 20.4614 7.62649C20.3674 7.5086 20.1761 7.35356 20.0363 7.28187C19.8019 7.16175 19.7155 7.15158 18.9279 7.15108L18.0737 7.15052L17.9253 6.9872C17.7788 6.82596 17.7769 6.81585 17.7766 6.19103C17.7765 5.84294 17.753 5.46569 17.7245 5.35272C17.6324 4.98748 17.3698 4.62638 17.0732 4.45676C16.8013 4.30126 16.7992 4.30104 15.766 4.30104H14.7311V3.5747V2.84836H15.915C16.8438 2.84836 17.148 2.82998 17.3266 2.76299C18.043 2.4943 18.39 1.57252 18.0621 0.809029C17.9179 0.473293 17.7284 0.267963 17.4216 0.115153C17.1972 0.00335259 17.1118 0.00134099 12.5737 0.000670524L7.95426 0L7.70008 0.130238ZM17.1954 1.08588C17.4296 1.3435 17.3218 1.78545 17.0041 1.87088C16.9406 1.88798 14.8935 1.8949 12.455 1.8863L8.02142 1.8706L7.92436 1.73869C7.78603 1.55062 7.79851 1.25472 7.95197 1.08588L8.07654 0.948709H12.5737H17.0709L17.1954 1.08588ZM13.8682 3.5747V4.30104H12.5737H11.2792V3.5747V2.84836H12.5737H13.8682V3.5747ZM16.7515 5.36417C16.8946 5.51095 16.9088 5.59498 16.9255 6.39625C16.941 7.13583 16.9955 7.32775 17.2816 7.6499C17.6145 8.02458 17.7553 8.06682 18.7783 8.09912C19.6555 8.12677 19.7095 8.13487 19.8189 8.25556L19.9344 8.38284V13.5822V18.7816L19.7919 18.9165L19.6495 19.0513H14.8957H10.1419L8.94658 17.7442C8.28914 17.0253 7.67125 16.3904 7.57353 16.3334C7.41911 16.2433 7.25311 16.2278 6.30445 16.2149C5.70418 16.2067 5.16228 16.1876 5.10025 16.1723C5.03816 16.1571 4.9411 16.0898 4.8845 16.023C4.78298 15.9031 4.78155 15.8434 4.78155 11.6631V7.4248L4.90618 7.28769C5.02801 7.15354 5.04867 7.15052 5.83723 7.15052C6.72426 7.15052 7.00219 7.09224 7.29743 6.8444C7.5484 6.6337 7.76141 6.19399 7.80288 5.80115C7.83004 5.54358 7.86481 5.44999 7.96613 5.36233C8.09243 5.25299 8.17538 5.25087 12.3679 5.25087C16.5903 5.25087 16.6423 5.25221 16.7515 5.36417ZM1.61114 7.28769L1.73576 7.4248V11.4247V15.4247L1.61114 15.5618C1.45773 15.7307 1.18889 15.7444 1.01802 15.5922L0.898167 15.4854L0.883851 11.5554C0.875932 9.3939 0.881922 7.56956 0.897151 7.50128C0.973601 7.15789 1.38219 7.03565 1.61114 7.28769ZM24.3762 10.1332C24.6231 10.2761 24.8726 10.5458 25.0025 10.8101C25.1099 11.0289 25.1125 11.089 25.1268 13.6801C25.1431 16.6342 25.1358 16.7146 24.8117 17.1312C24.7095 17.2627 24.5206 17.4149 24.3657 17.4904C24.1303 17.6053 24.016 17.622 23.4455 17.6241L22.794 17.6266L22.6713 17.4698L22.5487 17.313V13.7937V10.2743L22.6781 10.1319C22.8063 9.99072 22.814 9.98961 23.503 10.0099C24.0541 10.0262 24.2354 10.0518 24.3762 10.1332ZM3.91858 11.4527V12.4025H3.25866H2.59873V11.4527V10.5028H3.25866H3.91858V11.4527ZM21.6857 13.7993V15.699H21.2542H20.8227V13.7993V11.8997H21.2542H21.6857V13.7993Z" fill="#161921"/>
</svg>
