<svg width="26" height="26" viewBox="0 0 26 26" fill="none" xmlns="http://www.w3.org/2000/svg">
<path fill-rule="evenodd" clip-rule="evenodd" d="M5.39277 0.0536827C4.97838 0.189286 4.65189 0.49391 4.44874 0.934392C4.33832 1.17381 4.33588 1.22381 4.32079 3.60195L4.30539 6.02552L3.83805 6.06051C3.15185 6.11194 2.71545 6.22084 2.20197 6.46875C1.03176 7.03385 0.237837 8.10245 0.0418964 9.37613C0.00602128 9.6095 -0.00668236 11.8693 0.00327729 16.2596L0.0181151 22.7956L0.135344 23.177C0.346174 23.8632 0.624993 24.3198 1.16027 24.8556C1.70653 25.4023 2.16945 25.6815 2.86256 25.8823L3.26908 26H13.0001H22.7311L23.1376 25.8823C23.8307 25.6815 24.2936 25.4023 24.8399 24.8556C25.3751 24.3198 25.654 23.8632 25.8648 23.177L25.982 22.7956L25.9969 16.2596C26.0068 11.8693 25.9941 9.6095 25.9582 9.37613C25.7623 8.10245 24.9684 7.03385 23.7982 6.46875C23.2842 6.22058 22.8483 6.11194 22.1594 6.06031L21.6894 6.02511V5.40228C21.6894 4.6583 21.6385 4.47513 21.4046 4.37732C21.1826 4.2845 17.0247 4.27275 16.7625 4.36425C16.5131 4.45128 16.4555 4.64543 16.4555 5.39847V6.0359H11.9076H7.35965V3.64722C7.35965 1.37986 7.35447 1.24461 7.25761 0.98551C7.04328 0.412121 6.53869 0.0402546 5.92439 0.00302216C5.73872 -0.00826964 5.51767 0.0128389 5.39277 0.0536827ZM6.11891 0.929458C6.21353 0.974422 6.33706 1.08587 6.39336 1.17706C6.48991 1.33347 6.4958 1.42787 6.4958 2.82475V4.30652H5.83237H5.16898L5.18448 2.81636C5.20171 1.16679 5.20379 1.15601 5.54577 0.947261C5.74344 0.826611 5.89263 0.821983 6.11891 0.929458ZM6.4958 5.60355V6.0359H5.83521H5.17462V5.63748C5.17462 5.4183 5.18987 5.22375 5.20852 5.20513C5.22712 5.18647 5.52438 5.17121 5.86911 5.17121H6.4958V5.60355ZM20.8148 5.61627L20.8296 6.0359H19.0744H17.3193V5.63748C17.3193 5.4183 17.3349 5.22344 17.3539 5.20447C17.3729 5.18545 18.156 5.17589 19.0943 5.18326L20.8001 5.19664L20.8148 5.61627ZM22.8463 7.02398C23.8297 7.28603 24.5818 7.96822 24.9532 8.93514L25.1193 9.36749L25.1332 15.8632C25.1452 21.4923 25.1368 22.4084 25.0704 22.7299C24.8313 23.8867 23.8817 24.8424 22.7311 25.0842C22.1961 25.1967 3.804 25.1967 3.26908 25.0842C2.11843 24.8424 1.16881 23.8867 0.929779 22.7299C0.863365 22.4084 0.85498 21.4923 0.866972 15.8632L0.880794 9.36749L1.04691 8.93514C1.41399 7.97961 2.16366 7.2932 3.13157 7.02647C3.50125 6.92454 22.4643 6.9222 22.8463 7.02398ZM2.83817 9.15304C2.57282 9.28743 2.58308 8.99343 2.59624 16.0902L2.60849 22.7111L2.73166 22.8424L2.85489 22.9736H11.253H19.6511L19.7937 22.8509L19.9363 22.7281L19.9497 16.1832C19.9589 11.7245 19.9462 9.57496 19.9097 9.43966C19.8073 9.05894 20.5137 9.08763 11.2622 9.0885C4.7083 9.08906 2.93772 9.10264 2.83817 9.15304ZM14.3613 10.1686L14.456 10.3848L14.3251 10.3993C13.944 10.4415 13.8639 10.5992 13.8639 11.3066C13.8639 11.8308 13.8671 11.8454 14.0124 11.9909C14.1608 12.1394 14.1618 12.1396 14.7971 12.1396H15.4331L15.3091 12.5045C15.1079 13.0967 15.1071 13.0944 15.7398 13.7348C16.4118 14.415 16.3909 14.4112 17.2079 14.001L17.7766 13.7155V14.0905C17.7766 14.4278 17.7901 14.4789 17.9106 14.5996C18.0372 14.7263 18.072 14.7336 18.5458 14.7336H19.047V18.4213V22.1089H16.2562H13.4655L13.4487 21.1719C13.4325 20.2653 13.4281 20.2307 13.3106 20.1057C13.203 19.9911 13.1428 19.9749 12.7771 19.9618L12.3649 19.9472L11.6027 18.795C10.7705 17.5372 10.6966 17.4405 10.5135 17.3704C10.2852 17.2831 10.1299 17.4089 9.61602 18.0972L9.12591 18.7537L8.83983 18.3345C8.44124 17.7503 8.40384 17.7344 7.78258 17.8835C7.50803 17.9494 7.25528 18.0137 7.22093 18.0266C7.17839 18.0424 7.19054 17.9563 7.25904 17.7571C7.31437 17.5961 7.35965 17.4103 7.35965 17.3442C7.35965 17.1734 6.87696 16.2323 6.74007 16.1364C6.65231 16.0748 6.4923 16.0561 6.05321 16.0561H5.48078L5.30354 15.7038C5.01476 15.1298 4.91887 15.1027 4.0313 15.344C3.72387 15.4276 3.46665 15.4961 3.45963 15.4963C3.45262 15.4964 3.44693 14.2492 3.44693 12.7245V9.95242H8.85675H14.2666L14.3613 10.1686ZM19.047 11.9107V13.8689H18.8437H18.6405V13.358C18.6405 12.8833 18.6316 12.8382 18.5157 12.7222C18.3986 12.6049 18.3143 12.5763 18.1323 12.5918C18.0904 12.5954 17.7186 12.7635 17.3061 12.9654L16.5562 13.3326L16.3277 13.104L16.0992 12.8753L16.2826 12.3272C16.5774 11.4459 16.4809 11.2763 15.6831 11.2734C15.3402 11.2721 15.2803 11.2609 15.3629 11.2134C15.6429 11.0527 15.6556 10.84 15.4138 10.3593C15.3159 10.1649 15.2359 9.99382 15.2359 9.97912C15.2359 9.96442 16.0934 9.95242 17.1415 9.95242H19.047V11.9107ZM22.2374 10.0048C21.1996 10.1798 20.558 11.3146 20.9297 12.3176C21.085 12.7367 21.4993 13.1516 21.9166 13.3059C22.2783 13.4398 22.7784 13.4531 23.1049 13.3376C23.4205 13.226 23.7904 12.9381 23.9729 12.6624C24.5225 11.8318 24.242 10.6617 23.3817 10.1953C23.1815 10.0868 22.6195 9.93477 22.5057 9.95842C22.4899 9.96168 22.3692 9.98258 22.2374 10.0048ZM11.5952 10.8561C11.3976 10.888 11.2996 11.0577 11.2724 11.4154L11.247 11.7489L10.9886 11.8365C10.3301 12.06 9.83605 12.5979 9.57755 13.373C9.55337 13.4456 9.48705 13.462 9.21967 13.462C8.9256 13.462 8.88048 13.476 8.78617 13.5961C8.64165 13.7799 8.64943 14.0251 8.80436 14.1708C8.89786 14.2588 9.00818 14.2935 9.25788 14.3135C9.55672 14.3376 9.59076 14.3519 9.61942 14.4661C9.77497 15.0865 10.4114 15.7446 11.0328 15.9275L11.247 15.9905L11.2724 16.3272C11.3031 16.7345 11.4226 16.8903 11.7043 16.8903C11.9816 16.8903 12.0961 16.7414 12.1319 16.3346L12.1616 15.997L12.4171 15.9072C12.7653 15.7847 13.0359 15.6057 13.289 15.3303C13.5041 15.0964 13.7211 14.7175 13.7796 14.4736C13.8092 14.3505 13.8365 14.3388 14.1537 14.3133C14.4424 14.2901 14.5139 14.2647 14.6118 14.1508C14.7653 13.9721 14.7618 13.7458 14.603 13.5869C14.498 13.4818 14.4296 13.462 14.17 13.462C13.8814 13.462 13.8581 13.4531 13.8048 13.3222C13.4593 12.473 13.1094 12.0947 12.4411 11.8477L12.1616 11.7444L12.1324 11.4111C12.1164 11.2278 12.075 11.0439 12.0405 11.0023C11.9613 10.9067 11.7373 10.8332 11.5952 10.8561ZM22.968 10.9501C23.2507 11.0932 23.4517 11.4991 23.3994 11.8216C23.2749 12.5899 22.294 12.8132 21.8254 12.1798C21.6896 11.9963 21.6517 11.546 21.7552 11.3468C21.9901 10.8945 22.5175 10.722 22.968 10.9501ZM12.333 12.7466C12.4429 12.8028 12.6031 12.9339 12.6888 13.0381C13.3858 13.8845 12.8013 15.1537 11.7147 15.1531C11.1662 15.1528 10.7641 14.8983 10.5298 14.403C10.0013 13.2858 11.2116 12.174 12.333 12.7466ZM20.936 14.4444C20.7785 14.6123 20.7879 14.884 20.9568 15.0427C21.0716 15.1506 21.1358 15.166 21.4693 15.166C21.8241 15.166 21.8591 15.1561 21.9733 15.0233C22.1335 14.8368 22.1327 14.6132 21.9711 14.4516C21.8598 14.3401 21.8033 14.3267 21.4465 14.3267C21.0941 14.3267 21.0333 14.3407 20.936 14.4444ZM23.1286 14.4412C22.9758 14.6111 22.9529 14.7206 23.031 14.9076C23.188 15.2838 24.0188 15.2968 24.2104 14.9261C24.3037 14.7455 24.2716 14.5729 24.1182 14.4299C24.0272 14.3449 23.9392 14.3267 23.6196 14.3267C23.2815 14.3267 23.2183 14.3415 23.1286 14.4412ZM20.9503 16.181C20.7276 16.4037 20.8042 16.7554 21.0998 16.8679C21.3105 16.9481 23.8652 16.9368 24.0268 16.855C24.2955 16.7189 24.3417 16.3676 24.1182 16.1592C24.0124 16.0606 23.9441 16.0561 22.5413 16.0561H21.075L20.9503 16.181ZM4.66389 16.407C4.90312 16.8814 4.97995 16.9208 5.66488 16.9208H6.24305L6.35063 17.1424L6.4582 17.3641L6.27374 17.9182C6.05895 18.5634 6.04376 18.7731 6.19976 18.9394C6.35037 19.0998 6.53264 19.0906 7.35823 18.8807C7.73471 18.7849 8.04575 18.7111 8.04941 18.7165C8.05307 18.722 8.19977 18.9439 8.37533 19.2097C8.80954 19.8668 8.86468 19.9221 9.08348 19.9201C9.18344 19.9193 9.30077 19.8906 9.34421 19.8565C9.38766 19.8225 9.63416 19.5142 9.89204 19.1715C10.1499 18.8288 10.3681 18.5484 10.377 18.5484C10.3859 18.5484 10.7193 19.0392 11.1179 19.639C11.8942 20.8071 11.9252 20.8373 12.347 20.8373H12.5427V21.4731V22.1089H7.99443H3.44607L3.45923 19.2478L3.47234 16.3867L3.98048 16.2511C4.25996 16.1765 4.49401 16.1135 4.50062 16.1112C4.50717 16.1089 4.58065 16.242 4.66389 16.407ZM20.9503 17.9103C20.7158 18.1449 20.8233 18.5457 21.1421 18.6258C21.2059 18.6419 21.8804 18.6482 22.6411 18.6398C23.9937 18.6251 24.0267 18.6222 24.1373 18.5114C24.304 18.3444 24.2914 18.0619 24.1104 17.906L23.9703 17.7855H22.5227H21.075L20.9503 17.9103ZM21.0542 19.5736C20.7914 19.7174 20.7414 20.0456 20.9503 20.2547L21.075 20.3795H22.5227H23.9703L24.1104 20.259C24.217 20.1671 24.2504 20.0928 24.2504 19.9472C24.2504 19.8016 24.217 19.7273 24.1104 19.6354L23.9703 19.5148L22.5631 19.5164C21.643 19.5174 21.1206 19.5372 21.0542 19.5736ZM21.0542 21.3044C20.7932 21.4573 20.7443 21.7779 20.9503 21.984L21.075 22.1089H22.542H24.0091L24.1298 21.9804C24.2886 21.8111 24.2921 21.538 24.1373 21.383C24.0263 21.2718 23.9973 21.2694 22.59 21.2572C21.5656 21.2484 21.1267 21.2619 21.0542 21.3044Z" fill="#161921"/>
</svg>
