<svg width="22" height="26" viewBox="0 0 22 26" fill="none" xmlns="http://www.w3.org/2000/svg">
<path fill-rule="evenodd" clip-rule="evenodd" d="M10.7056 0.121329C10.528 0.289096 10.5042 0.466618 10.525 1.47119L10.5431 2.3461L10.694 2.46865C10.7781 2.53698 10.9136 2.5912 11.0003 2.5912C11.0869 2.5912 11.2224 2.53698 11.3066 2.46865L11.4575 2.3461L11.4756 1.47119C11.4855 0.989938 11.4779 0.516664 11.4586 0.419469C11.4117 0.183518 11.2112 0 11.0003 0C10.8967 0 10.7856 0.0457778 10.7056 0.121329ZM5.50606 1.39686C5.35066 1.4779 5.23066 1.73005 5.28154 1.86861C5.36997 2.10933 6.30498 3.57778 6.41197 3.64403C6.5742 3.74443 6.88198 3.69088 6.99144 3.54323C7.14522 3.33583 7.0895 3.15796 6.63035 2.39142C6.38658 1.98435 6.12635 1.58922 6.05212 1.51336C5.88409 1.34158 5.69104 1.30037 5.50606 1.39686ZM15.9815 1.48613C15.733 1.72508 14.9269 3.0977 14.9269 3.28193C14.9269 3.36464 14.9639 3.48221 15.0091 3.54323C15.1186 3.69088 15.4264 3.74443 15.5886 3.64403C15.6965 3.57722 16.6303 2.10949 16.7207 1.86434C16.7734 1.72167 16.6177 1.42846 16.4589 1.3715C16.2379 1.29209 16.1652 1.30952 15.9815 1.48613ZM10.4086 3.48678C8.91972 3.66583 7.94232 4.00141 6.79936 4.72598C6.32031 5.02971 5.26438 6.04185 4.92164 6.5259C4.41102 7.24706 4.00239 8.17796 3.78293 9.11999C3.73715 9.31636 3.71246 9.77734 3.71343 10.4156C3.71483 11.3161 3.72795 11.4549 3.85737 11.9398C4.24992 13.4102 4.80529 14.3281 5.95901 15.4131C6.34118 15.7725 6.6927 16.1498 6.74008 16.2515C6.80199 16.3842 6.83567 16.6728 6.85933 17.2746C6.88768 17.9948 6.9086 18.1426 7.00784 18.323C7.14275 18.5685 7.3969 18.821 7.61727 18.9287C7.75702 18.9969 7.77294 19.0303 7.77294 19.2549C7.77294 19.617 7.86981 19.9891 8.01752 20.1948L8.14623 20.3739L8.01752 20.553C7.8597 20.7727 7.75928 21.1889 7.80462 21.4352C7.82323 21.5361 7.90564 21.7337 7.98777 21.8744C8.13564 22.1274 8.13612 22.1312 8.03538 22.2488C7.97938 22.3141 7.89477 22.4937 7.84733 22.6479C7.63594 23.3347 8.09745 24.065 8.85065 24.2358C9.30781 24.3393 9.60176 24.1891 9.60176 23.852C9.60176 23.6448 9.40667 23.4224 9.22503 23.4224C9.03176 23.4224 8.80908 23.2798 8.74926 23.1176C8.68369 22.9401 8.71118 22.8355 8.86609 22.673C8.97168 22.5621 9.006 22.5586 9.97963 22.5586C11.0193 22.5586 11.2836 22.5198 11.3779 22.3534C11.4736 22.1845 11.4394 21.9237 11.3061 21.8054C11.1875 21.7001 11.1342 21.6949 10.1846 21.6949C9.57933 21.6949 9.11869 21.6722 9.01235 21.6372C8.8016 21.5678 8.66126 21.3087 8.73533 21.1258C8.84581 20.8528 8.90143 20.8401 10.0682 20.8223C11.1311 20.8061 11.156 20.8033 11.2919 20.6826C11.4744 20.5205 11.4829 20.2345 11.3096 20.0816C11.1964 19.9817 11.1189 19.9737 10.1128 19.9584C8.91348 19.9402 8.83317 19.9199 8.73506 19.6118C8.70392 19.514 8.68649 19.3539 8.69633 19.2561L8.71425 19.0783L9.94903 19.0646C11.1291 19.0515 11.1893 19.0461 11.3072 18.9414C11.4828 18.7856 11.4756 18.5009 11.2919 18.3377L11.1531 18.2146L9.60408 18.199L8.05501 18.1835L7.92742 18.0553C7.80656 17.9338 7.79833 17.8826 7.771 17.0801C7.74309 16.2614 7.73642 16.2215 7.57091 15.8877C7.42885 15.6012 7.28174 15.4324 6.70733 14.897C5.93895 14.1807 5.62558 13.7929 5.27627 13.1259C4.77092 12.1608 4.57319 11.2745 4.61493 10.1615C4.65759 9.02366 4.93638 8.15774 5.57609 7.17583C5.93432 6.62599 6.8262 5.75957 7.41885 5.38567C8.17399 4.9093 9.11917 4.55552 9.99615 4.42109C10.4955 4.34452 11.6266 4.35854 12.1227 4.44741C14.1379 4.8085 15.8395 6.03555 16.7704 7.79899C17.4749 9.13356 17.5998 10.8304 17.1002 12.2816C16.7547 13.2852 16.2849 13.9681 15.3185 14.8715C14.7208 15.4302 14.5723 15.6 14.4296 15.8877C14.2641 16.2215 14.2575 16.2614 14.2296 17.0801C14.2021 17.8881 14.1947 17.9331 14.0703 18.0581C13.9419 18.1872 13.9282 18.1892 13.1677 18.1892C12.2931 18.1892 12.0584 18.2454 11.9651 18.4769C11.9018 18.6342 11.9261 18.7754 12.0423 18.9259C12.11 19.0135 12.2011 19.031 12.7036 19.0529L13.2863 19.0783L13.3042 19.2561C13.329 19.5021 13.2318 19.7762 13.0906 19.8589C13.0256 19.897 12.78 19.9438 12.5449 19.9629C12.0998 19.999 12.0018 20.0532 11.9363 20.2997C11.8523 20.6153 12.1667 20.8312 12.7104 20.8312C12.9691 20.8312 13.045 20.8517 13.1345 20.9455C13.2962 21.1152 13.3204 21.2246 13.2378 21.4115C13.1479 21.6147 12.9414 21.6949 12.5085 21.6949C12.2769 21.6949 12.1759 21.7196 12.0869 21.7979C11.9297 21.9362 11.8897 22.1145 11.9771 22.2867C12.0779 22.4853 12.2616 22.557 12.6718 22.5579C12.9699 22.5585 13.0426 22.5766 13.1345 22.673C13.2894 22.8355 13.3169 22.9401 13.2513 23.1176C13.1474 23.3991 13.0236 23.4224 11.6289 23.4224H10.3695L10.2277 23.5563C10.0489 23.7252 10.0444 23.9301 10.2155 24.1181L10.3452 24.2607L11.3202 24.2861L12.2952 24.3115L12.1347 24.5503C11.6673 25.2459 10.709 25.3291 9.98985 24.7365C9.65652 24.4618 9.17145 24.6158 9.17145 24.9962C9.17145 25.3652 9.94381 25.8693 10.6724 25.9758C11.7965 26.1402 12.9073 25.4503 13.2014 24.4051C13.247 24.2433 13.2964 24.1823 13.4131 24.1438C13.7853 24.0213 14.1169 23.5942 14.1986 23.1321C14.2421 22.8858 14.1263 22.4532 13.9642 22.2567C13.8625 22.1334 13.8629 22.1308 14.012 21.8756C14.0946 21.7343 14.1773 21.5361 14.1959 21.4352C14.2413 21.1889 14.1409 20.7727 13.983 20.553L13.8543 20.3739L13.983 20.1948C14.1307 19.9891 14.2276 19.617 14.2276 19.2549C14.2276 19.0303 14.2435 18.9969 14.3833 18.9287C14.6037 18.821 14.8578 18.5685 14.9927 18.323C15.092 18.1426 15.1129 17.9948 15.1412 17.2746C15.165 16.6691 15.1984 16.3845 15.2613 16.2496C15.3098 16.1455 15.6555 15.7743 16.042 15.4113C17.3317 14.1999 17.9353 13.1283 18.2404 11.5089C18.3336 11.0134 18.3441 9.96894 18.261 9.45024C17.7855 6.48393 15.3157 4.0884 12.2105 3.58174C11.7047 3.49923 10.7318 3.44797 10.4086 3.48678ZM1.65794 5.02839C1.40572 5.12853 1.34236 5.51538 1.54687 5.70662C1.77498 5.91992 3.28489 6.70662 3.46622 6.70662C3.83731 6.70662 4.0289 6.28949 3.77911 6.02549C3.62957 5.86753 2.10686 5.03225 1.91511 5.00304C1.83829 4.99135 1.72259 5.00273 1.65794 5.02839ZM19.9856 5.01625C19.7319 5.11055 18.3215 5.91981 18.216 6.03159C17.9734 6.28832 18.1759 6.70662 18.5428 6.70662C18.7158 6.70662 20.2337 5.91229 20.4537 5.70662C20.5728 5.59525 20.6106 5.38074 20.5413 5.21008C20.4784 5.05522 20.1701 4.94766 19.9856 5.01625ZM8.03123 8.80961C7.656 8.95537 7.4217 9.13442 7.20197 9.44333C6.96922 9.77058 6.89112 10.0254 6.89317 10.4512C6.89634 11.112 7.30567 11.6874 7.98164 11.9813C8.24112 12.0941 8.37704 12.1157 8.94091 12.134L9.59789 12.1552L9.61328 14.6093L9.62866 17.0633L9.75904 17.1944C9.92079 17.3569 10.176 17.3676 10.3744 17.2201L10.5162 17.1148V14.6289V12.1431H11.0003H11.4844V14.6289V17.1148L11.6261 17.2201C11.8246 17.3676 12.0798 17.3569 12.2415 17.1944L12.3719 17.0633L12.3873 14.6093L12.4027 12.1552L13.0596 12.134C13.6235 12.1157 13.7594 12.0941 14.0189 11.9813C14.4391 11.7986 14.7349 11.5284 14.935 11.1443C15.0778 10.8704 15.1059 10.7574 15.1074 10.4512C15.1094 10.0259 15.0317 9.7718 14.7986 9.4415C14.19 8.57924 12.9009 8.42916 12.0814 9.12512C11.9255 9.25748 11.7492 9.47524 11.6619 9.64316C11.5269 9.90284 11.5085 10.0015 11.4844 10.5934L11.4575 11.2539H11.0003H10.5431L10.5162 10.5934C10.4921 10.0015 10.4736 9.90284 10.3387 9.64316C9.92364 8.84492 8.896 8.47367 8.03123 8.80961ZM9.20921 9.68533C9.53254 9.91335 9.57342 10.0187 9.59284 10.6731L9.61075 11.2793L9.08184 11.2782C8.68369 11.2774 8.49861 11.2538 8.33347 11.183C7.64858 10.8891 7.61711 10.038 8.27673 9.64636C8.49753 9.51522 8.99766 9.53616 9.20921 9.68533ZM13.7238 9.64936C14.3833 10.0292 14.3515 10.8894 13.6671 11.183C13.5023 11.2536 13.317 11.2774 12.9232 11.2782L12.3988 11.2793V10.7491C12.3988 10.1847 12.4433 10.0052 12.631 9.81215C12.8882 9.54754 13.4117 9.46955 13.7238 9.64936ZM0.265129 10.0304C0.0509948 10.1185 -0.0532483 10.3424 0.0270048 10.5418C0.134529 10.8089 0.181487 10.8187 1.36102 10.8204C2.44944 10.8221 2.4531 10.8217 2.58472 10.6973C2.82037 10.4748 2.73937 10.1235 2.42648 10.0111C2.20352 9.93104 0.469096 9.94653 0.265129 10.0304ZM19.5576 10.0137C19.2605 10.1259 19.1868 10.481 19.4158 10.6973C19.5475 10.8217 19.5511 10.8221 20.6395 10.8204C21.8291 10.8187 21.8736 10.8089 21.9772 10.5284C22.0542 10.3195 21.9301 10.0911 21.6979 10.0146C21.4873 9.94531 19.7407 9.94455 19.5576 10.0137ZM3.22777 14.1525C2.70688 14.4129 1.72103 14.9659 1.58511 15.0739C1.26684 15.3269 1.43966 15.8012 1.85013 15.8012C2.04296 15.8012 3.6356 14.9674 3.806 14.7772C3.93547 14.6328 3.92391 14.4094 3.77911 14.2563C3.62043 14.0886 3.42814 14.0524 3.22777 14.1525ZM18.3886 14.123C18.1205 14.2277 18.0165 14.5785 18.1946 14.7772C18.2463 14.835 18.6681 15.089 19.1319 15.3418C20.0586 15.8467 20.2472 15.8953 20.4578 15.6836C20.6168 15.5236 20.6145 15.2445 20.4528 15.101C20.2958 14.9617 18.7762 14.1323 18.6215 14.1014C18.5568 14.0885 18.452 14.0983 18.3886 14.123Z" fill="#161921"/>
</svg>
