<svg width="26" height="26" viewBox="0 0 26 26" fill="none" xmlns="http://www.w3.org/2000/svg">
<path fill-rule="evenodd" clip-rule="evenodd" d="M20.7274 0.0729462C20.5391 0.11328 20.2775 0.192424 20.1459 0.248759C19.8184 0.388962 19.3117 0.757809 19.0873 1.01927C18.8257 1.32411 18.5633 1.88858 18.5026 2.27719C18.4711 2.47906 18.4509 4.13935 18.4507 6.54988L18.4503 10.4923L18.2 10.522C17.6722 10.5844 17.1904 10.956 16.947 11.4886C16.5911 12.2671 16.9312 13.2428 17.6945 13.633C18.0216 13.8002 18.4487 13.8584 19.3531 13.8588L20.1287 13.8592V19.9296V26H21.4001H22.6716V19.9296V13.8592L23.4472 13.8582C24.7074 13.8565 25.1009 13.7562 25.5337 13.3265C25.856 13.0064 26 12.6455 26 12.1575C26 11.8276 25.9754 11.6984 25.8695 11.4717C25.6347 10.9691 25.1362 10.5886 24.6151 10.5141L24.3754 10.4799L24.3499 6.31504C24.3247 2.1729 24.3239 2.14857 24.2122 1.85312C23.7048 0.511386 22.2199 -0.247134 20.7274 0.0729462ZM2.82751 0.215283C2.32126 0.408571 2.06895 0.548266 1.62755 0.879725C0.562364 1.67944 -0.0783046 3.07858 0.00769764 4.41722C0.0927335 5.74092 0.711227 6.84599 1.80718 7.63245L2.07379 7.82375V13.9213V20.0189L1.75475 20.3567C1.38729 20.7457 1.05763 21.3416 0.935362 21.8378C0.831712 22.2584 0.829067 23.0389 0.929971 23.4367C1.20852 24.535 2.08553 25.4774 3.15631 25.8292C3.73687 26.0198 4.56175 26.0311 5.12531 25.8561C6.27818 25.4982 7.13744 24.6088 7.44117 23.4592C7.5554 23.027 7.55555 22.2689 7.44152 21.8345C7.27623 21.2048 6.87058 20.5313 6.43727 20.1671L6.29506 20.0476V13.9333V7.81908L6.53664 7.65444C8.65308 6.21223 8.99551 3.23839 7.26255 1.35073C6.76098 0.80434 5.95273 0.317083 5.13803 0.0699491L5.0236 0.035203V1.8928V3.75034H4.18442H3.34525V1.8962C3.34525 0.876423 3.32806 0.0431275 3.30711 0.0443975C3.28616 0.0456675 3.07031 0.122576 2.82751 0.215283ZM12.1437 0.816735L12.1436 1.13422L11.33 2.15019C10.8124 2.79665 10.5071 3.22158 10.4906 3.31855C10.4591 3.50331 10.1095 6.3093 10.1095 6.37697C10.1095 6.40333 9.93986 6.53221 9.73256 6.66342C9.01799 7.11552 8.55604 7.75685 8.42752 8.47514C8.3049 9.16036 8.54419 9.84101 9.12322 10.454L9.4479 10.7978L9.14122 11.5229C8.50203 13.0342 7.96527 14.8037 7.71606 16.2213C7.5791 17.0002 7.52976 18.4617 7.61358 19.2553C7.7064 20.134 7.90119 21.2064 8.15406 22.231C8.39599 23.211 8.88403 24.775 9.04958 25.1006C9.20393 25.4043 9.46855 25.6634 9.78886 25.8245C10.041 25.9514 10.1433 25.9731 10.4909 25.9738C10.8269 25.9744 10.9484 25.9508 11.1887 25.8384C12.0955 25.414 12.374 24.478 11.9684 23.2179C11.5395 21.8855 11.1575 20.2834 10.9979 19.1478C10.7322 17.2574 11.1766 14.5672 12.1024 12.4622C12.2129 12.2108 12.3274 11.941 12.3567 11.8627C12.4031 11.7388 12.4332 11.7223 12.5883 11.7357C12.7611 11.7506 12.7734 11.7662 12.9889 12.246C13.3776 13.1111 13.7793 14.3584 13.9743 15.305C14.2416 16.6027 14.3257 18.1627 14.1823 19.1676C14.0295 20.2394 13.6802 21.6893 13.2034 23.2315C13.0162 23.8371 13.0011 23.9279 13.0223 24.326C13.0498 24.8435 13.1627 25.132 13.4671 25.4618C13.5846 25.589 13.8097 25.7562 13.9673 25.8332C14.3719 26.0309 14.942 26.0345 15.3479 25.8419C15.6805 25.6841 15.9757 25.4004 16.1348 25.0856C16.4008 24.5594 17.0602 22.246 17.302 20.9903C17.6323 19.2758 17.6986 17.6601 17.4906 16.3991C17.2253 14.7913 16.7106 13.0878 15.9726 11.3743L15.7228 10.7944L16.0394 10.4781C16.4869 10.0311 16.7236 9.53027 16.7596 8.95381C16.7764 8.68509 16.7621 8.43928 16.7209 8.28571C16.5528 7.65927 16.0763 7.05375 15.4221 6.63523L15.064 6.40612L14.6669 4.22738C14.4485 3.02905 14.2587 1.99927 14.2451 1.93902C14.2283 1.8646 13.8992 1.6161 13.219 1.16435C12.6682 0.798549 12.201 0.499246 12.1807 0.499246C12.1604 0.499246 12.1438 0.642141 12.1437 0.816735ZM22.0493 0.927221C22.5974 1.07296 23.0762 1.44455 23.3102 1.90595L23.4599 2.20099L23.4735 6.32835L23.4871 10.4557H23.0793H22.6716V10.0493V9.64294H22.2393H21.807V10.0493V10.4557H21.4001H20.9933V6.26282V2.06988L20.5737 2.08466L20.1541 2.09939L20.1411 6.27755L20.128 10.4557H19.7203H19.3126L19.3265 6.35375L19.3403 2.25179L19.4805 1.9724C19.7287 1.47742 20.0832 1.16877 20.6218 0.978934C21.0279 0.835784 21.6242 0.814195 22.0493 0.927221ZM2.53151 2.67606C2.53151 4.00723 2.53426 4.04426 2.64635 4.2127C2.70952 4.30765 2.86403 4.43784 2.98965 4.502C3.20941 4.61426 3.25788 4.61813 4.26483 4.6036L5.31151 4.58851L5.49821 4.44617C5.85015 4.17786 5.85982 4.13305 5.88819 2.63958L5.91362 1.30028L6.22976 1.53772C7.04045 2.14669 7.52885 3.14086 7.52885 4.18212C7.52885 4.74751 7.42561 5.17132 7.15209 5.72853C6.88253 6.27776 6.38214 6.79372 5.8203 7.10171L5.43047 7.31541V13.8823V20.4492L5.63792 20.5927C6.15963 20.9538 6.56731 21.6113 6.66654 22.2513C6.8656 23.5361 5.98488 24.8191 4.71753 25.0906C4.33329 25.1729 3.6379 25.1227 3.30131 24.9883C2.71415 24.7538 2.22804 24.3129 1.95427 23.7662C1.41842 22.6965 1.68756 21.4496 2.61691 20.6964L2.9362 20.4376L2.93727 13.8763L2.93838 7.31496L2.61294 7.13315C1.40687 6.45951 0.803943 5.3831 0.864414 4.01164C0.901693 3.16524 1.1835 2.48947 1.74397 1.90219C1.99892 1.63505 2.4063 1.31202 2.48828 1.31202C2.51209 1.31202 2.53151 1.92581 2.53151 2.67606ZM13.2612 2.20607C13.4312 2.31838 13.4689 2.37721 13.5135 2.59976C13.5999 3.03103 14.2716 6.76242 14.2882 6.90339C14.2997 7.00174 14.2118 7.1488 13.9312 7.50027C13.7264 7.75675 13.5415 7.9666 13.5204 7.9666C13.4992 7.9666 13.4384 7.91854 13.3851 7.85982C13.3319 7.80105 13.2254 7.72048 13.1484 7.68071L13.0084 7.60842V4.84118C13.0084 3.31921 13.0204 2.07399 13.0349 2.07399C13.0495 2.07399 13.1514 2.13343 13.2612 2.20607ZM21.8409 2.10788C21.8223 2.12647 21.807 3.63518 21.807 5.46056V8.77937H22.2393H22.6716V5.42668V2.07399H22.2732C22.0541 2.07399 21.8595 2.08923 21.8409 2.10788ZM12.0951 7.65261C12.0678 7.66171 11.9685 7.72134 11.8744 7.7851L11.7033 7.90107L11.3117 7.2573L10.92 6.61359L11.1142 5.06637L11.3085 3.51915L11.7135 3.01625L12.1184 2.51335L12.1316 5.0747C12.14 6.70807 12.1268 7.6421 12.0951 7.65261ZM11.4077 9.17326C11.6416 9.95622 12.6136 10.3028 13.283 9.84192C13.5028 9.69059 13.7107 9.40866 13.7828 9.16402C13.8217 9.03179 14.0686 8.6763 14.4674 8.17843L15.0911 7.39969L15.3718 7.66491C16.3508 8.58964 16.0365 9.73255 14.6105 10.4334C14.068 10.7 13.713 10.7977 13.0563 10.8615C11.3809 11.024 9.69136 10.2965 9.31832 9.2519C9.09042 8.61377 9.40579 7.86708 10.0961 7.41041L10.3291 7.25624L10.8324 8.0942C11.1092 8.5551 11.3681 9.04068 11.4077 9.17326ZM12.894 8.5555C13.1725 8.86685 12.8508 9.31804 12.4498 9.17844C12.2711 9.11621 12.1947 9.0006 12.1947 8.79243C12.1947 8.40936 12.631 8.26158 12.894 8.5555ZM10.4486 11.3235C10.5837 11.3816 10.8812 11.479 11.1095 11.5398L11.5247 11.6504L11.299 12.1833C10.4955 14.0804 10.0952 15.9989 10.096 17.9485C10.0967 19.4469 10.3788 20.886 11.2063 23.6125C11.4257 24.3351 11.3454 24.7355 10.9237 25.0221C10.5779 25.2572 9.99397 25.1048 9.8061 24.7304C9.59112 24.3021 9.0804 22.5783 8.81863 21.3977C8.38231 19.4297 8.2956 17.9932 8.52431 16.5222L8.61062 15.9673L9.13116 15.9529L9.65175 15.9384V15.5084V15.0784H9.23938H8.82697L8.86008 14.9387C8.87829 14.8619 8.92716 14.6789 8.96871 14.5323L9.04429 14.2656H9.55145H10.0586V13.8338V13.402H9.7026C9.5068 13.402 9.34649 13.3849 9.34634 13.3639C9.34624 13.3429 9.4065 13.1601 9.4803 12.9575L9.61452 12.5892H10.04H10.4655V12.1575V11.7257H10.2156H9.96565L10.0731 11.4717C10.1322 11.332 10.1855 11.2177 10.1917 11.2177C10.1978 11.2177 10.3134 11.2653 10.4486 11.3235ZM15.0955 11.4505C15.1504 11.5786 15.1954 11.6929 15.1954 11.7045C15.1954 11.7161 15.0809 11.7257 14.9411 11.7257H14.6868V12.1555V12.5853L15.1281 12.6L15.5693 12.6146L15.7121 13.0083L15.8548 13.402H15.4742H15.0936V13.8338V14.2656H15.617H16.1404L16.2275 14.5921C16.2754 14.7717 16.3284 14.9546 16.3453 14.9985C16.3717 15.0671 16.3178 15.0784 15.9637 15.0784H15.5514V15.5101V15.9419H16.0522H16.5529L16.6441 16.4626C16.7633 17.1442 16.8015 18.4849 16.7222 19.2103C16.5688 20.6145 16.2034 22.2531 15.7003 23.7931C15.39 24.7428 15.2919 24.9316 15.0408 25.0612C14.8313 25.1694 14.441 25.1567 14.2413 25.0351C13.8165 24.7764 13.7593 24.2727 14.0487 23.3402C14.7638 21.0363 15.094 19.3246 15.0932 17.9269C15.092 16.0646 14.6438 13.9517 13.8738 12.1784C13.7615 11.9198 13.6696 11.6917 13.6696 11.6716C13.6696 11.6515 13.8352 11.5945 14.0378 11.5449C14.2402 11.4954 14.532 11.4024 14.6862 11.3384C14.8404 11.2744 14.973 11.221 14.981 11.2198C14.989 11.2187 15.0405 11.3224 15.0955 11.4505ZM24.7912 11.451C25.2963 11.8248 25.2963 12.4901 24.7912 12.864C24.6497 12.9687 24.6028 12.9704 21.5108 12.9845C18.0018 13.0005 18.0718 13.0067 17.801 12.6522C17.6848 12.5 17.662 12.4195 17.662 12.1614C17.662 11.7983 17.7869 11.5803 18.0857 11.4216C18.2657 11.3261 18.3855 11.3229 21.46 11.3336C24.606 11.3445 24.6495 11.3461 24.7912 11.451ZM21.807 19.4978V25.1364H21.4001H20.9933V19.4978V13.8592H21.4001H21.807V19.4978ZM3.7267 21.0394C3.25173 21.1955 2.90207 21.4898 2.68343 21.9174C2.57469 22.13 2.55705 22.2325 2.55771 22.6473C2.55837 23.0697 2.57515 23.1615 2.69248 23.3839C2.87395 23.7277 3.16135 24.0062 3.49783 24.1641C3.87398 24.3407 4.46964 24.349 4.83705 24.1828C5.6784 23.8023 6.06005 22.8876 5.73679 22.0265C5.45244 21.2691 4.48032 20.7917 3.7267 21.0394ZM4.66051 21.974C4.91455 22.1635 4.99817 22.3302 4.99817 22.6473C4.99817 22.8695 4.97126 22.981 4.89177 23.0881C4.70868 23.3349 4.47585 23.4601 4.19978 23.4601C3.8928 23.4601 3.69888 23.3644 3.51319 23.1212C3.32847 22.8793 3.30996 22.4312 3.47555 22.2097C3.78086 21.8013 4.2924 21.6995 4.66051 21.974Z" fill="#161921"/>
</svg>
