<svg width="27" height="26" viewBox="0 0 27 26" fill="none" xmlns="http://www.w3.org/2000/svg">
<path fill-rule="evenodd" clip-rule="evenodd" d="M9.0909 0.181905C8.32084 0.465647 8.08145 0.566145 7.57998 0.816218C7.16355 1.02388 7.12235 1.03461 6.98025 0.972661C6.89633 0.936093 6.68628 0.90512 6.51352 0.903849C6.1512 0.901204 5.89512 1.01676 5.0442 1.5669C3.62757 2.48277 2.4838 3.62653 1.56793 5.04316C1.01779 5.89408 0.902241 6.15016 0.904886 6.51248C0.906157 6.68525 0.93713 6.8953 0.973698 6.97921C1.03564 7.12126 1.02496 7.16246 0.818832 7.57579C0.577964 8.0589 0.27103 8.81115 0.089514 9.36338C-0.0491785 9.78521 -0.0275126 10.1135 0.160157 10.4337C0.35749 10.7704 0.608479 10.9087 1.41007 11.1222C1.80336 11.227 2.13695 11.3245 2.15134 11.3388C2.16573 11.3532 2.1548 11.4665 2.12698 11.5905C1.91729 12.5263 1.85361 14.3447 1.99179 15.4508C2.27828 17.7439 3.21653 19.9007 4.71041 21.7003C6.57567 23.9473 9.25344 25.4422 12.2442 25.9062C13.0494 26.0311 14.8254 26.0313 15.6697 25.9066C20.0671 25.2568 23.7305 22.2923 25.2861 18.1246C25.5287 17.4747 25.7892 16.4448 25.9053 15.6761C26.0332 14.8297 26.0342 13.0616 25.9072 12.2431C25.4426 9.24829 23.9484 6.57341 21.6972 4.70637C19.8712 3.192 17.7766 2.28116 15.4518 1.99076C14.3458 1.85257 12.5273 1.91625 11.5916 2.12594C11.4675 2.15376 11.3559 2.16627 11.3433 2.15376C11.3308 2.14125 11.2328 1.80685 11.1254 1.41061C10.9062 0.601695 10.7695 0.355334 10.4296 0.156068C10.0622 -0.0592687 9.72786 -0.0528096 9.0909 0.181905ZM9.94619 1.06838C9.99527 1.12753 10.7204 3.77504 10.7169 3.88205C10.716 3.90712 10.4293 4.03961 10.0798 4.17637C7.40777 5.22188 5.22292 7.40673 4.17741 10.0787C4.04065 10.4283 3.90582 10.715 3.87785 10.7158C3.74058 10.7198 1.12221 9.99007 1.06204 9.93102C1.0035 9.8735 1.01057 9.8085 1.10746 9.51453C1.26522 9.03585 1.68003 8.07339 1.92237 7.62375C2.15261 7.19658 2.18135 6.93964 2.0215 6.73646C1.96555 6.66536 1.91978 6.5641 1.91978 6.51151C1.91978 6.40095 2.40126 5.59585 2.82431 4.99897C3.2119 4.45208 4.42896 3.23614 4.98886 2.83634C5.60919 2.39341 6.39741 1.91874 6.51255 1.91874C6.56514 1.91874 6.6664 1.96451 6.7375 2.02046C6.94307 2.18214 7.20886 2.15279 7.63109 1.92169C8.0608 1.68657 8.67935 1.41396 9.31976 1.17742C9.84163 0.984663 9.8723 0.979323 9.94619 1.06838ZM15.6263 3.0355C18.3723 3.4885 20.6777 4.7998 22.4691 6.92764C24.5088 9.35036 25.4129 12.792 24.8309 15.9179C24.2478 19.0499 22.386 21.7524 19.6693 23.41C16.4799 25.3561 12.4468 25.5282 9.09842 23.8613C6.86393 22.7489 5.11266 21.001 4.05677 18.8294C3.18484 17.0361 2.8417 15.325 2.94504 13.2857C2.97424 12.7102 3.10632 11.7291 3.16811 11.6291C3.17971 11.6103 3.34363 11.6378 3.53241 11.6902C3.96563 11.8104 4.07783 11.8085 4.36101 11.6765C4.55173 11.5876 4.69592 11.5687 5.22561 11.5632C5.84543 11.5567 5.87091 11.5519 6.24279 11.3729C6.77829 11.115 7.04245 10.8571 7.5514 10.0952C8.34342 8.90972 8.91096 8.34229 10.0972 7.5498C10.8441 7.05082 11.0943 6.79388 11.3685 6.2443C11.5553 5.86988 11.5576 5.85792 11.5621 5.22712C11.5655 4.74274 11.5866 4.55029 11.6496 4.42889C11.7873 4.16356 11.8 3.90733 11.6937 3.5325C11.64 3.3431 11.6114 3.17867 11.6301 3.16707C11.7301 3.10528 12.7112 2.9732 13.2868 2.94401C14.0326 2.90622 15.0942 2.94772 15.6263 3.0355ZM7.82502 3.31207C7.42822 3.53199 7.51213 4.15465 7.94962 4.23674C8.48405 4.33704 8.78651 3.71905 8.37323 3.37127C8.20361 3.22856 8.01284 3.20791 7.82502 3.31207ZM14.1768 4.12943C14.0959 4.17429 13.8563 4.53793 13.5185 5.1283C12.914 6.1849 12.8815 6.31321 13.1557 6.55825C13.3553 6.73651 13.6078 6.74714 13.7939 6.58506C13.9637 6.43726 14.9397 4.72936 14.9397 4.58014C14.9397 4.18324 14.5233 3.93718 14.1768 4.12943ZM10.4946 5.75422C10.3574 6.08262 10.1497 6.29399 9.62914 6.6348C8.27675 7.52025 7.52642 8.27073 6.63634 9.6281C6.17546 10.331 5.84935 10.5648 5.32972 10.5648H5.07451L5.1744 10.3114C6.03437 8.12964 8.04885 6.10342 10.2607 5.19559L10.5404 5.08075L10.5556 5.32629C10.5641 5.46427 10.5374 5.65174 10.4946 5.75422ZM18.9575 5.56528C18.9156 5.57901 18.4729 5.82268 17.9738 6.10673C17.06 6.62681 16.9232 6.74374 16.9232 7.00464C16.9232 7.27252 17.1722 7.51323 17.4494 7.51323C17.5898 7.51323 19.1735 6.61633 19.4026 6.4071C19.5309 6.28992 19.5679 6.2149 19.5679 6.07173C19.5679 5.77004 19.2182 5.47989 18.9575 5.56528ZM3.502 7.63509C3.2296 7.78604 3.16821 8.12959 3.37063 8.37021C3.60489 8.64861 4.02956 8.62364 4.18539 8.32235C4.27964 8.14012 4.27882 8.00372 4.18249 7.81737C4.05311 7.56724 3.76413 7.48979 3.502 7.63509ZM12.8848 7.95098C11.3705 8.22444 9.98393 9.09245 9.05052 10.3513C7.23154 12.8046 7.54046 16.2655 9.76732 18.3808C10.4021 18.9838 11.3705 19.577 11.7199 19.577C12.0909 19.577 12.3181 19.2319 12.174 18.887C12.113 18.7411 12.0285 18.6718 11.7265 18.5198C10.3609 17.8326 9.43938 16.6993 9.02855 15.2018C8.94086 14.8822 8.92072 14.6594 8.91747 13.9723C8.91279 12.972 8.99905 12.5711 9.39361 11.76C9.92407 10.6694 10.7469 9.86083 11.853 9.34324C12.4797 9.04999 12.9777 8.93372 13.7445 8.90178C14.5077 8.86995 15.0427 8.94939 15.7229 9.1955C17.3637 9.78922 18.5877 11.2377 18.9642 13.0314C19.0548 13.463 19.0411 14.5236 18.9387 14.9948C18.8227 15.5293 18.5541 16.1907 18.2638 16.6569C17.8007 17.4006 16.9632 18.1493 16.1257 18.5685C15.9808 18.641 15.8263 18.7517 15.7824 18.8143C15.5746 19.111 15.8097 19.577 16.1671 19.577C16.5676 19.577 17.605 18.9318 18.2614 18.2745C19.1239 17.4111 19.6848 16.3637 19.9527 15.1167C20.0817 14.5159 20.0746 13.3806 19.9377 12.7517C19.3901 10.2349 17.4695 8.37682 14.9712 7.94696C14.4158 7.85139 13.4257 7.85328 12.8848 7.95098ZM20.281 9.19748C20.085 9.27565 19.9795 9.3941 19.9458 9.57384C19.9103 9.76318 20.0228 10.0239 20.1754 10.1055C20.2341 10.137 20.728 10.1579 21.4113 10.1579H22.5495L22.6862 10.0152C22.9641 9.72519 22.8085 9.25231 22.4089 9.17235C22.1556 9.1217 20.4195 9.1422 20.281 9.19748ZM13.6134 10.0523C13.2196 10.4461 13.6804 11.1012 14.1722 10.8468C14.3182 10.7714 14.482 10.5403 14.482 10.4097C14.482 10.2771 14.3159 10.0155 14.1974 9.96153C13.9748 9.86007 13.7745 9.8912 13.6134 10.0523ZM11.9644 10.4178C11.6494 10.599 11.5873 10.9837 11.8334 11.2299C12.0359 11.4324 12.2834 11.4329 12.5092 11.2311C12.8301 10.9444 12.6722 10.4453 12.2414 10.3842C12.145 10.3705 12.0204 10.3856 11.9644 10.4178ZM15.5246 10.4178C15.2095 10.599 15.1474 10.9837 15.3935 11.2299C15.5961 11.4324 15.8436 11.4329 16.0693 11.2311C16.3902 10.9444 16.2324 10.4453 15.8015 10.3842C15.7052 10.3705 15.5805 10.3856 15.5246 10.4178ZM10.5845 11.7738C10.1966 12.0881 10.3882 12.6731 10.8791 12.6731C11.1485 12.6731 11.3796 12.4372 11.3796 12.1621C11.3796 11.7808 10.8782 11.5359 10.5845 11.7738ZM16.7292 11.8107C16.5385 11.9712 16.4946 12.1435 16.5877 12.3665C16.8028 12.8811 17.5335 12.7253 17.5335 12.1647C17.5335 12.0295 17.4943 11.9418 17.3848 11.8323C17.192 11.6395 16.9424 11.6312 16.7292 11.8107ZM13.3776 12.0118C12.8519 12.176 12.3848 12.5831 12.1309 13.0983C11.8312 13.7065 11.8872 14.4892 12.2725 15.0769C12.7076 15.7405 13.561 16.109 14.308 15.9557C15.1668 15.7795 15.7805 15.1658 15.9568 14.307C16.1528 13.3516 15.5311 12.3306 14.5715 12.032C14.221 11.9229 13.6907 11.9139 13.3776 12.0118ZM4.38023 13.0286C4.03821 13.1766 3.94605 13.5676 4.19572 13.8117C4.27267 13.8869 4.73121 14.1741 5.21478 14.4499C6.00818 14.9024 6.11244 14.9484 6.28282 14.9213C6.53854 14.8806 6.70052 14.6881 6.70052 14.4249C6.70052 14.2819 6.66675 14.1886 6.58609 14.1088C6.46195 13.9861 4.80704 13.032 4.64073 12.9873C4.58479 12.9723 4.46756 12.9909 4.38023 13.0286ZM14.5259 13.1225C15.0562 13.4735 15.1232 14.209 14.6667 14.6656C14.0434 15.2888 13.0301 14.9084 12.9663 14.0273C12.9351 13.5954 13.1285 13.262 13.5411 13.0368C13.7791 12.9068 14.2637 12.949 14.5259 13.1225ZM21.5165 13.0308C21.3571 13.099 21.1953 13.3298 21.1953 13.4892C21.1953 13.731 21.3549 13.8648 22.2797 14.3987C23.3271 15.0034 23.4452 15.0361 23.6914 14.79C23.8828 14.5986 23.898 14.2949 23.7256 14.1088C23.5925 13.9653 21.9937 13.0343 21.8057 12.991C21.7357 12.9748 21.6056 12.9927 21.5165 13.0308ZM10.0533 13.6124C9.89223 13.7735 9.86111 13.9738 9.96257 14.1964C10.0165 14.3149 10.2781 14.4809 10.4107 14.4809C10.5413 14.4809 10.7724 14.3172 10.8479 14.1712C11.1023 13.6793 10.4471 13.2186 10.0533 13.6124ZM17.1736 13.6124C16.8885 13.8975 17.0325 14.3678 17.4318 14.4555C17.6239 14.4977 17.8656 14.3696 17.9681 14.1712C18.2225 13.6793 17.5674 13.2186 17.1736 13.6124ZM10.5845 15.3339C10.1966 15.6482 10.3882 16.2333 10.8791 16.2333C11.1485 16.2333 11.3796 15.9973 11.3796 15.7222C11.3796 15.3409 10.8782 15.096 10.5845 15.3339ZM16.7292 15.3708C16.5385 15.5313 16.4946 15.7037 16.5877 15.9266C16.6918 16.1756 16.9296 16.2904 17.1839 16.2142C17.4234 16.1424 17.5335 15.9922 17.5335 15.7372C17.5335 15.3124 17.0567 15.0952 16.7292 15.3708ZM12.0096 16.5651C11.8377 16.6346 11.6847 16.8677 11.6847 17.0601C11.6847 17.3123 11.9146 17.5325 12.1781 17.5325C12.4331 17.5325 12.5833 17.4223 12.6551 17.1829C12.731 16.9295 12.6165 16.6907 12.3696 16.5875C12.1742 16.5059 12.1585 16.505 12.0096 16.5651ZM15.5697 16.5651C15.2387 16.6989 15.1448 17.1351 15.3935 17.3838C15.6675 17.6578 16.1056 17.5488 16.2164 17.1791C16.2911 16.9298 16.1749 16.69 15.9297 16.5875C15.7344 16.5059 15.7186 16.505 15.5697 16.5651ZM20.6224 17.0236C20.4401 17.167 20.3791 17.371 20.4541 17.5867C20.5486 17.8585 21.4443 19.3784 21.568 19.4767C21.8472 19.6986 22.29 19.5115 22.3481 19.1471C22.3756 18.9741 22.3317 18.8743 21.8776 18.0791C21.6021 17.5966 21.3148 17.1389 21.2391 17.062C21.0708 16.891 20.8115 16.8749 20.6224 17.0236ZM13.6134 17.1725C13.3284 17.4576 13.4724 17.9279 13.8716 18.0156C14.0638 18.0578 14.3054 17.9298 14.408 17.7313C14.6624 17.2395 14.0072 16.7787 13.6134 17.1725ZM5.24596 17.9088C5.05503 18.0997 5.02742 18.263 5.14693 18.4942C5.27245 18.7369 5.41094 18.7603 6.62078 18.7432L7.72671 18.7276L7.84933 18.5849C7.98085 18.432 8.01269 18.1613 7.91962 17.9874C7.80091 17.7655 7.63302 17.7359 6.49455 17.7359H5.41888L5.24596 17.9088ZM13.6134 19.2069C13.3674 19.4529 13.4341 19.8484 13.7465 19.9967C13.9524 20.0943 13.9924 20.0945 14.1785 19.9983C14.6593 19.7496 14.4883 19.0582 13.9458 19.0582C13.8106 19.0582 13.7229 19.0974 13.6134 19.2069ZM18.0618 19.9727C18.0028 19.9965 17.9043 20.0798 17.843 20.1576C17.7348 20.2952 17.7321 20.3316 17.747 21.4379L17.7624 22.5765L17.9051 22.6991C18.1145 22.8792 18.4104 22.8682 18.6054 22.6731L18.7541 22.5245V21.3966V20.2687L18.5812 20.0958C18.4064 19.9209 18.2699 19.8886 18.0618 19.9727ZM9.42881 20.9368C8.95729 21.2118 8.52296 21.4854 8.4636 21.5447C8.38879 21.6195 8.35573 21.7164 8.35573 21.8609C8.35573 22.0318 8.38548 22.0959 8.52072 22.2167C8.62569 22.3105 8.7416 22.3641 8.8396 22.3641C9.03984 22.3641 10.8317 21.3404 10.912 21.1801C11.1054 20.7944 10.906 20.4292 10.5045 20.4341C10.3226 20.4362 10.1431 20.5201 9.42881 20.9368ZM14.2531 21.2405C14.1971 21.2644 14.1142 21.3268 14.0687 21.379C13.9667 21.4963 13.0716 23.0335 13.0081 23.2004C12.9431 23.3715 13.0339 23.659 13.1842 23.7575C13.3338 23.8555 13.6596 23.8616 13.782 23.7686C13.931 23.6555 14.8986 21.9464 14.9259 21.7483C14.9467 21.5974 14.9252 21.5363 14.8056 21.4048C14.6518 21.2359 14.4228 21.1678 14.2531 21.2405Z" fill="#161921"/>
</svg>
