<svg width="26" height="26" viewBox="0 0 26 26" fill="none" xmlns="http://www.w3.org/2000/svg">
<path fill-rule="evenodd" clip-rule="evenodd" d="M12.0207 0.0244662C10.0939 0.208995 8.66081 0.616515 7.03835 1.44126C5.11639 2.41816 3.39174 3.96299 2.13421 5.83394C1.60176 6.62611 0.951105 7.96344 0.638692 8.90773C0.386525 9.66993 0.186215 10.5373 0.0637917 11.3972C-0.0212639 11.9948 -0.0212639 14.0005 0.0637917 14.5981C0.276812 16.0946 0.672603 17.4055 1.29097 18.6626C1.99058 20.0849 2.67586 21.0404 3.8072 22.171C4.9262 23.2892 5.89724 23.9875 7.26713 24.6591C8.22298 25.1277 8.84013 25.3557 9.80914 25.5986C12.3519 26.236 14.9021 26.1138 17.3863 25.2355C18.1445 24.9675 19.4589 24.3086 20.1297 23.8603C21.6668 22.833 23.043 21.4236 24.0391 19.8565C24.4053 19.2804 24.9938 18.065 25.2339 17.389C26.4282 14.0257 26.2203 10.416 24.6507 7.26195C24.0172 5.9891 23.312 4.99151 22.3219 3.96761C21.2311 2.8396 20.135 2.04209 18.7062 1.33705C17.1995 0.593499 15.7966 0.196751 14.1306 0.042909C13.6126 -0.00489994 12.4351 -0.0152137 12.0207 0.0244662ZM14.7915 1.76581C18.0162 2.30736 20.7439 4.08685 22.5365 6.81857C23.3987 8.13247 23.987 9.68182 24.2559 11.3464C24.3817 12.1259 24.3817 13.8694 24.2559 14.6489C23.708 18.0412 21.85 20.858 18.9604 22.6769C17.723 23.4558 16.2321 24.0017 14.639 24.2592C13.8563 24.3857 12.1135 24.3854 11.3343 24.2586C8.80566 23.8471 6.72563 22.7943 4.94928 21.0269C3.19478 19.2813 2.12602 17.1719 1.71762 14.6489C1.59144 13.869 1.59144 12.1263 1.71762 11.3464C2.24982 8.05855 3.98703 5.33624 6.71501 3.51538C8.2698 2.47756 10.145 1.82388 12.0715 1.64824C12.6215 1.5981 14.1986 1.66628 14.7915 1.76581ZM12.6562 6.56331C12.4679 6.65045 12.299 6.82969 12.2275 7.01849C12.1917 7.11279 12.1732 8.01704 12.1732 9.67181V12.1821L9.58402 12.1961C7.0596 12.2098 6.99137 12.2128 6.85451 12.3149C6.58775 12.514 6.50453 12.6764 6.50453 12.9977C6.50453 13.319 6.58775 13.4813 6.85451 13.6804C6.99137 13.7825 7.0596 13.7855 9.5827 13.7992L12.1705 13.8133L12.1846 16.3994C12.1983 18.9208 12.2013 18.989 12.3035 19.1257C12.5027 19.3923 12.6651 19.4755 12.9866 19.4755C13.3082 19.4755 13.4706 19.3923 13.6698 19.1257C13.772 18.989 13.775 18.9208 13.7887 16.3994L13.8028 13.8133L16.3906 13.7992C18.9137 13.7855 18.9819 13.7825 19.1188 13.6804C19.3855 13.4813 19.4688 13.319 19.4688 12.9977C19.4688 12.6764 19.3855 12.514 19.1188 12.3149C18.9819 12.2128 18.9137 12.2098 16.3906 12.1961L13.8028 12.1821L13.7887 9.59595C13.775 7.07453 13.772 7.00635 13.6698 6.86958C13.6122 6.79245 13.5052 6.68469 13.4322 6.63018C13.2637 6.50448 12.8588 6.46958 12.6562 6.56331Z" fill="#161921"/>
</svg>
