<svg width="26" height="20" viewBox="0 0 26 20" fill="none" xmlns="http://www.w3.org/2000/svg">
<path fill-rule="evenodd" clip-rule="evenodd" d="M17.2314 0.0865512C16.8602 0.216141 16.6123 0.432175 16.4322 0.783109L16.2795 1.08063L16.2637 2.42718L16.2478 3.77368L15.8312 3.38042C14.3898 2.02008 12.8745 1.22472 11.0121 0.851018C10.5177 0.751809 10.2649 0.733377 9.38352 0.732253C8.27075 0.730772 7.80162 0.782139 6.99156 0.993935C5.3124 1.43305 3.95224 2.21697 2.71367 3.45966C1.25666 4.9214 0.357891 6.71508 0.0640867 8.74726C-0.0213622 9.33833 -0.0213622 10.7602 0.0640867 11.3513C0.357891 13.3835 1.25666 15.1772 2.71367 16.6389C3.5081 17.4359 4.21337 17.9476 5.19794 18.4413C7.79892 19.7453 11.0025 19.7078 13.5953 18.343C14.4613 17.8872 15.0815 17.4338 15.8819 16.6712L16.2476 16.3227L16.2636 17.6193L16.2795 18.9158L16.4327 19.2161C16.5279 19.4029 16.6688 19.5799 16.8051 19.6842C17.2374 20.015 17.1663 20.0101 21.2463 19.9945L24.9313 19.9804L25.1857 19.8628C25.5088 19.7135 25.6944 19.5363 25.8648 19.2145L26 18.9592V9.99823V1.03723L25.8648 0.781934C25.6944 0.460156 25.5088 0.282978 25.1857 0.133679L24.9313 0.0160376L21.2161 0.00429391C17.7211 -0.00678607 17.4849 -0.00193539 17.2314 0.0865512ZM18.0862 10.0044V19.2523L17.7802 19.2301C17.4284 19.2046 17.2414 19.0929 17.1063 18.8279C17.0222 18.6628 17.0178 18.158 17.03 9.93813L17.0429 1.2234L17.1483 1.07926C17.2946 0.87905 17.5588 0.756558 17.8444 0.756507L18.0862 0.756404V10.0044ZM23.379 2.0211V3.2858L22.3484 4.05716C21.7817 4.48147 21.269 4.85829 21.2092 4.8946C21.1091 4.95536 21.013 4.89597 20.0019 4.14779L18.9033 3.33492L18.9019 2.04566L18.9005 0.756404H21.1397H23.379V2.0211ZM25.0474 0.976779L25.2366 1.16657V9.99823V18.8299L25.0474 19.0197C24.875 19.1927 24.8289 19.2113 24.5258 19.2307L24.1933 19.2519V9.99823V0.744507L24.5258 0.765748C24.8289 0.7851 24.875 0.803788 25.0474 0.976779ZM8.92548 1.67175C8.92548 1.82759 8.95536 1.89591 9.05958 1.97811C9.33247 2.19348 9.62429 2.0546 9.67355 1.686L9.70277 1.46777L10.0139 1.4984C11.0299 1.59858 12.1109 1.90086 13.0207 2.33926C13.5538 2.59609 14.44 3.16898 14.8241 3.505L15.0481 3.70102L14.9322 3.85829C14.7752 4.07131 14.7825 4.27018 14.9528 4.41708C15.1262 4.56674 15.2189 4.56521 15.448 4.40897L15.6326 4.28315L15.9433 4.66003L16.254 5.0369V10.0505V15.0642L16.0013 15.3829C15.6303 15.8505 15.6235 15.8544 15.4369 15.6968C15.2427 15.5329 15.1291 15.5293 14.9528 15.6815C14.7825 15.8284 14.7752 16.0273 14.9322 16.2403L15.0481 16.3975L14.8241 16.5932C14.7008 16.7007 14.4054 16.9235 14.1674 17.0881C12.9157 17.9544 11.6122 18.4266 9.98858 18.6021L9.70302 18.6329L9.67371 18.4136C9.62429 18.0439 9.33283 17.9048 9.05958 18.1205C8.95459 18.2033 8.92548 18.2706 8.92548 18.4308V18.6354L8.58196 18.6025C6.8346 18.4349 5.19056 17.7628 3.88089 16.6805L3.54383 16.402L3.66434 16.251C3.82272 16.0523 3.81926 15.8484 3.65472 15.6834C3.54948 15.5778 3.49309 15.5585 3.36453 15.5844C3.27674 15.602 3.15297 15.6653 3.08946 15.7252L2.97398 15.8341L2.87031 15.7117C1.65342 14.2753 0.913487 12.5217 0.7689 10.7311L0.747678 10.4683L0.944022 10.4368C1.18958 10.3974 1.34246 10.2487 1.34246 10.0493C1.34246 9.8499 1.18958 9.70121 0.944022 9.66179L0.747678 9.63029L0.7689 9.36748C0.907888 7.64646 1.69245 5.74459 2.76888 4.51941L2.98431 4.27427L3.09465 4.37823C3.15531 4.43541 3.27674 4.49658 3.36453 4.5142C3.49309 4.54004 3.54948 4.52079 3.65472 4.41519C3.819 4.25037 3.82099 4.04695 3.66022 3.84971L3.53879 3.70066L3.87835 3.42014C5.15703 2.36356 6.89456 1.64275 8.49289 1.50586C8.96024 1.46583 8.92548 1.4525 8.92548 1.67175ZM8.34021 3.26089C6.11966 3.60906 4.23465 4.96041 3.2373 6.91917C2.91215 7.55772 2.74507 8.02936 2.61193 8.68425C1.86309 12.368 4.21307 15.9529 7.90763 16.763C8.51442 16.896 9.65773 16.9211 10.325 16.816C13.2247 16.3593 15.4816 14.1456 16.0263 11.2237C16.133 10.6513 16.1316 9.45474 16.0235 8.87491C15.8664 8.03217 15.5872 7.26765 15.1827 6.57283C14.8729 6.04048 14.7008 5.86238 14.4967 5.86238C14.3105 5.86238 14.1165 6.05059 14.1165 6.23114C14.1165 6.28597 14.252 6.5476 14.4176 6.81255C14.7764 7.38662 14.9976 7.90176 15.1703 8.56477C15.3434 9.22983 15.3867 10.3698 15.2654 11.0685C14.6286 14.7371 10.8909 16.9892 7.39035 15.8136C4.45745 14.8287 2.71957 11.7808 3.37583 8.77279C3.79463 6.85345 5.1471 5.21403 6.93624 4.45706C8.71153 3.70597 10.6571 3.83286 12.3607 4.81091C12.8192 5.07412 12.9806 5.09817 13.1407 4.92727C13.2989 4.75832 13.2829 4.55433 13.098 4.38098C12.7543 4.05895 11.5875 3.54657 10.7576 3.35325C10.2572 3.23668 8.83993 3.18251 8.34021 3.26089ZM23.379 4.60544V4.93136L22.251 5.77946L21.123 6.62762L20.966 6.51145C20.8796 6.44753 20.3796 6.07479 19.8547 5.68311L18.9005 4.97098V4.65078C18.9005 4.47468 18.914 4.33059 18.9306 4.33059C18.9471 4.33059 19.388 4.65012 19.9103 5.04073C20.9878 5.8465 21.0635 5.89057 21.243 5.81668C21.3122 5.78819 21.8039 5.43225 22.3357 5.02567C22.8675 4.61913 23.3198 4.28489 23.3409 4.283C23.3619 4.28111 23.379 4.42617 23.379 4.60544ZM8.84497 4.6441C6.07976 4.8395 3.8871 7.23002 3.8871 10.0493C3.8871 12.8546 6.05864 15.2321 8.82324 15.4537C11.108 15.6369 13.1664 14.4588 14.1777 12.3893C15.1491 10.4017 14.7651 7.95691 13.2259 6.32805C12.776 5.85191 12.3962 5.55832 11.8642 5.27535C10.891 4.75765 9.96802 4.5647 8.84497 4.6441ZM10.4777 5.53121C10.8654 5.63838 11.5327 5.95005 11.9045 6.19774C12.7393 6.75363 13.3815 7.61154 13.7034 8.60082C14.2937 10.4149 13.7275 12.402 12.2722 13.6241C11.8566 13.9731 10.9755 14.434 10.4523 14.5762C10.2032 14.6439 9.92018 14.6666 9.30718 14.6682C8.41386 14.6704 8.05237 14.5999 7.37356 14.2911C6.10786 13.7153 5.12868 12.5218 4.77314 11.1215C4.62851 10.5519 4.63833 9.45265 4.79284 8.90983C5.30558 7.10906 6.58579 5.87964 8.36566 5.47882C8.80186 5.38058 10.0443 5.41142 10.4777 5.53121ZM8.36602 5.8416C7.62538 6.16384 7.53351 7.20622 8.20453 7.67434C8.42149 7.82568 8.43722 7.82849 9.169 7.84595C10.0244 7.86638 10.2171 7.82604 10.5034 7.56666C10.9004 7.20674 10.9645 6.64441 10.6592 6.19922C10.4019 5.82399 10.2031 5.75991 9.30382 5.76225C8.74074 5.76373 8.49773 5.78431 8.36602 5.8416ZM23.377 6.9474L23.375 7.98136L22.2588 8.81583C21.6449 9.27476 21.1198 9.64239 21.092 9.63279C21.0641 9.62314 20.5613 9.25913 19.9747 8.82385L18.9079 8.03242L18.9042 6.99545C18.9013 6.17839 18.9139 5.96675 18.9641 5.99738C18.9991 6.01878 19.4707 6.36481 20.0122 6.76629C20.6121 7.21118 21.0427 7.4963 21.1145 7.4963C21.1869 7.4963 21.6414 7.19188 22.293 6.70701C22.8763 6.27295 23.3593 5.91681 23.3663 5.91559C23.3733 5.91441 23.3781 6.37875 23.377 6.9474ZM10.0029 6.61066C10.1242 6.72075 10.121 6.85851 9.99423 6.9857C9.90405 7.07618 9.8246 7.08782 9.29847 7.08782C8.65361 7.08782 8.51834 7.03839 8.51834 6.8027C8.51834 6.56568 8.62924 6.52616 9.2941 6.52616C9.79565 6.52616 9.92715 6.54183 10.0029 6.61066ZM8.93444 8.16365C7.43534 8.45964 6.86524 10.323 7.94295 11.4042C8.98309 12.4478 10.7656 11.9708 11.1431 10.5478C11.4321 9.45888 10.7481 8.37131 9.642 8.16084C9.33334 8.10212 9.24432 8.10248 8.93444 8.16365ZM5.75629 8.53419C5.48534 8.61874 5.21581 8.85198 5.10425 9.0984C5.02516 9.27312 5.00898 9.43473 5.00898 10.0493C5.00898 10.9019 5.06552 11.0965 5.39169 11.3662C5.88092 11.7708 6.58218 11.6629 6.94336 11.1275C7.06072 10.9535 7.06881 10.8951 7.08403 10.1153C7.10235 9.17489 7.07222 9.05709 6.73547 8.75185C6.44314 8.48691 6.1305 8.41741 5.75629 8.53419ZM12.211 8.53991C11.922 8.64708 11.7674 8.77662 11.6228 9.03263C11.5085 9.23493 11.4938 9.32567 11.4781 9.92404C11.453 10.881 11.5751 11.2235 12.0319 11.4776C12.545 11.7632 13.1838 11.569 13.4521 11.0459C13.574 10.8082 13.5822 10.746 13.5822 10.0493C13.5822 9.35257 13.574 9.29038 13.4521 9.0527C13.2219 8.60378 12.6623 8.37258 12.211 8.53991ZM9.53111 8.92965C9.88303 9.00537 10.1567 9.21905 10.3182 9.54405C10.4942 9.89851 10.4947 10.1991 10.3198 10.5513C9.77824 11.6415 8.16209 11.2655 8.16209 10.0493C8.16209 9.49774 8.51239 9.05464 9.05271 8.92265C9.26911 8.8698 9.25181 8.86955 9.53111 8.92965ZM21.005 10.506C21.1826 10.5737 21.3214 10.4912 22.3979 9.67777C22.908 9.29237 23.3374 8.97703 23.3521 8.97703C23.3669 8.97703 23.379 9.12469 23.379 9.30514V9.63325L22.2566 10.4667C21.6393 10.9252 21.1219 11.2973 21.1069 11.2938C21.0918 11.2903 20.5892 10.9237 19.99 10.4793L18.9005 9.67108V9.325V8.97892L19.8901 9.71857C20.4344 10.1254 20.9361 10.4797 21.005 10.506ZM6.26634 9.34864C6.36629 9.4262 6.35489 10.6798 6.25346 10.7643C6.14129 10.8577 5.91548 10.8419 5.83772 10.7352C5.74626 10.6097 5.74295 9.49044 5.83375 9.3756C5.945 9.23488 6.10679 9.22477 6.26634 9.34864ZM12.6802 9.31183C12.7872 9.38699 12.7933 9.42717 12.7933 10.051C12.7933 10.6935 12.7901 10.7128 12.6695 10.7921C12.5738 10.855 12.5221 10.8608 12.4417 10.8176C12.2687 10.7248 12.2335 10.5907 12.2335 10.0248C12.2335 9.5176 12.2415 9.47496 12.3585 9.35768C12.5052 9.21037 12.5307 9.20675 12.6802 9.31183ZM23.377 11.6449L23.375 12.6789L22.2651 13.5086C21.6546 13.965 21.1396 14.3383 21.1205 14.3383C21.1014 14.3383 20.594 13.9712 19.9931 13.5225L18.9005 12.7067V11.6844C18.9005 11.1221 18.9118 10.662 18.9257 10.662C18.9395 10.662 19.4098 11.0067 19.9709 11.4279C20.6281 11.9213 21.0346 12.1938 21.1139 12.1938C21.1932 12.1938 21.6112 11.9131 22.2922 11.4024C22.8726 10.9671 23.3546 10.6109 23.3632 10.6109C23.3719 10.6109 23.3781 11.0763 23.377 11.6449ZM8.45142 12.2968C7.73551 12.5124 7.51199 13.5468 8.06875 14.0678C8.30973 14.2933 8.51712 14.3383 9.31491 14.3383C10.2019 14.3383 10.4033 14.2725 10.6592 13.8993C10.9409 13.4886 10.9128 12.9874 10.5873 12.6154C10.3127 12.3017 10.1197 12.2466 9.30718 12.2504C8.9153 12.2522 8.5302 12.273 8.45142 12.2968ZM9.99423 13.1129C10.1181 13.2371 10.1237 13.3549 10.0118 13.479C9.93891 13.5598 9.84343 13.5724 9.3029 13.5724C8.80293 13.5724 8.66232 13.5564 8.59829 13.4922C8.49457 13.3881 8.4964 13.2218 8.60257 13.1041C8.67514 13.0237 8.77026 13.0108 9.28962 13.0108C9.8246 13.0108 9.90389 13.0222 9.99423 13.1129ZM20.524 14.8832C20.8387 15.1209 20.9941 15.2063 21.1121 15.2063C21.2392 15.2063 21.4864 15.0472 22.3019 14.4404C22.868 14.0192 23.3419 13.6745 23.3551 13.6745C23.3682 13.6745 23.379 13.8186 23.379 13.9947V14.3149L22.265 15.1511C21.6522 15.611 21.1312 15.9849 21.1072 15.982C21.0831 15.9791 20.5776 15.6138 19.9839 15.1703L18.9044 14.3638L18.9024 14.0184L18.9005 13.673L19.4984 14.1165C19.8273 14.3604 20.2889 14.7054 20.524 14.8832ZM23.379 17.2742V19.24H21.1397H18.9005V17.2998C18.9005 16.2326 18.9114 15.3595 18.9248 15.3595C18.9382 15.3595 19.3974 15.6935 19.9453 16.1017C20.4933 16.5099 21.0052 16.8566 21.083 16.8722C21.2052 16.8968 21.3689 16.7923 22.2859 16.1045C22.8698 15.6667 23.3546 15.3084 23.3632 15.3084C23.3719 15.3084 23.379 16.1931 23.379 17.2742Z" fill="#161921"/>
</svg>
