<svg width="18" height="26" viewBox="0 0 18 26" fill="none" xmlns="http://www.w3.org/2000/svg">
<path fill-rule="evenodd" clip-rule="evenodd" d="M2.67681 0.0629703C2.40022 0.141616 1.92849 0.582277 1.84367 0.841244C1.79983 0.975049 1.77537 1.41485 1.77571 2.06135C1.77622 3.02579 1.78259 3.08446 1.91378 3.3387C2.04739 3.59761 2.04824 3.60661 1.94353 3.65719C1.45337 3.89379 0.706567 5.8637 0.315077 7.95262C-0.00433603 9.6568 3.03569e-06 9.52569 3.03569e-06 17.4847V24.8307L0.151877 25.0904C0.376785 25.475 0.546635 25.6334 0.941055 25.8263L1.29614 26H8.98844H16.6807L17.0358 25.8263C17.4302 25.6334 17.6001 25.475 17.825 25.0904L17.9769 24.8307L17.9924 17.7897C18.0094 10.0227 18.0304 10.5136 17.6607 10.0288C17.4527 9.75609 17.1449 9.56616 16.568 9.35457C14.8422 8.72169 13.3351 7.89284 12.4542 7.0922C11.6166 6.3309 11.3382 5.83762 11.2451 4.95015C11.1874 4.39978 11.0287 4.03573 10.7254 3.7578L10.5304 3.57916L10.6603 3.32568C10.7822 3.08807 10.7903 3.00901 10.791 2.06135C10.7915 1.42552 10.7669 0.975659 10.7248 0.848768C10.6879 0.737841 10.5481 0.537083 10.4141 0.402617C9.99571 -0.0172008 10.1304 -0.00423712 6.25933 0.00171089C3.96359 0.00521869 2.81059 0.0249437 2.67681 0.0629703ZM4.48013 2.03003V3.25014H3.71682C2.98146 3.25014 2.94838 3.24556 2.81516 3.12533C2.67794 3.00159 2.67681 2.9927 2.67681 2.03003C2.67681 1.06737 2.67794 1.05847 2.81516 0.934735C2.94838 0.814504 2.98146 0.809928 3.71682 0.809928H4.48013V2.03003ZM7.18511 2.03003V3.25014H6.28345H5.38179V2.03003V0.809928H6.28345H7.18511V2.03003ZM9.75175 0.934735C9.88897 1.05847 9.8901 1.06737 9.8901 2.03003C9.8901 2.9927 9.88897 3.00159 9.75175 3.12533C9.61853 3.24556 9.58545 3.25014 8.85009 3.25014H8.08678V2.03003V0.809928H8.85009C9.58545 0.809928 9.61853 0.814504 9.75175 0.934735ZM9.92481 4.19379C10.225 4.39602 10.2963 4.53587 10.3457 5.01909C10.3714 5.26997 10.4217 5.58659 10.4576 5.72263C10.5547 6.09085 10.9145 6.73974 11.229 7.1138C12.0922 8.14052 13.8697 9.22046 16.0327 10.0322C17.0517 10.4147 17.1034 10.486 17.1034 11.5096V12.1976H16.7909C16.4149 12.1976 16.2017 12.3447 16.2017 12.6043C16.2017 12.8638 16.4149 13.011 16.7909 13.011H17.1034V13.8244V14.6378H16.7909C16.4149 14.6378 16.2017 14.7849 16.2017 15.0445C16.2017 15.3041 16.4149 15.4512 16.7909 15.4512H17.1034V16.2646V17.078H16.7909C16.4149 17.078 16.2017 17.2251 16.2017 17.4847C16.2017 17.7443 16.4149 17.8914 16.7909 17.8914H17.1034V18.7048V19.5182H16.7909C16.4149 19.5182 16.2017 19.6653 16.2017 19.9249C16.2017 20.1845 16.4149 20.3316 16.7909 20.3316H17.1034V21.145V21.9584H16.7909C16.5342 21.9584 16.4536 21.9807 16.3401 22.0832C16.157 22.2483 16.157 22.4819 16.3401 22.647C16.454 22.7498 16.534 22.7718 16.7943 22.7718H17.1102L17.0927 23.7342C17.0736 24.7871 17.0606 24.8303 16.6872 25.0818C16.5318 25.1864 16.5191 25.1866 8.98844 25.1866C1.45782 25.1866 1.44503 25.1864 1.28966 25.0818C0.916316 24.8303 0.903298 24.7871 0.884138 23.7342L0.866668 22.7718H1.18259C1.44289 22.7718 1.52285 22.7498 1.6368 22.647C1.81984 22.4819 1.81984 22.2483 1.6368 22.0832C1.52325 21.9807 1.44266 21.9584 1.18597 21.9584H0.873487V21.145V20.3316H1.18597C1.56202 20.3316 1.77515 20.1845 1.77515 19.9249C1.77515 19.6653 1.56202 19.5182 1.18597 19.5182H0.873487V18.7048V17.8914H1.18597C1.56202 17.8914 1.77515 17.7443 1.77515 17.4847C1.77515 17.2251 1.56202 17.078 1.18597 17.078H0.873487V16.2646V15.4512H1.18597C1.56202 15.4512 1.77515 15.3041 1.77515 15.0445C1.77515 14.7849 1.56202 14.6378 1.18597 14.6378H0.873487V13.8244V13.011H1.18597C1.44266 13.011 1.52325 12.9887 1.6368 12.8862C1.81984 12.7211 1.81984 12.4874 1.6368 12.3224C1.52229 12.219 1.44322 12.1976 1.17712 12.1976H0.855736L0.891351 11.1681C0.976277 8.70894 1.38236 6.64569 2.11321 4.9593C2.34043 4.43516 2.51378 4.22002 2.78952 4.11992C2.87968 4.08718 4.16134 4.07244 6.34978 4.07889C9.70661 4.08876 9.77204 4.09089 9.92481 4.19379ZM4.65088 6.18723C4.43629 6.34402 3.97047 8.02649 3.73277 9.50317C3.61809 10.2155 3.61341 10.454 3.59363 16.5823L3.57317 22.9242L3.71417 23.0514L3.85511 23.1785H9.21385H14.5726L14.7109 23.0537L14.8492 22.9289V17.5091C14.8492 13.95 14.8297 12.0562 14.7922 11.993C14.7608 11.9402 14.4076 11.7486 14.0072 11.5674C12.5108 10.89 11.4837 10.2424 10.5346 9.37801C9.62608 8.55047 9.03887 7.72385 8.65533 6.73252C8.55795 6.48087 8.42546 6.23497 8.36082 6.18601C8.25454 6.10549 8.07843 6.09705 6.50887 6.09705C4.93186 6.09705 4.7632 6.10523 4.65088 6.18723ZM7.97057 7.40464C8.84248 9.31167 10.7578 11.0087 13.3764 12.1941L13.9476 12.4527V17.4089V22.3651H9.21109H4.47461L4.49602 16.3281C4.51496 10.9831 4.52837 10.2213 4.61335 9.6811C4.75734 8.76613 5.05387 7.49025 5.24282 6.97303C5.26114 6.92291 5.54454 6.91157 6.51129 6.92219L7.75626 6.93587L7.97057 7.40464ZM8.80698 13.4524C8.62045 13.4966 7.68672 14.7313 7.2759 15.4771C6.86593 16.2213 6.76928 16.5251 6.76562 17.0806C6.76263 17.5417 6.77311 17.5857 6.97294 17.9504C7.22642 18.4131 7.55271 18.7013 8.07663 18.9252C8.41707 19.0707 8.5043 19.0861 8.98844 19.0861C9.47257 19.0861 9.55981 19.0707 9.90024 18.9252C10.4242 18.7013 10.7505 18.4131 11.0039 17.9504C11.2038 17.5857 11.2142 17.5417 11.2113 17.0806C11.2076 16.5251 11.1109 16.2213 10.701 15.4771C10.4158 14.9594 10.1359 14.5544 9.62445 13.9193C9.24378 13.4468 9.12278 13.3776 8.80698 13.4524ZM9.31298 14.9301C9.94842 15.8273 10.3409 16.639 10.3409 17.0556C10.3409 17.7081 9.69872 18.2981 8.98844 18.2981C8.63397 18.2981 8.34854 18.1818 8.05668 17.9185C7.60529 17.5113 7.5344 17.1415 7.78038 16.4769C7.98027 15.9369 8.85217 14.5361 8.98844 14.5361C9.01346 14.5361 9.15953 14.7134 9.31298 14.9301Z" fill="#161921"/>
</svg>
