<svg width="26" height="26" viewBox="0 0 26 26" fill="none" xmlns="http://www.w3.org/2000/svg">
<path fill-rule="evenodd" clip-rule="evenodd" d="M11.9123 0.0618809C8.89903 0.569169 6.57178 2.88861 5.96712 5.98699C5.8414 6.63121 5.84239 8.06189 5.96901 8.72037C6.47178 11.3349 8.23994 13.4433 10.6535 14.3061C11.5111 14.6127 12.0026 14.6944 12.9859 14.6937C13.9235 14.6931 14.4143 14.6197 15.1644 14.3681C16.9659 13.7636 18.5186 12.392 19.3642 10.658C20.1997 8.94458 20.3449 6.88772 19.7587 5.06874C19.647 4.72223 19.4731 4.26948 19.3722 4.06256C18.3953 2.05943 16.573 0.610694 14.4295 0.133274C13.7899 -0.00918718 12.5443 -0.0445315 11.9123 0.0618809ZM14.2458 0.978611C15.0663 1.16092 15.8875 1.51973 16.5735 1.99557C17.0605 2.33335 17.9151 3.24249 18.2582 3.78778C19.6376 5.97972 19.6376 8.72444 18.2582 10.9164C17.9157 11.4607 17.0607 12.3706 16.5758 12.707C15.4618 13.4796 14.3585 13.8266 13.0122 13.8277C11.9198 13.8286 11.2388 13.6733 10.2563 13.1993L9.81014 12.984L10.965 11.805C11.9942 10.7542 12.1661 10.6014 12.5452 10.3998C13.0904 10.11 13.4396 10.0174 14.2254 9.95449C15.1878 9.87736 15.7503 9.63542 16.3094 9.05804C16.6359 8.72086 16.8672 8.33939 17.0371 7.85818C17.1322 7.58886 17.1523 7.38704 17.1726 6.50154L17.1964 5.46121L17.062 5.32249C16.9734 5.23099 16.87 5.18372 16.7584 5.18372C16.6101 5.18372 16.4868 5.28861 15.7671 6.02661L14.9451 6.86951L14.3487 6.71507L13.7523 6.56068L13.6028 5.94476L13.4532 5.32883L14.2694 4.47997C14.9841 3.73677 15.0856 3.60938 15.0856 3.45629C15.0856 3.34294 15.0403 3.23468 14.9568 3.14844C14.8308 3.01834 14.8094 3.01535 13.9953 3.01535C12.9798 3.01535 12.6627 3.07032 12.117 3.34077C11.1191 3.83527 10.4663 4.9227 10.4663 6.09042C10.4663 6.59147 10.3202 7.18609 10.0632 7.73154C9.82852 8.2294 9.78237 8.28621 8.67641 9.43913L7.53239 10.6317L7.3242 10.171C6.8691 9.16353 6.71451 8.44087 6.7154 7.32498C6.71629 6.14658 6.89293 5.39074 7.41108 4.34808C8.30177 2.55593 10.0394 1.25426 11.9773 0.927491C12.5484 0.831162 13.6992 0.857128 14.2458 0.978611ZM13.1009 4.44403C12.7191 4.84475 12.5664 5.0425 12.5673 5.1352C12.5696 5.36721 13.0278 7.14749 13.1059 7.22816C13.184 7.30888 14.9079 7.78201 15.1326 7.7844C15.2222 7.78537 15.4167 7.62594 15.8088 7.23011L16.3592 6.67447L16.3281 7.0799C16.2676 7.86988 15.8159 8.53769 15.1122 8.87774C14.8333 9.01256 14.676 9.04698 14.152 9.08807C13.2804 9.15637 12.8222 9.27666 12.1974 9.60127C11.6976 9.86088 11.4139 10.108 10.2445 11.3022L9.10396 12.4669L8.98465 12.3644C8.72481 12.1412 8.34996 11.7595 8.19736 11.5627L8.03653 11.3554L9.13703 10.2075C10.3365 8.9564 10.4662 8.80044 10.7484 8.27006C11.1018 7.60572 11.2352 7.09719 11.3049 6.14788C11.3447 5.60671 11.378 5.44435 11.5086 5.15629C11.8584 4.3843 12.5641 3.9052 13.3765 3.88812L13.6358 3.8827L13.1009 4.44403ZM8.07789 15.6269C6.30407 15.875 5.29852 16.4387 3.64228 18.1136C2.71762 19.0486 2.58414 19.1635 2.26141 19.3021C1.43933 19.655 0.761808 20.2984 0.392366 21.0768C0.0701673 21.7556 -0.00295462 22.1074 8.99385e-05 22.9643C0.00329198 23.862 0.19447 24.8997 0.429583 25.2953C0.589003 25.5636 0.970676 25.8579 1.27083 25.944C1.37697 25.9745 1.91963 25.9995 2.47668 25.9997C3.48228 26 3.49052 25.999 3.61839 25.8669C3.78306 25.6969 3.78354 25.484 3.61986 25.2352C3.04948 24.3684 3.37268 23.1585 4.29843 22.6947C4.66252 22.5124 5.34057 22.5066 5.69111 22.6828C6.05966 22.8682 6.28543 23.0895 6.46921 23.4455C6.77198 24.0322 6.74385 24.704 6.3943 25.2352C6.23063 25.484 6.2311 25.6969 6.39577 25.8669L6.52459 26H12.776H19.0273L19.1562 25.8669C19.3208 25.6969 19.3213 25.484 19.1576 25.2352C18.5872 24.3684 18.9104 23.1585 19.8362 22.6947C20.2003 22.5124 20.8783 22.5066 21.2289 22.6828C21.5974 22.8682 21.8232 23.0895 22.007 23.4455C22.3098 24.0322 22.2816 24.704 21.9321 25.2352C21.7684 25.484 21.7689 25.6969 21.9335 25.8669C22.0617 25.9993 22.0678 26 23.1015 25.9993C24.2257 25.9986 24.5195 25.9519 24.9186 25.7104C25.7035 25.2354 26.1481 24.0888 25.9551 23.0376C25.7433 21.8844 24.7603 20.6486 23.553 20.0181C23.0522 19.7565 22.523 19.6132 21.2273 19.3884C19.792 19.1395 19.2991 19.017 18.9066 18.8116C18.7596 18.7346 17.8067 18.1251 16.789 17.457C14.8204 16.1646 14.4127 15.935 13.7471 15.7443C13.3424 15.6284 13.2346 15.6237 10.7813 15.6145C9.38102 15.6092 8.1645 15.6148 8.07789 15.6269ZM13.7509 16.6583C14.3184 16.8631 14.3067 16.8561 16.5608 18.3345C17.5376 18.9752 18.4674 19.5589 18.6269 19.6318C19.1677 19.8788 19.5709 19.9814 20.9648 20.2269C22.2374 20.451 22.8563 20.6028 23.0645 20.7417C23.1279 20.7841 23.1198 20.7944 23.0228 20.7951C22.9565 20.7955 22.841 20.8591 22.7662 20.9364C22.6392 21.0676 22.6324 21.1003 22.6624 21.4325C22.7296 22.1757 23.1667 22.823 23.8299 23.1614C24.1597 23.3298 24.2791 23.3609 24.6886 23.385L25.1642 23.413V23.6223V23.8316H24.5343H23.9044V24.2653V24.699L24.3374 24.7006L24.7705 24.7022L24.6027 24.8599C24.375 25.0738 24.135 25.132 23.479 25.1323L22.9224 25.1327L22.9934 24.8498C23.4254 23.1299 21.8742 21.4073 20.1643 21.7082C18.7137 21.9635 17.742 23.4395 18.0963 24.8498L18.1673 25.1327H12.776H7.38462L7.45565 24.8498C7.88766 23.1299 6.3364 21.4073 4.62651 21.7082C3.17594 21.9635 2.20425 23.4395 2.55852 24.8498L2.62954 25.1327L2.07296 25.1318C1.47712 25.131 1.32726 25.0863 1.16778 24.8616C1.06516 24.717 0.88653 23.9053 0.828421 23.3194L0.793199 22.9643H1.09618C1.55917 22.9643 1.7968 22.8681 2.09554 22.5596C2.42508 22.2192 2.48744 22.0125 2.48744 21.2604C2.48744 20.6351 2.4529 20.5123 2.24545 20.4C2.11291 20.3283 2.11674 20.3247 2.53348 20.128C2.76576 20.0183 2.98397 19.9286 3.01841 19.9286C3.05279 19.9286 3.56748 19.4326 4.16211 18.8265C4.7568 18.2203 5.39395 17.6197 5.57804 17.4917C6.26134 17.0166 7.18699 16.6408 7.97737 16.5175C8.14813 16.4909 9.40989 16.473 10.7813 16.4777L13.2746 16.4863L13.7509 16.6583ZM5.96853 17.4671C5.83993 17.5999 5.83415 17.6292 5.86418 17.9956C5.94056 18.9273 6.35199 19.6616 7.14458 20.2805L7.56053 20.6053L7.76309 21.8784C7.93663 22.9693 7.98272 23.1691 8.08498 23.2747L8.20435 23.398H11.7261H15.2479L15.3767 23.2649C15.4595 23.1794 15.5056 23.0702 15.5056 22.9595C15.5056 22.295 16.1173 21.6633 16.7607 21.6633C16.868 21.6633 16.9737 21.6157 17.0565 21.5302C17.1818 21.4008 17.1853 21.3748 17.1853 20.5875C17.1853 19.8942 17.1722 19.7623 17.0935 19.6689C17.043 19.6089 16.2188 19.0573 15.2621 18.4432L13.5226 17.3265H9.81361H6.10465L5.96853 17.4671ZM10.8862 20.3623V22.5306H9.81114C8.73919 22.5306 8.73599 22.5302 8.70917 22.4086C8.69442 22.3415 8.61043 21.8354 8.52255 21.2838C8.43474 20.7322 8.35075 20.2399 8.33605 20.1897C8.3213 20.1395 8.09878 19.9366 7.84157 19.7387C7.58436 19.541 7.29896 19.291 7.20741 19.1833C7.04264 18.9895 6.73944 18.3925 6.73939 18.2617C6.73933 18.2086 7.18898 18.1939 8.81279 18.1939H10.8862V20.3623ZM14.8187 19.1832L16.3452 20.1725L16.3453 20.5113C16.3454 20.7616 16.3267 20.8501 16.2737 20.8501C16.1023 20.8501 15.4506 21.2474 15.2459 21.4767C15.0412 21.7061 14.7183 22.3094 14.7182 22.4629C14.7182 22.5155 14.384 22.5306 13.2222 22.5306H11.7261V20.3623V18.1939H12.5091H13.2921L14.8187 19.1832ZM1.64757 21.5302C1.64757 21.9318 1.50185 22.0969 1.14773 22.0969C0.869785 22.0969 0.870047 22.1013 1.10899 21.5413C1.23781 21.2393 1.24831 21.2296 1.44479 21.2296H1.64757V21.5302ZM24.1119 21.8496C24.5218 21.9253 24.5903 21.9757 24.8142 22.3672L24.9077 22.5306H24.7402C24.3506 22.5306 23.9462 22.2995 23.6929 21.9321C23.5653 21.7471 23.561 21.7479 24.1119 21.8496Z" fill="#161921"/>
</svg>
