<svg width="40" height="40" viewBox="0 0 40 40" fill="none" xmlns="http://www.w3.org/2000/svg">
<path fill-rule="evenodd" clip-rule="evenodd" d="M8.71726 4.91014C4.04367 7.60895 0.170334 9.88468 0.109932 9.96728C0.0224351 10.0869 0 12.1328 0 20.0066C0 29.3011 0.00906034 29.9062 0.151006 30.0695C0.385625 30.3397 17.2115 40.0027 17.4427 40C17.5545 39.9987 19.0813 39.1682 20.8352 38.1543L24.0245 36.311L24.7412 37.0718C25.6373 38.0229 26.4144 38.6023 27.4514 39.0926C30.8506 40.6993 34.7812 40.0247 37.4131 37.3828C38.2198 36.5729 38.7182 35.8677 39.1799 34.8826C40.9199 31.1707 39.8175 26.6674 36.5706 24.2228C36.1874 23.9343 35.6461 23.5833 35.3673 23.4428L34.8607 23.1872V16.6454C34.8607 10.5397 34.8506 10.092 34.7097 9.92771C34.474 9.65293 17.6582 -0.00344781 17.4216 9.23555e-07C17.3078 0.00172529 13.3908 2.21124 8.71726 4.91014ZM25.0957 5.89915C29.28 8.31551 32.7035 10.3151 32.7035 10.3427C32.7035 10.3975 25.3113 14.6807 25.1423 14.7237C25.018 14.7553 10.8512 5.33502 10.9199 5.26639C11.0143 5.17207 17.3884 1.48296 17.4375 1.49425C17.4652 1.50063 20.9114 3.48279 25.0957 5.89915ZM16.5895 10.7846C20.4453 13.3509 23.6294 15.4773 23.6653 15.5098C23.7011 15.5423 22.3134 16.3874 20.5814 17.3877L17.4323 19.2063L14.9475 17.7708C13.5808 16.9813 10.144 14.9973 7.30997 13.362C4.47598 11.7267 2.15722 10.3683 2.15722 10.3434C2.15722 10.2759 9.34475 6.12798 9.47065 6.12289C9.53019 6.12047 12.7337 8.21825 16.5895 10.7846ZM9.56021 16.2492L16.7365 20.3876L16.7382 29.2517C16.7393 34.1269 16.7109 38.0996 16.6753 38.0799C16.6398 38.0602 15.9699 37.6737 15.1869 37.2212C10.9023 34.7446 9.4055 33.8814 5.58212 31.6823L1.38511 29.2681L1.38287 20.4042L1.38062 11.5403L1.88222 11.8255C2.15809 11.9823 5.61318 13.973 9.56021 16.2492ZM33.4443 22.6508C33.4239 22.6711 33.0478 22.6262 32.6087 22.5509C30.1675 22.1318 27.6626 22.8006 25.6863 24.3991C24.2884 25.5299 23.199 27.2246 22.7227 29.0095C22.5228 29.7587 22.4924 30.041 22.4907 31.1649C22.4885 32.5929 22.5874 33.1591 23.0521 34.378C23.2015 34.7701 23.3083 35.1056 23.2894 35.1236C23.2638 35.1478 20.2839 36.8731 18.1854 38.0785C18.1498 38.099 18.1221 34.1269 18.1238 29.2517L18.1269 20.3876L21.2086 18.6043L24.2903 16.821L24.3335 19.6682L24.3766 22.5154L24.5804 22.6801C24.864 22.9095 25.2452 22.8901 25.5023 22.6332L25.7141 22.4216L25.7157 19.206L25.7173 15.9905L29.5771 13.7699L33.437 11.5493L33.4591 17.0815C33.4714 20.1242 33.4647 22.6304 33.4443 22.6508ZM32.3584 23.883C35.241 24.3374 37.4953 26.3315 38.3694 29.2002C38.5743 29.8724 38.6003 30.0989 38.6003 31.208C38.6003 32.3224 38.5748 32.542 38.3654 33.23C37.9082 34.7315 37.0858 35.981 35.9244 36.9381C35.2025 37.5331 34.2543 38.0288 33.2602 38.331C32.5717 38.5402 32.3519 38.5658 31.2366 38.5658C30.1263 38.5658 29.9 38.5397 29.2263 38.3349C24.6327 36.9375 22.4965 31.9604 24.6856 27.7559C26.1194 25.0022 29.2939 23.3998 32.3584 23.883ZM34.7602 27.3498C34.6868 27.4091 33.721 28.6603 32.6141 30.1303C31.5073 31.6003 30.5165 32.9068 30.4125 33.0336L30.2234 33.2641L29.0813 31.9128C27.8606 30.4685 27.5949 30.262 27.2007 30.4513C26.9027 30.5945 26.7077 30.9461 26.7779 31.214C26.8509 31.4927 29.6607 34.8313 29.9638 34.9994C30.1766 35.1174 30.2256 35.1174 30.4384 34.9993C30.5689 34.9269 31.7241 33.4879 33.0055 31.8017C34.2869 30.1153 35.4422 28.61 35.5726 28.4564C36.0225 27.9269 35.8007 27.242 35.1792 27.242C35.0222 27.242 34.8336 27.2905 34.7602 27.3498Z" fill="#E30D16"/>
</svg>
