<svg width="36" height="40" viewBox="0 0 36 40" fill="none" xmlns="http://www.w3.org/2000/svg">
<path fill-rule="evenodd" clip-rule="evenodd" d="M16.7874 0.0489325C14.5483 0.397642 12.5584 1.58883 11.1722 3.41022C10.6717 4.0679 9.99011 5.46962 9.78349 6.26593C9.52114 7.27701 9.4262 8.3898 9.53929 9.12837C9.89353 11.4414 11.8792 14.8644 15.095 18.7059C16.0486 19.845 17.4618 21.4045 17.6143 21.4861C17.7957 21.5831 18.2054 21.5831 18.3868 21.4861C18.6759 21.3314 21.0411 18.5965 22.3136 16.9455C24.1379 14.5786 25.6301 12.0304 26.1709 10.3584C26.7521 8.56185 26.5737 6.70313 25.6355 4.7794C24.2165 1.8697 21.489 0.100961 18.2745 0.00590127C17.7149 -0.0106071 17.0457 0.00871786 16.7874 0.0489325ZM19.7573 1.76283C21.9692 2.34015 23.8472 4.09356 24.5601 6.24684C24.8484 7.11748 25.003 8.19272 24.9313 8.82676C24.7387 10.5279 23.2805 13.1671 20.7478 16.3978C19.7803 17.6321 18.0949 19.6056 18.0085 19.6056C17.9328 19.6056 17.1535 18.7333 16.1912 17.5714C13.6773 14.5361 11.9972 11.9048 11.3305 9.95903C11.1169 9.3357 11.0833 9.12868 11.0801 8.4175C11.0648 5.11207 13.4394 2.29329 16.7874 1.64242C17.5389 1.49627 18.9566 1.55377 19.7573 1.76283ZM17.4304 5.1346C16.4055 5.30681 15.4429 6.03309 14.969 6.99152C14.7133 7.50883 14.6771 7.65662 14.649 8.29779C14.6104 9.18071 14.7372 9.67464 15.1775 10.3555C16.4394 12.3074 19.4442 12.3564 20.7587 10.4467C21.2351 9.75467 21.3872 9.21404 21.3519 8.33926C21.3264 7.70576 21.2855 7.5183 21.0752 7.06999C20.598 6.05312 19.6149 5.31001 18.5093 5.13038C17.9868 5.04557 17.9594 5.04564 17.4304 5.1346ZM18.8401 6.86548C19.4599 7.15762 19.8018 7.73095 19.7989 8.47367C19.795 9.51049 19.0203 10.2952 18.0005 10.2952C16.9695 10.2952 16.206 9.51151 16.2021 8.44934C16.1972 7.08673 17.5658 6.26499 18.8401 6.86548ZM9.81957 15.1743C9.73465 15.2329 8.73182 15.8157 7.59108 16.4693L5.51702 17.6577L3.45368 19.6292C2.31881 20.7136 1.07696 21.9 0.69392 22.2657C0.0418809 22.8884 -0.0023397 22.9507 8.65593e-05 23.2437C0.00157362 23.4182 0.0625433 23.6328 0.137914 23.7286C0.212345 23.8232 1.36498 24.5297 2.69942 25.2986L5.12569 26.6966L5.16482 29.6253C5.1908 31.5719 5.23322 32.6036 5.29122 32.7016C5.33927 32.7827 8.17448 34.4654 11.5917 36.4408C17.1543 39.6565 17.8335 40.029 18.0788 39.9984C18.4559 39.9514 30.5637 32.9582 30.7441 32.6833C30.8592 32.5078 30.8802 32.1214 30.9145 29.5531L30.9537 26.6231L33.3017 25.2665C34.593 24.5204 35.7289 23.8197 35.8257 23.7094C36.0112 23.4982 36.0554 23.1379 35.9256 22.8955C35.8837 22.8172 34.6598 21.6119 33.2059 20.2171L30.5623 17.681L28.2855 16.3744C25.7451 14.9166 25.619 14.8727 25.195 15.2965C24.9199 15.5715 24.8889 15.9654 25.1191 16.2581C25.2033 16.365 25.9971 16.8682 26.8833 17.3764C27.7695 17.8848 28.4667 18.3281 28.4327 18.3616C28.3987 18.3953 26.1344 19.7132 23.4009 21.2905C20.6675 22.8677 18.3401 24.2118 18.2292 24.2772C18.0314 24.3938 17.9359 24.3434 13.494 21.7806C11.0007 20.342 8.63226 18.9766 8.23083 18.7463C7.60814 18.389 7.52197 18.3159 7.64383 18.2479C9.21511 17.3729 10.6508 16.4995 10.8196 16.3162C11.1186 15.9914 11.1135 15.6038 10.806 15.2965C10.5496 15.0401 10.0955 14.9838 9.81957 15.1743ZM11.4653 22.4169C14.3064 24.0567 16.6401 25.4252 16.6513 25.4582C16.6854 25.5578 12.8194 29.1903 12.6855 29.1845C12.617 29.1816 11.1698 28.376 9.46948 27.3943C7.76914 26.4125 5.41864 25.0594 4.2462 24.3874C3.07377 23.7153 2.11399 23.1432 2.11344 23.1159C2.11289 23.0886 3.00036 22.22 4.0856 21.1856C5.58464 19.7568 6.08766 19.3205 6.17923 19.3701C6.24545 19.4061 8.6242 20.7772 11.4653 22.4169ZM31.9201 21.1488C32.9813 22.1697 33.8495 23.0351 33.8495 23.0721C33.8495 23.1091 31.4759 24.5093 28.5749 26.1839L23.3003 29.2284L22.8223 28.8014C22.5594 28.5665 21.6651 27.7129 20.835 26.9044L19.3258 25.4344L24.631 22.3715C27.5488 20.687 29.9485 19.305 29.9634 19.3007C29.9785 19.2963 30.859 20.1279 31.9201 21.1488ZM20.4151 28.6727C22.0014 30.1885 22.8505 30.9465 22.9928 30.9736C23.1096 30.996 23.3137 30.9689 23.4463 30.9135C23.5789 30.8581 24.9461 30.0868 26.4844 29.1994C28.0228 28.312 29.2972 27.586 29.3166 27.586C29.3359 27.586 29.3423 28.5393 29.3309 29.7045L29.3101 31.8231L23.7531 35.0348C20.6968 36.8013 18.1434 38.2602 18.0788 38.2768C18.0142 38.2934 15.4432 36.8529 12.3653 35.0756L6.76928 31.8442L6.74847 29.7542C6.73696 28.6047 6.74447 27.6642 6.76506 27.6642C6.78572 27.6642 8.11406 28.4212 9.71696 29.3463C11.4369 30.339 12.7132 31.0283 12.831 31.0282C12.9408 31.028 13.1363 30.9603 13.2654 30.8777C13.3945 30.7952 14.504 29.7585 15.7308 28.5741C16.9576 27.3897 17.9813 26.4187 18.0056 26.4165C18.0299 26.4143 19.1142 27.4296 20.4151 28.6727Z" fill="#E30D16"/>
</svg>
