<svg width="24" height="24" viewBox="0 0 24 24" fill="none" xmlns="http://www.w3.org/2000/svg">
<path d="M15.2803 6.02983C15.1397 6.17028 14.9491 6.24917 14.7503 6.24917C14.5516 6.24917 14.3609 6.17028 14.2203 6.02983L12.7503 4.55983V8.24983C12.7503 8.44874 12.6713 8.63951 12.5306 8.78016C12.39 8.92081 12.1992 8.99983 12.0003 8.99983C11.8014 8.99983 11.6106 8.92081 11.47 8.78016C11.3293 8.63951 11.2503 8.44874 11.2503 8.24983V4.55983L9.78032 6.02983C9.63814 6.16231 9.4501 6.23443 9.25579 6.231C9.06149 6.22758 8.87611 6.14886 8.7387 6.01145C8.60128 5.87404 8.52257 5.68865 8.51914 5.49435C8.51571 5.30005 8.58784 5.112 8.72032 4.96983L11.4703 2.21983C11.6109 2.07938 11.8016 2.00049 12.0003 2.00049C12.1991 2.00049 12.3897 2.07938 12.5303 2.21983L15.2803 4.96983C15.4208 5.11045 15.4997 5.30108 15.4997 5.49983C15.4997 5.69858 15.4208 5.8892 15.2803 6.02983ZM6.03032 14.2198C6.104 14.2885 6.16311 14.3713 6.2041 14.4633C6.24509 14.5553 6.26713 14.6546 6.26891 14.7553C6.27068 14.856 6.25216 14.956 6.21444 15.0494C6.17672 15.1428 6.12057 15.2276 6.04936 15.2989C5.97814 15.3701 5.8933 15.4262 5.79991 15.464C5.70653 15.5017 5.6065 15.5202 5.50579 15.5184C5.40509 15.5166 5.30578 15.4946 5.21378 15.4536C5.12178 15.4126 5.03898 15.3535 4.97032 15.2798L2.22032 12.5298C2.07987 12.3892 2.00098 12.1986 2.00098 11.9998C2.00098 11.8011 2.07987 11.6105 2.22032 11.4698L4.97032 8.71983C5.11249 8.58735 5.30054 8.51522 5.49484 8.51865C5.68914 8.52208 5.87453 8.60079 6.01194 8.73821C6.14935 8.87562 6.22806 9.06101 6.23149 9.25531C6.23492 9.44961 6.1628 9.63765 6.03032 9.77983L4.56032 11.2498H8.25032C8.44923 11.2498 8.63999 11.3288 8.78065 11.4695C8.9213 11.6102 9.00032 11.8009 9.00032 11.9998C9.00032 12.1987 8.9213 12.3895 8.78065 12.5302C8.63999 12.6708 8.44923 12.7498 8.25032 12.7498H4.56032L6.03032 14.2198ZM17.9703 15.2798C17.8299 15.1392 17.751 14.9486 17.751 14.7498C17.751 14.5511 17.8299 14.3605 17.9703 14.2198L19.4403 12.7498H15.7503C15.5514 12.7498 15.3606 12.6708 15.22 12.5302C15.0793 12.3895 15.0003 12.1987 15.0003 11.9998C15.0003 11.8009 15.0793 11.6102 15.22 11.4695C15.3606 11.3288 15.5514 11.2498 15.7503 11.2498H19.4403L17.9703 9.77983C17.8378 9.63765 17.7657 9.44961 17.7691 9.25531C17.7726 9.06101 17.8513 8.87562 17.9887 8.73821C18.1261 8.60079 18.3115 8.52208 18.5058 8.51865C18.7001 8.51522 18.8881 8.58735 19.0303 8.71983L21.7803 11.4698C21.9208 11.6105 21.9997 11.8011 21.9997 11.9998C21.9997 12.1986 21.9208 12.3892 21.7803 12.5298L19.0303 15.2798C18.8897 15.4203 18.6991 15.4992 18.5003 15.4992C18.3016 15.4992 18.1109 15.4203 17.9703 15.2798ZM15.2803 17.9698C15.1397 17.8294 14.9491 17.7505 14.7503 17.7505C14.5516 17.7505 14.3609 17.8294 14.2203 17.9698L12.7503 19.4398V15.7498C12.7503 15.5509 12.6713 15.3602 12.5306 15.2195C12.39 15.0788 12.1992 14.9998 12.0003 14.9998C11.8014 14.9998 11.6106 15.0788 11.47 15.2195C11.3293 15.3602 11.2503 15.5509 11.2503 15.7498V19.4398L9.78032 17.9698C9.63814 17.8373 9.4501 17.7652 9.25579 17.7687C9.06149 17.7721 8.87611 17.8508 8.7387 17.9882C8.60128 18.1256 8.52257 18.311 8.51914 18.5053C8.51571 18.6996 8.58784 18.8877 8.72032 19.0298L11.4703 21.7798C11.6109 21.9203 11.8016 21.9992 12.0003 21.9992C12.1991 21.9992 12.3897 21.9203 12.5303 21.7798L15.2803 19.0298C15.4208 18.8892 15.4997 18.6986 15.4997 18.4998C15.4997 18.3011 15.4208 18.1105 15.2803 17.9698Z" fill="white"/>
</svg>
