<svg width="20" height="18" viewBox="0 0 20 18" fill="none" xmlns="http://www.w3.org/2000/svg">
<path fill-rule="evenodd" clip-rule="evenodd" d="M9.29072 1.65387C8.65391 2.5635 8.02905 3.41317 7.90206 3.54202C7.4235 4.02777 6.93625 4.29262 6.16018 4.48882C4.88703 4.81067 4.19024 5.28519 3.27479 6.45389L2.92388 6.90185H1.46196H0V11.1843V15.4668H1.44094H2.88187L3.10369 15.7357C3.57695 16.3093 4.36665 16.9301 5.08892 17.2963C5.87948 17.6972 6.60323 17.8953 7.52157 17.962C8.22832 18.0134 10.9504 18.0124 11.3312 17.9606C12.055 17.8622 12.6529 17.3078 12.8342 16.5671C12.93 16.1757 12.9167 15.9678 12.7569 15.3628C12.7397 15.2978 12.7734 15.254 12.9118 15.1618C13.4281 14.8177 13.7652 14.0644 13.6961 13.4087C13.6817 13.2715 13.6255 13.0412 13.5714 12.8968L13.4729 12.6344L13.6928 12.3891C13.8219 12.2451 13.9646 12.0271 14.0384 11.8615C14.1561 11.597 14.164 11.5507 14.164 11.122C14.164 10.8704 14.1496 10.6225 14.1321 10.5711L14.1001 10.4775L16.1443 10.4767C17.2697 10.4762 18.3114 10.4575 18.462 10.4349C18.9952 10.3551 19.5392 9.96373 19.7851 9.48285C20.341 8.3961 19.7695 7.04271 18.6345 6.75803C18.4197 6.70419 17.8242 6.69508 14.4668 6.69458C12.3124 6.69425 10.5497 6.68594 10.5497 6.67608C10.5497 6.66627 10.8414 6.22193 11.198 5.68862C11.5545 5.15535 11.8972 4.61231 11.9595 4.48192C12.3748 3.61308 12.388 2.52196 11.994 1.62597C11.8517 1.3025 11.5923 0.912291 11.3641 0.678626C11.2073 0.518096 10.5264 0 10.4723 0C10.4592 0 9.92749 0.744235 9.29072 1.65387ZM15.8339 1.2166C15.6139 1.45151 15.4339 1.66177 15.4339 1.68376C15.4339 1.7058 15.5873 1.88791 15.7749 2.08843L16.116 2.45307H14.9533H13.7907L13.8015 3.06633L13.8123 3.6796L14.9636 3.69062L16.1148 3.70168L15.7651 4.07554L15.4154 4.44941L15.8254 4.88568L16.2354 5.32195L17.2998 4.18867L18.3643 3.05536L17.2991 1.92246L16.2339 0.789513L15.8339 1.2166ZM10.8421 1.97002C11.1913 2.60403 11.1963 3.43433 10.8544 4.02681C10.8063 4.11026 10.2081 5.01594 9.5252 6.03945C8.84224 7.06292 8.28349 7.90935 8.28349 7.92033C8.28349 7.93135 10.568 7.94523 13.3601 7.95122C18.4187 7.96203 18.4372 7.96236 18.5447 8.0478C18.7442 8.20634 18.8137 8.34525 18.8137 8.58573C18.8137 8.84081 18.7305 8.99215 18.5165 9.12624C18.3865 9.20777 18.3038 9.2096 14.3301 9.22054L10.2762 9.23168V9.85289V10.4741L11.4903 10.4862L12.7045 10.4983L12.8579 10.6734C12.9971 10.8322 13.0113 10.8692 13.0113 11.0726C13.0113 11.3388 12.9076 11.5301 12.6994 11.6478C12.5758 11.7177 12.4576 11.7248 11.4197 11.7248H10.2762V12.3485V12.9721H11.1794C12.0354 12.9721 12.0904 12.9769 12.2343 13.063C12.3943 13.1586 12.5425 13.4149 12.5425 13.5958C12.5425 13.7412 12.4005 14.0204 12.2781 14.1155C12.1794 14.1924 12.0991 14.1996 11.2237 14.2112L10.2762 14.2236V14.842V15.4603L10.801 15.474C11.2581 15.4858 11.3397 15.4986 11.4335 15.5733C11.633 15.732 11.7024 15.8708 11.7024 16.1112C11.7024 16.3663 11.6192 16.5177 11.4052 16.6517C11.2772 16.732 11.2041 16.7348 9.31893 16.7329C7.14279 16.7308 6.98994 16.7165 6.2259 16.4445C5.22317 16.0875 4.2923 15.3825 3.6615 14.5024L3.45879 14.2195H2.31547H1.17219V11.1843V8.14917H2.32161H3.47098L4.0191 7.44926C4.61621 6.68681 4.74902 6.54524 5.11537 6.28052C5.49403 6.00685 5.80044 5.87343 6.4512 5.69864C7.32108 5.46502 7.76749 5.24919 8.3421 4.78452C8.75014 4.45452 9.05198 4.08477 9.87822 2.90277C10.3207 2.26971 10.6966 1.76084 10.7135 1.77195C10.7304 1.78305 10.7883 1.87219 10.8421 1.97002Z" fill="#161921"/>
</svg>
