<svg width="32" height="35" viewBox="0 0 32 35" fill="none" xmlns="http://www.w3.org/2000/svg">
<path fill-rule="evenodd" clip-rule="evenodd" d="M2.0866 0.10027C1.27846 0.317448 0.635469 0.85113 0.255322 1.62038L0 2.1369V17.4907V32.8445L0.255322 33.361C0.871924 34.6086 2.22147 35.2325 3.55332 34.8856C4.11209 34.7401 29.9246 19.9983 30.4045 19.5507C30.6098 19.3592 30.8253 19.0551 30.9855 18.7309C31.2311 18.234 31.2402 18.1897 31.2402 17.4907C31.2402 16.7917 31.2311 16.7474 30.9855 16.2505C30.8253 15.9263 30.6098 15.6222 30.4045 15.4307C29.9246 14.9831 4.11209 0.241296 3.55332 0.0957585C3.05751 -0.0333723 2.57858 -0.0319368 2.0866 0.10027ZM19.6611 12.0777C19.7027 12.1241 17.2983 15.3183 17.1918 15.3581C17.1479 15.3745 10.9978 7.36865 10.8113 7.05242C10.7664 6.97633 19.5688 11.9746 19.6611 12.0777ZM25.2504 15.2454C27.0409 16.2664 28.5597 17.1479 28.6255 17.2043C28.6912 17.2607 28.7451 17.3895 28.7451 17.4907C28.7451 17.5919 28.6912 17.7207 28.6255 17.7772C28.4062 17.9652 10.7637 28.0111 10.8168 27.9177C10.9657 27.656 21.8831 13.3891 21.9345 13.3891C21.9678 13.3891 23.4599 14.2245 25.2504 15.2454Z" fill="white"/>
</svg>
