<svg width="70" height="60" viewBox="0 0 70 60" fill="none" xmlns="http://www.w3.org/2000/svg">
<path fill-rule="evenodd" clip-rule="evenodd" d="M15.8048 5.5614V11.1228H12.4186H9.0325V16.6842V22.2456H5.64636H2.26022V27.7916V33.3374L1.77049 33.4279C1.15605 33.5417 0.446512 34.1203 0.195232 34.713C-0.0650775 35.327 -0.0650775 38.0835 0.195232 38.6975C0.446512 39.2902 1.15605 39.8689 1.77049 39.9826L2.26022 40.0731V45.29C2.26022 48.9797 2.31044 50.6745 2.43178 51.0793C2.66077 51.843 3.82955 52.9948 4.60456 53.2204C4.9838 53.3308 6.2687 53.3895 8.30815 53.3895C11.225 53.3895 11.431 53.406 11.431 53.6406C11.431 54.1397 12.0302 55.624 12.5544 56.4232C13.5925 58.0059 15.044 59.1024 16.9335 59.7313C18.0102 60.0896 20.3717 60.0896 21.4484 59.7313C24.1145 58.844 26.1187 56.8118 26.7646 54.3408L27.0133 53.3895H37.2815C47.0878 53.3895 47.5499 53.4007 47.5499 53.6406C47.5499 54.1397 48.1491 55.624 48.6732 56.4232C49.7114 58.0059 51.1629 59.1024 53.0524 59.7313C54.129 60.0896 56.4906 60.0896 57.5672 59.7313C60.2334 58.844 62.2376 56.8118 62.8835 54.3408L63.1322 53.3895H65.095C67.5319 53.3895 68.0067 53.261 68.9297 52.3514C69.3771 51.9104 69.7034 51.4398 69.8115 51.0793C70.0861 50.1636 70.0508 39.1053 69.7699 38.0428C69.3339 36.3934 68.2189 35.1346 66.4145 34.2548L65.3651 33.743L64.6994 29.767C64.3333 27.5803 63.9385 25.3218 63.822 24.7482C63.413 22.7342 62.3581 21.3722 60.5555 20.5306L59.613 20.0906H52.2764H44.9397L44.0073 20.5259C43.4945 20.7653 42.7689 21.2503 42.3949 21.6034L41.7147 22.2456H40.0469H38.3791V16.6842V11.1228H34.9929H31.6068V5.5614V0H23.7058H15.8048V5.5614ZM20.3196 4.44912V6.67368H23.7058H27.0919V4.44912V2.22456H28.2206H29.3494V6.67368V11.1228H23.7058H18.0622V6.67368V2.22456H19.1909H20.3196V4.44912ZM24.8345 3.33684V4.44912H23.7058H22.5771V3.33684V2.22456H23.7058H24.8345V3.33684ZM13.5474 15.5719V17.7965H16.9335H20.3196V15.5719V13.3474H21.4484H22.5771V17.7965V22.2456H16.9335H11.2899V17.7965V13.3474H12.4186H13.5474V15.5719ZM18.0622 14.4596V15.5719H16.9335H15.8048V14.4596V13.3474H16.9335H18.0622V14.4596ZM27.0919 15.5719V17.7965H30.4781H33.8642V15.5719V13.3474H34.9929H36.1216V17.7965V22.2456H30.4781H24.8345V17.7965V13.3474H25.9632H27.0919V15.5719ZM31.6068 14.4596V15.5719H30.4781H29.3494V14.4596V13.3474H30.4781H31.6068V14.4596ZM59.2803 22.407C59.9793 22.6134 60.8856 23.3772 61.2372 24.0564C61.4183 24.4059 61.8003 26.3024 62.3616 29.6376C62.8291 32.416 63.2407 34.8156 63.2764 34.9702C63.321 35.1641 63.7859 35.466 64.7741 35.9435C65.5732 36.3296 66.4441 36.8686 66.7431 37.1621C67.3305 37.7387 67.7257 38.6833 67.7257 39.5107V40.0421H65.4682H63.2108V42.6134V45.1847L65.4682 46.2987L67.7257 47.4126V48.9474C67.7257 50.3917 67.7052 50.5026 67.3793 50.8236C67.045 51.1531 66.9652 51.1649 65.0847 51.1649H63.1364L62.9623 50.4423C62.7205 49.4391 62.0807 48.1498 61.4688 47.4325L60.9534 46.8285V39.5266V32.2244L60.3738 29.1468C60.0549 27.454 59.708 25.9045 59.6029 25.7033C59.3289 25.1795 58.621 24.6337 58.0922 24.5384C57.8422 24.4934 55.1504 24.4752 52.1102 24.4981C46.7818 24.5382 46.5685 24.55 46.1932 24.8264C45.979 24.984 45.6728 25.2858 45.5128 25.497C45.2246 25.8772 45.2215 26.0003 45.1844 38.5229L45.147 51.1649H44.0204H42.8939V38.1465C42.8939 28.3316 42.9361 24.9872 43.0655 24.5558C43.2778 23.8476 44.4589 22.6424 45.1514 22.4273C45.861 22.207 58.5407 22.1886 59.2803 22.407ZM6.77507 26.6947V28.9193H10.1612H13.5474V26.6947V24.4702H14.6761H15.8048V28.9193V33.3684H10.1612H4.51764V28.9193V24.4702H5.64636H6.77507V26.6947ZM11.2899 25.5825V26.6947H10.1612H9.0325V25.5825V24.4702H10.1612H11.2899V25.5825ZM20.3196 26.6947V28.9193H23.7058H27.0919V26.6947V24.4702H28.2206H29.3494V28.9193V33.3684H23.7058H18.0622V28.9193V24.4702H19.1909H20.3196V26.6947ZM24.8345 25.5825V26.6947H23.7058H22.5771V25.5825V24.4702H23.7058H24.8345V25.5825ZM33.8642 26.6947V28.9193H37.2504H40.6365V31.1439V33.3684H36.1216H31.6068V28.9193V24.4702H32.7355H33.8642V26.6947ZM40.7221 24.6901C40.675 24.8111 40.6365 25.3116 40.6365 25.8024V26.6947H38.3791H36.1216V25.5825V24.4702H38.4647C40.5434 24.4702 40.7981 24.4951 40.7221 24.6901ZM58.0142 28.7107C58.2246 29.7813 58.4005 30.7628 58.4053 30.8918C58.4129 31.1019 58.1498 31.1308 55.884 31.1699C53.5884 31.2093 53.3182 31.2399 52.9652 31.5001C51.8201 32.3436 51.6542 33.5763 52.4376 35.4192C52.4952 35.5545 51.9466 35.593 49.9601 35.593H47.4088V31.1422V26.6913L52.5202 26.7278L57.6316 26.7643L58.0142 28.7107ZM58.6959 34.4929V35.6176L57.1538 35.5705C55.8633 35.5311 55.5481 35.4767 55.2226 35.2368C54.6801 34.8372 54.3409 34.3506 54.2357 33.8203L54.1458 33.3684H56.4209H58.6959V34.4929ZM40.6365 36.7053V37.8175H21.4484H2.26022V36.7053V35.593H21.4484H40.6365V36.7053ZM58.6959 41.502C58.6959 43.5284 58.6741 45.1864 58.6475 45.1864C58.6209 45.1864 58.224 45.0518 57.7657 44.8873C56.6194 44.4759 54.1808 44.4431 53.0524 44.8239C50.2574 45.7672 48.3853 47.7185 47.6357 50.4697C47.4438 51.174 47.4266 50.7043 47.4181 44.526L47.4088 37.8175H53.0524H58.6959V41.502ZM40.6365 45.6035V51.1649H33.8249H27.0133L26.7646 50.2136C26.1187 47.7426 24.1145 45.7104 21.4484 44.8231C20.3717 44.4648 18.0102 44.4648 16.9335 44.8231C15.044 45.452 13.5925 46.5485 12.5544 48.1312C12.0302 48.9303 11.431 50.4147 11.431 50.9138C11.431 51.1484 11.2255 51.1649 8.32071 51.1649H5.21025L4.86402 50.8236C4.57986 50.5437 4.51764 50.3445 4.51764 49.7144V48.9463L7.22487 48.9087L9.93223 48.8708L10.7481 45.673C11.197 43.9142 11.5659 42.4284 11.5682 42.3709C11.5703 42.3135 9.98485 42.2667 8.04488 42.2667H4.51764V41.1544V40.0421H22.5771H40.6365V45.6035ZM67.7257 43.589V44.9114L66.5969 44.3522L65.4682 43.793V43.0298V42.2667H66.5969H67.7257V43.589ZM8.43457 45.6035L8.15112 46.7158H6.33431H4.51764V45.6035V44.4912H6.61776H8.71801L8.43457 45.6035ZM21.5089 47.2469C22.7819 47.834 23.6056 48.6324 24.237 49.8913C24.7349 50.8841 24.764 51.0154 24.764 52.2772C24.764 53.5389 24.7349 53.6703 24.237 54.663C23.6024 55.9285 22.7855 56.7167 21.4738 57.329C20.6214 57.727 20.403 57.7691 19.1909 57.7691C17.9788 57.7691 17.7604 57.727 16.9081 57.329C15.5964 56.7167 14.7795 55.9285 14.1449 54.663C13.6475 53.6714 13.6179 53.5378 13.6179 52.2844C13.6179 51.0818 13.6601 50.8686 14.0645 50.0276C14.6313 48.8483 15.4385 47.985 16.4913 47.4321C17.6027 46.8484 18.2108 46.7163 19.5082 46.7772C20.3551 46.817 20.8061 46.9228 21.5089 47.2469ZM57.6277 47.2469C58.9008 47.834 59.7245 48.6324 60.3559 49.8913C60.8538 50.8841 60.8828 51.0154 60.8828 52.2772C60.8828 53.5389 60.8538 53.6703 60.3559 54.663C59.7212 55.9285 58.9043 56.7167 57.5926 57.329C56.7403 57.727 56.5219 57.7691 55.3098 57.7691C54.0977 57.7691 53.8793 57.727 53.027 57.329C51.7153 56.7167 50.8984 55.9285 50.2637 54.663C49.7664 53.6714 49.7368 53.5378 49.7368 52.2844C49.7368 51.0818 49.779 50.8686 50.1833 50.0276C50.7502 48.8483 51.5574 47.985 52.6102 47.4321C53.7215 46.8484 54.3296 46.7163 55.6271 46.7772C56.4739 46.817 56.925 46.9228 57.6277 47.2469ZM18.0622 49.1221C17.7906 49.2065 17.2488 49.5912 16.8582 49.9769C15.8611 50.9616 15.5857 52.0007 15.9764 53.3038C16.2053 54.0676 17.3741 55.2193 18.1491 55.445C19.472 55.8301 20.5266 55.5586 21.5237 54.576C22.9024 53.2174 22.9436 51.489 21.6316 50.051C20.7185 49.0502 19.3993 48.7068 18.0622 49.1221ZM54.1811 49.1221C53.4886 49.3372 52.3076 50.5423 52.0952 51.2506C51.7044 52.5542 51.9799 53.5934 52.977 54.576C53.7077 55.2961 54.4223 55.614 55.3098 55.614C56.1972 55.614 56.9119 55.2961 57.6426 54.576C59.0213 53.2174 59.0625 51.489 57.7505 50.051C56.8374 49.0502 55.5182 48.7068 54.1811 49.1221ZM19.9733 51.5062C20.6732 52.1959 20.1773 53.3895 19.1909 53.3895C18.6109 53.3895 18.0622 52.8488 18.0622 52.2772C18.0622 51.7056 18.6109 51.1649 19.1909 51.1649C19.4658 51.1649 19.755 51.291 19.9733 51.5062ZM56.0921 51.5062C56.3105 51.7213 56.4385 52.0064 56.4385 52.2772C56.4385 52.548 56.3105 52.8331 56.0921 53.0481C55.8739 53.2634 55.5846 53.3895 55.3098 53.3895C55.035 53.3895 54.7457 53.2634 54.5275 53.0481C54.309 52.8331 54.1811 52.548 54.1811 52.2772C54.1811 52.0064 54.309 51.7213 54.5275 51.5062C54.7457 51.291 55.035 51.1649 55.3098 51.1649C55.5846 51.1649 55.8739 51.291 56.0921 51.5062Z" fill="#FFC000"/>
</svg>
