<svg width="70" height="70" viewBox="0 0 70 70" fill="none" xmlns="http://www.w3.org/2000/svg">
<path fill-rule="evenodd" clip-rule="evenodd" d="M24.85 0.199633C24.1281 0.438708 22.8967 1.77827 22.6754 2.5655C22.5396 3.0486 22.4965 7.42227 22.4965 20.7431V38.2846L20.9888 39.1721C20.1596 39.6602 18.5017 40.7817 17.3046 41.6644C16.1076 42.547 15.0786 43.2692 15.018 43.2692C14.9574 43.2692 14.5636 42.749 14.1429 42.1132C13.3301 40.8849 12.9093 40.6185 12.2672 40.9259C11.9334 41.0857 2.40357 48.0405 0.763166 49.3215C-0.575548 50.3668 -0.906953 49.6959 6.26188 60.4488C12.7179 70.1325 12.7494 70.1733 13.5605 69.9453C14.0784 69.7997 25.6245 61.242 25.8316 60.8501C26.1074 60.3284 26.0702 60.0919 25.5864 59.2905L25.1458 58.5609L25.8029 58.1231C27.8194 56.7795 30.556 56.4211 34.0657 57.041C36.8252 57.5282 39.2215 57.5055 41.1776 56.9733C42.8874 56.508 66.7123 47.4222 67.7016 46.8581C69.1373 46.0393 69.8797 44.7372 69.9775 42.8655C70.0359 41.7465 69.9996 41.5104 69.6389 40.6658C69.2241 39.6948 68.1447 38.4591 67.5332 38.2551L67.2134 38.1485V20.6751C67.2134 7.40775 67.1703 3.04845 67.0346 2.5655C66.7958 1.71661 65.5773 0.43639 64.7693 0.18557C63.9435 -0.070814 25.6258 -0.0572144 24.85 0.199633ZM38.9711 4.94297V7.41563H31.9106H24.85V5.32237C24.85 3.30576 24.8632 3.21504 25.2111 2.84971L25.5721 2.47031H32.2717H38.9711V4.94297ZM48.3852 7.75407V13.0378L46.8621 11.4631C45.5531 10.1097 45.2708 9.88829 44.855 9.88829C44.4391 9.88829 44.1568 10.1097 42.8478 11.4631L41.3247 13.0378V7.75407V2.47031H44.855H48.3852V7.75407ZM64.4988 2.84971C64.8467 3.21504 64.8599 3.30576 64.8599 5.32237V7.41563H57.7993H50.7388V4.94297V2.47031H57.4382H64.1378L64.4988 2.84971ZM38.9711 13.2179C38.9711 16.5472 38.9711 16.5476 39.3323 16.9269C39.566 17.1724 39.8602 17.3063 40.1666 17.3063C40.5786 17.3063 40.9134 17.0214 42.7475 15.111L44.855 12.9156L46.9624 15.111C48.7965 17.0214 49.1313 17.3063 49.5433 17.3063C49.8497 17.3063 50.1439 17.1724 50.3777 16.9269C50.7388 16.5476 50.7388 16.5472 50.7388 13.2179V9.88829H57.7993H64.8599V23.7848V37.6811L64.3819 37.7901C64.1188 37.8499 62.944 38.2723 61.7709 38.7286L59.638 39.5582L55.4691 39.5593C51.566 39.5602 51.2768 39.541 50.9375 39.2607C50.3268 38.7558 49.4048 38.5306 43.384 37.415C35.4226 35.9399 35.5159 35.9527 32.8667 35.9653C30.2964 35.9773 28.0537 36.3111 25.99 36.9888L24.85 37.3631V23.6256V9.88829H31.9106H38.9711V13.2179ZM34.926 38.4756C36.918 38.667 48.9148 40.9112 49.4237 41.1877C50.3193 41.6742 50.845 42.8991 50.5881 43.901C50.2857 45.0809 49.4081 45.7799 48.2552 45.7588C47.8817 45.752 44.7988 45.2269 41.4041 44.5919C38.0094 43.9567 35.2157 43.4542 35.1958 43.475C35.1168 43.558 34.8126 45.7516 34.8716 45.8134C35.0439 45.9944 47.6904 48.2519 48.4951 48.2453C50.1616 48.2315 51.6459 47.2553 52.4696 45.6314L52.9233 44.7372L58.9554 42.4365C64.2408 40.4205 65.0688 40.1454 65.6457 40.2138C67.6197 40.4476 68.3764 43.0134 66.8964 44.4553C66.4734 44.8675 42.0799 54.2311 40.3686 54.6382C38.7817 55.0157 36.5732 54.9919 34.3213 54.573C30.4252 53.8483 27.3452 54.3065 24.5685 56.0243L23.7646 56.5214L20.1152 51.044C18.1079 48.0314 16.4656 45.5051 16.4656 45.43C16.4656 45.2455 20.4882 42.3028 21.8785 41.4705C24.5691 39.8595 27.874 38.7788 31.0048 38.4861C32.8079 38.3174 33.2671 38.3161 34.926 38.4756ZM17.7393 51.8042C20.639 56.1584 23.0113 59.8049 23.0113 59.9077C23.0113 60.0103 21.3896 61.2899 19.4075 62.7511C17.4254 64.2123 15.2946 65.7832 14.6725 66.2422L13.5413 67.0769L8.22957 59.0903C5.30812 54.6978 2.90473 51.0366 2.88854 50.9542C2.85677 50.7919 12.0161 43.9265 12.2968 43.9022C12.3906 43.894 14.8397 47.4498 17.7393 51.8042Z" fill="#FFC000"/>
</svg>
