<svg width="70" height="70" viewBox="0 0 70 70" fill="none" xmlns="http://www.w3.org/2000/svg">
<path fill-rule="evenodd" clip-rule="evenodd" d="M22.5481 0.399629L22.1484 0.799258V12.8334V24.8675L22.4783 25.2511L22.8084 25.6348H35H47.1916L47.5217 25.2511L47.8516 24.8675V18.1836V11.4997L47.5439 11.1501C47.0729 10.6148 46.4903 10.5617 45.9624 11.0059L45.5273 11.372V17.3754V23.3789H35H24.4727V12.8516V2.32422H27.4121H30.3516V5.4749V8.62572L30.6872 8.96123L31.0227 9.29688H35H38.9773L39.3128 8.96123L39.6484 8.62572V5.4749V2.32422H42.5879H45.5273L45.5317 5.02441C45.5362 7.84971 45.5645 7.99627 46.1677 8.31756C46.6493 8.57391 47.0254 8.5035 47.4519 8.07693L47.8516 7.6773V4.23828V0.799258L47.4519 0.399629L47.0523 0H35H22.9477L22.5481 0.399629ZM37.3242 4.64844V6.97266H35H32.6758V4.64844V2.32422H35H37.3242V4.64844ZM27.538 14.1351C26.9659 14.3901 26.7023 15.0273 26.9358 15.5911C27.0304 15.8196 27.2184 16.0657 27.3535 16.138C27.4887 16.2103 28.8538 16.2695 30.3871 16.2695C33.1245 16.2695 33.1804 16.2638 33.4723 15.9532C33.8957 15.5023 33.8707 14.7716 33.4171 14.3451C33.0729 14.0216 33.0038 14.0129 30.5118 13.9806C28.585 13.9556 27.8558 13.9934 27.538 14.1351ZM27.2104 19.0005C26.5933 19.6176 26.8157 20.6181 27.6335 20.9032C28.2797 21.1284 31.3496 21.0983 31.9173 20.8612C32.4972 20.6188 32.7266 20.2068 32.6145 19.6086C32.4646 18.8094 32.2031 18.7305 29.7058 18.7305C27.6723 18.7305 27.4572 18.7537 27.2104 19.0005ZM57.0795 25.1904C56.8483 25.3892 56.7187 25.6431 56.7129 25.9082C56.7078 26.1338 57.2476 27.8564 57.9123 29.7363C59.5045 34.2392 59.531 34.2665 61.5686 33.5054C62.1709 33.2802 62.6116 33.1759 62.5763 33.2665C62.5419 33.3553 61.8501 35.1367 61.039 37.2255C60.2279 39.3143 59.5239 41.0062 59.4746 40.9853C58.7383 40.6729 52.2528 36.9738 52.3279 36.9093C52.3849 36.8601 52.8315 36.6795 53.3203 36.508C54.2806 36.171 54.8255 35.7079 54.822 35.2316C54.8185 34.7274 52.2423 27.835 51.9866 27.6455C51.3521 27.175 50.5662 27.3625 50.2317 28.064C50.0184 28.5112 50.0294 28.5547 51.0681 31.4288C51.6469 33.0302 52.0674 34.3882 52.0026 34.4466C51.9378 34.5051 51.1279 34.8168 50.203 35.1393C49.133 35.5124 48.449 35.8287 48.3231 36.0086C48.0535 36.3933 48.0737 37.096 48.3643 37.4423C48.7313 37.8797 59.7454 43.8867 60.1805 43.8867C60.942 43.8867 61.1259 43.5263 63.4937 37.3926C64.7639 34.102 65.7628 31.318 65.7624 31.0693C65.7616 30.5785 65.4024 30.1304 64.9106 30.007C64.7194 29.959 63.9186 30.1703 62.8338 30.5551C61.8628 30.8997 61.0213 31.1332 60.9637 31.0741C60.9063 31.0151 60.4178 29.7363 59.8782 28.2324C58.8362 25.3278 58.5643 24.8828 57.832 24.8828C57.6148 24.8828 57.2763 25.0212 57.0795 25.1904ZM13.1656 26.0812C12.7297 26.5899 11.8197 27.6665 11.1435 28.4737C10.4672 29.2809 9.8648 29.9414 9.80478 29.9414C9.74463 29.9414 9.06828 29.416 8.3017 28.7738C7.53498 28.1315 6.76402 27.57 6.58834 27.526C6.17053 27.4211 5.67697 27.6544 5.38986 28.0926C5.17672 28.4179 5.17166 28.9155 5.32164 34.9005C5.46807 40.7414 5.50703 41.3901 5.72934 41.6992C5.86455 41.8872 6.12951 42.096 6.31805 42.1632C6.56305 42.2506 8.46809 42.0044 13.0032 41.2992C19.7699 40.2471 19.8186 40.2341 20.018 39.4399C20.1611 38.8694 19.8689 38.4747 18.4015 37.257L16.958 36.059L17.3188 35.632C20.0769 32.3676 20.8637 31.3839 20.9383 31.1061C21.0599 30.6544 20.6624 29.9059 20.2193 29.7523C19.4905 29.4997 19.2436 29.7097 16.6916 32.7523C14.4147 35.4672 14.2188 35.7429 14.2188 36.2327C14.2188 36.7217 14.296 36.8311 15.1793 37.5912C15.7076 38.046 16.1228 38.4212 16.1022 38.4252C16.0814 38.4292 14.2125 38.7244 11.9489 39.0812L7.83344 39.7301L7.74539 37.6044C7.69686 36.4351 7.65693 34.5356 7.65666 33.3832L7.65625 31.2879L8.57459 32.0502C9.51029 32.8267 9.96857 32.9748 10.5212 32.6791C10.9077 32.4722 15.5684 26.8461 15.662 26.4734C15.7581 26.0905 15.4288 25.3669 15.1013 25.2412C14.9796 25.1945 14.6725 25.1562 14.419 25.1562C14.0191 25.1562 13.8532 25.2787 13.1656 26.0812ZM30.6872 30.6872L30.3516 31.0227V34.1735V37.3242H28.499C26.1089 37.3242 25.7031 37.5037 25.7031 38.5611C25.7031 38.796 25.8588 39.1368 26.0881 39.4044C27.9568 41.5837 33.3938 47.7824 33.8872 48.2959C34.4035 48.8332 34.5956 48.9453 35 48.9453C35.4044 48.9453 35.5965 48.8332 36.1128 48.2959C36.6062 47.7824 42.0432 41.5837 43.9119 39.4044C44.1412 39.1368 44.2969 38.796 44.2969 38.5611C44.2969 37.5037 43.8911 37.3242 41.501 37.3242H39.6484V34.1735V31.0227L39.3128 30.6872C38.7487 30.123 37.8679 30.2698 37.4832 30.992C37.2673 31.3973 37.2609 38.5398 37.476 39.0117C37.7018 39.5072 38.0875 39.6423 39.3881 39.6814L40.5632 39.7168L37.8596 42.793C36.3727 44.4849 35.0857 45.8691 35 45.8691C34.9143 45.8691 33.6273 44.4849 32.1404 42.793L29.4368 39.7168L30.6119 39.6814C31.9125 39.6423 32.2982 39.5072 32.524 39.0117C32.7391 38.5398 32.7327 31.3973 32.5168 30.992C32.1321 30.2698 31.2513 30.123 30.6872 30.6872ZM0.53498 48.0268C0.0114844 48.4288 0 48.6027 0 56.1203V63.4499L0.335645 63.7854L0.671152 64.1211H8.17305H15.6749L15.9723 63.8047L16.2695 63.4882V56.0055V48.5227L15.9339 48.1872L15.5984 47.8516L8.1751 47.8559C2.55541 47.8592 0.699316 47.9008 0.53498 48.0268ZM4.64844 52.5595C4.64844 53.8705 4.70955 55.1039 4.78434 55.3004C5.03439 55.9583 5.6216 56.0762 8.41299 56.0288C10.8462 55.9876 10.926 55.977 11.2686 55.6549L11.6211 55.3234V52.7496V50.1758H12.7832H13.9453V55.9863V61.7969H8.13477H2.32422V55.9863V50.1758H3.48633H4.64844V52.5595ZM9.29688 51.9586V53.7415L8.16895 53.7018L7.04102 53.6621L7.00273 51.9189L6.96445 50.1758H8.13066H9.29688V51.9586ZM54.0661 50.5114L53.7305 50.8469V58.3488V65.8507L54.0468 66.1481L54.3633 66.4453H61.8461H69.3288L69.6644 66.1097L70 65.7742V58.46C70 53.3906 69.9534 51.0434 69.8482 50.8125C69.7647 50.6293 69.5465 50.4111 69.3633 50.3275C69.1324 50.2224 66.7852 50.1758 61.7158 50.1758H54.4016L54.0661 50.5114ZM58.3789 55.0739V57.6476L58.7318 57.9791C59.0814 58.3075 59.1101 58.3105 61.8725 58.3105C65.5504 58.3105 65.2687 58.5729 65.3257 55.0942L65.3681 52.5H66.522H67.6758V58.3105V64.1211H61.8652H56.0547V58.3105V52.5H57.2168H58.3789V55.0739ZM62.9973 54.2432L62.959 55.9863L61.8311 56.026L60.7031 56.0658V54.2828V52.5H61.8693H63.0355L62.9973 54.2432ZM27.2104 54.0005C27.062 54.149 26.906 54.4104 26.8639 54.5815C26.8216 54.7526 26.8047 58.1433 26.8261 62.1164L26.8652 69.3402L27.2489 69.6701L27.6325 70H35H42.3675L42.7511 69.6701L43.1348 69.3402L43.1739 62.1164C43.1953 58.1433 43.1784 54.7526 43.1361 54.5815C43.094 54.4104 42.938 54.149 42.7896 54.0005C42.5272 53.7381 42.3049 53.7305 35 53.7305C27.6951 53.7305 27.4728 53.7381 27.2104 54.0005ZM31.471 58.5733C31.5124 61.0228 31.5228 61.1017 31.8451 61.4444L32.1766 61.7969H35H37.8234L38.1549 61.444C38.4435 61.1368 38.4863 60.9617 38.4863 60.0879C38.4863 59.2141 38.4435 59.039 38.1549 58.7318C37.9206 58.4824 37.6827 58.3789 37.3434 58.3789C36.8069 58.3789 36.2305 58.8161 36.2305 59.223C36.2305 59.4463 36.1002 59.4727 35 59.4727H33.7695V57.7637V56.0547H37.3242H40.8789V61.8652V67.6758H35H29.1211V61.8652V56.0547H30.2747H31.4284L31.471 58.5733Z" fill="#E30D16"/>
</svg>
