<svg width="22" height="20" viewBox="0 0 22 20" fill="none" xmlns="http://www.w3.org/2000/svg">
<path fill-rule="evenodd" clip-rule="evenodd" d="M9.69998 0.0620559C5.51511 0.59748 1.96582 3.62518 0.594171 7.82968C-0.218866 10.322 -0.196539 13.1724 0.655173 15.619C1.15511 17.0549 2.20519 18.8078 3.13791 19.7633C3.33937 19.9696 3.53692 20.0384 3.76045 19.98C3.83862 19.9596 4.2107 19.6017 4.81797 18.9628C5.83066 17.8974 5.89592 17.7985 5.79663 17.4805C5.70621 17.1909 5.4665 17.0515 5.16226 17.1119C5.03058 17.138 4.88087 17.2709 4.30181 17.8759C3.8788 18.3179 3.58579 18.5913 3.56294 18.5655C3.22803 18.1865 2.67806 17.3726 2.3663 16.7947C1.68834 15.5379 1.21775 13.9541 1.12487 12.6164L1.09449 12.1794L2.0791 12.1792C2.97976 12.1791 3.07544 12.1715 3.2014 12.0903C3.35305 11.9926 3.47239 11.7871 3.47239 11.6239C3.47239 11.4542 3.32668 11.2153 3.16858 11.1257C3.03913 11.0523 2.90951 11.0426 2.05862 11.0426H1.09518L1.12555 10.622C1.26774 8.65167 2.10848 6.51957 3.38032 4.90397C3.48861 4.76642 3.58338 4.64461 3.59086 4.63333C3.59839 4.62201 3.90874 4.93185 4.28056 5.32185C4.65239 5.71191 4.99887 6.05367 5.05054 6.08136C5.10225 6.10905 5.22253 6.1317 5.31791 6.1317C5.52961 6.1317 5.77104 5.93126 5.81049 5.72277C5.86887 5.41416 5.81354 5.32426 5.0831 4.5402L4.38411 3.78993L4.72199 3.50232C5.72673 2.64705 6.73189 2.06529 7.91744 1.65296C8.53258 1.43897 9.35018 1.24849 9.86087 1.20016C10.0265 1.18447 10.225 1.16132 10.3018 1.14868L10.4416 1.12572V2.07702C10.4416 2.60022 10.4542 3.09458 10.4695 3.17561C10.4848 3.25659 10.5629 3.39219 10.643 3.47686C10.7692 3.61018 10.8171 3.63078 11.0009 3.63078C11.1847 3.63078 11.2327 3.61018 11.3588 3.47686C11.4389 3.39219 11.517 3.25659 11.5323 3.17561C11.5476 3.09458 11.5602 2.60022 11.5602 2.07702V1.12572L11.7 1.14868C11.7769 1.16132 11.9753 1.18447 12.1409 1.20016C12.6516 1.24849 13.4692 1.43897 14.0844 1.65296C15.2699 2.06529 16.2751 2.64705 17.2798 3.50232L17.6177 3.78993L16.9187 4.5402C16.1883 5.32426 16.1329 5.41416 16.1913 5.72277C16.2308 5.93126 16.4722 6.1317 16.6839 6.1317C16.7793 6.1317 16.8996 6.10905 16.9513 6.08136C17.0029 6.05367 17.3494 5.71191 17.7212 5.32185C18.0931 4.93185 18.4034 4.62201 18.4109 4.63333C18.4184 4.64461 18.5132 4.76642 18.6215 4.90397C19.8933 6.51957 20.7341 8.65167 20.8763 10.622L20.9066 11.0426H19.9432C18.8608 11.0426 18.7585 11.0672 18.608 11.3637C18.5072 11.5624 18.5088 11.7111 18.6137 11.893C18.7688 12.1618 18.8495 12.1794 19.9313 12.1794H20.9073L20.8769 12.6164C20.7841 13.9541 20.3135 15.5379 19.6355 16.7947C19.3237 17.3726 18.7738 18.1865 18.4389 18.5655C18.416 18.5913 18.123 18.3179 17.7 17.8759C16.9594 17.1021 16.8663 17.0397 16.5593 17.111C16.3145 17.1678 16.1403 17.4763 16.1891 17.7666C16.2124 17.9048 16.3641 18.0886 17.1258 18.9012C17.6257 19.4345 18.087 19.9 18.1508 19.9356C18.2994 20.0185 18.501 20.0183 18.6531 19.9352C18.9132 19.793 19.7429 18.7506 20.248 17.9315C20.6053 17.352 21.1218 16.2648 21.3466 15.619C22.3076 12.8587 22.203 9.5741 21.0695 6.91476C19.4509 3.11722 16.1366 0.540232 12.2537 0.0601462C11.5988 -0.0208382 10.3405 -0.0198833 9.69998 0.0620559ZM13.1636 5.02688C12.9045 5.07976 12.8216 5.25101 12.0115 7.40489L11.2334 9.47383L10.8913 9.50253C9.89064 9.58642 9.15633 10.3081 9.01368 11.3477C8.97242 11.6482 8.97629 11.7551 9.03906 12.0524C9.1325 12.4948 9.33142 12.9184 9.55685 13.1551C10.0265 13.6482 10.9272 13.8589 11.6112 13.6355C12.5711 13.3222 13.1855 12.2138 12.9667 11.1904C12.8735 10.7548 12.6754 10.3405 12.4373 10.0837L12.2438 9.87498L13.0444 7.75611C13.8113 5.72646 13.8431 5.62979 13.8001 5.46086C13.7754 5.36391 13.7114 5.24123 13.6579 5.18821C13.565 5.09632 13.3514 4.98796 13.2889 5.0011C13.2727 5.00451 13.2163 5.01611 13.1636 5.02688ZM11.4921 10.7679C11.7585 10.9043 11.9033 11.1996 11.9039 11.608C11.9051 12.3741 11.2219 12.8129 10.5459 12.4803C10.2515 12.3353 10.135 12.1273 10.1076 11.6977C10.0838 11.3247 10.1447 11.1443 10.3734 10.91C10.6582 10.6182 11.0918 10.5631 11.4921 10.7679Z" fill="#161921"/>
</svg>
