<svg width="20" height="20" viewBox="0 0 20 20" fill="none" xmlns="http://www.w3.org/2000/svg">
<path fill-rule="evenodd" clip-rule="evenodd" d="M9.04736 0.0428745C5.97324 0.333912 3.17593 2.06911 1.51136 4.71754C-0.391415 7.74496 -0.506234 11.6685 1.21633 14.8012C1.99113 16.2103 3.1473 17.4693 4.47574 18.3505C5.75201 19.1972 7.15917 19.7212 8.77361 19.951C9.23011 20.016 10.7761 20.0164 11.2374 19.9517C13.7035 19.6058 15.7418 18.5451 17.4048 16.7423C18.7682 15.2642 19.6435 13.3697 19.9459 11.2424C20.023 10.7002 20.0113 9.27665 19.9247 8.66129C19.8396 8.05583 19.6095 7.12484 19.4119 6.58605C19.2355 6.10519 18.7568 5.12324 18.5074 4.73099C17.7405 3.52449 16.6687 2.42585 15.5001 1.6482C14.9802 1.30229 13.9691 0.795497 13.3898 0.590613C11.9937 0.0966863 10.4867 -0.0933757 9.04736 0.0428745ZM11.1263 1.07609C12.4987 1.25599 13.8595 1.75664 14.9526 2.4838C16.9512 3.8133 18.3642 5.89413 18.8216 8.18101C18.9761 8.9542 19.0124 9.40355 18.9896 10.2633C18.9522 11.6682 18.6934 12.7263 18.0803 13.981C16.8227 16.5546 14.3747 18.3886 11.5307 18.8878C10.9147 18.9959 9.66584 19.0371 9.0655 18.969C7.27912 18.7666 5.58748 18.0523 4.2515 16.9363C2.48408 15.4598 1.37256 13.4311 1.07109 11.1313C0.995335 10.5533 0.993262 9.50237 1.06678 8.914C1.49759 5.46508 3.87098 2.56186 7.15065 1.47198C7.74371 1.27491 8.27409 1.15137 8.85182 1.07578C9.40895 1.00284 10.5689 1.003 11.1263 1.07609ZM9.45799 2.01624C9.3827 2.02503 9.15572 2.05151 8.95362 2.07505C6.90642 2.31369 4.8796 3.50314 3.60282 5.21518C3.04476 5.9635 2.53597 6.95316 2.53597 7.29034C2.53597 7.50547 2.67203 7.6822 2.88731 7.74669C3.02728 7.78865 3.07655 7.77691 3.62339 7.57168C5.50254 6.86642 7.56257 6.53025 10.0055 6.53025C12.4852 6.53025 14.6481 6.89109 16.4945 7.61278C17.0138 7.81579 17.1365 7.81481 17.3451 7.60621C17.5341 7.41728 17.5247 7.23019 17.3011 6.72594C16.2128 4.27125 13.8769 2.50019 11.1858 2.08941C10.8091 2.03188 9.71907 1.98573 9.45799 2.01624ZM11.2121 3.10323C12.8874 3.41722 14.3088 4.23484 15.3482 5.48236C15.6499 5.8445 15.9672 6.29099 15.9412 6.31692C15.9326 6.32552 15.5483 6.238 15.0871 6.12244C14.1795 5.89499 13.1541 5.71095 12.1955 5.6034C11.4218 5.51666 8.76923 5.50438 8.01101 5.58408C6.84162 5.70696 5.83515 5.88541 4.84331 6.14563C4.05236 6.35317 4.04806 6.35403 4.06581 6.30163C4.11924 6.1443 4.65747 5.46574 5.01929 5.09958C5.57849 4.53366 6.21704 4.06316 6.86931 3.73641C7.45232 3.44432 8.29415 3.17819 8.91048 3.09106C9.0718 3.06826 9.24778 3.04206 9.30156 3.03283C9.52623 2.99427 10.9009 3.04492 11.2121 3.10323ZM9.50785 8.0762C8.62453 8.31409 8.01101 9.10692 8.01101 10.0105C8.01101 11.3012 9.25165 12.2684 10.4927 11.9451C12.0009 11.5523 12.5075 9.66901 11.3973 8.58308C10.9062 8.10276 10.1562 7.90155 9.50785 8.0762ZM10.4748 9.14352C11.1753 9.48923 11.1691 10.5271 10.4644 10.8863C9.8658 11.1914 9.17207 10.8617 9.03132 10.2054C8.92159 9.69373 9.23934 9.19104 9.76314 9.04755C9.99904 8.98295 10.206 9.01083 10.4748 9.14352ZM2.31368 10.1256C2.02034 10.2588 1.98374 10.4233 2.08819 11.1396C2.55607 14.3489 4.93721 16.9961 8.05301 17.7708C8.42105 17.8623 8.48323 17.8681 8.61862 17.8235C8.7144 17.7919 8.80387 17.7241 8.86015 17.6404C8.9693 17.4783 8.97438 17.2915 8.88831 16.6135C8.6221 14.5169 7.98188 13.0324 6.85789 11.9056C5.93515 10.9804 4.77022 10.4085 3.32219 10.1695C2.57344 10.0459 2.49651 10.0426 2.31368 10.1256ZM17.0448 10.108C16.1883 10.2295 15.3783 10.4636 14.7358 10.7755C13.2371 11.5031 12.1566 12.7868 11.5763 14.5292C11.3172 15.3072 11.1214 16.3209 11.0745 17.128C11.0543 17.4745 11.0592 17.5088 11.1466 17.6364C11.2062 17.7236 11.296 17.7917 11.3937 17.8239C11.5327 17.8697 11.5918 17.8631 12.018 17.7543C12.277 17.6882 12.7177 17.5416 12.9974 17.4286C15.6275 16.366 17.5115 13.9604 17.9228 11.1396C17.9981 10.6235 17.9988 10.4666 17.9267 10.3272C17.8008 10.0836 17.5886 10.0309 17.0448 10.108ZM3.64259 11.2583C5.50794 11.7294 6.7144 12.8086 7.40316 14.6224C7.5971 15.1331 7.74004 15.7209 7.87644 16.5692L7.89662 16.6947L7.67324 16.6178C7.38615 16.519 6.70447 16.1934 6.39451 16.007C4.77006 15.0299 3.57267 13.3536 3.1658 11.4868C3.10745 11.2192 3.10225 11.1446 3.14182 11.1446C3.16967 11.1446 3.395 11.1958 3.64259 11.2583ZM16.8452 11.4868C16.4405 13.3438 15.2257 15.046 13.6229 16.0019C13.0895 16.32 12.1173 16.748 12.1173 16.6647C12.1173 16.6475 12.1531 16.4323 12.1969 16.1865C12.6373 13.7134 13.7501 12.1991 15.6609 11.473C15.934 11.3692 16.7369 11.1497 16.8552 11.1464C16.9144 11.1448 16.9136 11.1729 16.8452 11.4868Z" fill="#161921"/>
</svg>
