<svg width="22" height="20" viewBox="0 0 22 20" fill="none" xmlns="http://www.w3.org/2000/svg">
<path fill-rule="evenodd" clip-rule="evenodd" d="M0.217325 0.0553034C-0.0342326 0.180689 -0.0767966 0.526619 0.139076 0.690617C0.217669 0.750278 0.346092 0.773653 0.705435 0.793582C0.961077 0.80774 1.25726 0.845937 1.36367 0.878487C1.67435 0.973439 1.92259 1.07757 1.92259 1.1129C1.92259 1.13096 1.79542 1.29238 1.63999 1.4717C1.26582 1.90328 1.19152 2.04843 1.19238 2.34616C1.19359 2.74843 1.25907 2.82005 2.50048 3.77676C3.67645 4.68306 3.8099 4.75854 4.15725 4.71353C4.42209 4.67924 4.60954 4.53986 4.96515 4.11293L5.29328 3.71896L5.37724 3.81703C5.51504 3.978 5.77593 4.55747 5.86071 4.89082C5.96566 5.30363 5.96626 6.13894 5.86196 6.65161C5.70916 7.40272 5.2597 8.51412 4.83169 9.19925C4.74996 9.33004 4.56672 9.66127 4.42445 9.93529C3.48052 11.7535 3.03923 13.468 3.22045 14.6134C3.33292 15.3244 3.52502 15.7011 4.00638 16.1546C4.53082 16.6487 5.34844 16.9107 6.27276 16.8808C6.76096 16.865 6.78504 16.8597 7.13836 16.6906C7.90898 16.3219 8.31287 15.6638 8.48145 14.5023C8.60015 13.6844 8.53085 12.7623 8.26553 11.6297C8.08023 10.8385 8.14605 10.2426 8.48846 9.61145C8.76904 9.09426 9.36528 8.58794 9.91379 8.40106L10.0914 8.34053V12.6301V16.9198L9.81654 16.941C9.34043 16.978 9.03878 17.2168 8.92906 17.6437C8.89729 17.7673 8.88469 18.1127 8.89419 18.5986C8.90885 19.346 8.9113 19.3636 9.02971 19.5581C9.09605 19.6671 9.23006 19.8072 9.32753 19.8695L9.50475 19.9827L15.3766 19.9941C21.9319 20.0068 21.4649 20.0274 21.7587 19.7134C21.8414 19.625 21.9296 19.4813 21.9547 19.394C22.0167 19.1784 22.0144 17.7303 21.9518 17.5497C21.826 17.1867 21.5197 16.9758 21.0673 16.9407L20.7978 16.9198L20.7866 8.86055L20.7754 0.801263L20.668 0.616257C20.6088 0.514537 20.4766 0.374413 20.374 0.30487L20.1876 0.178488H15.4442H10.7008L10.5143 0.30487C10.4118 0.374413 10.2795 0.514537 10.2204 0.616257L10.1129 0.801263L10.1012 4.1716L10.0895 7.54193L9.86474 7.61209C9.42517 7.74935 8.89518 8.05227 8.54491 8.36648C7.55037 9.25871 7.19331 10.4857 7.52707 11.8641C7.70941 12.6175 7.78207 13.2593 7.75752 13.9003C7.70347 15.312 7.28269 15.9788 6.34018 16.1465C6.09099 16.1909 6.01609 16.1865 5.65744 16.1063C5.16511 15.9963 4.86957 15.8678 4.63233 15.6608C4.20807 15.2907 4.03583 14.8964 3.99942 14.2117C3.94254 13.143 4.36873 11.7086 5.20217 10.1636C6.0326 8.62431 6.21593 8.24687 6.40476 7.68757C6.67983 6.87307 6.75971 6.41437 6.75808 5.65891C6.75666 5.00686 6.71521 4.73907 6.54023 4.25098C6.31903 3.63402 6.04984 3.27497 5.23609 2.51149C3.9087 1.26606 2.62688 0.438476 1.55715 0.136223C1.05639 -0.00523029 0.416344 -0.0439253 0.217325 0.0553034ZM19.9715 0.954881C20.0465 1.02737 20.0465 16.8088 19.9715 16.8813C19.932 16.9194 18.8623 16.9311 15.4187 16.9311C11.3539 16.9311 10.915 16.9248 10.8914 16.8654C10.8771 16.8293 10.8653 13.2459 10.8653 8.90223C10.8653 2.81507 10.8772 0.993285 10.9169 0.954881C10.9918 0.882597 19.8966 0.882597 19.9715 0.954881ZM3.72868 2.31465C4.23692 2.706 4.67627 3.05845 4.70508 3.09781C4.74996 3.15909 4.7129 3.22419 4.44711 3.5509C4.27643 3.76073 4.10303 3.94378 4.06176 3.95765C3.97087 3.98821 1.96559 2.46984 1.96559 2.37049C1.96559 2.29891 2.54222 1.58509 2.62254 1.55723C2.70392 1.52904 2.74558 1.55752 3.72868 2.31465ZM12.3916 2.18781C12.297 2.23007 12.1674 2.31842 12.1037 2.38411C11.847 2.6485 11.8541 2.55637 11.8551 5.58492C11.856 8.19514 11.8607 8.36731 11.9357 8.52367C11.9795 8.61501 12.071 8.74015 12.139 8.80172C12.4128 9.04962 12.3174 9.04273 15.4536 9.04173C18.1565 9.04086 18.3348 9.03634 18.4968 8.96393C18.5913 8.92166 18.7209 8.83331 18.7847 8.76763C19.0413 8.50341 19.0342 8.59413 19.0342 5.57587C19.0342 2.55761 19.0413 2.64833 18.7847 2.38411C18.7209 2.31842 18.5913 2.23007 18.4968 2.18781C18.3348 2.1154 18.1575 2.11092 15.4442 2.11092C12.7309 2.11092 12.5536 2.1154 12.3916 2.18781ZM18.2342 2.9221C18.2486 2.95822 18.2603 4.15955 18.2603 5.59173C18.2603 7.56165 18.2477 8.2078 18.2087 8.2455C18.1341 8.31749 12.7542 8.31749 12.6797 8.2455C12.6406 8.2078 12.6281 7.56165 12.6281 5.59173C12.6281 4.15955 12.6398 2.95822 12.6542 2.9221C12.6776 2.86315 12.9635 2.85642 15.4442 2.85642C17.9249 2.85642 18.2108 2.86315 18.2342 2.9221ZM13.2515 10.4935C12.9847 10.599 12.9133 10.9345 13.1209 11.107L13.2348 11.2016H15.4606H17.6864L17.7767 11.1082C17.98 10.8979 17.9173 10.5892 17.6533 10.5003C17.4913 10.4458 13.3883 10.4395 13.2515 10.4935ZM21.1742 17.7133C21.2159 17.7389 21.2261 17.9235 21.2172 18.4911L21.2054 19.2354L15.5133 19.2459C11.3424 19.2537 9.80558 19.2439 9.76284 19.2097C9.68408 19.1466 9.67797 17.8037 9.75609 17.7283C9.79569 17.69 11.1211 17.6786 15.4635 17.6791C18.5743 17.6795 21.144 17.6948 21.1742 17.7133Z" fill="#161921"/>
</svg>
