<svg width="20" height="18" viewBox="0 0 20 18" fill="none" xmlns="http://www.w3.org/2000/svg">
<path fill-rule="evenodd" clip-rule="evenodd" d="M4.1806 0.0535491C3.78739 0.210117 3.51558 0.46382 3.34585 0.832627C3.30002 0.932177 3.14897 1.54057 3.01011 2.18458C2.87129 2.82859 2.74856 3.39078 2.73738 3.43392C2.71907 3.5044 2.60798 3.51378 1.63722 3.52678L0.557422 3.54122L0.378852 3.6723C0.250925 3.76623 0.170457 3.87562 0.0949743 4.05843C-0.00258372 4.29462 -0.00911834 4.3535 0.00646414 4.85598C0.0274083 5.53212 0.11374 5.78151 0.442145 6.11419C0.727656 6.40341 0.954524 6.48964 1.42996 6.48964C1.6332 6.48964 1.7992 6.50533 1.79887 6.52446C1.79849 6.54359 1.56295 6.90404 1.27539 7.32541L0.75258 8.09153L0.752454 11.632C0.752287 15.1106 0.753753 15.174 0.836064 15.2652C0.882141 15.3163 0.93869 15.3581 0.961729 15.3581C0.987113 15.3581 1.00362 15.5585 1.00362 15.8666C1.00362 16.8213 1.16485 17.2572 1.67626 17.6852C2.03424 17.9847 2.22039 18.013 3.72636 17.9962L5.04585 17.9815L5.2862 17.8507C5.60585 17.6768 5.89019 17.3527 6.04514 16.9857C6.1623 16.7082 6.17298 16.6388 6.19007 16.0453L6.2085 15.4045H10.032H13.8555L13.8699 16.0673C13.8838 16.7061 13.8892 16.7413 14.0204 17.0365C14.1818 17.3997 14.4449 17.6851 14.7776 17.858L15.0153 17.9815H16.4395H17.8637L18.1014 17.858C18.4341 17.6851 18.6971 17.3997 18.8585 17.0365C18.9891 16.7427 18.9953 16.7036 19.0093 16.0831L19.024 15.436L19.1664 15.2871L19.3088 15.1382V11.6316V8.12492L18.7608 7.31891L18.2128 6.51285L18.6456 6.48741C18.9084 6.47195 19.1398 6.43197 19.2347 6.38568C19.4707 6.27048 19.7898 5.91384 19.9012 5.64059C19.9887 5.42612 20 5.32959 20 4.79488C20 4.08949 19.9442 3.91319 19.6472 3.68052L19.4694 3.54122L18.393 3.52748L17.3165 3.51374L17.0508 2.27382C16.9047 1.59188 16.7484 0.953489 16.7036 0.855193C16.5761 0.57586 16.3059 0.281761 16.0475 0.141026L15.8112 0.0124105L10.0725 0.00252049C5.4223 -0.0055122 4.30472 0.00414573 4.1806 0.0535491ZM15.7776 0.829423C15.8989 0.894521 15.992 0.990634 16.0586 1.11962C16.1257 1.24944 16.3104 2.02114 16.6235 3.48021C16.8794 4.67249 17.0888 5.67016 17.0888 5.69733C17.0888 5.73206 14.9827 5.74673 10.0068 5.74673C3.28188 5.74673 2.92592 5.74264 2.94619 5.66547C2.95792 5.62076 3.15764 4.69621 3.39004 3.61087C3.90171 1.22098 3.90887 1.19261 4.04639 1.01144C4.26509 0.723327 3.90363 0.740042 10.0069 0.73591L15.5962 0.732102L15.7776 0.829423ZM2.53837 4.36539C2.52467 4.42287 2.45312 4.75718 2.37932 5.10829L2.24515 5.74673H1.64673H1.04831L0.909159 5.59248C0.832629 5.5077 0.747177 5.35378 0.719279 5.25047C0.653095 5.00568 0.65276 4.38981 0.718776 4.31663C0.754758 4.27675 1.02427 4.26091 1.66617 4.26091H2.56325L2.53837 4.36539ZM19.3005 4.31663C19.3631 4.38609 19.3671 5.00633 19.3064 5.24847C19.2823 5.34472 19.197 5.49618 19.1167 5.5851L18.9709 5.74673H18.3875H17.8041L17.7627 5.57261C17.7399 5.47687 17.6666 5.14256 17.5998 4.8297L17.4782 4.26091H18.3642C18.9974 4.26091 19.2645 4.27679 19.3005 4.31663ZM17.8359 7.19034C18.0966 7.57572 18.2987 7.90339 18.2851 7.91844C18.2716 7.93348 17.8117 8.00224 17.2632 8.0712C16.6436 8.14911 16.2179 8.22419 16.1391 8.26941C15.9137 8.39854 15.7792 8.6274 15.2113 9.84675C14.7427 10.853 14.6578 11.0665 14.6806 11.1815C14.7362 11.4619 14.7055 11.4578 16.763 11.4578H18.6386V12.0386V12.6193L16.0347 12.6074L13.4307 12.5954L13.1032 11.5043C12.8507 10.6632 12.7509 10.3892 12.6679 10.3086L12.5601 10.2042L10.0387 10.2049C8.10152 10.2054 7.49301 10.219 7.41254 10.2638C7.32323 10.3135 7.25575 10.491 6.95411 11.4703L6.60041 12.6186H4.01145H1.4225V12.0382V11.4578H3.29433C5.15848 11.4578 5.16653 11.4574 5.26308 11.3569C5.32151 11.296 5.36001 11.202 5.36001 11.1202C5.36001 10.9132 4.26563 8.59281 4.08304 8.41265C3.88571 8.21792 3.75497 8.18379 2.76293 8.06785C2.29064 8.01269 1.86271 7.95363 1.81198 7.93668C1.72657 7.90808 1.75535 7.85334 2.20012 7.19772L2.68049 6.48964H10.0213H17.362L17.8359 7.19034ZM2.59538 8.79191C3.35448 8.88491 3.59517 8.93014 3.64707 8.98957C3.68406 9.03192 3.88675 9.4375 4.09745 9.89076L4.48056 10.7149H2.95151H1.4225V9.69343V8.67193L1.51675 8.67161C1.56857 8.67142 2.05397 8.72556 2.59538 8.79191ZM18.6386 9.69343V10.7149H17.1097C16.2688 10.7149 15.5808 10.7074 15.5808 10.6981C15.5808 10.6888 15.7613 10.2918 15.9819 9.81592C16.2843 9.1635 16.4054 8.94458 16.474 8.92642C16.6124 8.88983 18.2577 8.68354 18.4606 8.67736L18.6386 8.67193V9.69343ZM12.4566 11.7249C12.5853 12.1526 12.6905 12.5183 12.6905 12.5374C12.6905 12.5565 11.4841 12.5722 10.0096 12.5722C8.53515 12.5722 7.32876 12.5663 7.32876 12.559C7.32876 12.5244 7.7856 11.0381 7.80927 10.9957C7.82757 10.9628 8.54726 10.9471 10.0296 10.9471H12.2228L12.4566 11.7249ZM3.6007 13.9884V14.6152H2.5116H1.4225V13.9884V13.3615H2.5116H3.6007V13.9884ZM15.7902 13.9809V14.6002L14.5267 14.6309C12.8949 14.6706 7.16628 14.6706 5.53439 14.6309L4.27091 14.6002V13.9809V13.3615H10.0306H15.7902V13.9809ZM18.6386 13.9884V14.6152H17.5495H16.4604V13.9884V13.3615H17.5495H18.6386V13.9884ZM5.52111 15.9733C5.50779 16.4753 5.49376 16.5664 5.4016 16.749C5.34418 16.8628 5.21545 17.0195 5.11555 17.0972L4.93392 17.2386H3.6007H2.26747L2.08585 17.0972C1.98594 17.0195 1.85722 16.8628 1.79979 16.749C1.70764 16.5664 1.6936 16.4753 1.68028 15.9733L1.6652 15.4045H3.6007H5.53619L5.52111 15.9733ZM18.3445 15.9501C18.3435 16.5559 18.2885 16.7631 18.0679 16.9924C17.8215 17.2485 17.7413 17.2618 16.4395 17.2618C15.1376 17.2618 15.0575 17.2485 14.811 16.9924C14.5905 16.7631 14.5355 16.5559 14.5345 15.9501L14.5336 15.4045H16.4395H18.3454L18.3445 15.9501Z" fill="#161921"/>
</svg>
