<svg width="40" height="40" viewBox="0 0 40 40" fill="none" xmlns="http://www.w3.org/2000/svg">
<path fill-rule="evenodd" clip-rule="evenodd" d="M28.4157 0.206716C28.2209 0.402681 28.2108 0.462932 28.2108 1.41771V2.42249L27.6223 2.65493L27.0338 2.88744L26.3495 2.20527C25.9631 1.82015 25.5631 1.49822 25.4309 1.46578C25.2143 1.41267 25.0966 1.50847 23.866 2.73879C22.2191 4.38524 22.2439 4.2823 23.2475 5.29734L23.9599 6.01783L23.7586 6.47548C23.6481 6.72715 23.5353 6.99925 23.5081 7.08017C23.4645 7.20959 23.3349 7.22723 22.4256 7.22723C21.5308 7.22723 21.3741 7.24782 21.2545 7.38093C21.1345 7.51437 21.1163 7.7842 21.1163 9.42939C21.1163 11.5037 21.1112 11.4815 21.6226 11.5868C21.8695 11.6377 21.7883 11.7185 18.9721 14.2252L16.0668 16.8111L16.0251 15.2895C15.9872 13.9076 15.9685 13.7569 15.8213 13.6488C15.6899 13.5522 15.1814 13.5297 13.1356 13.5297H10.612L10.4391 13.7511C10.2788 13.9562 10.266 14.0824 10.266 15.4605V16.9484L9.91133 17.0543C9.71619 17.1124 9.27742 17.2893 8.93622 17.4473L8.31583 17.7346L7.25977 16.6825C6.32147 15.7478 6.17181 15.6305 5.918 15.6305C5.65734 15.6305 5.4774 15.7866 3.85945 17.417C2.3652 18.9227 2.0866 19.2417 2.0866 19.4475C2.0866 19.6475 2.27706 19.8855 3.14008 20.7636L4.19364 21.8357L3.85177 22.638C3.66381 23.0793 3.48612 23.5361 3.4569 23.653L3.4039 23.8657H1.87493H0.345958L0.17302 24.0871C0.00692749 24.2997 0 24.407 0 26.78V29.2515L0.204904 29.4577C0.407136 29.6614 0.42842 29.664 1.9094 29.664H3.40908L3.5089 29.9791C3.56382 30.1525 3.74152 30.6093 3.90385 30.9944L4.1989 31.6945L3.14275 32.7602C2.26646 33.6444 2.0866 33.8683 2.0866 34.0747C2.0866 34.2865 2.35017 34.5888 3.86237 36.1113C5.37457 37.6338 5.67479 37.8992 5.8852 37.8992C6.09019 37.8992 6.31253 37.7181 7.19074 36.8358L8.24923 35.7725L8.94465 36.0695C9.32716 36.233 9.78096 36.4119 9.95306 36.4672L10.266 36.5677V38.0776C10.266 39.5687 10.2686 39.5901 10.471 39.7937L10.6758 40H13.1305C15.4875 40 15.594 39.993 15.8051 39.8258L16.0251 39.6517V38.1165V36.5813L16.3798 36.475C16.5749 36.4166 17.0272 36.2344 17.3848 36.0702L18.0353 35.7717L19.103 36.8354C19.9808 37.7099 20.2143 37.8992 20.4148 37.8992C20.6212 37.8992 20.9318 37.6241 22.4317 36.1127C24.0454 34.4866 24.2045 34.3006 24.2045 34.0401C24.2045 33.7865 24.0856 33.633 23.1548 32.6859L22.105 31.6177L22.3517 31.124C22.4874 30.8525 22.6662 30.4129 22.749 30.1472L22.8995 29.664H24.3754C25.7421 29.664 25.8675 29.6511 26.0712 29.4898L26.2911 29.3157V26.7748C26.2911 24.7151 26.2687 24.2031 26.1728 24.0708C26.0654 23.9227 25.9158 23.9039 24.5432 23.8657L23.0319 23.8237L25.6003 20.8986C28.09 18.0632 28.1703 17.9814 28.2209 18.2301C28.3254 18.7453 28.302 18.7397 30.3781 18.7397C32.1094 18.7397 32.2866 18.7264 32.4128 18.586C32.5254 18.4607 32.5509 18.2432 32.5509 17.407C32.5509 16.5054 32.5685 16.3755 32.6969 16.3317C32.7772 16.3043 33.0476 16.1908 33.2976 16.0794L33.7521 15.8768L34.4677 16.594C35.4759 17.6044 35.3736 17.6295 37.0089 15.9713C38.576 14.3825 38.5503 14.4997 37.5536 13.4859C37.1892 13.1152 36.8909 12.7749 36.8908 12.7296C36.8907 12.6844 36.9902 12.411 37.1119 12.1221L37.3334 11.5969H38.3262C39.2691 11.5969 39.3294 11.5865 39.5239 11.3906C39.7284 11.1848 39.7288 11.1808 39.7288 9.42721C39.7288 7.12589 39.7919 7.22723 38.3587 7.22723H37.3347L37.1129 6.65791C36.9908 6.3448 36.891 6.05422 36.891 6.01212C36.891 5.9701 37.2103 5.60716 37.6004 5.20574C37.9906 4.80423 38.3099 4.43121 38.3099 4.37676C38.3099 4.13424 37.9972 3.75063 36.9594 2.71955C35.901 1.66805 35.609 1.42897 35.3834 1.42897C35.3286 1.42897 34.9575 1.7504 34.5587 2.14325C34.16 2.5361 33.7995 2.85753 33.7578 2.85753C33.716 2.85753 33.4273 2.75703 33.1164 2.63417L32.5509 2.41081V1.37981C32.5509 -0.0631126 32.6515 0.000416082 30.3658 0.000416082C28.6241 0.000416082 28.6201 0.00083624 28.4157 0.206716ZM31.3824 2.08989C31.3824 3.12719 31.4942 3.38542 31.9885 3.49004C32.1372 3.52156 32.5738 3.69458 32.9589 3.87466C33.344 4.05474 33.758 4.20205 33.879 4.20205C34.0429 4.20205 34.2678 4.03096 34.7628 3.52962L35.4268 2.85719L36.1589 3.59088L36.891 4.32457L36.2233 5.00036C35.7332 5.49641 35.5556 5.73405 35.5556 5.8938C35.5556 6.01355 35.7019 6.42875 35.8808 6.81648C36.0596 7.20412 36.2315 7.64378 36.2628 7.79344C36.3667 8.29117 36.6232 8.40369 37.6534 8.40369H38.5603V9.41208V10.4205H37.6367C37.1287 10.4205 36.6436 10.4579 36.5587 10.5037C36.4711 10.5509 36.3242 10.8322 36.2187 11.1549C36.1165 11.4674 35.9256 11.9394 35.7943 12.2037C35.428 12.9415 35.4562 13.0563 36.1816 13.7818C36.5259 14.1261 36.8075 14.4475 36.8075 14.4959C36.8075 14.5444 36.5081 14.8838 36.1421 15.2501L35.4766 15.9161L34.8275 15.281C34.4706 14.9317 34.0966 14.6199 33.9967 14.5882C33.8708 14.5483 33.6014 14.633 33.1204 14.8636C32.7383 15.0468 32.2755 15.2376 32.0918 15.2875C31.4593 15.4597 31.3824 15.6146 31.3824 16.7174V17.5633H30.3808H29.3793L29.3801 17.0801L29.3809 16.5969L31.3093 14.412C33.6089 11.8064 33.9023 11.4236 34.1316 10.7301C34.6423 9.18494 34.3034 7.71563 33.174 6.57858C32.2578 5.65616 31.0661 5.25423 29.8237 5.44868C28.6995 5.62464 28.3889 5.83422 25.6958 8.23428L23.2447 10.4186L22.7648 10.4196L22.2848 10.4205V9.41208V8.40369H23.125C24.2203 8.40369 24.3742 8.3263 24.5452 7.68941C24.5948 7.50454 24.7842 7.03858 24.9662 6.65388C25.1953 6.16951 25.2794 5.89834 25.2397 5.77153C25.2082 5.67095 24.8986 5.29448 24.5516 4.93507L23.9208 4.28155L24.5823 3.61156C24.9462 3.24307 25.2833 2.94156 25.3314 2.94156C25.3795 2.94156 25.6988 3.22517 26.0407 3.57181C26.7613 4.30214 26.8753 4.33054 27.6081 3.96172C27.8707 3.82954 28.3395 3.63727 28.6498 3.53441C28.9703 3.4282 29.2497 3.2803 29.2966 3.19206C29.3421 3.1066 29.3793 2.6182 29.3793 2.10678V1.17687H30.3808H31.3824V2.08989ZM31.5961 6.84782C32.166 7.12858 32.6546 7.62664 32.9437 8.22151C33.1372 8.61974 33.1749 8.80629 33.1755 9.36965C33.1762 9.93451 33.1378 10.1264 32.9357 10.5673C32.1344 12.3163 29.8995 12.7692 28.4731 11.4717C27.8218 10.8794 27.4603 9.81695 27.6178 8.95873C27.8293 7.80706 28.6283 6.93639 29.7548 6.62976C30.2101 6.50589 31.1207 6.61371 31.5961 6.84782ZM29.5474 7.79084C28.4301 8.38193 28.2216 9.78317 29.1169 10.6846C30.0123 11.586 31.404 11.3761 31.9911 10.2512C32.8346 8.63495 31.1527 6.9416 29.5474 7.79084ZM30.8436 8.94612C30.9728 9.07612 31.0485 9.24839 31.0485 9.41208C31.0485 9.71216 30.7294 10.0843 30.4721 10.0843C30.0528 10.0843 29.7131 9.74233 29.7131 9.32024C29.7131 9.06116 30.0828 8.73982 30.3808 8.73982C30.5434 8.73982 30.7145 8.81604 30.8436 8.94612ZM26.4504 9.91628C26.7171 11.7174 28.1081 13.1174 29.875 13.3632C30.2166 13.4107 30.5075 13.4611 30.5215 13.4753C30.5786 13.5326 28.9445 15.2944 28.8343 15.2944C28.6525 15.2944 27.7047 14.9198 27.3761 14.7181C27.2155 14.6194 27.0137 14.5386 26.9278 14.5384C26.8418 14.5382 26.4556 14.8485 26.0695 15.228L25.3675 15.9178L24.6433 15.1887L23.9191 14.4596L24.6043 13.7528C24.9812 13.3641 25.2895 12.9981 25.2895 12.9395C25.2895 12.881 25.1595 12.5609 25.0006 12.2283C24.8418 11.8957 24.6666 11.4537 24.6115 11.2463L24.5113 10.8692L24.8796 10.53C25.4782 9.97863 26.3236 9.24856 26.3409 9.26797C26.3498 9.27788 26.3991 9.56964 26.4504 9.91628ZM23.7564 12.3297L23.9519 12.8142L23.2436 13.5308C22.2524 14.5335 22.2312 14.4396 23.8071 16.0287C25.3843 17.6191 25.2921 17.598 26.29 16.598L27.0017 15.8848L27.4855 16.0828C27.7515 16.1916 27.9726 16.3094 27.9768 16.3444C27.9862 16.4236 22.6006 22.5908 22.5148 22.5992C22.4806 22.6025 22.3716 22.4319 22.2727 22.2199L22.0928 21.8346L23.1487 20.7692C24.0275 19.8824 24.2045 19.6618 24.2045 19.4536C24.2045 19.2399 23.9456 18.9425 22.4317 17.417C20.9124 15.886 20.623 15.6305 20.4088 15.6305C20.2001 15.6305 19.9842 15.806 19.1006 16.6935L18.0425 17.7566L17.6597 17.5754C17.4492 17.4759 17.2798 17.3662 17.2831 17.3317C17.2919 17.2423 23.4817 11.7656 23.5249 11.809C23.5446 11.8289 23.6488 12.0632 23.7564 12.3297ZM14.8566 16.0982C14.8566 16.8639 14.8889 17.5539 14.9283 17.6318C14.9865 17.7469 14.4854 18.2296 12.2512 20.2103C10.7394 21.5506 9.30171 22.8677 9.05641 23.1371C7.55297 24.7886 7.25651 27.2885 8.31926 29.3531C8.74258 30.1755 9.758 31.1978 10.5749 31.624C12.6095 32.6857 15.1132 32.3896 16.7345 30.8956C17.0099 30.6418 18.3245 29.1884 19.6557 27.6659C21.6231 25.4159 22.1025 24.9113 22.2167 24.97C22.2941 25.0097 22.9795 25.0422 23.7399 25.0422H25.1226V26.7648V28.4875H23.6749C22.4013 28.4875 22.2116 28.5052 22.0975 28.6346C22.0261 28.7154 21.8492 29.1409 21.7042 29.5799C21.5593 30.019 21.2926 30.6553 21.1116 30.994C20.9306 31.3326 20.7825 31.6884 20.7825 31.7848C20.7825 31.8961 21.1544 32.3387 21.8022 32.9984L22.822 34.037L21.617 35.2522L20.4121 36.4676L19.4005 35.4607C18.2383 34.3039 18.2129 34.2948 17.4157 34.7432C17.1329 34.9023 16.5071 35.1655 16.0251 35.328C15.4935 35.5073 15.0913 35.6946 15.0026 35.8042C14.8763 35.9605 14.8566 36.1775 14.8566 37.4043V38.8235H13.1456H11.4345V37.369C11.4345 36.3354 11.4043 35.8744 11.3302 35.7758C11.2729 35.6995 10.9066 35.5365 10.5164 35.4136C10.1262 35.2906 9.47907 35.0244 9.07836 34.822C8.67757 34.6195 8.265 34.4538 8.16142 34.4538C8.03214 34.4538 7.65271 34.7758 6.94911 35.4824L5.92501 36.511L4.69517 35.2728L3.46533 34.0346L4.48701 33.0035C5.18886 32.2951 5.50861 31.9131 5.50861 31.7829C5.50861 31.6787 5.3441 31.2633 5.14296 30.8598C4.94189 30.4563 4.67748 29.8047 4.55537 29.4119C4.43326 29.019 4.27143 28.6504 4.19564 28.5926C4.09766 28.5179 3.63977 28.4875 2.61317 28.4875H1.16849V26.7648V25.0422H2.57811C3.7966 25.0422 4.01211 25.0223 4.16735 24.8951C4.27627 24.8059 4.46231 24.4009 4.64034 23.8657C4.80176 23.3804 5.06317 22.7503 5.22125 22.4656C5.66661 21.663 5.65751 21.6374 4.50855 20.4673L3.50848 19.4488L4.71562 18.2356L5.92268 17.0224L6.9542 18.0491C7.60948 18.7014 8.04908 19.0758 8.15959 19.0758C8.25532 19.0758 8.60871 18.9268 8.94507 18.7445C9.28143 18.5622 9.91341 18.2938 10.3495 18.1479C10.7856 18.0019 11.2081 17.8238 11.2885 17.7519C11.417 17.637 11.4345 17.446 11.4345 16.1637V14.7061H13.1456H14.8566V16.0982ZM21.6369 18.2134C22.2687 18.8483 22.7856 19.4066 22.7856 19.4542C22.7856 19.5017 22.3349 19.9932 21.7841 20.5464C21.2332 21.0996 20.7825 21.6141 20.7825 21.6898C20.7825 21.7654 20.9742 22.2314 21.2085 22.7252C21.5889 23.527 21.6215 23.6383 21.5125 23.7654C21.4455 23.8437 20.7708 24.6128 20.0133 25.4746L18.6361 27.0414L18.5892 26.3149C18.5375 25.5114 18.2221 24.5083 17.8182 23.8628C17.4883 23.3356 16.6615 22.4883 16.1306 22.1336C15.4442 21.6749 14.4422 21.3395 13.5924 21.2841L12.8709 21.2369L14.4271 19.8503C15.283 19.0876 16.0469 18.4083 16.1247 18.3408C16.2509 18.2312 16.3615 18.2639 17.1578 18.6469C17.6483 18.8828 18.1111 19.0758 18.1863 19.0758C18.2615 19.0758 18.7724 18.6221 19.3219 18.0675C19.8713 17.5128 20.3585 17.0591 20.4045 17.0591C20.4506 17.0591 21.0051 17.5785 21.6369 18.2134ZM14.2136 22.5623C17.3564 23.3865 18.5077 27.2514 16.3254 29.6514C14.954 31.1596 12.5765 31.4641 10.886 30.3483C9.60193 29.5006 8.93063 28.2581 8.93063 26.7292C8.93063 25.4681 9.30171 24.5628 10.1734 23.6971C11.059 22.8175 11.9112 22.4532 13.1072 22.4427C13.4533 22.4397 13.9511 22.4935 14.2136 22.5623ZM12.7152 24.2896C11.5527 24.5204 10.7759 25.4091 10.7033 26.5911C10.6526 27.4191 10.8731 27.9898 11.4599 28.5485C12.024 29.0856 12.5706 29.2808 13.3528 29.2244C15.0031 29.1055 16.0199 27.5112 15.483 25.8841C15.1271 24.8052 13.8433 24.0656 12.7152 24.2896ZM13.932 25.6966C14.63 26.2204 14.6259 27.3124 13.9238 27.8392C13.6093 28.0753 12.9558 28.1242 12.5714 27.9405C11.7267 27.5369 11.6073 26.2483 12.3629 25.691C12.8077 25.3629 13.4906 25.3654 13.932 25.6966Z" fill="#F02801"/>
</svg>
