<svg width="40" height="40" viewBox="0 0 40 40" fill="none" xmlns="http://www.w3.org/2000/svg">
<path fill-rule="evenodd" clip-rule="evenodd" d="M13.8903 0.279833C12.7137 0.716328 12.3479 0.870928 11.5817 1.25563C10.9454 1.57508 10.8825 1.59159 10.6654 1.49629C10.5371 1.44004 10.2162 1.39239 9.95222 1.39043C9.39862 1.38637 9.00736 1.56412 7.7072 2.41044C5.54269 3.81936 3.79509 5.57888 2.3957 7.75814C1.55512 9.06716 1.37856 9.46109 1.38261 10.0185C1.38455 10.2842 1.43187 10.6074 1.48775 10.7365C1.5824 10.955 1.56608 11.0184 1.25112 11.6542C0.883091 12.3974 0.414116 13.5546 0.136771 14.4041C-0.0751416 15.0531 -0.0420375 15.5581 0.24471 16.0507C0.546221 16.5686 0.929716 16.7814 2.15449 17.1098C2.75542 17.271 3.26511 17.421 3.2871 17.4431C3.30909 17.4652 3.29239 17.6395 3.24988 17.8303C2.92949 19.2698 2.83219 22.0672 3.04333 23.7687C3.48107 27.2963 4.91464 30.6142 7.1972 33.3826C10.0472 36.8392 14.1387 39.1389 18.7083 39.8528C19.9386 40.0449 22.6522 40.0452 23.9422 39.8534C30.6612 38.8538 36.2587 34.2933 38.6355 27.882C39.0062 26.8822 39.4042 25.2978 39.5817 24.1153C39.777 22.8133 39.7786 20.0934 39.5845 18.8342C38.8746 14.2271 36.5916 10.1122 33.1519 7.24004C30.3619 4.9104 27.1614 3.50922 23.6094 3.06248C21.9194 2.8499 19.1409 2.94786 17.7112 3.27044C17.5216 3.31323 17.351 3.33248 17.3319 3.31323C17.3128 3.29399 17.1629 2.77957 16.9989 2.17001C16.6639 0.925617 16.4551 0.546628 15.9357 0.240088C15.3743 -0.0911759 14.8635 -0.0812396 13.8903 0.279833ZM15.1971 1.64354C15.2721 1.73453 16.3801 5.80733 16.3747 5.97195C16.3734 6.01052 15.9353 6.21433 15.4012 6.42472C11.3186 8.03307 7.98027 11.3941 6.3828 15.5046C6.17384 16.0423 5.96784 16.4833 5.9251 16.4847C5.71536 16.4909 1.71466 15.3682 1.62273 15.2774C1.53328 15.1889 1.54409 15.0889 1.69212 14.6367C1.93318 13.9003 2.56697 12.4197 2.93726 11.728C3.28905 11.0709 3.33295 10.6756 3.08871 10.363C3.00323 10.2537 2.93329 10.0979 2.93329 10.017C2.93329 9.84689 3.66897 8.60837 4.31535 7.69015C4.90757 6.84885 6.76715 4.97831 7.62266 4.36328C8.57047 3.6819 9.77481 2.95169 9.95075 2.95169C10.0311 2.95169 10.1858 3.02211 10.2945 3.10817C10.6086 3.35689 11.0147 3.31175 11.6598 2.95623C12.3164 2.59453 13.2615 2.17517 14.24 1.81128C15.0374 1.51476 15.0842 1.50654 15.1971 1.64354ZM23.8759 4.66966C28.0716 5.36654 31.5941 7.38377 34.3312 10.6571C37.4478 14.3841 38.8293 19.6786 37.9401 24.4873C37.049 29.3055 34.2043 33.4628 30.0534 36.0128C25.1803 39.0065 19.0179 39.2713 13.9018 36.707C10.4876 34.9957 7.8118 32.3069 6.19848 28.9661C4.86623 26.2075 4.34193 23.5752 4.49983 20.4381C4.54444 19.5527 4.74625 18.0434 4.84067 17.8896C4.85838 17.8607 5.10884 17.9031 5.3973 17.9837C6.05922 18.1685 6.23065 18.1656 6.66333 17.9625C6.95474 17.8258 7.17505 17.7967 7.98439 17.7882C8.93143 17.7782 8.97037 17.7708 9.53858 17.4954C10.3568 17.0988 10.7604 16.702 11.538 15.53C12.7482 13.7063 13.6154 12.8333 15.4278 11.6142C16.569 10.8466 16.9513 10.4514 17.3703 9.60591C17.6558 9.02992 17.6593 9.01153 17.6661 8.04113C17.6713 7.29599 17.7036 6.99993 17.7998 6.81317C18.0103 6.405 18.0296 6.01083 17.8672 5.43421C17.7852 5.14285 17.7414 4.8899 17.7701 4.87207C17.9229 4.77701 19.4219 4.57382 20.3013 4.52891C21.4409 4.47078 23.063 4.53462 23.8759 4.66966ZM11.9561 5.09513C11.3498 5.43343 11.478 6.39131 12.1465 6.51759C12.9631 6.67187 13.4252 5.72119 12.7937 5.18619C12.5346 4.96666 12.2431 4.93489 11.9561 5.09513ZM21.6612 6.3525C21.5377 6.42151 21.1715 6.98092 20.6554 7.88911C19.7318 9.51453 19.682 9.71193 20.101 10.0889C20.406 10.3631 20.7918 10.3795 21.0762 10.1301C21.3356 9.90275 22.8269 7.27541 22.8269 7.04586C22.8269 6.43528 22.1906 6.05676 21.6612 6.3525ZM16.0351 8.852C15.8254 9.35719 15.508 9.68235 14.7127 10.2066C12.6463 11.5688 11.4999 12.7233 10.1399 14.8114C9.43569 15.8927 8.93742 16.2523 8.14346 16.2523H7.75352L7.90614 15.8625C9.22012 12.5062 12.2981 9.38919 15.6776 7.99262L16.105 7.81596L16.1282 8.1937C16.1413 8.40596 16.1005 8.69435 16.0351 8.852ZM28.9659 8.56134C28.9018 8.58247 28.2254 8.95731 27.4628 9.39428C26.0665 10.1943 25.8575 10.3742 25.8575 10.7756C25.8575 11.1877 26.2381 11.558 26.6616 11.558C26.8761 11.558 29.2958 10.1782 29.6458 9.85635C29.8419 9.67609 29.8984 9.56069 29.8984 9.34045C29.8984 8.87633 29.3641 8.42998 28.9659 8.56134ZM5.35083 11.7454C4.93462 11.9776 4.84082 12.5062 5.1501 12.8763C5.50803 13.3046 6.1569 13.2662 6.395 12.8027C6.539 12.5223 6.53776 12.3125 6.39058 12.0258C6.19288 11.6411 5.75134 11.5219 5.35083 11.7454ZM19.6872 12.2314C17.3734 12.6521 15.2548 13.9874 13.8286 15.9239C11.0493 19.6979 11.5213 25.022 14.9238 28.2761C15.8937 29.2037 17.3733 30.1162 17.9072 30.1162C18.4741 30.1162 18.8212 29.5853 18.6011 29.0549C18.5079 28.8304 18.3788 28.7237 17.9173 28.4899C15.8308 27.4328 14.4228 25.6893 13.795 23.3857C13.661 22.8941 13.6303 22.5512 13.6253 21.4943C13.6182 19.9555 13.7499 19.3387 14.3528 18.0909C15.1633 16.4132 16.4206 15.1694 18.1105 14.3732C19.0681 13.922 19.8291 13.7432 21.0007 13.6941C22.1669 13.6451 22.9843 13.7673 24.0236 14.1459C26.5305 15.0592 28.4008 17.2876 28.9761 20.0469C29.1145 20.7108 29.0935 22.3423 28.9371 23.0672C28.7599 23.8895 28.3494 24.9069 27.9058 25.6242C27.1982 26.7682 25.9187 27.9199 24.639 28.5648C24.4176 28.6763 24.1816 28.8466 24.1145 28.943C23.797 29.3993 24.1562 30.1162 24.7023 30.1162C25.3142 30.1162 26.8992 29.1238 27.9023 28.1126C29.22 26.7843 30.077 25.1731 30.4863 23.2547C30.6836 22.3305 30.6726 20.5841 30.4635 19.6166C29.6267 15.7448 26.6922 12.8865 22.875 12.2252C22.0264 12.0782 20.5135 12.0811 19.6872 12.2314ZM30.988 14.1489C30.6885 14.2692 30.5274 14.4514 30.4758 14.7279C30.4216 15.0192 30.5936 15.4202 30.8266 15.5458C30.9164 15.5942 31.671 15.6264 32.7151 15.6264H34.4542L34.663 15.4069C35.0876 14.9607 34.8499 14.2333 34.2393 14.1103C33.8523 14.0324 31.1996 14.0639 30.988 14.1489ZM20.8004 15.4639C20.1987 16.0697 20.9027 17.0776 21.6542 16.6862C21.8773 16.5701 22.1275 16.2146 22.1275 16.0138C22.1275 15.8097 21.8737 15.4073 21.6927 15.3243C21.3526 15.1682 21.0465 15.2161 20.8004 15.4639ZM18.2809 16.0262C17.7995 16.305 17.7046 16.8968 18.0806 17.2754C18.3901 17.5871 18.7683 17.5878 19.1132 17.2774C19.6035 16.8364 19.3623 16.0685 18.7041 15.9745C18.5568 15.9534 18.3663 15.9767 18.2809 16.0262ZM23.7205 16.0262C23.2391 16.305 23.1442 16.8968 23.5203 17.2754C23.8298 17.5871 24.2079 17.5878 24.5529 17.2774C25.0431 16.8364 24.802 16.0685 24.1437 15.9745C23.9965 15.9534 23.806 15.9767 23.7205 16.0262ZM16.1724 18.1122C15.5797 18.5956 15.8724 19.4957 16.6225 19.4957C17.0341 19.4957 17.3872 19.1328 17.3872 18.7096C17.3872 18.1229 16.6211 17.7462 16.1724 18.1122ZM25.5611 18.1689C25.2697 18.4158 25.2027 18.681 25.3449 19.0239C25.6736 19.8157 26.79 19.5759 26.79 18.7135C26.79 18.5055 26.7301 18.3706 26.5629 18.2023C26.2682 17.9056 25.8869 17.8929 25.5611 18.1689ZM20.4401 18.4783C19.6368 18.731 18.9231 19.3572 18.5353 20.1498C18.0773 21.0854 18.1628 22.2895 18.7515 23.1935C19.4163 24.2144 20.7203 24.7812 21.8617 24.5455C23.1739 24.2744 24.1116 23.3303 24.3809 22.0091C24.6804 20.5395 23.7305 18.9688 22.2642 18.5093C21.7287 18.3415 20.9185 18.3278 20.4401 18.4783ZM6.69271 20.0426C6.17011 20.2702 6.02931 20.8718 6.41078 21.2472C6.52835 21.363 7.22898 21.8047 7.96784 22.229C9.1801 22.9251 9.33941 22.9959 9.59973 22.9542C9.99046 22.8915 10.238 22.5954 10.238 22.1906C10.238 21.9706 10.1864 21.827 10.0631 21.7043C9.87342 21.5155 7.34484 20.0478 7.09074 19.979C7.00526 19.9559 6.82614 19.9845 6.69271 20.0426ZM22.1946 20.187C23.0048 20.7269 23.1073 21.8584 22.4097 22.5609C21.4575 23.5195 19.9091 22.9343 19.8117 21.5789C19.7639 20.9145 20.0595 20.4016 20.6898 20.0551C21.0535 19.8552 21.794 19.9201 22.1946 20.187ZM32.8758 20.046C32.6322 20.1508 32.3851 20.5058 32.3851 20.751C32.3851 21.123 32.6289 21.3288 34.0418 22.1502C35.6423 23.0805 35.8227 23.1308 36.1988 22.7522C36.4913 22.4577 36.5146 21.9906 36.2511 21.7043C36.0478 21.4834 33.6049 20.0514 33.3176 19.9846C33.2107 19.9597 33.012 19.9874 32.8758 20.046ZM15.3608 20.9406C15.1147 21.1884 15.0671 21.4965 15.2222 21.839C15.3046 22.0213 15.7043 22.2767 15.9069 22.2767C16.1064 22.2767 16.4595 22.0249 16.5748 21.8002C16.9635 21.0436 15.9625 20.3348 15.3608 20.9406ZM26.2401 20.9406C25.8045 21.3791 26.0246 22.1027 26.6346 22.2376C26.9282 22.3025 27.2974 22.1055 27.4541 21.8002C27.8428 21.0436 26.8418 20.3348 26.2401 20.9406ZM16.1724 23.5889C15.5797 24.0724 15.8724 24.9724 16.6225 24.9724C17.0341 24.9724 17.3872 24.6095 17.3872 24.1863C17.3872 23.5996 16.6211 23.2229 16.1724 23.5889ZM25.5611 23.6457C25.2697 23.8926 25.2027 24.1577 25.3449 24.5006C25.5039 24.8838 25.8673 25.0603 26.2558 24.9431C26.6218 24.8327 26.79 24.6017 26.79 24.2093C26.79 23.5558 26.0616 23.2217 25.5611 23.6457ZM18.3499 25.4829C18.0873 25.5898 17.8535 25.9484 17.8535 26.2444C17.8535 26.6323 18.2048 26.971 18.6073 26.971C18.997 26.971 19.2265 26.8017 19.3362 26.4332C19.4522 26.0435 19.2772 25.6762 18.8999 25.5174C18.6014 25.3919 18.5774 25.3904 18.3499 25.4829ZM23.7895 25.4829C23.2837 25.6887 23.1403 26.3598 23.5203 26.7423C23.9389 27.1638 24.6083 26.9962 24.7776 26.4274C24.8917 26.0439 24.7142 25.6751 24.3395 25.5174C24.0411 25.3919 24.017 25.3904 23.7895 25.4829ZM31.5097 26.1882C31.2311 26.4088 31.1379 26.7226 31.2525 27.0545C31.3969 27.4726 32.7655 29.8107 32.9545 29.962C33.381 30.3034 34.0577 30.0155 34.1464 29.455C34.1885 29.1888 34.1213 29.0353 33.4275 27.8119C33.0065 27.0697 32.5675 26.3656 32.4519 26.2473C32.1949 25.9843 31.7985 25.9594 31.5097 26.1882ZM20.8004 26.4173C20.3649 26.8559 20.5849 27.5794 21.195 27.7143C21.4885 27.7792 21.8577 27.5822 22.0145 27.277C22.4032 26.5203 21.4021 25.8115 20.8004 26.4173ZM8.01548 27.55C7.72376 27.8437 7.68156 28.0949 7.86418 28.4505C8.05596 28.8238 8.26756 28.8599 10.1161 28.8336L11.8059 28.8097L11.9933 28.5901C12.1942 28.3548 12.2429 27.9384 12.1006 27.6709C11.9193 27.3295 11.6628 27.284 9.92324 27.284H8.27969L8.01548 27.55ZM20.8004 29.5469C20.4245 29.9254 20.5263 30.5337 21.0038 30.7619C21.3183 30.9121 21.3794 30.9123 21.6638 30.7643C22.3985 30.3817 22.1371 29.3182 21.3083 29.3182C21.1016 29.3182 20.9677 29.3785 20.8004 29.5469ZM27.5973 30.7249C27.507 30.7616 27.3566 30.8897 27.263 31.0095C27.0977 31.2211 27.0935 31.2772 27.1162 32.9789L27.1397 34.7305L27.3578 34.9192C27.6778 35.1961 28.1299 35.1792 28.4279 34.8792L28.655 34.6505V32.9154V31.1803L28.3908 30.9143C28.1237 30.6454 27.9152 30.5956 27.5973 30.7249ZM14.4066 32.208C13.6861 32.6312 13.0225 33.052 12.9318 33.1432C12.8175 33.2583 12.767 33.4074 12.767 33.6297C12.767 33.8925 12.8125 33.9912 13.0191 34.177C13.1795 34.3213 13.3566 34.4037 13.5063 34.4037C13.8123 34.4037 16.55 32.8289 16.6728 32.5823C16.9684 31.989 16.6636 31.4273 16.0502 31.4347C15.7722 31.438 15.4979 31.5671 14.4066 32.208ZM21.7778 32.6753C21.6923 32.7121 21.5656 32.8081 21.4961 32.8884C21.3401 33.0688 19.9725 35.4335 19.8755 35.6904C19.7761 35.9536 19.915 36.3958 20.1446 36.5472C20.3732 36.698 20.871 36.7074 21.058 36.5645C21.2856 36.3905 22.7641 33.7612 22.8058 33.4564C22.8375 33.2244 22.8048 33.1303 22.6219 32.9281C22.3869 32.6682 22.0371 32.5635 21.7778 32.6753Z" fill="#F02801"/>
</svg>
