<svg width="40" height="41" viewBox="0 0 40 41" fill="none" xmlns="http://www.w3.org/2000/svg">
<path fill-rule="evenodd" clip-rule="evenodd" d="M13.4793 0.0809198C11.6279 0.302403 9.65425 1.09389 7.95796 2.2949C3.79957 5.23926 0.962075 10.5066 0.150471 16.7883C-0.0283962 18.1721 -0.0533661 21.5473 0.105609 22.843C0.803017 28.5278 2.93494 33.1407 6.36222 36.3802C8.41066 38.3167 10.8051 39.5143 13.3544 39.8777C14.5599 40.0495 25.4798 40.0425 26.5469 39.8691C36.0274 38.3293 42.0188 25.5014 38.8958 13.4289C37.042 6.26285 32.1377 0.957167 26.5862 0.112092C25.9258 0.011545 24.8452 -0.00634555 19.9298 0.0017013C16.7025 0.00693566 13.7997 0.0425605 13.4793 0.0809198ZM20.6312 1.80787C19.8758 2.30974 18.3021 3.72481 17.9323 4.23473C17.8178 4.39255 17.6956 4.52184 17.6607 4.52215C17.6258 4.52247 17.0363 4.25903 16.3508 3.93677C15.6541 3.60927 14.9975 3.35083 14.8619 3.35083C14.6994 3.35083 14.3096 3.54325 13.6818 3.93341C13.1662 4.2538 12.7037 4.49294 12.654 4.46481C12.6044 4.43669 12.1763 4.1745 11.7027 3.88223C10.7087 3.2688 10.6487 3.25958 9.56377 3.5513C9.15377 3.66161 8.63098 3.80106 8.40209 3.86138L7.98593 3.97091L8.31886 3.69302C9.18323 2.97138 10.6922 2.17638 11.9456 1.78224C13.2259 1.37959 13.7897 1.33545 17.7556 1.32717L21.3661 1.31959L20.6312 1.80787ZM26.6973 1.52326C30.2689 2.15763 33.7129 5.06997 35.8336 9.24925C37.4896 12.5128 38.2739 15.9652 38.2739 19.9914C38.2739 24.1471 37.4588 27.6225 35.6998 30.9679C34.4237 33.3949 32.6462 35.4749 30.7752 36.7305C28.8143 38.0466 26.3372 38.8095 24.8777 38.5469C19.8087 37.6348 15.6684 31.9396 14.4836 24.2492C14.2377 22.6533 14.1625 21.2596 14.2142 19.2605C14.2815 16.6597 14.4918 15.1109 15.0725 12.9391C16.0762 9.18526 17.776 6.13824 20.0507 4.01489C21.5437 2.62115 23.0785 1.79826 24.85 1.44146C25.4135 1.32795 25.6591 1.33881 26.6973 1.52326ZM11.479 5.34301C12.1714 5.76496 12.516 5.9291 12.7102 5.92934C12.9088 5.92965 13.2279 5.77293 13.9208 5.33473L14.8619 4.73958L15.8206 5.15575C16.3478 5.38457 16.7913 5.59067 16.8061 5.61364C16.8209 5.63668 16.6834 5.88403 16.5006 6.16332C16.1292 6.73074 15.1014 8.64089 14.9547 9.03651L14.8597 9.29253L13.5254 8.66542C12.7367 8.29472 12.088 8.03831 11.9388 8.03831C11.7636 8.03831 11.404 8.21558 10.7617 8.61839L9.83677 9.19847L8.91189 8.61839C8.27258 8.21745 7.9096 8.03831 7.73623 8.03831C7.56302 8.03831 7.20121 8.21652 6.56689 8.61441L5.64842 9.1905L5.07045 8.80691C4.75258 8.59589 4.46077 8.39355 4.42206 8.35722C4.34449 8.28441 4.90714 7.37082 5.56102 6.50777L5.98068 5.95379L8.10695 5.36364C9.27637 5.03911 10.2972 4.76981 10.3754 4.76528C10.4535 4.76075 10.9502 5.02075 11.479 5.34301ZM25.4648 5.3834C24.2301 5.5934 23.1876 6.14098 22.1309 7.13441C19.8573 9.27214 18.3457 12.8817 17.8426 17.3742C17.7897 17.8469 17.7463 19.0246 17.7463 19.9914C17.7463 20.9582 17.7897 22.1359 17.8426 22.6086C18.5411 28.8464 21.2467 33.4266 24.8406 34.4546C25.6335 34.6814 26.8082 34.6978 27.5406 34.4921C31.0691 33.5017 33.7205 29.2636 34.5534 23.2829C34.7624 21.7823 34.7624 18.2005 34.5534 16.6999C33.726 10.7589 31.063 6.47535 27.5961 5.50895C27.0305 5.35129 26.0077 5.29106 25.4648 5.3834ZM26.9439 6.74683C27.7268 6.90262 28.4171 7.27175 29.1723 7.93847C31.6868 10.1589 33.3297 14.9219 33.3297 19.9914C33.3297 25.0484 31.6846 29.8259 29.1825 32.0353C28.4064 32.7205 27.726 33.0813 26.9078 33.2414C24.8426 33.6456 22.7135 32.1462 21.1759 29.2046L20.9076 28.6911L21.2 28.3061C21.9288 27.3462 22.6083 25.6993 22.9621 24.0348C23.2775 22.5509 23.3689 21.6427 23.3689 19.9914C23.3689 18.3401 23.2775 17.4319 22.9621 15.948C22.6079 14.2814 21.9288 12.6366 21.1977 11.6738L20.9031 11.2858L21.2867 10.58C21.7124 9.79682 22.284 8.96761 22.7748 8.4212C23.5157 7.59644 24.768 6.85238 25.6492 6.71332C26.2321 6.62129 26.3246 6.62371 26.9439 6.74683ZM8.94244 10.2C9.38832 10.4791 9.82346 10.6945 9.94123 10.6944C10.0631 10.6944 10.5625 10.4364 11.1406 10.0748L12.1313 9.45534L13.2214 9.96667C13.821 10.2478 14.3214 10.486 14.3333 10.4959C14.3452 10.5058 14.2407 10.8621 14.101 11.2878C13.8778 11.968 13.6636 12.7217 13.4832 13.4611L13.4278 13.6886L12.9125 13.212C12.3601 12.7013 12.0701 12.5793 11.76 12.7277C11.6527 12.779 11.1897 13.1688 10.7311 13.5938L9.8972 14.3667L9.10807 13.6188C8.22813 12.7849 7.95813 12.6153 7.62162 12.6846C7.48295 12.7132 7.05572 13.0503 6.52636 13.5489L5.6584 14.3664L4.86619 13.6352C3.56976 12.4385 3.51508 12.4257 2.72861 13.1346C2.1007 13.7006 2.10586 13.7558 2.63905 12.1789C2.9386 11.293 3.19671 10.637 3.56926 9.81487L3.70243 9.52104L4.57205 10.0688C5.13162 10.4211 5.52465 10.6164 5.67405 10.6164C5.82495 10.6164 6.22705 10.4139 6.82133 10.0383C7.71151 9.47589 7.74189 9.46354 7.94431 9.58284C8.05876 9.65026 8.50796 9.928 8.94244 10.2ZM20.7729 13.6674C22.0579 16.4652 22.3344 21.0443 21.4229 24.4363C21.2914 24.9259 21.0833 25.5763 20.9606 25.8816C20.7329 26.4482 20.3678 27.1789 20.3125 27.1789C20.2648 27.1789 19.7855 25.4899 19.6473 24.8351C19.005 21.7899 18.9893 18.3842 19.6038 15.382C19.8475 14.1913 20.2721 12.7814 20.3617 12.8655C20.4031 12.9044 20.5882 13.2653 20.7729 13.6674ZM4.50471 15.1577C5.69361 16.2588 5.63002 16.2606 6.88309 15.0887L7.77784 14.2519L8.6726 15.0887C9.92792 16.2627 9.8595 16.2612 11.0685 15.1416L12.025 14.2558L12.5713 14.7603C13.1153 15.2627 13.1174 15.2663 13.0676 15.6164C12.9429 16.4934 12.8416 17.5347 12.7882 18.4902L12.7302 19.5281L11.6938 18.933C10.2723 18.1167 10.0485 18.0162 9.78659 18.0758C9.66407 18.1036 9.17249 18.4936 8.6726 18.9595L7.77784 19.7934L6.88309 18.9566C5.61862 17.7741 5.70585 17.7735 4.41407 18.9722L3.38565 19.9266L2.68941 19.5563C2.30645 19.3527 1.86091 19.1081 1.69935 19.0127L1.40546 18.8392L1.46896 17.9505C1.50392 17.4616 1.57051 16.827 1.61695 16.5402L1.70143 16.0186L2.58844 15.1534C3.07627 14.6776 3.49577 14.2883 3.52057 14.2883C3.54546 14.2883 3.98834 14.6795 4.50471 15.1577ZM11.5524 20.3812C12.1863 20.7405 12.7165 21.0722 12.7306 21.1183C12.7836 21.2922 12.9781 23.8195 12.9383 23.8164C12.9154 23.8146 12.767 23.7091 12.6085 23.5819C12.41 23.4227 12.231 23.3508 12.0332 23.3508C11.7793 23.3508 11.6389 23.4502 10.8239 24.2068L9.90178 25.0628L8.9774 24.2068C7.74097 23.0617 7.79075 23.0616 6.57247 24.2087L5.66115 25.0668L4.73469 24.2087C3.9091 23.4442 3.77634 23.3508 3.51532 23.3508C3.12088 23.3508 2.89341 23.5367 2.36696 24.2894C2.0729 24.7097 1.90319 24.8893 1.86432 24.821C1.7686 24.6528 1.54187 23.0023 1.45307 21.8273C1.35102 20.478 1.35044 20.382 1.44391 20.382C1.48511 20.382 1.91051 20.593 2.38918 20.8508C3.61246 21.5096 3.58283 21.5146 4.73802 20.4551C5.25639 19.9797 5.70418 19.6266 5.73315 19.6706C5.76211 19.7146 6.19542 20.1036 6.69607 20.5351C7.91551 21.5859 7.84826 21.589 9.10175 20.4244C9.98168 19.6069 10.0796 19.5379 10.2324 19.6286C10.3244 19.6832 10.9184 20.0219 11.5524 20.3812ZM8.73868 25.8508C9.97969 27 9.92043 27.0005 11.1682 25.8326C12.237 24.8322 12.1091 24.8536 12.9147 25.5395C13.3249 25.8887 13.3315 25.9018 13.5608 26.8286C13.7539 27.6088 13.9835 28.3997 14.2353 29.1512C14.2714 29.259 14.1368 29.2221 13.5932 28.9754C12.4906 28.475 12.4108 28.5011 11.6101 29.6278L11.1745 30.2407L10.3206 29.452C9.17208 28.3911 9.21261 28.39 7.99325 29.5193L7.06887 30.3753L6.14673 29.5193C4.97589 28.4323 4.9401 28.427 4.07964 29.2101C3.74913 29.5109 3.45623 29.757 3.42868 29.757C3.35727 29.757 2.93594 28.7039 2.57188 27.6157C2.23479 26.6079 2.23054 26.6607 2.66976 26.4118C2.72145 26.3825 2.96066 26.0665 3.20129 25.7097L3.63884 25.0607L4.4894 25.8464C5.64991 26.9183 5.64892 26.9183 6.84797 25.8136C7.33654 25.3634 7.75296 24.9943 7.77343 24.9933C7.79391 24.9922 8.2283 25.3781 8.73868 25.8508ZM14.0037 30.6085L14.9832 31.0694L15.5487 32.1515C16.051 33.1124 16.3491 33.62 16.7428 34.1847C16.856 34.3471 16.8337 34.3721 16.2352 34.7511C15.891 34.9692 15.5689 35.1476 15.5195 35.1476C15.4701 35.1476 15.0389 34.9015 14.5613 34.6007C13.4368 33.8925 13.4048 33.8925 12.2724 34.6007C11.7917 34.9013 11.3713 35.1474 11.3381 35.1474C11.305 35.1475 10.8801 34.9015 10.3939 34.6007C9.24441 33.8896 9.20013 33.8894 8.08722 34.5867C7.61945 34.8797 7.19413 35.1431 7.14186 35.1719C6.93686 35.2853 5.17316 33.0733 4.37837 31.706L4.03536 31.116L4.4924 30.6925L4.94934 30.2688L5.84343 31.0961C6.33509 31.5511 6.80327 31.9448 6.88384 31.9708C7.16109 32.0606 7.48894 31.8562 8.33967 31.063L9.1928 30.2676L10.0459 31.0584C10.5151 31.4934 10.9826 31.8891 11.0846 31.9378C11.4701 32.1217 11.675 31.9725 12.3233 31.0353C12.6609 30.5471 12.9568 30.1476 12.9806 30.1476C13.0045 30.1476 13.4649 30.355 14.0037 30.6085ZM10.1744 36.046C10.7229 36.3757 11.24 36.6319 11.3574 36.6319C11.4788 36.632 11.9602 36.3848 12.508 36.0412L13.45 35.4503L13.7218 35.6449C14.6462 36.3068 15.3114 36.7101 15.4786 36.7101C15.5843 36.7101 16.1205 36.4312 16.6701 36.0904L17.6694 35.4706L18.2648 36.1099C18.9792 36.8769 20.0101 37.7617 20.796 38.2824L21.3709 38.6632L17.8413 38.6627C13.9186 38.6623 13.2425 38.6084 11.9144 38.1907C10.9134 37.8759 9.73615 37.2927 8.82441 36.6599L8.09097 36.1509L8.62108 35.81C8.91264 35.6226 9.16217 35.4671 9.17557 35.4646C9.18897 35.4621 9.63843 35.7238 10.1744 36.046Z" fill="#F02801"/>
</svg>
