<svg width="45" height="53" viewBox="0 0 45 53" fill="none" xmlns="http://www.w3.org/2000/svg">
<path d="M44.2832 4.97423C43.6841 4.13315 42.7903 3.57526 41.7662 3.40316C40.7423 3.23095 39.715 3.46614 38.874 4.0652L20.991 16.8026L18.9888 9.2609L18.886 8.90738C18.2051 6.56401 17.4332 3.90799 14.5484 3.82483L10.6348 3.71199L10.991 8.45044L12.538 8.33408L12.3109 5.31233L14.5036 5.37553C16.1773 5.42372 16.6698 6.84048 17.3962 9.34022L17.4916 9.66799L19.641 17.7642L18.183 18.8026L19.0831 20.0663L39.7738 5.32898C40.2773 4.9703 40.8936 4.82974 41.5089 4.93316C42.1243 5.03659 42.6607 5.37077 43.0194 5.87436C43.3781 6.37795 43.5186 6.99407 43.4152 7.60946C43.3118 8.22486 42.9776 8.76124 42.474 9.11992L29.9013 18.075L30.8013 19.3387L33.2611 17.5867C33.7625 17.2345 34.3738 17.0971 34.984 17.1996C35.5993 17.303 36.1357 17.6372 36.4944 18.1408C37.2389 19.1859 36.9943 20.642 35.9491 21.3864L32.3025 23.9837L33.2025 25.2474L35.5173 23.5987C36.0209 23.2401 36.6369 23.0995 37.2524 23.2029C37.8678 23.3063 38.4042 23.6406 38.7629 24.1441C39.5073 25.1892 39.2627 26.6452 38.2175 27.3896L35.2709 29.4884L36.1709 30.7521L37.8539 29.5533C38.3574 29.1947 38.9737 29.0544 39.589 29.1575C40.2044 29.2609 40.7407 29.5952 41.0994 30.0987C41.8439 31.1438 41.5993 32.5999 40.5542 33.3443L36.4474 36.2694L37.3474 37.5331L41.4542 34.608C43.1961 33.3672 43.6038 30.9406 42.3631 29.1987C41.8094 28.4212 41.0038 27.8857 40.0762 27.6732C40.9592 26.3699 40.9921 24.5997 40.0266 23.244C39.4786 22.4746 38.6835 21.9431 37.7679 21.7262C38.6889 20.418 38.7378 18.6162 37.7582 17.2408C37.2656 16.549 36.5734 16.0489 35.7736 15.7973L43.3742 10.3836C44.2153 9.78455 44.7732 8.89062 44.9453 7.86669C45.1174 6.84244 44.8822 5.8153 44.2832 4.97423Z" fill="#FFC000"/>
<path d="M28.6612 41.8153L19.9123 44.238L16.8377 46.4125L6.94242 32.4212L10.0894 30.1919L13.2315 17.554L12.6546 9.8811L11.1076 9.99736L11.6657 17.4216L8.72262 29.2588L0.982286 34.7421C0.476111 35.0999 0.139556 35.6351 0.0342668 36.249C-0.0710227 36.8628 0.0681913 37.4796 0.426155 37.9857L10.3191 51.973C10.677 52.4791 11.2122 52.8158 11.8261 52.921C11.9598 52.944 12.0935 52.9554 12.2264 52.9553C12.7033 52.9553 13.167 52.8091 13.5628 52.5292L18.6293 48.9458L17.7335 47.6791L20.587 45.6608L29.3386 43.2374L33.5567 40.2329L32.6567 38.9695L28.6612 41.8153ZM12.667 51.2627C12.4993 51.3813 12.2938 51.4273 12.0884 51.3921C11.883 51.3569 11.7045 51.2451 11.5859 51.0773L1.69294 37.09C1.57431 36.9222 1.52839 36.7167 1.56355 36.5113C1.59872 36.3059 1.71052 36.1275 1.8788 36.0084L5.67656 33.3182L16.467 48.5751L12.667 51.2627Z" fill="#FFC000"/>
<path d="M33.9336 38.093L35.198 37.1932L36.0978 38.4576L34.8334 39.3574L33.9336 38.093Z" fill="#FFC000"/>
<path d="M20.1836 1.0791L21.6094 0.467839L23.937 5.89696L22.5112 6.50822L20.1836 1.0791Z" fill="#FFC000"/>
<path d="M25.5547 0H27.1061V5.43H25.5547V0Z" fill="#FFC000"/>
<path d="M28.7246 5.90527L31.0522 0.476154L32.478 1.08742L30.1504 6.51654L28.7246 5.90527Z" fill="#FFC000"/>
<path d="M26.1211 26.2397L27.3871 25.343L28.2838 26.609L27.0178 27.5057L26.1211 26.2397Z" fill="#FFC000"/>
<path d="M27.8867 28.8015L29.1526 27.9064L30.0478 29.1724L28.7819 30.0675L27.8867 28.8015Z" fill="#FFC000"/>
</svg>
