<svg width="51" height="35" viewBox="0 0 51 35" fill="none" xmlns="http://www.w3.org/2000/svg">
<path d="M12.4849 16.2535L8.48037 15.3898C7.3811 15.1543 6.36035 16.018 6.36035 17.1172V18.7662C6.36035 20.101 7.3811 20.4151 8.63741 20.4151H13.0345C13.8982 20.4151 14.7619 20.258 14.7619 19.3158V19.0802C14.7619 17.6669 13.8197 16.4891 12.4849 16.2535ZM7.85222 18.7662C7.85222 18.6876 7.85222 18.6876 7.85222 17.0387C7.85222 16.8817 8.00926 16.7247 8.1663 16.8032L12.1708 17.6669C12.7204 17.8239 13.113 18.295 13.1915 18.8447C10.4434 18.8447 8.08778 18.8447 7.85222 18.7662Z" fill="#FFC000"/>
<path d="M48.1324 7.85194L42.479 5.18228C40.5945 4.31856 38.553 4.00449 36.59 4.39708L35.7263 2.66966C35.0981 1.09927 33.6063 0 31.8789 0H13.5053C11.7779 0 10.286 1.02075 9.65788 2.59114L6.59563 8.95121C5.88895 7.93045 4.71116 7.3023 3.45485 7.3023H2.12002C0.942232 7.3023 0 8.24453 0 9.42232V10.286C0 11.4638 0.942232 12.4061 2.12002 12.4061H4.16153C3.29781 13.5053 2.90522 14.9187 2.90522 16.332V21.0432C2.90522 22.8491 3.53337 24.5766 4.78968 26.0684V29.6018C4.78968 31.1722 6.04599 32.4285 7.61638 32.4285H10.5216C12.092 32.4285 13.3483 31.1722 13.3483 29.6018V28.1884H29.0522C32.507 32.8996 37.9248 34.9411 38.0034 34.9411C38.1604 35.0196 38.3174 35.0196 38.553 34.9411C38.6315 34.8626 50.2524 30.6225 50.2524 20.0224V11.2283C50.2524 9.81492 49.3887 8.48009 48.1324 7.85194V7.85194ZM11.0712 3.21929C11.4638 2.19854 12.4061 1.57039 13.5053 1.57039H31.8789C32.9781 1.57039 33.9204 2.19854 34.3915 3.29781L35.0982 4.78968C34.7841 4.8682 34.47 5.02524 34.1559 5.18228L28.5025 7.85194C27.2462 8.48009 26.3825 9.7364 26.3825 11.1497H7.14526C7.45934 10.6786 7.14526 11.4638 11.0712 3.21929V3.21929ZM1.57039 10.286V9.42232C1.57039 9.10825 1.80595 8.87269 2.12002 8.87269H3.45485C5.02524 8.87269 5.57487 10.286 5.73191 10.5216C5.65339 10.6786 5.57487 10.7572 5.41784 10.9142H2.12002C1.80595 10.8357 1.57039 10.6001 1.57039 10.286V10.286ZM11.7779 29.5233C11.7779 30.2299 11.2283 30.7796 10.5216 30.7796H7.53786C6.83118 30.8581 6.28155 30.2299 6.28155 29.5233V27.2462C7.22378 27.7959 8.32305 28.1099 9.42232 28.1099H11.7779V29.5233ZM9.3438 26.6181C6.51711 26.6181 4.31856 23.8699 4.31856 20.9647V16.2535C4.31856 14.9187 4.8682 13.6624 5.81043 12.6416H26.3825V19.5513H17.7454C17.3528 19.5513 16.9602 19.8654 16.9602 20.3365C16.9602 20.8076 17.2743 21.1217 17.7454 21.1217H26.461C26.5395 21.6713 26.5395 22.1425 26.6966 22.6136H17.7454C17.3528 22.6136 16.9602 22.9276 16.9602 23.3988C16.9602 23.8699 17.2743 24.184 17.7454 24.184H27.0107C27.3247 25.0477 27.6388 25.9114 28.1099 26.6181H9.3438ZM48.682 20.0224C48.682 28.7381 39.8878 32.7426 38.3174 33.3707C32.664 31.0937 27.9529 26.2255 27.9529 20.0224C27.9529 17.1172 27.9529 15.5468 27.9529 11.2283C27.9529 10.3646 28.424 9.65788 29.2092 9.26528L34.8626 6.59563C37.1397 5.49635 39.6523 5.49635 41.9293 6.59563L47.5827 9.26528C48.2894 9.65788 48.839 10.3646 48.839 11.2283V20.0224H48.682Z" fill="#FFC000"/>
<path d="M46.0123 11.0713L40.83 8.63723C39.2596 7.85204 37.2966 7.85204 35.7262 8.63723L30.6225 11.0713C30.3869 11.2284 30.1514 11.4639 30.1514 11.778V20.0225C30.1514 26.2256 35.5692 29.6019 37.9248 30.7797C38.1603 30.8582 38.3959 30.8582 38.6315 30.7797C40.987 29.6019 46.4049 26.2256 46.4049 20.0225V11.778C46.4049 11.4639 46.2478 11.2284 46.0123 11.0713V11.0713ZM44.913 20.0225C44.913 25.0478 40.5159 28.0315 38.3174 29.2093C35.7262 27.796 31.7218 24.9693 31.7218 20.0225V12.2491L36.4329 9.97206C37.6107 9.42243 39.0241 9.42243 40.2018 9.97206L44.913 12.2491V20.0225Z" fill="#FFC000"/>
<path d="M35.2558 19.7869C34.9417 19.5513 34.4706 19.6298 34.1566 19.9439C33.8425 20.258 33.9995 20.7291 34.3136 21.0432L37.2973 23.3203C37.6114 23.5558 38.0825 23.4773 38.3966 23.1632L42.7937 17.4313C43.0292 17.1172 42.9507 16.6461 42.6366 16.332C42.3226 16.0965 41.8514 16.175 41.5374 16.4891L37.6114 21.5928L35.2558 19.7869Z" fill="#FFC000"/>
</svg>
