<svg width="14" height="16" viewBox="0 0 14 16" fill="none" xmlns="http://www.w3.org/2000/svg">
<path d="M1.1665 14.6667V13.8333C1.1665 12.2862 1.78109 10.8025 2.87505 9.70854C3.96901 8.61458 5.45274 8 6.99984 8V8C8.54693 8 10.0307 8.61458 11.1246 9.70854C12.2186 10.8025 12.8332 12.2862 12.8332 13.8333V14.6667" stroke="white" stroke-width="1.5" stroke-linecap="round" stroke-linejoin="round"/>
<path d="M6.99984 8.00016C7.88389 8.00016 8.73174 7.64897 9.35686 7.02385C9.98198 6.39873 10.3332 5.55088 10.3332 4.66683C10.3332 3.78277 9.98198 2.93493 9.35686 2.30981C8.73174 1.68469 7.88389 1.3335 6.99984 1.3335C6.11578 1.3335 5.26794 1.68469 4.64281 2.30981C4.01769 2.93493 3.6665 3.78277 3.6665 4.66683C3.6665 5.55088 4.01769 6.39873 4.64281 7.02385C5.26794 7.64897 6.11578 8.00016 6.99984 8.00016V8.00016Z" stroke="white" stroke-width="1.5" stroke-linecap="round" stroke-linejoin="round"/>
</svg>
