<svg width="24" height="30" viewBox="0 0 24 30" fill="none" xmlns="http://www.w3.org/2000/svg">
<path fill-rule="evenodd" clip-rule="evenodd" d="M10.7404 0.0630668C8.6166 0.280684 6.48346 1.12188 4.71866 2.4376C4.07205 2.91972 2.96063 4.01619 2.47194 4.6541C1.1049 6.43864 0.305063 8.4442 0.0612684 10.6988C-0.27795 13.8356 0.805026 17.1551 2.97202 19.621L3.43172 20.1441L1.83561 22.8704C0.957766 24.3698 0.223059 25.6602 0.203051 25.7378C0.150783 25.94 0.274404 26.1637 0.464391 26.2107C0.568065 26.2364 1.42541 26.0922 2.81405 25.8155C4.01658 25.5759 5.00684 25.3877 5.01466 25.3971C5.02248 25.4067 5.34089 26.3403 5.72222 27.4719C6.11377 28.6337 6.46579 29.5789 6.53099 29.6432C6.6817 29.7919 6.98121 29.7892 7.12114 29.6381C7.18172 29.5726 8.00194 28.1992 8.94387 26.5861L10.6564 23.6531H12.0017H13.3469L15.1219 26.6899C16.0981 28.3601 16.9579 29.7882 17.0325 29.8633C17.1072 29.9385 17.234 30 17.3143 30C17.3945 30 17.5167 29.9385 17.5856 29.8633C17.657 29.7856 18.0133 28.8432 18.4121 27.6776C18.9635 26.0658 19.1355 25.6283 19.2176 25.6277C19.275 25.6273 20.2833 25.8208 21.458 26.0576L23.594 26.4882L23.7546 26.3705C24.0798 26.132 24.0691 26.108 22.2603 23.0222L20.5733 20.1441L21.0316 19.621C22.7083 17.707 23.6931 15.4491 23.9444 12.9419C24.2365 10.0293 23.3683 7.03616 21.5466 4.67517C19.0138 1.39282 14.8997 -0.363178 10.7404 0.0630668ZM13.1592 0.910819C16.5359 1.27293 19.5288 3.09695 21.3753 5.91819C22.7125 7.96135 23.3424 10.548 23.0805 12.9204C22.9208 14.3668 22.6161 15.386 21.9419 16.7292C21.4061 17.7966 20.8731 18.5544 20.0784 19.3792C17.0482 22.5238 12.5149 23.6222 8.37582 22.2147C6.226 21.4837 4.27078 20.0448 2.93662 18.2119C2.44423 17.5355 1.67893 16.0468 1.41716 15.2563C0.603279 12.7987 0.703937 10.0874 1.6982 7.68658C2.63447 5.42563 4.39219 3.46847 6.57187 2.26001C7.95263 1.49443 9.244 1.09825 11.0483 0.886586C11.4645 0.837754 12.5994 0.850812 13.1592 0.910819ZM10.9559 3.09701C6.15465 3.687 2.6333 8.00709 3.13634 12.6903C3.75672 18.4656 9.63592 22.0795 15.1301 20.0627C18.0521 18.9901 20.208 16.4299 20.7832 13.3494C20.9256 12.5865 20.9275 11.0989 20.7871 10.3383C20.1215 6.73455 17.3511 3.94422 13.7125 3.21265C12.9866 3.0667 11.6566 3.01095 10.9559 3.09701ZM13.5169 4.03587C14.5587 4.24243 15.6189 4.67742 16.5275 5.27105C17.1002 5.64525 18.2499 6.77749 18.6344 7.34598C19.2572 8.26673 19.6617 9.20984 19.8915 10.277C20.0801 11.153 20.0801 12.5269 19.8915 13.4029C19.2113 16.5619 16.7864 18.9541 13.5868 19.6224C12.7649 19.7941 11.3667 19.8087 10.5699 19.6539C8.89278 19.3281 7.5178 18.6082 6.33275 17.4355C5.15097 16.2659 4.45874 15.0079 4.11373 13.4029C3.92399 12.5203 3.92344 11.1476 4.11238 10.277C4.46471 8.65423 5.12234 7.45536 6.3072 6.27611C7.46498 5.12377 8.755 4.41298 10.3175 4.06642C11.2078 3.86896 12.6077 3.8556 13.5169 4.03587ZM11.7405 6.44963C11.6851 6.49142 11.3296 7.30449 10.9507 8.25653C10.5717 9.20856 10.2586 9.99084 10.2548 9.99497C10.251 9.9991 9.43066 10.0486 8.43178 10.1051C7.4329 10.1615 6.53911 10.2368 6.44554 10.2723C6.26928 10.3393 6.19042 10.5116 6.22575 10.7524C6.24311 10.8705 7.57567 12.0152 9.00568 13.1404L9.17936 13.2771L8.71325 15.0423C8.45684 16.0131 8.24709 16.8649 8.24709 16.9353C8.24709 17.1121 8.4606 17.3062 8.65495 17.3062C8.75838 17.3062 9.39015 16.9457 10.411 16.304L12.0055 15.3019L13.5959 16.304C14.6232 16.9515 15.2437 17.3062 15.3489 17.3062C15.5443 17.3062 15.7579 17.1124 15.7579 16.9353C15.7579 16.8649 15.5482 16.0131 15.2918 15.0423L14.8257 13.2771L14.9993 13.1404C16.4293 12.0152 17.7619 10.8705 17.7793 10.7524C17.8146 10.5117 17.7357 10.3393 17.5595 10.2721C17.4659 10.2363 16.5721 10.1609 15.5732 10.1045C14.5744 10.048 13.754 9.99856 13.7503 9.99467C13.7464 9.99072 13.4333 9.20856 13.0543 8.25653C12.6754 7.30449 12.3199 6.49142 12.2645 6.44963C12.2091 6.40791 12.0912 6.37371 12.0025 6.37371C11.9139 6.37371 11.796 6.40791 11.7405 6.44963ZM12.5503 9.31801C12.8345 10.0354 13.1169 10.6669 13.1778 10.7213C13.2662 10.8002 13.5651 10.8371 14.6617 10.9043C15.417 10.9507 16.0843 10.9957 16.1445 11.0043C16.2169 11.0147 15.8755 11.3266 15.1399 11.9221C14.5271 12.4182 13.996 12.8886 13.9596 12.9673C13.9058 13.0838 13.9619 13.3681 14.2612 14.4947C14.4634 15.256 14.6212 15.8888 14.6119 15.9009C14.6026 15.9129 14.0463 15.5782 13.3757 15.1569C12.6503 14.7012 12.0941 14.391 12.0025 14.391C11.911 14.391 11.3547 14.7012 10.6293 15.1569C9.9587 15.5782 9.40234 15.9129 9.39292 15.9009C9.3835 15.8888 9.53908 15.2656 9.73861 14.5159C9.95057 13.7197 10.0866 13.0943 10.0656 13.012C10.0435 12.9253 9.59227 12.5142 8.89475 11.9454C8.17321 11.3571 7.79804 11.0143 7.8649 11.0043C7.92271 10.9957 8.58803 10.9507 9.3433 10.9043C10.4299 10.8377 10.7393 10.7998 10.8256 10.7228C10.8855 10.6693 11.1677 10.0378 11.4527 9.31953C11.7376 8.60127 11.9849 8.01359 12.0022 8.01359C12.0194 8.01359 12.2661 8.6006 12.5503 9.31801ZM4.54111 21.093C5.84005 22.1164 7.49034 22.9279 9.02169 23.2964C9.40831 23.3894 9.72463 23.4842 9.72463 23.507C9.72463 23.5519 7.02947 28.1782 6.95904 28.2543C6.93559 28.2796 6.62968 27.4639 6.27925 26.4418C5.72708 24.831 5.62199 24.5742 5.49086 24.5152C5.36699 24.4595 4.99293 24.5154 3.4268 24.8235C2.37479 25.0305 1.5076 25.1935 1.49972 25.1857C1.48771 25.1738 2.23898 23.8778 3.76996 21.2692C3.93169 20.9936 4.07864 20.7681 4.09643 20.7681C4.11429 20.7681 4.31437 20.9143 4.54111 21.093ZM21.3086 23.1012C22.0481 24.3641 22.6531 25.4041 22.6531 25.4122C22.6531 25.4204 21.7892 25.256 20.7335 25.0469C18.8246 24.6687 18.6152 24.6496 18.4946 24.8422C18.4695 24.8823 18.1677 25.7303 17.8241 26.7268L17.1994 28.5383L15.7553 26.0706C14.961 24.7134 14.3036 23.5732 14.2944 23.5368C14.2848 23.4992 14.5753 23.3981 14.9716 23.3012C16.5478 22.9161 18.2752 22.0644 19.4826 21.0773C19.6857 20.9113 19.8772 20.782 19.908 20.7902C19.9388 20.7983 20.5691 21.8383 21.3086 23.1012Z" fill="#161921"/>
</svg>
