<svg width="30" height="30" viewBox="0 0 30 30" fill="none" xmlns="http://www.w3.org/2000/svg">
<path fill-rule="evenodd" clip-rule="evenodd" d="M18.721 0.0222525C15.0484 0.422139 11.9297 2.617 10.3615 5.90537C9.7732 7.13915 9.37516 8.84227 9.37516 10.1262C9.37516 10.4267 9.39778 10.5055 9.51901 10.6267C9.70505 10.8129 9.97869 10.817 10.1592 10.6364C10.2781 10.5174 10.2976 10.4255 10.3297 9.83039C10.5005 6.67268 12.1795 3.88742 14.8958 2.25569C15.9687 1.61119 17.2163 1.18065 18.5043 1.01042C22.4437 0.489784 26.3407 2.58588 28.0945 6.16874C28.4295 6.85316 28.7816 7.92316 28.924 8.68969C29.075 9.50242 29.0753 11.0986 28.9245 11.9136C28.2414 15.6066 25.569 18.481 21.973 19.3902C21.4485 19.5228 21.27 19.594 21.1674 19.7117C21.0121 19.8896 21.0045 19.978 21.1245 20.21C21.2474 20.4478 21.4452 20.4807 22.0316 20.3609C24.4089 19.8754 26.7111 18.3456 28.2164 16.2513C28.6451 15.6549 29.3302 14.3147 29.5634 13.6164C29.9423 12.4816 29.9994 12.053 30 10.3402C30.0006 8.60341 29.9443 8.15716 29.5867 7.06312C29.3385 6.3038 28.6685 4.98221 28.1991 4.32622C26.6473 2.15744 24.2718 0.644299 21.6508 0.155138C21.0213 0.0376689 19.2975 -0.0405266 18.721 0.0222525ZM18.4492 1.97268C18.3175 2.07919 18.3095 2.1272 18.2816 2.97381L18.2523 3.86303L17.9337 3.97517C16.8996 4.33894 16.0179 5.25824 15.6649 6.34043C15.4504 6.99788 15.4388 7.90241 15.6367 8.54315C15.9667 9.61198 16.7265 10.4779 17.7201 10.9175C18.2298 11.143 18.5257 11.1939 19.5518 11.2329C20.3842 11.2645 20.5194 11.2836 20.6615 11.3897C20.9689 11.6194 21.0648 11.8067 21.0648 12.1774C21.0648 12.5481 20.969 12.7353 20.6615 12.9651C20.5076 13.0802 20.4041 13.0874 18.4971 13.1153C16.2337 13.1484 16.2438 13.1465 15.8294 13.6175C15.3176 14.1991 15.3477 14.9323 15.9065 15.4913C16.2885 15.8734 16.4884 15.9289 17.4827 15.9289H18.2816V16.7229C18.2816 17.4878 18.2868 17.5222 18.4254 17.6608C18.568 17.8035 18.5783 17.8047 19.6878 17.8047C20.7974 17.8047 20.8076 17.8035 20.9503 17.6608C21.0898 17.5212 21.0941 17.4915 21.0941 16.6625C21.0941 15.9001 21.1052 15.8045 21.1967 15.7758C23.0982 15.178 24.2182 13.3035 23.8193 11.3861C23.5524 10.1032 22.5039 8.97182 21.2113 8.57199C20.9911 8.50388 20.5702 8.46033 19.8826 8.43447C18.9923 8.401 18.8573 8.38266 18.7142 8.27574C18.4068 8.04608 18.3109 7.85874 18.3109 7.48804C18.3109 7.1174 18.4067 6.93012 18.7142 6.70034C18.8681 6.58528 18.9716 6.57807 20.8785 6.55016C23.143 6.51705 23.1318 6.5191 23.5328 6.06341C24.0585 5.46592 24.0341 4.73924 23.4692 4.17417C23.0872 3.79205 22.8873 3.73654 21.893 3.73654H21.0941V2.94256C21.0941 2.17767 21.0888 2.14326 20.9503 2.00469C20.8077 1.86201 20.7968 1.86078 19.697 1.86078C18.6926 1.86078 18.5744 1.87139 18.4492 1.97268ZM20.1566 3.59263C20.1566 4.35753 20.1619 4.39193 20.3005 4.53051C20.4431 4.67324 20.4533 4.67441 21.5629 4.67441C22.6724 4.67441 22.6827 4.67558 22.8253 4.81832C22.9999 4.99294 23.0131 5.25191 22.8572 5.44458L22.7453 5.58298L20.7332 5.6124C18.7387 5.64154 18.7185 5.64306 18.4281 5.78685C18.0526 5.97272 17.7017 6.32484 17.5214 6.69671C17.3243 7.10328 17.318 7.86044 17.5086 8.25188C17.711 8.66765 17.949 8.91607 18.3501 9.12991C18.7159 9.32499 18.7327 9.32792 19.7168 9.36854C20.8448 9.41514 21.1304 9.48197 21.6571 9.82247C22.1047 10.1119 22.4062 10.4611 22.6529 10.9758C23.4355 12.6087 22.4934 14.5151 20.6982 14.9315C20.2027 15.0464 20.1566 15.1445 20.1566 16.0834V16.8668H19.6878H19.2191V16.0728C19.2191 15.3079 19.2138 15.2735 19.0752 15.135C18.9326 14.9922 18.9224 14.9911 17.8128 14.9911C16.7033 14.9911 16.693 14.9899 16.5504 14.8471C16.3758 14.6725 16.3626 14.4136 16.5185 14.2209L16.6304 14.0825L18.6425 14.0532L20.6547 14.0239L21.0239 13.8236C21.4353 13.6004 21.6129 13.4163 21.8421 12.975C21.9742 12.7206 21.9978 12.6008 21.9989 12.1774C22.0001 11.7208 21.9835 11.6482 21.8003 11.3084C21.5828 10.9048 21.3321 10.6656 20.9202 10.4686C20.6951 10.361 20.5026 10.335 19.6585 10.2987C18.5314 10.2501 18.2438 10.1826 17.7186 9.84299C17.271 9.5536 16.9695 9.20435 16.7228 8.68969C15.9402 7.05679 16.8823 5.15032 18.6775 4.73397C19.173 4.61902 19.2191 4.52101 19.2191 3.58208V2.79866H19.6878H20.1566V3.59263ZM6.70646 5.28726C6.58834 5.40537 6.56261 5.48919 6.56261 5.75619V6.08123H6.23771C5.8467 6.08123 5.6251 6.25086 5.6251 6.55016C5.6251 6.84946 5.8467 7.0191 6.23771 7.0191H6.56261V7.34413C6.56261 7.73529 6.73219 7.95698 7.03137 7.95698C7.33056 7.95698 7.50013 7.73529 7.50013 7.34413V7.0191H7.82504C8.21604 7.0191 8.43765 6.84946 8.43765 6.55016C8.43765 6.25086 8.21604 6.08123 7.82504 6.08123H7.50013V5.75619C7.50013 5.36504 7.33056 5.14335 7.03137 5.14335C6.91723 5.14335 6.79711 5.19652 6.70646 5.28726ZM9.09713 11.3295C8.94607 11.4353 8.91953 11.519 7.82275 15.3428C7.14505 17.7054 6.99206 18.1759 6.81246 18.4495C6.5789 18.8053 6.08888 19.2997 5.80686 19.464L5.6251 19.5698V19.3001C5.6251 19.0918 5.59228 18.9975 5.48125 18.8865L5.33746 18.7426H2.81255H0.287642L0.14385 18.8865L0 19.0303V24.3698V29.7093L0.14385 29.8532L0.287642 29.9971H2.81255H5.33746L5.48125 29.8532C5.5866 29.7478 5.6251 29.6458 5.6251 29.4722C5.6251 29.3417 5.64156 29.235 5.66166 29.235C5.68176 29.235 6.28822 29.4071 7.00934 29.6175L8.32046 30L12.5832 29.9839L16.846 29.9678L17.1802 29.8036C17.5995 29.5976 18.0062 29.1544 18.1368 28.7609C18.3177 28.2162 18.2257 27.4484 17.934 27.0689L17.8235 26.925L18.0901 26.6902C18.4871 26.3407 18.6916 25.868 18.6917 25.3001C18.6917 24.9118 18.6665 24.8028 18.5006 24.4729L18.3094 24.0929L18.5667 23.869C18.9537 23.5322 19.1604 23.051 19.1604 22.4864C19.1605 22.0985 19.1352 21.989 18.9699 21.6605L18.7794 21.2818L19.0544 21.0362C19.2093 20.8979 19.4011 20.6444 19.494 20.4554C19.6335 20.1711 19.6583 20.0488 19.6566 19.6511C19.6549 19.2317 19.6337 19.143 19.4557 18.8114C19.2409 18.4114 18.9948 18.1748 18.5764 17.9663C18.3117 17.8344 18.3011 17.8339 15.0395 17.817L11.7681 17.8L11.8027 17.5825C12.0071 16.301 12.1943 14.4958 12.1633 14.1055C12.05 12.6826 11.2466 11.6573 9.98795 11.3293C9.55036 11.2153 9.26003 11.2153 9.09713 11.3295ZM10.0954 12.3537C10.501 12.5444 10.7638 12.8013 10.9589 13.1978C11.292 13.8746 11.297 14.1169 11.0229 16.2901C10.8901 17.3431 10.7814 18.2568 10.7814 18.3206C10.7814 18.3843 10.8318 18.4988 10.8934 18.5749L11.0054 18.7132L14.5807 18.7426C18.0768 18.7712 18.1595 18.7746 18.3177 18.8927C18.6251 19.1225 18.721 19.3097 18.721 19.6804C18.721 20.051 18.6252 20.2383 18.3178 20.4681C18.1674 20.5806 18.0542 20.5911 16.6901 20.6183C15.2364 20.6474 15.2231 20.6488 15.1121 20.786C14.9693 20.9627 14.9693 21.2118 15.1121 21.3885C15.2217 21.5241 15.2485 21.5275 16.4557 21.5562C17.8036 21.5882 17.8392 21.5975 18.1314 21.9891C18.3008 22.216 18.3008 22.7721 18.1314 22.999C17.8326 23.3995 17.8316 23.3998 16.2213 23.4319C14.7676 23.461 14.7543 23.4624 14.6434 23.5996C14.5005 23.7764 14.5005 24.0254 14.6434 24.2021C14.753 24.3377 14.7798 24.3411 15.9869 24.3698C17.3349 24.4019 17.3704 24.4111 17.6627 24.8027C17.8321 25.0297 17.8321 25.5857 17.6627 25.8127C17.3638 26.2132 17.3629 26.2134 15.7526 26.2456C14.2989 26.2746 14.2856 26.276 14.1746 26.4133C14.0317 26.59 14.0317 26.839 14.1746 27.0157C14.2842 27.1514 14.311 27.1547 15.5182 27.1834C16.6451 27.2102 16.7637 27.2231 16.9116 27.3336C17.2189 27.5635 17.3148 27.7507 17.3148 28.1213C17.3148 28.492 17.2188 28.6794 16.9113 28.909C16.752 29.0281 16.6869 29.0301 12.6232 29.0457L8.49683 29.0615L7.45648 28.7636C6.8843 28.5999 6.23817 28.4136 6.02061 28.3497L5.6251 28.2336L5.62668 24.4113L5.62826 20.589L6.09163 20.3697C6.66662 20.0974 7.14874 19.661 7.58509 19.0176L7.91082 18.5374L8.78916 15.46C9.27227 13.7674 9.68003 12.3496 9.69527 12.3093C9.73335 12.2089 9.80425 12.2168 10.0954 12.3537ZM4.68758 24.3698V29.0592H2.81255H0.937516V24.3698V19.6804H2.81255H4.68758V24.3698ZM24.0505 22.638C23.9324 22.7561 23.9067 22.8399 23.9067 23.1069V23.4319H23.5818C23.1908 23.4319 22.9692 23.6016 22.9692 23.9009C22.9692 24.2002 23.1908 24.3698 23.5818 24.3698H23.9067V24.6948C23.9067 25.086 24.0762 25.3077 24.3754 25.3077C24.6746 25.3077 24.8442 25.086 24.8442 24.6948V24.3698H25.1691C25.5601 24.3698 25.7817 24.2002 25.7817 23.9009C25.7817 23.6016 25.5601 23.4319 25.1691 23.4319H24.8442V23.1069C24.8442 22.7157 24.6746 22.4941 24.3754 22.4941C24.2613 22.4941 24.1412 22.5472 24.0505 22.638Z" fill="#161921"/>
</svg>
