<svg width="140" height="140" viewBox="0 0 140 140" fill="none" xmlns="http://www.w3.org/2000/svg">
<circle cx="70" cy="70" r="70" fill="white"/>
<circle cx="70" cy="70" r="61.5" fill="white" stroke="#F41E1E"/>
<path d="M66.3263 74.3935C58.912 69.2728 50.7355 65.1909 44.3299 58.6131L43.8375 58.5967C43.3726 60.7025 43.1446 63.0241 44.0364 65.0471C44.7859 66.8926 46.229 68.3066 47.7711 69.4362C51.9171 72.4097 56.2911 75.0158 60.4318 77.99C61.3661 78.6349 61.9859 79.7433 62.0731 80.9143C62.3025 85.9913 62.1461 91.0807 62.2221 96.1616C62.2176 97.2044 62.6169 98.2174 63.3463 98.9288C65.0583 100.708 66.9127 102.325 68.7111 104C68.7566 95.6223 68.6128 87.2396 68.8117 78.8608C68.9927 76.9621 67.8126 75.3151 66.3263 74.3935Z" fill="#1D2229"/>
<path d="M75.443 67.5259C75.4438 67.4821 75.446 67.4391 75.446 67.3946C75.446 67.2382 75.4386 67.0834 75.4274 66.9302C75.3879 65.8765 75.0385 64.8987 74.4812 64.0685C73.4859 62.5153 71.8126 61.482 69.9061 61.4304C69.8674 61.4288 69.8279 61.428 69.7892 61.4272C69.778 61.4272 69.7668 61.4265 69.7556 61.4265C69.7526 61.4265 69.7504 61.4265 69.7474 61.4265C69.3951 61.4233 69.0412 61.4577 68.691 61.5328C66.3919 61.9901 64.583 63.8981 64.1621 66.3158C64.1569 66.3432 64.1532 66.3713 64.148 66.3987C64.1427 66.4315 64.136 66.4644 64.1315 66.4972C64.0466 67.0365 64.0325 67.5884 64.101 68.1364C64.3655 71.0989 67.0401 73.5557 69.883 73.3775C72.8623 73.4533 75.5108 70.6369 75.443 67.5259Z" fill="#F41E1E"/>
<path d="M95.6269 58.593C88.6797 63.9975 81.3809 68.8861 74.0038 73.6168C72.9548 74.3078 71.8157 74.8964 70.9515 75.8477C70.1476 76.7583 70.0806 78.0778 70.0888 79.2534C70.0984 79.5106 70.1074 79.7678 70.1156 80.0249C70.3525 87.4907 70.0247 94.9667 70.2698 102.43C70.2869 102.95 70.3063 103.47 70.3286 103.989C71.5505 102.858 72.6605 101.554 73.9494 100.507C74.8136 99.7622 75.7985 99.0212 76.1934 97.8753C76.5957 96.8286 76.4921 95.6827 76.5115 94.586C76.4713 90.2993 76.5614 86.0134 76.4265 81.7306C76.4146 80.0672 77.3682 78.5319 78.713 77.7002C82.5453 75.2919 86.3851 72.8828 90.0491 70.1969C92.5441 68.4546 95.0801 66.348 96.1559 63.3057C96.7497 61.7932 96.6245 60.1446 96.3131 58.582L95.6269 58.593Z" fill="#1D2229"/>
<path d="M99.8107 44C98.9688 44 98.2864 44.7168 98.2871 45.5993L98.2893 55.0818L41.7118 55.0951L41.7096 45.6126C41.7096 44.7293 41.0264 44.0133 40.1853 44.0141C39.3434 44.0141 38.661 44.7309 38.6618 45.6134L38.664 55.0959L38.6647 58.2937L38.667 67.7762C38.667 68.6595 39.3501 69.3755 40.1913 69.3747C41.0331 69.3747 41.7155 68.6579 41.7148 67.7754L41.7126 58.2929L98.2901 58.2796L98.2923 67.7621C98.2923 68.6454 98.9755 69.3615 99.8166 69.3607C100.658 69.3607 101.341 68.6439 101.34 67.7614L101.338 58.2789L101.337 55.081L101.335 45.5985C101.335 44.7152 100.652 44 99.8107 44Z" fill="#F41E1E"/>
<path d="M104.142 46.1484C103.3 46.1484 102.617 46.8652 102.618 47.7478L102.62 55.0799L102.62 58.2777L102.622 65.6098C102.622 66.4931 103.305 67.2091 104.146 67.2083C104.988 67.2083 105.67 66.4915 105.67 65.609L105.668 58.2769L105.667 55.0791L105.666 47.747C105.666 46.8637 104.983 46.1484 104.142 46.1484Z" fill="#F41E1E"/>
<path d="M108.474 49.9307C107.632 49.9307 106.949 50.6475 106.95 51.53L106.951 55.0796L106.952 58.2774L106.952 61.827C106.952 62.7103 107.636 63.4263 108.477 63.4255C109.319 63.4255 110.001 62.7087 110 61.8262L109.998 51.5292C109.998 50.6467 109.316 49.9307 108.474 49.9307Z" fill="#F41E1E"/>
<path d="M35.8542 46.1646C35.0116 46.1646 34.3299 46.8813 34.3306 47.7639L34.3321 55.096L34.3329 58.2938L34.3344 65.6259C34.3344 66.5092 35.0168 67.2252 35.8587 67.2244C36.7005 67.2244 37.383 66.5076 37.3822 65.6251L37.3807 58.293L37.38 55.0952L37.3785 47.7631C37.3785 46.8806 36.6961 46.1646 35.8542 46.1646Z" fill="#F41E1E"/>
<path d="M31.5235 49.9487C30.6817 49.9487 29.9993 50.6655 30 51.548L30.0022 61.845C30.0022 62.7283 30.6854 63.4443 31.5265 63.4436C32.3684 63.4436 33.0508 62.7268 33.0501 61.8443L33.0493 58.2908L33.0486 55.1L33.0478 51.5465C33.0478 50.6647 32.3654 49.9487 31.5235 49.9487Z" fill="#F41E1E"/>
</svg>
