<svg width="246" height="198" viewBox="0 0 246 198" fill="none" xmlns="http://www.w3.org/2000/svg">
<g opacity="0.3">
<line x1="-104.398" y1="197.697" x2="45.6022" y2="0.697104" stroke="white"/>
<line x1="-96.3978" y1="197.697" x2="53.6022" y2="0.697104" stroke="white"/>
<line x1="-88.3978" y1="197.697" x2="61.6022" y2="0.697104" stroke="white"/>
<line x1="-80.3978" y1="197.697" x2="69.6022" y2="0.697104" stroke="white"/>
<line x1="-72.3978" y1="197.697" x2="77.6022" y2="0.697104" stroke="white"/>
<line x1="-64.3978" y1="197.697" x2="85.6022" y2="0.697104" stroke="white"/>
<line x1="-56.3978" y1="197.697" x2="93.6022" y2="0.697104" stroke="white"/>
<line x1="-48.3978" y1="197.697" x2="101.602" y2="0.697104" stroke="white"/>
<line x1="-40.3978" y1="197.697" x2="109.602" y2="0.697104" stroke="white"/>
<line x1="-32.3978" y1="197.697" x2="117.602" y2="0.697104" stroke="white"/>
<line x1="-24.3978" y1="197.697" x2="125.602" y2="0.697104" stroke="white"/>
<line x1="-16.3978" y1="197.697" x2="133.602" y2="0.697104" stroke="white"/>
<line x1="-8.39781" y1="197.697" x2="141.602" y2="0.697104" stroke="white"/>
<line x1="-0.397809" y1="197.697" x2="149.602" y2="0.697104" stroke="white"/>
<line x1="7.60219" y1="197.697" x2="157.602" y2="0.697104" stroke="white"/>
<line x1="15.6022" y1="197.697" x2="165.602" y2="0.697104" stroke="white"/>
<line x1="23.6022" y1="197.697" x2="173.602" y2="0.697104" stroke="white"/>
<line x1="31.6022" y1="197.697" x2="181.602" y2="0.697104" stroke="white"/>
<line x1="39.6022" y1="197.697" x2="189.602" y2="0.697104" stroke="white"/>
<line x1="47.6022" y1="197.697" x2="197.602" y2="0.697104" stroke="white"/>
<line x1="55.6022" y1="197.697" x2="205.602" y2="0.697104" stroke="white"/>
<line x1="63.6022" y1="197.697" x2="213.602" y2="0.697104" stroke="white"/>
<line x1="71.6022" y1="197.697" x2="221.602" y2="0.697104" stroke="white"/>
<line x1="79.6022" y1="197.697" x2="229.602" y2="0.697104" stroke="white"/>
<line x1="87.6022" y1="197.697" x2="237.602" y2="0.697104" stroke="white"/>
<line x1="95.6022" y1="197.697" x2="245.602" y2="0.697104" stroke="white"/>
<line x1="103.602" y1="197.697" x2="253.602" y2="0.697104" stroke="white"/>
<line x1="111.602" y1="197.697" x2="261.602" y2="0.697104" stroke="white"/>
<line x1="119.602" y1="197.697" x2="269.602" y2="0.697104" stroke="white"/>
<line x1="127.602" y1="197.697" x2="277.602" y2="0.697104" stroke="white"/>
<line x1="135.602" y1="197.697" x2="285.602" y2="0.697104" stroke="white"/>
<line x1="143.602" y1="197.697" x2="293.602" y2="0.697104" stroke="white"/>
<line x1="151.602" y1="197.697" x2="301.602" y2="0.697104" stroke="white"/>
<line x1="159.602" y1="197.697" x2="309.602" y2="0.697104" stroke="white"/>
<line x1="167.602" y1="197.697" x2="317.602" y2="0.697104" stroke="white"/>
<line x1="175.602" y1="197.697" x2="325.602" y2="0.697104" stroke="white"/>
<line x1="183.602" y1="197.697" x2="333.602" y2="0.697104" stroke="white"/>
<line x1="191.602" y1="197.697" x2="341.602" y2="0.697104" stroke="white"/>
<line x1="199.602" y1="197.697" x2="349.602" y2="0.697104" stroke="white"/>
</g>
</svg>
